<?xml version="1.0" encoding="UTF-8" standalone="no"?>
<!-- Created with Inkscape (http://www.inkscape.org/) -->

<svg
   xmlns:dc="http://purl.org/dc/elements/1.1/"
   xmlns:cc="http://creativecommons.org/ns#"
   xmlns:rdf="http://www.w3.org/1999/02/22-rdf-syntax-ns#"
   xmlns:svg="http://www.w3.org/2000/svg"
   xmlns="http://www.w3.org/2000/svg"
   xmlns:sodipodi="http://sodipodi.sourceforge.net/DTD/sodipodi-0.dtd"
   xmlns:inkscape="http://www.inkscape.org/namespaces/inkscape"
   width="460.6774mm"
   height="148.16666mm"
   viewBox="0 0 460.6774 148.16666"
   version="1.1"
   id="svg8"
   inkscape:version="0.92.3 (2405546, 2018-03-11)"
   sodipodi:docname="decisiones-colectivas-logo.svg">
  <defs
     id="defs2" />
  <sodipodi:namedview
     id="base"
     pagecolor="#ffffff"
     bordercolor="#666666"
     borderopacity="1.0"
     inkscape:pageopacity="0.0"
     inkscape:pageshadow="2"
     inkscape:zoom="0.35"
     inkscape:cx="400.14552"
     inkscape:cy="179.93861"
     inkscape:document-units="mm"
     inkscape:current-layer="layer1"
     showgrid="false"
     fit-margin-top="0"
     fit-margin-left="0"
     fit-margin-right="0"
     fit-margin-bottom="0"
     inkscape:window-width="1920"
     inkscape:window-height="1052"
     inkscape:window-x="0"
     inkscape:window-y="0"
     inkscape:window-maximized="1" />
  <metadata
     id="metadata5">
    <rdf:RDF>
      <cc:Work
         rdf:about="">
        <dc:format>image/svg+xml</dc:format>
        <dc:type
           rdf:resource="http://purl.org/dc/dcmitype/StillImage" />
        <dc:title />
      </cc:Work>
    </rdf:RDF>
  </metadata>
  <g
     inkscape:label="Layer 1"
     inkscape:groupmode="layer"
     id="layer1"
     transform="translate(96.761909,-77.622589)">
    <rect
       style="opacity:1;fill:#7b0064;fill-opacity:0.43921569;fill-rule:nonzero;stroke:none;stroke-width:0.21384807;stroke-miterlimit:4;stroke-dasharray:none;stroke-dashoffset:0;stroke-opacity:1"
       id="rect815"
       width="401.41074"
       height="74.083328"
       x="-96.761909"
       y="77.622589" />
    <g
       aria-label="DECISIONES"
       style="font-style:normal;font-variant:normal;font-weight:900;font-stretch:normal;font-size:40.1127243px;line-height:1.25;font-family:Montserrat;-inkscape-font-specification:'Montserrat Heavy';letter-spacing:0px;word-spacing:0px;fill:#000000;fill-opacity:1;stroke:none;stroke-width:0.53722394"
       id="text819">
      <path
         d="m -62.142953,96.613533 h 17.070828 q 5.930952,0 10.520994,2.21766 4.590041,2.217657 7.117142,6.291967 2.527102,4.07431 2.527102,9.5411 0,5.46679 -2.527102,9.54109 -2.527101,4.07431 -7.117142,6.29197 -4.590042,2.21766 -10.520994,2.21766 h -17.070828 z m 16.65824,27.952837 q 4.641615,0 7.426584,-2.63025 2.836542,-2.63025 2.836542,-7.27186 0,-4.64162 -2.836542,-7.27187 -2.784969,-2.63024 -7.426584,-2.63024 H -51.9314 v 19.80422 z"
         style="font-style:normal;font-variant:normal;font-weight:800;font-stretch:normal;font-size:51.57349777px;font-family:Montserrat;-inkscape-font-specification:'Montserrat Ultra-Bold';fill:#ffffff;stroke-width:0.53722394"
         id="path818" />
      <path
         d="m 9.449927,124.82424 v 7.89074 H -19.534379 V 96.613533 H 8.7794715 v 7.890747 H -9.4259732 v 6.08567 H 6.6133846 v 7.63288 H -9.4259732 v 6.60141 z"
         style="font-style:normal;font-variant:normal;font-weight:800;font-stretch:normal;font-size:51.57349777px;font-family:Montserrat;-inkscape-font-specification:'Montserrat Ultra-Bold';fill:#ffffff;stroke-width:0.53722394"
         id="path820" />
      <path
         d="m 33.014981,133.43701 q -5.673085,0 -10.211553,-2.37238 -4.486894,-2.42396 -7.065569,-6.70456 -2.578675,-4.2806 -2.578675,-9.69581 0,-5.41522 2.578675,-9.69582 2.578675,-4.2806 7.065569,-6.652982 4.538468,-2.423954 10.211553,-2.423954 4.951056,0 8.922215,1.753499 3.971159,1.753499 6.601408,5.054207 l -6.498261,5.87937 q -3.506998,-4.22902 -8.509627,-4.22902 -2.939689,0 -5.260497,1.28933 -2.269234,1.28934 -3.558571,3.66172 -1.237764,2.32081 -1.237764,5.36365 0,3.04283 1.237764,5.41521 1.289337,2.32081 3.558571,3.61015 2.320808,1.28934 5.260497,1.28934 5.002629,0 8.509627,-4.22903 l 6.498261,5.87938 q -2.630249,3.3007 -6.601408,5.0542 -3.971159,1.7535 -8.922215,1.7535 z"
         style="font-style:normal;font-variant:normal;font-weight:800;font-stretch:normal;font-size:51.57349777px;font-family:Montserrat;-inkscape-font-specification:'Montserrat Ultra-Bold';fill:#ffffff;stroke-width:0.53722394"
         id="path822" />
      <path
         d="M 53.091575,96.613533 H 63.303127 V 132.71498 H 53.091575 Z"
         style="font-style:normal;font-variant:normal;font-weight:800;font-stretch:normal;font-size:51.57349777px;font-family:Montserrat;-inkscape-font-specification:'Montserrat Ultra-Bold';fill:#ffffff;stroke-width:0.53722394"
         id="path824" />
      <path
         d="m 83.305587,133.43701 q -4.383747,0 -8.509627,-1.08304 -4.12588,-1.08305 -6.704555,-2.88812 l 3.352278,-7.52973 q 2.423954,1.59878 5.621511,2.57867 3.197557,0.9799 6.291967,0.9799 5.879378,0 5.879378,-2.93969 0,-1.5472 -1.701925,-2.26923 -1.650352,-0.7736 -5.363644,-1.59878 -4.074306,-0.87675 -6.807702,-1.85665 -2.733395,-1.03147 -4.693188,-3.24913 -1.959793,-2.21766 -1.959793,-5.98252 0,-3.30071 1.805073,-5.93095 1.805072,-2.681826 5.363643,-4.229031 3.610145,-1.547205 8.819069,-1.547205 3.558571,0 7.013995,0.825176 3.455425,0.773602 6.085673,2.320807 l -3.145983,7.581303 q -5.15735,-2.78497 -10.005259,-2.78497 -3.042836,0 -4.435321,0.92833 -1.392484,0.87674 -1.392484,2.3208 0,1.44406 1.650352,2.16609 1.650352,0.72203 5.31207,1.49563 4.12588,0.87675 6.807702,1.90822 2.733395,0.9799 4.693188,3.19756 2.011366,2.16608 2.011366,5.93095 0,3.24913 -1.805072,5.87938 -1.805072,2.63025 -5.415217,4.22903 -3.610145,1.5472 -8.767495,1.5472 z"
         style="font-style:normal;font-variant:normal;font-weight:800;font-stretch:normal;font-size:51.57349777px;font-family:Montserrat;-inkscape-font-specification:'Montserrat Ultra-Bold';fill:#ffffff;stroke-width:0.53722394"
         id="path826" />
      <path
         d="m 103.95997,96.613533 h 10.21155 v 36.101447 h -10.21155 z"
         style="font-style:normal;font-variant:normal;font-weight:800;font-stretch:normal;font-size:51.57349777px;font-family:Montserrat;-inkscape-font-specification:'Montserrat Ultra-Bold';fill:#ffffff;stroke-width:0.53722394"
         id="path828" />
      <path
         d="m 139.69234,133.43701 q -5.72465,0 -10.3147,-2.42395 -4.53846,-2.42396 -7.16871,-6.70456 -2.57868,-4.2806 -2.57868,-9.64424 0,-5.36365 2.57868,-9.64425 2.63025,-4.2806 7.16871,-6.704552 4.59005,-2.423954 10.3147,-2.423954 5.72466,0 10.26313,2.423954 4.59004,2.423952 7.16872,6.704552 2.63024,4.2806 2.63024,9.64425 0,5.36364 -2.63024,9.64424 -2.57868,4.2806 -7.16872,6.70456 -4.53847,2.42395 -10.26313,2.42395 z m 0,-8.45805 q 2.7334,0 4.95106,-1.28934 2.21766,-1.28934 3.507,-3.61015 1.28934,-2.37238 1.28934,-5.41521 0,-3.04284 -1.28934,-5.36365 -1.28934,-2.37238 -3.507,-3.66172 -2.21766,-1.28933 -4.95106,-1.28933 -2.73339,0 -4.95105,1.28933 -2.21766,1.28934 -3.507,3.66172 -1.28934,2.32081 -1.28934,5.36365 0,3.04283 1.28934,5.41521 1.28934,2.32081 3.507,3.61015 2.21766,1.28934 4.95105,1.28934 z"
         style="font-style:normal;font-variant:normal;font-weight:800;font-stretch:normal;font-size:51.57349777px;font-family:Montserrat;-inkscape-font-specification:'Montserrat Ultra-Bold';fill:#ffffff;stroke-width:0.53722394"
         id="path830" />
      <path
         d="m 199.45072,96.613533 v 36.101447 h -8.40648 l -15.93621,-19.23691 v 19.23691 H 165.10277 V 96.613533 h 8.40648 l 15.93622,19.236917 V 96.613533 Z"
         style="font-style:normal;font-variant:normal;font-weight:800;font-stretch:normal;font-size:51.57349777px;font-family:Montserrat;-inkscape-font-specification:'Montserrat Ultra-Bold';fill:#ffffff;stroke-width:0.53722394"
         id="path832" />
      <path
         d="m 235.68837,124.82424 v 7.89074 H 206.70406 V 96.613533 h 28.31385 v 7.890747 h -18.20544 v 6.08567 h 16.03936 v 7.63288 h -16.03936 v 6.60141 z"
         style="font-style:normal;font-variant:normal;font-weight:800;font-stretch:normal;font-size:51.57349777px;font-family:Montserrat;-inkscape-font-specification:'Montserrat Ultra-Bold';fill:#ffffff;stroke-width:0.53722394"
         id="path834" />
      <path
         d="m 254.04208,133.43701 q -4.38374,0 -8.50962,-1.08304 -4.12588,-1.08305 -6.70456,-2.88812 l 3.35228,-7.52973 q 2.42395,1.59878 5.62151,2.57867 3.19756,0.9799 6.29197,0.9799 5.87938,0 5.87938,-2.93969 0,-1.5472 -1.70193,-2.26923 -1.65035,-0.7736 -5.36364,-1.59878 -4.07431,-0.87675 -6.80771,-1.85665 -2.73339,-1.03147 -4.69318,-3.24913 -1.9598,-2.21766 -1.9598,-5.98252 0,-3.30071 1.80508,-5.93095 1.80507,-2.681826 5.36364,-4.229031 3.61014,-1.547205 8.81907,-1.547205 3.55857,0 7.01399,0.825176 3.45543,0.773602 6.08568,2.320807 l -3.14599,7.581303 q -5.15735,-2.78497 -10.00526,-2.78497 -3.04283,0 -4.43532,0.92833 -1.39248,0.87674 -1.39248,2.3208 0,1.44406 1.65035,2.16609 1.65035,0.72203 5.31207,1.49563 4.12588,0.87675 6.8077,1.90822 2.7334,0.9799 4.69319,3.19756 2.01137,2.16608 2.01137,5.93095 0,3.24913 -1.80508,5.87938 -1.80507,2.63025 -5.41521,4.22903 -3.61015,1.5472 -8.7675,1.5472 z"
         style="font-style:normal;font-variant:normal;font-weight:800;font-stretch:normal;font-size:51.57349777px;font-family:Montserrat;-inkscape-font-specification:'Montserrat Ultra-Bold';fill:#ffffff;stroke-width:0.53722394"
         id="path836" />
    </g>
    <rect
       style="opacity:1;fill:#000000;fill-opacity:0.3857143;fill-rule:nonzero;stroke:none;stroke-width:0.21384808;stroke-miterlimit:4;stroke-dasharray:none;stroke-dashoffset:0;stroke-opacity:1"
       id="rect815-3"
       width="401.41074"
       height="74.083328"
       x="-37.495243"
       y="151.70592" />
    <g
       aria-label="COLECTIVAS"
       style="font-style:normal;font-variant:normal;font-weight:900;font-stretch:normal;font-size:40.1127243px;line-height:1.25;font-family:Montserrat;-inkscape-font-specification:'Montserrat Heavy';letter-spacing:0px;word-spacing:0px;fill:#000000;fill-opacity:1;stroke:none;stroke-width:0.53722394"
       id="text819-6">
      <path
         d="m 20.355167,207.10775 q -5.363644,0 -9.695818,-2.37238 -4.2806004,-2.37238 -6.7561283,-6.54983 -2.4239544,-4.22903 -2.4239544,-9.43795 0,-5.20893 2.4239544,-9.38638 2.4755279,-4.22903 6.8077013,-6.60141 4.332174,-2.37238 9.695818,-2.37238 4.022733,0 7.426584,1.34091 3.403851,1.34091 5.776231,3.91959 l -2.423954,2.42395 q -4.229027,-4.2806 -10.675714,-4.2806 -4.2806,0 -7.787598,1.95979 -3.506998,1.9598 -5.5183644,5.36365 -1.9597929,3.40385 -1.9597929,7.63288 0,4.22902 1.9597929,7.63287 2.0113664,3.40385 5.5183644,5.36365 3.506998,1.95979 7.787598,1.95979 6.498261,0 10.675714,-4.33217 l 2.423954,2.42395 q -2.37238,2.57867 -5.827805,3.97116 -3.403851,1.34091 -7.426583,1.34091 z"
         style="font-style:normal;font-variant:normal;font-weight:normal;font-stretch:normal;font-size:51.57349777px;font-family:Montserrat;-inkscape-font-specification:Montserrat;fill:#ffffff;stroke-width:0.53722394"
         id="path839" />
      <path
         d="m 56.720929,207.10775 q -5.363644,0 -9.747391,-2.37238 -4.332174,-2.42395 -6.807702,-6.60141 -2.423954,-4.17745 -2.423954,-9.38637 0,-5.20893 2.423954,-9.38638 2.475528,-4.17745 6.807702,-6.54984 4.383747,-2.42395 9.747391,-2.42395 5.363643,0 9.644244,2.37238 4.332174,2.37238 6.807702,6.60141 2.475527,4.17745 2.475527,9.38638 0,5.20892 -2.475527,9.43795 -2.475528,4.17745 -6.807702,6.54983 -4.280601,2.37238 -9.644244,2.37238 z m 0,-3.40385 q 4.2806,0 7.736024,-1.90822 3.455425,-1.95979 5.415218,-5.36364 1.959793,-3.45543 1.959793,-7.68445 0,-4.22903 -1.959793,-7.63288 -1.959793,-3.45543 -5.415218,-5.36365 -3.455424,-1.95979 -7.736024,-1.95979 -4.280601,0 -7.787598,1.95979 -3.455425,1.90822 -5.466791,5.36365 -1.959793,3.40385 -1.959793,7.63288 0,4.22902 1.959793,7.68445 2.011366,3.40385 5.466791,5.36364 3.506997,1.90822 7.787598,1.90822 z"
         style="font-style:normal;font-variant:normal;font-weight:normal;font-stretch:normal;font-size:51.57349777px;font-family:Montserrat;-inkscape-font-specification:Montserrat;fill:#ffffff;stroke-width:0.53722394"
         id="path841" />
      <path
         d="m 84.253117,170.69686 h 3.816439 v 32.80075 h 20.216814 v 3.3007 H 84.253117 Z"
         style="font-style:normal;font-variant:normal;font-weight:normal;font-stretch:normal;font-size:51.57349777px;font-family:Montserrat;-inkscape-font-specification:Montserrat;fill:#ffffff;stroke-width:0.53722394"
         id="path843" />
      <path
         d="m 140.2023,203.49761 v 3.3007 h -25.52888 v -36.10145 h 24.75528 v 3.3007 h -20.93884 v 12.84181 h 18.66961 v 3.24913 h -18.66961 v 13.40911 z"
         style="font-style:normal;font-variant:normal;font-weight:normal;font-stretch:normal;font-size:51.57349777px;font-family:Montserrat;-inkscape-font-specification:Montserrat;fill:#ffffff;stroke-width:0.53722394"
         id="path845" />
      <path
         d="m 164.70052,207.10775 q -5.36365,0 -9.69582,-2.37238 -4.2806,-2.37238 -6.75613,-6.54983 -2.42395,-4.22903 -2.42395,-9.43795 0,-5.20893 2.42395,-9.38638 2.47553,-4.22903 6.8077,-6.60141 4.33218,-2.37238 9.69582,-2.37238 4.02274,0 7.42659,1.34091 3.40385,1.34091 5.77623,3.91959 l -2.42396,2.42395 q -4.22902,-4.2806 -10.67571,-4.2806 -4.2806,0 -7.7876,1.95979 -3.507,1.9598 -5.51836,5.36365 -1.9598,3.40385 -1.9598,7.63288 0,4.22902 1.9598,7.63287 2.01136,3.40385 5.51836,5.36365 3.507,1.95979 7.7876,1.95979 6.49826,0 10.67571,-4.33217 l 2.42396,2.42395 q -2.37238,2.57867 -5.82781,3.97116 -3.40385,1.34091 -7.42658,1.34091 z"
         style="font-style:normal;font-variant:normal;font-weight:normal;font-stretch:normal;font-size:51.57349777px;font-family:Montserrat;-inkscape-font-specification:Montserrat;fill:#ffffff;stroke-width:0.53722394"
         id="path847" />
      <path
         d="m 192.60098,173.99756 h -12.68709 v -3.3007 h 29.1906 v 3.3007 h -12.68708 v 32.80075 h -3.81643 z"
         style="font-style:normal;font-variant:normal;font-weight:normal;font-stretch:normal;font-size:51.57349777px;font-family:Montserrat;-inkscape-font-specification:Montserrat;fill:#ffffff;stroke-width:0.53722394"
         id="path849" />
      <path
         d="m 215.20145,170.69686 h 3.81644 v 36.10145 h -3.81644 z"
         style="font-style:normal;font-variant:normal;font-weight:normal;font-stretch:normal;font-size:51.57349777px;font-family:Montserrat;-inkscape-font-specification:Montserrat;fill:#ffffff;stroke-width:0.53722394"
         id="path851" />
      <path
         d="m 260.42739,170.69686 -15.98779,36.10145 h -3.76486 l -15.98779,-36.10145 h 4.12588 l 13.8217,31.35669 13.92484,-31.35669 z"
         style="font-style:normal;font-variant:normal;font-weight:normal;font-stretch:normal;font-size:51.57349777px;font-family:Montserrat;-inkscape-font-specification:Montserrat;fill:#ffffff;stroke-width:0.53722394"
         id="path853" />
      <path
         d="M 287.19967,197.15407 H 267.086 l -4.33217,9.64424 h -3.97116 l 16.50352,-36.10145 h 3.76487 l 16.50352,36.10145 h -4.02274 z m -1.39249,-3.09441 -8.66434,-19.39164 -8.66435,19.39164 z"
         style="font-style:normal;font-variant:normal;font-weight:normal;font-stretch:normal;font-size:51.57349777px;font-family:Montserrat;-inkscape-font-specification:Montserrat;fill:#ffffff;stroke-width:0.53722394"
         id="path855" />
      <path
         d="m 311.4803,207.10775 q -4.02273,0 -7.73602,-1.28934 -3.66172,-1.28933 -5.67309,-3.40385 l 1.49563,-2.93969 q 1.9598,1.9598 5.20893,3.19756 3.24913,1.18619 6.70455,1.18619 4.84791,0 7.27186,-1.7535 2.42396,-1.80507 2.42396,-4.64161 0,-2.16609 -1.34091,-3.45543 -1.28934,-1.28934 -3.19756,-1.95979 -1.90822,-0.72203 -5.31207,-1.54721 -4.07431,-1.03147 -6.49826,-1.95979 -2.42395,-0.9799 -4.17745,-2.93969 -1.70193,-1.95979 -1.70193,-5.31207 0,-2.73339 1.44406,-4.95105 1.44406,-2.26924 4.43532,-3.61015 2.99126,-1.34091 7.42658,-1.34091 3.09441,0 6.0341,0.87675 2.99127,0.82518 5.15735,2.32081 l -1.28934,3.04283 q -2.26923,-1.49563 -4.8479,-2.21766 -2.57868,-0.7736 -5.05421,-0.7736 -4.74476,0 -7.16871,1.85665 -2.37238,1.80507 -2.37238,4.69318 0,2.16609 1.28933,3.507 1.34091,1.28934 3.30071,2.01137 2.01136,0.67045 5.36364,1.49563 3.97116,0.9799 6.39511,1.95979 2.47553,0.92833 4.17746,2.88812 1.70192,1.90822 1.70192,5.20892 0,2.7334 -1.49563,5.00263 -1.44406,2.21766 -4.48689,3.55857 -3.04284,1.28934 -7.47816,1.28934 z"
         style="font-style:normal;font-variant:normal;font-weight:normal;font-stretch:normal;font-size:51.57349777px;font-family:Montserrat;-inkscape-font-specification:Montserrat;fill:#ffffff;stroke-width:0.53722394"
         id="path857" />
    </g>
  </g>
</svg>
