<svg xmlns="http://www.w3.org/2000/svg" xmlns:xlink="http://www.w3.org/1999/xlink" viewBox="0 0 273.57 293.43"><defs><style>.cls-1,.cls-3{fill:#fbfbfa;}.cls-1,.cls-10{stroke:#f0047f;stroke-width:4px;}.cls-1,.cls-10,.cls-2,.cls-7,.cls-8,.cls-9{stroke-miterlimit:10;}.cls-10,.cls-2{fill:none;}.cls-2{stroke:#eec414;stroke-width:3px;}.cls-4{clip-path:url(#clip-path);}.cls-5,.cls-6{fill:#ce187d;}.cls-6{fill-rule:evenodd;}.cls-7{fill:#f9f9f9;}.cls-7,.cls-8,.cls-9{stroke:#fd1a16;stroke-width:2px;}.cls-8{fill:#f2f2f2;}.cls-9{fill:#0a0a0a;}.cls-11{opacity:0.78;}</style><clipPath id="clip-path"><path class="cls-1" d="M143.12,281.3c-22.62,1.47-38.88-2.87-42.42-3.86-29.15-8.1-47.91-25.47-56.58-34.71C35.45,233.09,16,208.76,10.7,172a132.9,132.9,0,0,1,3.85-55.29A141.91,141.91,0,0,1,48,57.59c8.47-8.9,40.36-42.41,90-42.43,54.93,0,88.67,41,95.14,48.86C263.56,101,264,142.56,264,157.87c-.06,17.36-.16,47.81-20.57,75.86C212.06,276.81,157.45,280.37,143.12,281.3Z"/></clipPath></defs><title>decide</title><g id="Capa_3" data-name="Capa 3"><polygon class="cls-2" points="1.79 233.68 4.79 233.68 4.79 233.68 1.79 233.68 1.79 233.68"/></g><g id="Capa_2" data-name="Capa 2"><path class="cls-3" d="M143.12,281.3c-22.62,1.47-38.88-2.87-42.42-3.86-29.15-8.1-47.91-25.47-56.58-34.71C35.45,233.09,16,208.76,10.7,172a132.9,132.9,0,0,1,3.85-55.29A141.91,141.91,0,0,1,48,57.59c8.47-8.9,40.36-42.41,90-42.43,54.93,0,88.67,41,95.14,48.86C263.56,101,264,142.56,264,157.87c-.06,17.36-.16,47.81-20.57,75.86C212.06,276.81,157.45,280.37,143.12,281.3Z"/><g class="cls-4"><path class="cls-5" d="M111.08,106a7.87,7.87,0,0,1-.67,2.48,3.62,3.62,0,0,1-1.24,1.25,3.39,3.39,0,0,1-1.49.41c-1.14,0-1.4-1.08-3-2.46a19.66,19.66,0,0,0-3.19-2c-2-1.11-2.19-.94-2.71-1.51a5.53,5.53,0,0,1-.86-4.27A6.5,6.5,0,0,1,99,96.83c.16-.21,2-2.74,4-2.43.72.11,1.21.53,1.79.3s.71-.9,1.19-.9.45.35,1.07.74a4.36,4.36,0,0,0,1.36.5c2.74.65,3.16.69,3.49,1v.07q.23.77.39,1.56c.4,1.73.43,2.13.17,2.39s-.62,0-1,.24c-.64.47.26,1.81,0,3.91h0C111.41,104.81,111.32,104.59,111.08,106Z"/><path class="cls-5" d="M192.68,189.63c.09.16,0,.33,0,.88s-.1,1-.14,1.45c-.19,1.52.11,1.51-.11,2.09-.35.9-1,.73-1.39,1.73-.2.54-.06.76-.34,1.48s-.47.71-.49,1.05c-.06.83,1.07,1.11,1,1.73s-.69.61-2.31,1.46c-2,1-1.87,1.18-2.44,1.23-1.05.05-2-.56-3.38-1.5-.83-.56-1-.8-1.66-.9a3.77,3.77,0,0,0-2.15.21c-.84.32-1,.82-1.42.74s-.48-.48-1.06-1.18c-.94-1.16-1.6-1-1.87-1.71-.22-.58.12-.83.53-2.49s.11-1.61.45-2.33c.44-1,1.3-1.65,3.09-2.95a5.24,5.24,0,0,1,2.1-1.19c.64-.09,1,0,1.39-.29s.34-.77.56-1.61c.32-1.34.71-1.24,1-2.32s-.13-1.59.3-2.46c.29-.59.88-1.18,1.27-1.07s.17,1.17.78,1.63,1.42-.27,2.21.23a2.1,2.1,0,0,1,.69,1,3,3,0,0,1,.16,1.85c-.28,1.17-1.21,1.56-1.06,1.88s.83-.12,1.78.3c.61.25.54.46,1.23.71S192.48,189.28,192.68,189.63Z"/><path class="cls-5" d="M126.13,134.22c0,.47-.31.47-.77,1.75a12.15,12.15,0,0,0-.63,2.05c-.32,1.51,0,1.66-.33,2.54a4.48,4.48,0,0,1-1.4,1.92,5.78,5.78,0,0,1-1.85.9,12.34,12.34,0,0,1-1.91.45,11.11,11.11,0,0,1-2.22.32c-.51,0-1-.06-1.53-.13a6.84,6.84,0,0,1-1.89-.39h0a4,4,0,0,1-1.31-1.22c-.23-.34-.38-.76-.55-2.56a20.43,20.43,0,0,0-.52-3.66c-.17-.63-.32-1.09-.7-1.24s-.66.09-1.37.28h0a8.42,8.42,0,0,1-3.12.29c-.85-.07-1.23-.12-1.46-.38-.67-.73.42-1.95-.24-3.58a2.19,2.19,0,0,0-.9-1.19c-.75-.36-1.34.19-2.21-.16a1.89,1.89,0,0,1-1-1.07c-.2-.69.31-1,.78-2.48a5.84,5.84,0,0,0,.37-2.23c0-1-.35-1.09-.26-1.81a2.36,2.36,0,0,1,1-1.67c.56-.25.86.1,1.29-.19.61-.38.27-1.17.9-1.64.42-.3.71.09,1.39-.2s.72-.87,1.42-1c.3,0,.42,0,1.66.33l1.25.3c1.62.26,2.45-.34,2.72,0s-.26,1.17-1.2,2.68a21.71,21.71,0,0,0-1.17,2,3.68,3.68,0,0,0-.49,1.51.68.68,0,0,0,0,.14c.24.66,1.27,1,2.1,1.21,1.31.37,1.39.07,2.23.36,1.46.53,1.45,1.53,2.88,2.15,1,.42,1.14,0,2.44.35a9.68,9.68,0,0,1,4.11,2.43h0C125.35,132.54,126.19,133.27,126.13,134.22Z"/><path class="cls-5" d="M148.1,148.75c-.17.26-.84,1.16-.55,1.72s.81.16,1.23.62.13.94.26,2.92a6.6,6.6,0,0,1,0,1.83c-.18.82-.47.84-.7,1.5-.53,1.6.77,2.54.21,4.33-.2.64-.34.49-.44.94-.38,2.1,3.28,3.78,2.68,5a1.5,1.5,0,0,1-1.34.71c-.62,0-.7-.83-1.18-.83s-.76.71-1.33,1.48a22.14,22.14,0,0,1-2.37,2.06,20.34,20.34,0,0,1-3,2.21c-.59.23-2.32.93-3.23.2-1.11-.91.25-2.74-.85-5.12a6.21,6.21,0,0,0-3.32-2.94c-1.2-.45-1.43,0-3.07-.29-3.24-.54-3.52-2.22-6.21-2.39-1.62-.09-2.3.48-3.17-.17a3.36,3.36,0,0,1-1.31-2.67c0-.8.3-1,.2-1.85a10.32,10.32,0,0,0-.53-1.8c-.49-1.55-.18-1.76-.47-2.11-1-1.2-4.55.89-5.38-.21-.47-.65.42-1.63-.18-2.39s-1.26-.19-2.08-.85a3.2,3.2,0,0,1-.94-2.27,6.19,6.19,0,0,1,.46-2.44c.61-1.94.91-2.92,1.37-3.14,1.2-.53,2.24,1.81,4.57,1.73,1.39,0,1.17-.86,3.64-1.44,1.32-.34,2.3-.33,2.92-1.12a3,3,0,0,0,.41-1.19c.55-2.17,1.11-2.3,1.4-3.6.43-1.94-.57-2.85,0-3.41,1-.91,3.77,1.24,4.74.29.58-.6.08-1.89.49-2s.54.62,1.27,1c1.07.4,1.72-.52,2.82-.13s.85,1.1,1.46,1.12c.93,0,1.15-1.8,3-3.1.21-.12,1.86-1.31,2.65-.77s-.1,1.67.76,3.6a9.67,9.67,0,0,0,1.12,1.82,11.45,11.45,0,0,1,.89,1.09,4.22,4.22,0,0,1,.57,2.19c0,1.2-.65,1.51-.38,2.13s1,.41,1.58,1.1.1,1.5.67,2.77c.66,1.55,2.11,1.82,2,2.58C149.37,147.86,148.79,147.79,148.1,148.75Z"/><path class="cls-5" d="M165.34,184.46c-.51,1.21-1.05,2.36-2.14,2.73-.7.25-.95-.06-1.85.32a9.08,9.08,0,0,0-1.37.83c-.93.48-1.1.22-2.17.7a3.76,3.76,0,0,0-2,1.62,3.18,3.18,0,0,0-.19.75,19.91,19.91,0,0,0,0,3.86c0,1.2-.11.86,0,1.89a2.74,2.74,0,0,1-.24,1.62c-.16.3-.29.28-.3.48-.06.54,1,.67,1.36,1.59.16.44,0,.55.12.91.33.57.91.45,1.26.88s.17,1.18.08,2.32c-.26,2.56.5,3.53-.17,4.1-.39.36-.72,0-2.16.12a13.08,13.08,0,0,0-3.38.84c-2,.69-2.39,1.11-3,.81s-.41-1.08-1.12-2a4.13,4.13,0,0,0-2.35-1.46c-.79-.1-1.93.56-4.28,1.87l-1.64,1a2.72,2.72,0,0,0-.61.46c-.5.52-.35,1-.74,1.54a2.12,2.12,0,0,1-1,.72.65.65,0,0,0-.47.28c-.16.23-.26.57-.11.75s1-.22,1.77.07c.41.18.61.54.94,1.19.57,1.06.42,1.59.88,2.31a3.45,3.45,0,0,0,1.47,1.2,7.71,7.71,0,0,1-1.58.22c-.77,0-.74-.1-1.63-.08s-1.11.16-1.37-.12-.14-.46-.38-.75a1,1,0,0,0-1-.39c-.52.24.06,1.46-.6,2.2s-1.43,0-2.59.82a6.83,6.83,0,0,0-1.36,1.43c-.43.51-.39.53-.75.95-1.09,1.29-1.56,1.55-2,1.56a2.38,2.38,0,0,1-1.72-.81,4.1,4.1,0,0,1-1.2-1.68c-.84-2.06,0-3.48-.27-5.63-.21-1.5-1.07-4.22-2.75-4.68-2-.57-3.4,2.63-7.41,3.75a8.82,8.82,0,0,0-3.12,1.25c-.82.59-1,1-1.62,1.09-1.1.21-1.75-.76-3-1.13a5,5,0,0,0-4.47,1c-.93.79-.68,1.38-2.16,3.71-1,1.64-1.51,2.48-2.08,2.45-1.15-.05-.63-3-3-5.07-.8-.71-1.49-1.59-2.27-2.34-.39-.39-.92-.93-.83-1.45.06-.28.3-.31.62-.82a30.27,30.27,0,0,1,1.75-3c1.79-2.61,2.67-3.93,2.55-4s-.68.46-2.59,1.87c-1.59,1.15-1.57,1-2.22,1.58a10.23,10.23,0,0,0-1.14,1.14c-.67.82-.68,1.23-1,1.27-.6.08-.69-1.46-2-2.07-.84-.41-1.54-.14-1.84-.66a1.76,1.76,0,0,1,.09-1.15c.58-1.58,2-2.27,1.87-2.42A4.87,4.87,0,0,0,86,208.22c-1.13.95-1,1.42-1.73,1.74-1.07.47-1.92-.15-4.29-1-3.68-1.3-4.35-.71-5.25-1.75-1.45-1.68-.49-4.06-1.42-4.42s-1.76,2.42-4.23,2.93c-1.81.4-2.39-.9-5.33-.87-1.91,0-1.93.57-3.43.43a8.89,8.89,0,0,1-5.09-2.41c-2.08-1.81-1.77-2.86-3.51-3.72a9.73,9.73,0,0,0-4-.57c-2.73-.08-3.33.47-4.16-.14s-.86-1.83-1-4.46c-.35-6.89-.91-6.41-.5-7.56,1.21-3.24,4.66-4.07,5.38-7a8.74,8.74,0,0,1,.71-2,9.45,9.45,0,0,1,1.48-2.13c1.35-1.6,2-2,2.52-2.72,1.61-1.9,1.84-4.21,2.06-6.37.26-2.64-.35-2.48-.26-5.43a56.53,56.53,0,0,1,1.57-8.48c.56-2.48.82-3.69,1-4.29A32.2,32.2,0,0,1,60.15,140c2-3,3.21-4.86,5.44-5.5,2-.57,2.69.51,5.24,0,1-.14,1.91-.52,5.53-3,4.19-2.94,6.27-4.46,6.89-5.88,1.12-2.43-.4-2.79.48-6.6A19.49,19.49,0,0,1,89,110.49a6.9,6.9,0,0,1,1.81-1.32c.93-.46,1.31-.29,1.88-.67s.86-1.19,1.38-3a20.49,20.49,0,0,1,1.57-4.43c.28-.53,1.44-2.79,2.34-2.6.58.14.34,1.17,1.2,2.59.58,1,1.71,1.78,4,3.42.71.5,1.18.84,2,1.51s1.55,1.34,1.55,1.34c1.14,1,1.19,1.23,1.63,1.41,1.09.36,1.95-.47,2.17-.19s-.44,1.19-3.13,4.23c-2,2.3-2.34,2.6-2.55,2.81-1.58,1.36-2.11,1.11-3.33,2.36a6.38,6.38,0,0,0-2,3.3c-.08.48-.35,1.86.35,2.49s1.8-.17,2.32.39c.92.88-1.37,3.78-.44,4.94.7.83,2.24-.25,3.27.62,1.55,1.25.28,5.18.88,5.35.16.05.2-.2.54-.43.93-.63,1.94.22,3.82.19,1.31,0,1.49-.45,2-.17s.67.84.86,3.9a18.42,18.42,0,0,1,0,5,25.27,25.27,0,0,1-.75,2.71,3,3,0,0,0-.29,1.34,4.28,4.28,0,0,0,.52,1.31,3.85,3.85,0,0,0,1,1.55c.57.38.82.05,1.26.37.86.57.39,2,1.18,2.39.13.05.15,0,.8,0,1.05-.06,1,0,2.54,0,1,0,1.18-.08,1.31.05.45.42-.22,1.24.22,2.23.31.79.93.77,1.07,1.49.07.54-.21.75-.32,1.43a3.36,3.36,0,0,0,1.18,3c.77.57,1.46.3,2.9.36a32.64,32.64,0,0,1,5.12,1.41c4.13,1.29,4.64,1.53,5.28,1.95a7.8,7.8,0,0,1,2.55,2.59c1.37,2.42.26,4.21,1.26,4.87,1.24.77,4.15-.94,5.91-2.76,1.38-1.47,1.51-2.48,2.74-2.74s2,.86,3.55.44a7.48,7.48,0,0,1,2.13-.53,1.82,1.82,0,0,1,1.14.08c1.32.71.26,4.44,1.1,4.76.4.15.71-.72,2.15-1.37.44-.2,1.73-.78,2.44-.24.28.21.29.46.67.73a2.55,2.55,0,0,0,1.18.3c.9.12,1,0,1.24.15.43.28.2.79.5,1.62.14.38.25.4,1.4,1.87,1,1.2,1.25,1.55,1.27,2s-.11.42-.16,1c-.07,1.15.44,1.57.16,2s-1.11.16-1.42.68.06,1,0,2v.09A10.59,10.59,0,0,1,165.34,184.46Z"/><path class="cls-5" d="M141,129.53a.33.33,0,0,1,0,.47l-2.32,2.33c-.38.43-.77.83-1.15,1.3a3.88,3.88,0,0,0-1.53-.77,4.16,4.16,0,0,0-2.65.28A.33.33,0,0,1,133,133c-.24-.37-.49-.73-.71-1.12l-1.13,1.78-3.26.46c-.68-.56-1.3-1.18-2.05-1.78s-1.72-1.44-2.56-2.09h0a12.72,12.72,0,0,0-4.35-1.73c-1.17-.21-1.75-.12-2.8-.32a10.38,10.38,0,0,1-4.71-2.37h0c-.33-.35-.63-.72-1-1.08a.32.32,0,0,1-.1-.18,3.74,3.74,0,0,1,.14-1.45,4.69,4.69,0,0,1,1.24-1.84,17.24,17.24,0,0,0,1.43-2,.34.34,0,0,0-.11-.47.35.35,0,0,0-.18-.05c-.71,0-1.41,0-2.1,0l-4.16.15-.14,0-2.42,1.24a.27.27,0,0,0-.13.13l-1.68,2.82a.57.57,0,0,0,0,.14l-.23,2.13a1.26,1.26,0,0,1-1,.73,1.3,1.3,0,0,1-1.25-.81,10.59,10.59,0,0,1-.46-2.56,13.38,13.38,0,0,1,.08-2.28.32.32,0,0,1,.13-.22c1.44-1.09,2.86-2.19,4.33-3.25h0l3.77-4,0-.09a7.4,7.4,0,0,1,2.06-2.8,4.88,4.88,0,0,0,1.53-1.4,3.78,3.78,0,0,0,.5-2.05c.11-1.58.23-3.13.32-4.71a4.82,4.82,0,0,1,.17-1.69,4.2,4.2,0,0,1,.66-1.32.33.33,0,0,0,.07-.26c-.08-.55-.16-1.11-.29-1.66a.45.45,0,0,0,0-.16c-1.16-1.34-2.32-2.68-3.48-4-.24-.2-.52-.54-.46-.82s.9-.4,1.19-.95c.14-.26.21-.71-.21-1.5-.56.35-.81.32-1,.24s-.08-.57-.2-1.4-.56-1.29-.33-1.59.59-.19,1.07-.49c.8-.56.19-1.77.94-2.76.25-.34.37-.25,2.34-1.21,1.25-.59,1.17-.61,2.12-1.08a27.14,27.14,0,0,1,2.85-1.18h0a20,20,0,0,1,2-.49l2.22-.31.1,0c.58.13,1.17.27,1.73.38-.21-.65-.43-1.26-.65-1.91a.32.32,0,0,1,0-.19c.14-.55.31-1.1.45-1.65a.2.2,0,0,0,0-.11c-.08-.63-.17-1.23-.19-1.86a.3.3,0,0,1,.1-.28,7,7,0,0,1,1.51-1.07,7.24,7.24,0,0,1,2.17-.74.3.3,0,0,1,.28.1,2.51,2.51,0,0,0,1.76.79,2.2,2.2,0,0,0,1.55-.56c0-1-.08-2-.09-3a2,2,0,0,0-1-.63,2.07,2.07,0,0,0-1.62.33,1.42,1.42,0,0,1-1.33,0c-.39-.35-.36-1.38.51-2.15a2.24,2.24,0,0,0,2,.3,1.6,1.6,0,0,0,.58-.42c-.11-.33-.22-.62-.33-.94l1.54-1.7a.4.4,0,0,0,.08-.28,17.7,17.7,0,0,1-.21-2.07.32.32,0,0,1,.19-.33,1.61,1.61,0,0,0,.77-.64c.23-.34.13-.53.34-.76.4-.54,1.17-.34,1.82-.57s1.21-.74,1.69-2.4v-.07c.22-.37.42-.73.65-1.07a.35.35,0,0,0-.06-.39L135,54.26a.38.38,0,0,0-.15-.09l-2.51-.78a2.72,2.72,0,0,1-.74-1.12,2.79,2.79,0,0,1,0-1.87.3.3,0,0,1,.12-.17l2.72-1.8a.26.26,0,0,0,.09-.09L136,46.42a.44.44,0,0,0,.06-.16c.11-.75.22-1.48.31-2.23a.38.38,0,0,1,.13-.24c.59-.38,1.17-.76,1.75-1.16a1.58,1.58,0,0,0,1-.69c.3-.55.07-1.2-.31-2.23a8.87,8.87,0,0,0-.73-1.56.25.25,0,0,1,0-.12l-.49-3.44a.29.29,0,0,0-.14-.23c-.55-.34-1.07-.72-1.58-1.11a29.43,29.43,0,0,1-2.9-2.57.32.32,0,0,0-.32-.08,6.14,6.14,0,0,1-2.92.11,6.33,6.33,0,0,1-2.09-.84,31.48,31.48,0,0,1,5.1-1,29.4,29.4,0,0,1,5.55-.07.33.33,0,0,1,.29.33c0,1.14-.06,3.29,0,5.48a2.91,2.91,0,0,0,.73,2.07,2.4,2.4,0,0,0,1.22.61c1.89-.11,3.78-.18,5.64-.27a.33.33,0,0,1,.35.3c.12.9.16,1.81.24,2.72a.34.34,0,0,0,.38.3h0a2.25,2.25,0,0,1,1.38.14,2.75,2.75,0,0,1,1.43,2.07,2.41,2.41,0,0,1-.15,1.86c-.33.55-.68.47-1.16,1.18a9.83,9.83,0,0,0-.64,1.49c-.18.43-.33.76-.44,1a6.12,6.12,0,0,1,0,1.6,7.56,7.56,0,0,1-.23,1c-.28.89-.42.91-.52,1.4-.17.71.12.8.23,2.32a3.7,3.7,0,0,1-.13,1.48c-.21.47-.47.54-.58,1a2.15,2.15,0,0,0,.2,1.43c.43,1.08.88,1.14,1.11,2,0,.24,0,.07.11,1.31s.2,1.4.38,1.69a1.77,1.77,0,0,0,.8.6,2.2,2.2,0,0,1,.24,1.7c-.24.75-.88.77-1.12,1.48s.32,1.29.66,2.53a6.54,6.54,0,0,1,.08,2.75,5.7,5.7,0,0,1-.58,3.86,5.19,5.19,0,0,1-1.07,1.35.3.3,0,0,0-.09.36c.21.53.42,1.08.62,1.73a21.25,21.25,0,0,1,.81,3.53,3.34,3.34,0,0,1-.5,1.53c-.68,1-1.55.83-1.82,1.59s.45,1.23.35,2.47a3.24,3.24,0,0,1-.55,1.64,4.4,4.4,0,0,0-.81,2.29,5.39,5.39,0,0,0,.31,1.73c.25.8.58,1.9,1,3.19v.06c.26.41.64,1,1.14,1.75a3,3,0,0,1,.66,1.54,1.9,1.9,0,0,1-.34,1c-.36.64-.83,1.49-1.42,2.68a.31.31,0,0,0,0,.28,6.56,6.56,0,0,1,.58,2.26,6.32,6.32,0,0,1-.34,2.48.17.17,0,0,1-.06.1,7.41,7.41,0,0,0-1.15,1.86c-.52,1.36-.22,2-.92,2.88-.52.66-1,.58-1.29,1.21a2.73,2.73,0,0,0,0,1.91c.3,1.18.64,2.32.94,3.51a4.14,4.14,0,0,1-.53,2.55c-.38.64-.68.71-1.72,1.78s-1.78,1.85-1.73,2.66A1.49,1.49,0,0,0,141,129.53Z"/><path class="cls-5" d="M152.71,143.46c-.33,0-.65.19-1,.27l-.11,1.41-.47,1a1,1,0,0,1-.6.09,1.07,1.07,0,0,1-.77-.85l-.76-.82a.26.26,0,0,1,0-.19l-.31-2.23a.36.36,0,0,0-.19-.26l-1-.49a.34.34,0,0,1-.18-.21c-.22-.72-.41-1.44-.65-2.17l.73-.55c-.09-.67-.11-1.31-.17-2a10,10,0,0,1-.86-.73,2.23,2.23,0,0,1-.89-.52A2.38,2.38,0,0,1,145,133c-.22-.65-.49-1.3-.71-1.94l-.13-.87H142a.34.34,0,0,1-.32-.27,9.15,9.15,0,0,0-.31-1.56c.07-.48.16-.84.19-1.08.15-.84.19-1.08.38-1.19s.29-.1.74.21a4.6,4.6,0,0,1,.41-.47,7,7,0,0,1,1-.88l.79-1.25.4-1.67a.58.58,0,0,0,0-.19c-.24-.68-.51-1.38-.76-2.06l-.2-1c-.07-.43-.16-.86-.27-1.28a.25.25,0,0,1,0-.17c.12-.43.26-.86.38-1.33l.93-.64c.09-.36.21-.68.3-1,.12-.6.28-1.18.39-1.79a5.21,5.21,0,0,1,.43-.85,4.23,4.23,0,0,1,1.05-1.06.36.36,0,0,0,.13-.23c.05-.48.13-1,.19-1.45a.16.16,0,0,1,0-.12c.22-.43.42-.85.66-1.23a3.75,3.75,0,0,1-.42-.62c-.24-.44-.74-1.36-.42-2,.11-.19.21-.2.37-.5a2.62,2.62,0,0,0,.26-.82c.11-.46.24-.92.35-1.37a1.56,1.56,0,0,0,.56-1.61,1.46,1.46,0,0,0-1.28-1,2.64,2.64,0,0,0-.24-1.7c-.27-.44-.56-.56-.73-1a1.8,1.8,0,0,1,0-1.19c-.21,0-.53-.1-.66-.32s.07-.69.11-1.41-.35-1-.22-1.5c0-.34.3-.8,1.08-1.28a.34.34,0,0,0,.17-.4c-.16-.47-.31-.93-.49-1.4l.83-.39a.86.86,0,0,0-.05-.81c-.13-.18-.29-.13-.64-.42,0,0-.46-.41-.38-.55h0a13.79,13.79,0,0,0,.84-1.26,13.09,13.09,0,0,0,.85-1.25,2.84,2.84,0,0,0,.5-2.23,12.3,12.3,0,0,0-.34-1.69c-.28-1.22-.31-1.45-.5-2.1-.12-.33-.19-.59-.25-.78.2-.27.4-.57.6-.84s.37-.49.54-.75c.09-.55.15-1.09.24-1.65h0a11.67,11.67,0,0,0,.27-1.17,8.16,8.16,0,0,0,.06-2.7A18.45,18.45,0,0,1,149,69c0-.2-.2-1.4,0-1.43h0c.12,0,.39-.25.85-.78l-.93-2.7-.73-.15a4.4,4.4,0,0,0,.22-.81,2.82,2.82,0,0,0-.13-1.38,1.12,1.12,0,0,0,0-1.13,1.26,1.26,0,0,0-.75-.51,1.76,1.76,0,0,0,.24-.71,1.53,1.53,0,0,0-.33-.87,9.3,9.3,0,0,0-.26-1.1c.14-.37.32-.76.47-1.14a.29.29,0,0,0,0-.09c0-.5.06-1,.11-1.46a.11.11,0,0,0,0-.08l-.26-1.83a4.52,4.52,0,0,1,1.64-2.72.33.33,0,0,0,.11-.36L148.55,48a7.47,7.47,0,0,1,.43-1,6.23,6.23,0,0,1,.78-1.25c.59-.66.81-.52,1.09-1a2.25,2.25,0,0,0,.06-1.71,7.13,7.13,0,0,0-.73-1.36,10.24,10.24,0,0,1-.59-1.05.33.33,0,0,0-.31-.17l-1.44.08a4.05,4.05,0,0,0-.22-1.54,2.48,2.48,0,0,0-1.11-1.57c-.4-.22-.55,0-2.08-.05H144a2.19,2.19,0,0,0-.51,0c-.27,0-.31.21-.5.34-.46.34-1.26,0-1.55-.12a2.88,2.88,0,0,1-1-.74,8.68,8.68,0,0,1,1-.79,8.53,8.53,0,0,1,1.11-.6,1.22,1.22,0,0,0,.82-.46c.29-.34.23-.74.32-1.57a9,9,0,0,1,.24-1.47,5.33,5.33,0,0,1,1,0,5.09,5.09,0,0,1,1.38.35,3.22,3.22,0,0,1-.86,1.14c-.37.29-.57.32-.74.55s-.24.75.32,1.79l3.33-.47c-.27.68-.51,1.4-.83,2.09A1.89,1.89,0,0,0,148.9,37c.31-.38.19-.77.51-1.2a1.65,1.65,0,0,1,1.47-.42c.22.38.38.77.23.92s-.6-.18-.82,0-.16.8.54,2.49a.22.22,0,0,1,0,.11c0,.7.06,1.36.08,2a1.18,1.18,0,0,0,.79-.24c.24-.24.16-.5.34-.7s.57-.32,1.52-.08a2,2,0,0,1-.06,1c-.17.44-.43.54-.42.84s.54.74,1,1a1.34,1.34,0,0,1,.79-.65,1.51,1.51,0,0,1,.79,0,2.52,2.52,0,0,1-.47,1.26,2.45,2.45,0,0,1-.95.74.87.87,0,0,1,.92-.2,1,1,0,0,1,.59,1.06,7.69,7.69,0,0,1,.39,2,5.11,5.11,0,0,1,0,.78l-.56.62a1.78,1.78,0,0,1-1.51-.57,2.53,2.53,0,0,1-.31-.74,8.44,8.44,0,0,0-.6-1.34c-.37.73-.78,1.47-1.15,2.2l-1,.28,1.27,1a.22.22,0,0,0,.15.06l1.37.19c0,.31,0,.66-.07,1a.73.73,0,0,0-.68.23.76.76,0,0,0,.13.93.87.87,0,0,0,.85.22c.83-.42,1.13-.4,1.29-.28s0,.55.16.69.45,0,.7-.1a.81.81,0,0,1-.17-1.13l.07-.08a.82.82,0,0,1,1.08.19c0,1.29-.31,1.67-.6,1.78A1.57,1.57,0,0,0,156,53c-.18.16-.35.42-.29.62s.62.25.63.38-.7.55-1.41.37c-.28-.06-.32-.16-.86-.32s-.53-.13-.71-.2a1.8,1.8,0,0,1-.93-1.06,1.49,1.49,0,0,0-.14,1.15c.19.38.64.49.6.63s-.75,0-.85.26.63.59.59,1.05-.5.55-.92.71L151.62,58c-.31.21-.66.4-1,.61.06.43,0,.88.06,1.35.63.12,1.26.27,1.92.38a1.87,1.87,0,0,0-.83,1.1c-.14.7.38,1.21.14,1.72a1.22,1.22,0,0,1-.7.54,3.23,3.23,0,0,1,.33,2.34,2.48,2.48,0,0,1-.41.77,1.14,1.14,0,0,0,.17,1.2,1.16,1.16,0,0,0,.84.36c.28-.14.55-.29.82-.46.44-.47.68-.47.82-.45s.35.35.72,1.22a11.24,11.24,0,0,1,.64,1.41A3.19,3.19,0,0,1,155,72a1.68,1.68,0,0,1,0,1.19c-.29.59-.93.68-1,1.13s.33.39.33.87-.23.54-.19.84a1,1,0,0,0,.66.56,10.48,10.48,0,0,0,.11,2.5,9,9,0,0,0,.61,2.09,5.34,5.34,0,0,1-.52.18c-.56.14-.75,0-.87.12-.33.35.8,1.59.4,2.12-.19.3-.67.1-.92.47a1.21,1.21,0,0,0,.07,1.18,3.87,3.87,0,0,1,0,1.4c-.24,1.17-1,1.27-1.21,2.28-.36,1.28.47,1.67,0,3-.28.72-.59.9-.57,1.51s.53,1.12.32,1.59a1.11,1.11,0,0,1-.8.59,13.79,13.79,0,0,0,0,1.7,12.15,12.15,0,0,0,.35,2.47,11.32,11.32,0,0,0,.72,2l.14,1c.16.66.25.82.16,1.11a1.61,1.61,0,0,1-.71.75c-.47.34-.64.33-.74.55s-.07.52.45,1.07a3.8,3.8,0,0,1,.73,1.56,4.81,4.81,0,0,1,.12,1.31,2.69,2.69,0,0,1-.22,1.09,5.71,5.71,0,0,0-.5,1.06c-.09.32,0,.34-.13,1l-.14.73a5.62,5.62,0,0,0,.07,1.42c0,.92-.59.9-.73,1.84a5.2,5.2,0,0,0,.3,2.14c.19.58.46,1.07.2,1.36s-.29.11-.48.27a1.22,1.22,0,0,0-.28.86c0,.61.46.89.74,1.43.51.91-.11,1.15.2,2.83.26,1.39.82,2.23.38,2.67-.15.15-.39.19-.55.48a1.81,1.81,0,0,0-.18.91c.16,1.11-.31.9-.09,3.9a35.46,35.46,0,0,0,.7,4.93c.28,1.12.51,2.24.68,3.38v.07A13.25,13.25,0,0,0,152.71,143.46Z"/><path class="cls-5" d="M189,188.43a4.74,4.74,0,0,0,2.36-2.51c.4-1.28.31-3.11-.63-3.76-.41-.28-.81-.19-1.08-.63a1.34,1.34,0,0,1,.14-1.45c.49-.64,1.44-.61,1.43-.74s-1.35.11-2.22-.34c-1.63-.83-.75-3.62-1.71-7.13-1.3-4.76-5.24-8-6.78-9.25-1.14-.94-1.37-.93-3.26-2.46a27.14,27.14,0,0,1-5.05-4.75c-1.76-2.33-1.32-2.94-2.75-4a13,13,0,0,0-4.66-1.78c-2.05-.52-2.17-.27-3.06-.75-1.81-1-1.61-2.15-3.25-2.85-1.37-.59-1.7.18-3.38-.5-1.35-.55-1.26-.87-2.7-1.61s-1.86-.75-2.51-1.67-.53-1.4-1.57-6c-.64-2.8-1-4.2-1-4.24-1.2-6.64,0-11.27-1.75-11.92a1.22,1.22,0,0,0-.27-.06c-4.11-.34-9,16.5-6.51,23.3a.52.52,0,0,0,.11.27c5.15,5.23,7.16,7.12,7.63,7.39a4.4,4.4,0,0,1,1,1c.49.65.09,1.13.36,2.57s.77,1.6.53,2.34-.66.61-.94,1.33.1.73.31,2.22c.12.83.17,1.71.2,2a.32.32,0,0,1-.08.21,5.53,5.53,0,0,0-.65,1c-.17.47,0,1,.75,2.17,1.12,1.88,1.69,2.82,2.27,2.84s.62-.46,1.75-.89c.64-.26,1.48-.59,1.93-.28,1.06.74-.88,4.38.18,5.12.57.39,1.85-.16,2.14-.31a6.4,6.4,0,0,0,1.05-.59c1.6-.94,1.94-1,2.13-1l.1,0c.4.27.14,1,.69,1.4s1.65-.37,2,.06-.31,1,0,1.63c.24.47.63.35,1.33.94s.43.69,1.2,1.57,1,.8,1.17,1.26a3.74,3.74,0,0,1-.55,2.35,9.6,9.6,0,0,0-1.19,1.7c-.39,1.11.47,1.67.19,2.83-.06.28-.18.4-1.2,1.6s-1.69,1.94-1.85,2.1h-.09c-.79.42-1.32.28-3.49,1.12a2.63,2.63,0,0,1-.69.64c-1,.66-2.31.26-2.36.43s1.87.46,2.18,1.43c.18.56-.29.86-.81,2.3-.33,1-.71,2-.32,2.31s.82.05,1.51-.11a34.72,34.72,0,0,1,3.67-.32c3.52-.39,4.15-1.23,5-.61s.47,1.13,1.48,2.41a9.39,9.39,0,0,0,2.73,2.24c2.76,1.75,4.34,2.79,5,2.25.92-.71-1.11-3.08-.06-6a7.46,7.46,0,0,1,3-3.59,30.12,30.12,0,0,1,2.8-1.5s.54-.25,1.08-.48C185.18,189.51,186.83,189.76,189,188.43Z"/><path class="cls-5" d="M186.66,202c.13.49-.95.78-1.08,1.78s.76,1.5.49,2-.62.19-1.79.59a3.36,3.36,0,0,0-1.61.88c-.41.5-.16.77-.51,1.94s-.78,1.71-.63,1.83.47-.31.76-.21c.57.19-.34,2.16.49,4.18a4.37,4.37,0,0,1,.6,1.89,10.86,10.86,0,0,0,0,1.14,15.15,15.15,0,0,0,.31,1.49c.16,1.11,0,1.26.23,1.6.47.65,1.44.34,1.66.9s-.18.88-.48,1.2c-.55.45-1.11.16-1.35.53-.56.63.59,2.3.35,2.47s-1.63-1.4-1.63-1.4a8,8,0,0,1-.2,2.44,1.19,1.19,0,0,1-.21.44,8.24,8.24,0,0,1-2,1.85c-.87.84-.06,1.5-.91,3.63-.33.83-.83,2.16-1.85,2.34-.74.1-1.28-.4-1.65-.11s.06,1.13-.34,1.48-1.54-.56-2.09-.15c-.22.17-.09.36-.35.7s-.78.45-1.86.81c-.87.29-1.33.46-1.52.76-.42.63.1,1.21-.3,1.77s-1.93.79-2.12.41c-.32-.61,2.14-2.72,2.14-2.72h0a2.44,2.44,0,0,0,.53-1.51c.17-.74.7-.57,1.14-1.35.64-1.22-.42-2,.12-3.73.21-.64.54-1.21.35-1.37s-.52.14-1,0-.62-.49-1.21-1.56c-1-1.74-1-1.73-1.07-2-.08-1,.58-1.68.26-2s-.61,0-1.35-.15-1.12-.72-1.68-1.09c-1.62-1.06-3.33,1-5.45.23-1.3-.53-1.27-1.56-2.67-1.8-.52-.1-.68,0-2.37.33-3.22.59-3.5.29-3.58.17s.26-.58.54-1.71a7.47,7.47,0,0,0,.19-1.76,5.8,5.8,0,0,0-.48-2.66c-.72-1.53-1.84-1.71-1.81-2.7,0-.69.58-.77.59-1.41,0-1.13-1.59-1.38-1.67-2.39,0-.74.79-1.37,1-1.54,1.48-1.09,4-.76,4.57-.64a2,2,0,0,0,1.32-.09c.63-.32,1.16-1.18.88-1.75-.34-1-2.51-.94-2.46-1.39s1.05-.59,1.24-.62c.62-.16.78,0,1.11-.16a2.08,2.08,0,0,0,.78-2.52c-.44-.89-1.53-.47-2.38-1.4-.68-.72-.68-1.68-.69-3.41,0-2.38.53-2.53.51-4.46-.06-2.34-.87-3.49-.35-3.9s1.75.09,2.1.89-.76,1.61-.5,2.7,2,2,3.35,2a11.61,11.61,0,0,0,3.72-.87c1.5-.45,2.24-.79,2.81-.39s.21.55.74,1.42A6.6,6.6,0,0,0,168,195.7c.74.65.72.51,1.41,1.06,1.43,1.23,1.4,1.91,2.34,2.12.67.18.72-.2,1.63,0a11.14,11.14,0,0,1,1.74.75,5.68,5.68,0,0,0,1.61.55c1.12-.06,1.3-1.14,2.11-1.08.59.05.63.59,1.7,1.19a4.79,4.79,0,0,0,1.26.47C184.56,201.53,186.47,201.33,186.66,202Z"/><path class="cls-5" d="M166.86,240.81c.09.63,1.06,1.21,1.47,1s0-.91.42-1.59,1.08-.39,1.39-1-.14-1,.21-1.66.89-.47,1.37-1.18a3.32,3.32,0,0,0,.36-2c0-1.18-.4-1.61-.09-2.06s.78-.28,1-.69a1.32,1.32,0,0,0-.78-1.63c-.45-.07-.64.53-1.06.49s-.34-.7-1.06-1.92c-.26-.44-.7-1.1-.7-1.1a2.67,2.67,0,0,0,.3-1.77c-.12-.33-.33-.37-1.28-1s-1-.79-1.27-1c-1.73-.95-4,1.7-5.67.8a1,1,0,0,1-.36-.3,4.14,4.14,0,0,0-3.08-1.69c-3.33-.06-5,1.17-5.4.62-.21-.28.22-.61.41-1.69a10,10,0,0,0-.2-2.83,8.59,8.59,0,0,0-.59-2.78c-.73-1-1.89-1.06-1.86-1.6s.78-.46,1-1-.69-1-1.46-2.31c-.55-1.06-.27-1.19-.88-2.39-.31-.84-1-2.66-1.77-3.16-.94-.43-1.85.64-2.82,1-1.68.44-1.5,1.2-3.57,1.94-.75.27-1.35.36-1.62.87s.15,1-.22,1.56-1.38.33-1.61.88a1.12,1.12,0,0,0,.63,1.34c.57.19,1-.48,1.39-.3.66.31-.36,2.5.58,3.42.64.63,1.69.1,2.1.84a1,1,0,0,1,0,1.14c-.24.21-.7.1-1.66-.21-.33-.13.44-.39.08-.45-.75-.06-2,.53-2.6.47-.89-.08-1.32-1.31-1.59-1.2s.14,1.74-.57,2.25c-.34.26-.65,0-1.42.1a5.78,5.78,0,0,0-1.94.92,10.5,10.5,0,0,0-2.46,1.88c-.44.47-.65.71-.64,1,.11.83,2.13.62,2.67,1.8.35.8-.35,1.37.13,2.39.3.68.8.84.7,1.1-.17.5-2-.16-2.62.71a1,1,0,0,0,0,1.14c.29.4.87.18,1.22.61a1.23,1.23,0,0,1,0,1.19c-.24.45-.55.46-1.29,1s-1.34.87-1.27,1.17,1.57.52,2.87,0c1-.38,1.39-.94,1.62-.77s0,1.13-.42,2.58c-.34,1.18-.58,1.41-.4,1.69.27.5,1.21.54,3,.55a6.86,6.86,0,0,1,2.66.28c.06,0,1.2.47,1.1.83s-2.51.28-2.61.81c0,.24.38.52.74.68a3,3,0,0,0,1.94-.28,14.16,14.16,0,0,1,3.42-.58c1.12-.09,1.71,0,2-.39s.06-.79.35-1.38a2.36,2.36,0,0,1,1.72-1.12c1.33-.19,1.75,1.11,3.29,1.61,2.74.9,5.49-2,6.67-.95.39.39.12.84.76,1.53a3.73,3.73,0,0,0,1.88,1.06c1.57.25,2.56-.91,3.11-.44s-.08,1.15.44,1.67c.39.36,1.11.43,1.35.15.4-.5-1.18-1.8-.73-2.75a1.65,1.65,0,0,1,1.42-.75c.51,0,.65.22,1,.2a2.25,2.25,0,0,0,1.52-2.48c-.29-.85-1.6-.73-1.74-1.49-.06-.37.21-.44.29-1,.13-1-.66-1.58-.38-2s.87-.33,1.3-.19a2,2,0,0,1,1,1,3.53,3.53,0,0,1,.43,1.58c0,.74-.2.77-.22,1.56s.25,1.1.31,2.22a3.69,3.69,0,0,1-.12,1.55C168,240,166.76,240.11,166.86,240.81Z"/><path class="cls-5" d="M130.2,223.53c.29.16.2.24.82.77.81.66,1,.57,1.27.95s.19.86.12,1.82c-.07.73-.07,1.15-.26,1.26-.47.51-1.21.11-1.94.72-.12.12-.49.41-.47.78s.68.48,1,1.09a1.74,1.74,0,0,1-.31,1.64c-.35.43-.68.27-1.09.73s-.24.75-.51,1-.9-.11-2.18-.71a10.76,10.76,0,0,1-1.76-.89,2.39,2.39,0,0,1-.83-.87c-.37-.63-.14-1-.47-1.36s-.71-.24-1.72-.64a3.72,3.72,0,0,1-2.57-2.74,3.16,3.16,0,0,1-.32-1.79c.2-.74.79-.69,1.38-1.59a3.28,3.28,0,0,0,.53-2.49,2.91,2.91,0,0,0-1.26-1.66c-.55-.29-.8-.12-1.2-.48s-.31-.53-.77-1.35a5.45,5.45,0,0,0-1.38-1.71c-.41-.32-.73-.41-.82-.77a.84.84,0,0,1,.25-.92c.09-.08.26,0,.56-.08a7.72,7.72,0,0,1,.82,0,4.71,4.71,0,0,0,.65,0c.53-.08.55-.66,1.06-1.17.86-.87,1.9-.48,2.3-1.28.13-.29,0-.48.28-.69a1.12,1.12,0,0,1,1.3-.18c.4.21.28.57.69.79s.7-.1,1.14,0,.39.39.67.93c.38.73.31.94.63,1.3s.51.24.79.54c.55.53.47,1.39.36,2.57a1.8,1.8,0,0,1-.35,1.07c-.18.19-.29.17-.4.36s-.08.59.15,1.51c.26,1.1.25,1.29.51,1.46s.68,0,.92.24c.4.42-.41,1.46-.08,1.85S129.18,223,130.2,223.53Z"/><path class="cls-5" d="M120.69,221.74a2.18,2.18,0,0,1-.31,1,3,3,0,0,1-.67,1c-.48.44-.74.27-1,.58-.06.07-.26.37,0,1.73.23,1.15.49,1.56.31,1.75s-.64-.21-1.57-.32c-1.29-.16-1.71.45-2.55.06-.51-.24-.66-.62-1-.51s-.15.56-.53.79-.51,0-1,.14-.5.31-1.06.55a2.5,2.5,0,0,1-1.86.1,1.77,1.77,0,0,1-1-1c-.12-.36.13-.5.34-1.48a3.24,3.24,0,0,0,.13-1.24,3.19,3.19,0,0,0-.45-1c-.48-.95-.37-.9-.65-1.44-.41-.79-.66-.82-.73-1.32s.14-.5.28-1.17c.18-.91-.16-1.12,0-2.19.09-.59.14-1.15.47-1.25s.71.47,1.39.41.54-.45,1.23-.68c.87-.3,1.49.2,1.72-.11s-.44-.89-.21-1.43,1.42-.78,2.21-.42a3.21,3.21,0,0,1,1.5,1.5c.26.41.19.39.73,1.33a6.78,6.78,0,0,0,1,1.49,4.73,4.73,0,0,0,1.27,1c.75.44.89.28,1.23.64A2.76,2.76,0,0,1,120.69,221.74Z"/><path class="cls-5" d="M107.68,224.09c.23.44.49.34.83.83a1.89,1.89,0,0,1,.27,1.87c-.25.41-.6.33-.81.76s.11.84-.15,1.16-.75,0-1.72.1-.86.4-1.35.33-.61-.69-1.58-1.31c-.67-.41-.92-.24-1.82-.87-.26-.17-.45-.31-.72-.51a6.43,6.43,0,0,1-1.11-.9c-.39-.59,0-1.46.59-2.77.72-1.64,1.12-1.73,1.25-2.7.18-1.16-.31-1.49.06-2s1.2-.24,3.45-.39c1.39-.09,2.22-.38,2.42,0s-.18.4-.24,1.17.21,1,0,1.46c-.13.29-.24.24-.4.54a1.31,1.31,0,0,0,0,1.19c.23.47.62.32.89.76S107.43,223.54,107.68,224.09Z"/><path class="cls-6" d="M225.39,270.17c-.08.63-.15.6-.2.71s-.23.31-1.06.53c-4.24,1-5,1.84-6.12,2-.1,0-.44-.25-.62-.29a.45.45,0,0,0-.3,0,4.91,4.91,0,0,1-2.31.26c-.68-.28-.69-.58-.52-1.53.21-1.42,2-2.08,1.94-5.51a18.39,18.39,0,0,0,0-3.4c0-.85.71-1.23,1.76-.25.69.79,1.49-.07,1.75-1.38.12-.56,1-.59,1.5-.72,1.71-.41,5.11-.38,5.4-1s-.31-1.22-.19-1.37.59-.15.72-.21c1.3-.38-.9-1.3-2-2-.52-.37-.72-.55-1-.72-.56-.32,0-1,.49-1.09a17.49,17.49,0,0,0,3.94-.55c.56-.15.1-1,.6-1.28a2.14,2.14,0,0,0,.44-1.73,5.6,5.6,0,0,1-.14-1.47c0-.58.48-.69.91-.51,1.09.46,2.89,2.62,4.41,3.73,2,1.46,3.85,1,7.25-1.16,1.4-1.68,11.21,1.92,13.81,2.7h0l3.67,1.95c.57.63,1.73.81,3.48.5h.12a6.92,6.92,0,0,1,3.79,2.71.42.42,0,0,0,.14.09c2.39.8,4.18,1.68,4.83,4.17.15.63-.73.65-.68,1.23.11.8-.44,1.7-.33,2.5a12.55,12.55,0,0,0,2.78,5.9,54.17,54.17,0,0,0,7.43,7.56,2.12,2.12,0,0,1,.85,2.88l-.09.14c-.15.6.05.78.77.85s.54.43,1.06,1c3.69,4.09,6.15,7.74,7.14,11.05a.5.5,0,0,1,0,.12c-.21,3.14,1.45,5.37,4.4,4.2a.29.29,0,0,0,.14-.08c.62-.6.66-2,.1-4.56-.13-1.44-.64-2.36-1.51-2.68a9.66,9.66,0,0,1-2.68-5.29.29.29,0,0,0,0-.13,15.36,15.36,0,0,1-3.73-7.59c-.47-2.58-1.05-4-2.31-4.57-.55-.23-.73.17-1.12-.69-.78-1.63-1.72-2.79-.53-3.26.29-.11-.08-.54.23-.78.5-.07,1.06.08.67,1.13-.15.42.44,1.23.86,1.54a24.16,24.16,0,0,0,4.15,3,.21.21,0,0,1,.1.06c.81.83.75,1.29.31,3.05a.31.31,0,0,0,0,.1c.07,2.26,1.67,3.77,4.79,4.51q4.64,2.52.9,3.28a.3.3,0,0,0-.23.16c-1.35,2.14-.32,4.24,3.15,6.22a.36.36,0,0,1,.15.21c1.35,5.17,2.12,8.26,2.31,9.23a.33.33,0,0,1-.25.38h0l-5.42,1a.32.32,0,0,1-.36-.22c-.25-.67-.43-1.36-1.11-1.24a3,3,0,0,1-1.66-.44c-5-2.25-6.65-3-6.65-3a2.28,2.28,0,0,0-1.06-.26c-3.57.27-5.66.09-6.9.74-.45.23-.2.78-.44,1a5.72,5.72,0,0,1-2.47.56,4.32,4.32,0,0,1-2.2.1c-.37-.18-.38-.55-.54-.7-2-1.49-3.79-2.7-3.83-4-.13-2.12-1.24-2.48-2-3.12a2.57,2.57,0,0,0-2.27-.91c-1.41.37-1.53,1.89-2.18,2.58-1.29,1.24-3.63.58-5.06-1.8q-2-3.15-3.77-6.48a5.43,5.43,0,0,0-4.53-2.69c-1.61-.32-2.33-1.55-1-3.13a1.74,1.74,0,0,0,.44-1.19c.93-4.53,1.08-7.51,0-9.67-2.19-5.37-4.6-8.92-6.06-9.66-3.15-1.57-7.8-.77-11.88.25-4.28,1.21-3.95,5-4.43,8.38Z"/><path class="cls-5" d="M230.65,247.7a4.89,4.89,0,0,1,.25,3.37,2.56,2.56,0,0,1-.66,1.52c-.5.42-1,.29-2.54.57-1.21.17-1.81.31-1.89.6-.18.59,1.33,1.94,2.89,2.59.32.13.84.32.82.49s-1.41.05-1.76.69c-.25.46.31.89.2,1.39-.31,1.52-6.21,1.83-6.42,1,0-.34.86-.52,1.11-1.47.18-.72-.24-1-.55-2.33-.42-1.76,0-2.5-.51-2.89s-1.79.45-2.2,0a1.14,1.14,0,0,1,.34-1.46c.5-.35,1.13-.06,1.58-.44.71-.55-.05-1.69.61-2.6s2.19-.55,2.44-1.34-.71-1.19-.5-1.73c.32-.78,2.86-.87,4.76.15A4.53,4.53,0,0,1,230.65,247.7Z"/><path class="cls-5" d="M223.22,246.79c-.21.35-.3.32-1.25,1.17a15.89,15.89,0,0,1-1.54,1.42,4.19,4.19,0,0,1-2.46.46c-4.28-.18-7.59,3-9.53,1.45a11.92,11.92,0,0,0-1.51-1.42c-1-.7-1.67-.73-1.69-1.08s1.28-1.19,2.56-1.23c1,0,1.37.35,2,.05.39-.19.63-.63,1.1-1.48.73-1.3.61-1.57,1.05-1.89.68-.5,1.13,0,2-.5a5.84,5.84,0,0,0,1.42-1.63c.75-1,.79-1.24,1.12-1.36A1.85,1.85,0,0,1,218.4,242c.17.59-.17.9,0,1.19.36.46,1.29-.18,2.74.06.51.06,1.87.22,2.36,1.2A2.58,2.58,0,0,1,223.22,246.79Z"/><path class="cls-5" d="M219,238c-.08.51-.6.46-1.86,1.73-.67.68-.62.79-1.12,1.21-1,.87-1.46.57-2.24,1.19-1.34,1.08-.88,2.67-2.07,3.14-.28.11-.19,0-1.41.09a6.2,6.2,0,0,0-2.13.41c-.91.44-1.1,1.07-1.39,1s-.35-.43-.27-2.7.25-2.3.17-3.42c-.1-1.63-.49-1.66-.41-2.9s.56-1.45.51-2.59c-.06-1.39-.8-2.06-.46-2.45s1.19-.22,1.67.21.37.92.69,1,.79-.8,1.22-.71.26.45.58,1.05a4.69,4.69,0,0,0,2.33,1.76c.59.27.88.41,1,.29.43-.37-.8-2.67-1-2.6s-.07.5.07.54.41-.84.85-.88.61.65,1.4,1.33a7,7,0,0,0,1.42.79C216.72,235.5,219.14,236.86,219,238Z"/><path class="cls-5" d="M210.59,228.25a3.53,3.53,0,0,1,2.08,1.57c.54,1,.5,2.43-.14,2.85s-1-.27-2.19,0c-.74.16-1.07.49-1.49.32s-.43-.65-.88-.86c-.83-.36-1.72.9-2.44.56-.45-.21-.19-.76-.76-1.53s-1.43-.66-1.73-1.4c-.19-.45.11-.49.05-1.87a3.43,3.43,0,0,0-.19-1.35c-.18-.52-.42-.75-.33-.86s1.37.64,1.78.29,0-1.13.16-1.23.59.45.89.86a16,16,0,0,0,1.85,2.25C208.23,228.53,208.91,227.66,210.59,228.25Z"/><path class="cls-5" d="M202.19,229.21c-.31,0-.35-.75-1.32-1.34a3.63,3.63,0,0,0-1.27-.48,5.74,5.74,0,0,0-2.54.12,10.36,10.36,0,0,0-2.76,1.18c-2.51,1.39-2.32,1.79-3.32,2a6.18,6.18,0,0,1-4.09-1.06,5.07,5.07,0,0,1-2.49-2.17c-.32-.65-.59-1.67-.18-2.05s.86.06,1.28-.29.07-1.15.36-1.26.74.31,1.09.72c.93,1.14.54,1.91,1.31,3.11,0,.09,1.07,1.62,2.07,1.45.42-.06.75-.52,1.43-1.4s.71-1.24,1.22-1.49c.71-.33,1.33.08,1.5-.21s-.26-.93-.74-1.32-1.2-.45-1.23-.7c-.06-.43,1.61-1,1.61-1a.88.88,0,0,1,.48-.45c.47-.14.77.36,1.61.59s.9-.13,1.45.13.58.87,1.31,1.23.8,0,1.67.21a3.18,3.18,0,0,1,1.88.93C203.54,226.87,202.73,229.17,202.19,229.21Z"/><path class="cls-7" d="M155.59,185,72.78,187.7a4.2,4.2,0,0,1-4.13-4.11L66,136.43a4,4,0,0,1,3.65-4.37l82.81-2.75a4.2,4.2,0,0,1,4.13,4.12l2.65,47.15A4,4,0,0,1,155.59,185Z"/><path class="cls-8" d="M143.35,158.64,77,160.84c-1.2,0-3.11-2-3.25-4.5L73,142.89c-.14-2.54,1.54-4.66,3.75-4.74l66.37-2.2c2.22-.07,4.13,1.93,4.27,4.47l.76,13.45C148.26,156.41,146.58,158.53,143.35,158.64Z"/><path class="cls-9" d="M86.5,154.52l50.57-1.68a3.5,3.5,0,0,0,3.22-3.85l-.09-1.52a3.68,3.68,0,0,0-3.63-3.62L86,145.52a3.5,3.5,0,0,0-3.21,3.85l.09,1.53A3.69,3.69,0,0,0,86.5,154.52Z"/><path class="cls-8" d="M132.91,140.41l-26,12.76c-3.42,1.68-7.83-.22-9.86-4.24l-5.63-11.11c-2-4-.92-8.64,2.5-10.31l26-12.77c3.41-1.67,7.83.22,9.86,4.24l5.63,11.12C137.44,134.11,136.32,138.73,132.91,140.41Z"/><path class="cls-8" d="M90.88,117.15a9.39,9.39,0,0,0,.16,1h0a23.31,23.31,0,0,0,2,3.78c1.38,2.47,2,3.75,2.24,4.2a33.27,33.27,0,0,0,9,11.05c.28.21,4.57,3.4,5.28,2.62,1-1.14-6.25-10.09-6.12-10.2s3.83,4.5,8.67,9.51c2.47,2.56,4,3.92,4.51,3.56s0-1.75-.46-3.18a23,23,0,0,0-2.24-4.83,31.17,31.17,0,0,0-2.47-3.71,29.75,29.75,0,0,0-2.66-3s10.11,12.19,11.83,11c.52-.38.12-1.91-.35-3.69a16.93,16.93,0,0,0-3.34-6.32,21.24,21.24,0,0,0-4.27-4.32c-.23.25,9,11.54,11,10.21.85-.55.29-3.15-.06-4.28-.7-2.31-2-3.35-3.86-5.55-2.7-3.1-5.79-6.67-4.93-8.5.74-1.57,3.9-.73,4.18-1.85.41-1.62-5-4.68-9.76-6.05a23.27,23.27,0,0,0-6.74-.91c-3,.06-5.22.11-7.43,1.65A10.57,10.57,0,0,0,90.88,117.15Z"/></g><path class="cls-10" d="M143.12,281.3c-22.62,1.47-38.88-2.87-42.42-3.86-29.15-8.1-47.91-25.47-56.58-34.71C35.45,233.09,16,208.76,10.7,172a132.9,132.9,0,0,1,3.85-55.29A141.91,141.91,0,0,1,48,57.59c8.47-8.9,40.36-42.41,90-42.43,54.93,0,88.67,41,95.14,48.86C263.56,101,264,142.56,264,157.87c-.06,17.36-.16,47.81-20.57,75.86C212.06,276.81,157.45,280.37,143.12,281.3Z"/></g></svg>