<svg xmlns="http://www.w3.org/2000/svg" xmlns:xlink="http://www.w3.org/1999/xlink" viewBox="0 0 281.29 278"><defs><style>.cls-1,.cls-10,.cls-14{fill:none;}.cls-2,.cls-5{fill:#fafafa;}.cls-10,.cls-2{stroke:#f0047f;stroke-width:4px;}.cls-10,.cls-14,.cls-2,.cls-4,.cls-9{stroke-miterlimit:10;}.cls-3{clip-path:url(#clip-path);}.cls-4{fill:#1c77b4;stroke:#1c8eb8;stroke-width:0.9px;}.cls-6{clip-path:url(#clip-path-2);}.cls-7,.cls-8{fill:#ce187d;}.cls-8{fill-rule:evenodd;}.cls-9{fill:#fff;stroke:#fd1a16;stroke-width:3px;}.cls-11{opacity:0.78;}.cls-12{clip-path:url(#clip-path-3);}.cls-13{opacity:0.81;}.cls-14{stroke:#eec414;stroke-width:0.75px;}</style><clipPath id="clip-path"><path class="cls-1" d="M480.33,554.41H339.16c-1.91-20.94-9.28-97.91-18.7-115.81-4.31-8.18-5.15-9.64-5.15-9.64-4.6-8-8.42-13.3-10.87-17s-3.33-5.67-2.63-7.45c1.95-4.93,14.63-2.48,15.66-6,1.11-3.83-13.22-9.39-12.18-13.75.87-3.6,10.82-.35,17.81-7.35,3.39-3.39,4.78-7.89,9.57-8.91a11.69,11.69,0,0,1,3.86,0c8.5.09,11.32-40.53,22.5-54.65,10.31-13,39.67-18.55,121.3,11.42Z"/></clipPath><clipPath id="clip-path-2"><path class="cls-2" d="M147,272.59c-22.63,1.47-38.89-2.87-42.43-3.86C75.43,260.63,56.67,243.26,48,234c-8.68-9.64-28.17-34-33.43-70.71A133.07,133.07,0,0,1,18.42,108,141.91,141.91,0,0,1,51.85,48.88c8.47-8.9,40.37-42.41,90-42.43,54.93,0,88.67,41,95.15,48.86,30.43,37,30.91,78.54,30.85,93.85-.06,17.36-.16,47.81-20.57,75.86C215.94,268.1,161.32,271.66,147,272.59Z"/></clipPath><clipPath id="clip-path-3"><rect class="cls-1" x="-887.83" y="-452.55" width="1123.71" height="282.86"/></clipPath></defs><title>aporta</title><g id="Capa_3" data-name="Capa 3"><g class="cls-3"><path class="cls-4" d="M280.45,324.54a.3.3,0,0,1,0,.42l-2.09,2.1c-.34.39-.69.74-1,1.17a3.46,3.46,0,0,0-1.38-.69,3.72,3.72,0,0,0-2.39.25.3.3,0,0,1-.37-.11c-.22-.33-.44-.66-.64-1l-1,1.6-2.94.42c-.61-.51-1.17-1.06-1.83-1.6s-1.56-1.3-2.31-1.89h0a11.57,11.57,0,0,0-3.92-1.55c-1-.19-1.58-.11-2.52-.29a9.39,9.39,0,0,1-4.23-2.13h0c-.3-.32-.57-.65-.86-1a.28.28,0,0,1-.09-.17,3.37,3.37,0,0,1,.12-1.3,4.36,4.36,0,0,1,1.12-1.66,15.89,15.89,0,0,0,1.29-1.76.31.31,0,0,0-.1-.42.3.3,0,0,0-.16-.05c-.64,0-1.27,0-1.9,0l-3.73.14a.28.28,0,0,0-.13,0l-2.18,1.13a.25.25,0,0,0-.12.11l-1.51,2.54a.28.28,0,0,0,0,.13l-.21,1.91a1.15,1.15,0,0,1-.93.66,1.18,1.18,0,0,1-1.12-.73,9.05,9.05,0,0,1-.42-2.3,10.9,10.9,0,0,1,.08-2.06.31.31,0,0,1,.11-.2c1.29-1,2.57-2,3.9-2.91h0l3.39-3.63,0-.08a6.47,6.47,0,0,1,1.85-2.51,4.52,4.52,0,0,0,1.38-1.27A3.39,3.39,0,0,0,254,304c.11-1.42.22-2.82.29-4.24a4.88,4.88,0,0,1,.15-1.52,4,4,0,0,1,.6-1.19.27.27,0,0,0,.06-.23,15,15,0,0,0-.26-1.49.68.68,0,0,0,0-.15c-1.05-1.2-2.09-2.41-3.14-3.64-.21-.19-.47-.49-.41-.74s.81-.36,1.07-.86c.12-.23.19-.64-.19-1.35-.5.32-.72.29-.86.21s-.07-.51-.17-1.26-.5-1.15-.3-1.43.53-.16,1-.44c.73-.5.17-1.59.85-2.48.23-.3.33-.23,2.11-1.09,1.12-.53,1.05-.55,1.9-1a23.94,23.94,0,0,1,2.57-1.06h0a16.62,16.62,0,0,1,1.82-.44l2-.29h.09l1.55.34c-.19-.58-.39-1.14-.59-1.72a.32.32,0,0,1,0-.17c.12-.5.28-1,.4-1.49a.17.17,0,0,0,0-.1,15.5,15.5,0,0,1-.18-1.67.27.27,0,0,1,.09-.24,5.68,5.68,0,0,1,1.37-1,6.67,6.67,0,0,1,1.94-.67.28.28,0,0,1,.26.09,2.27,2.27,0,0,0,1.58.72,2,2,0,0,0,1.4-.51c0-.91-.07-1.83-.08-2.74a2,2,0,0,0-.94-.58,1.93,1.93,0,0,0-1.46.3,1.26,1.26,0,0,1-1.19,0c-.36-.32-.33-1.24.46-1.94a2,2,0,0,0,1.78.27,1.41,1.41,0,0,0,.53-.38c-.1-.29-.2-.55-.3-.84l1.38-1.54a.35.35,0,0,0,.08-.24,16.51,16.51,0,0,1-.19-1.86.28.28,0,0,1,.17-.3,1.46,1.46,0,0,0,.69-.58c.21-.31.12-.48.31-.69.36-.48,1.06-.3,1.64-.51s1.09-.66,1.52-2.16v-.06c.2-.33.38-.66.58-1a.3.3,0,0,0-.05-.35l-.85-1a.42.42,0,0,0-.14-.09l-2.26-.7a2.49,2.49,0,0,1-.67-1,2.55,2.55,0,0,1,0-1.68.33.33,0,0,1,.11-.15l2.45-1.62a.3.3,0,0,0,.08-.08l1.33-1.73a.58.58,0,0,0,0-.14c.1-.68.2-1.34.28-2a.28.28,0,0,1,.12-.21c.52-.35,1.05-.69,1.57-1a1.4,1.4,0,0,0,.93-.62c.27-.5.06-1.08-.28-2a7.17,7.17,0,0,0-.66-1.4.52.52,0,0,1,0-.11l-.43-3.1a.26.26,0,0,0-.14-.2,17.26,17.26,0,0,1-1.41-1,27.29,27.29,0,0,1-2.62-2.3.25.25,0,0,0-.28-.07,5.57,5.57,0,0,1-2.63.09,5.84,5.84,0,0,1-1.89-.75,26.68,26.68,0,0,1,9.59-1,.32.32,0,0,1,.27.3c0,1-.06,3,0,4.93a2.6,2.6,0,0,0,.66,1.86,2.1,2.1,0,0,0,1.1.55l5.07-.24a.29.29,0,0,1,.31.27c.12.81.15,1.63.23,2.45a.3.3,0,0,0,.33.27h0a2,2,0,0,1,1.24.13,2.46,2.46,0,0,1,1.29,1.86,2.23,2.23,0,0,1-.13,1.68c-.3.5-.62.42-1.05,1.06a8.3,8.3,0,0,0-.57,1.34c-.16.39-.31.69-.4.91a5.34,5.34,0,0,1,0,1.44,6.17,6.17,0,0,1-.2.95c-.25.8-.37.82-.47,1.26-.15.63.11.72.21,2.08a3.38,3.38,0,0,1-.12,1.34c-.19.42-.42.48-.52.87a1.93,1.93,0,0,0,.18,1.29c.38,1,.79,1,1,1.82,0,.21,0,.06.11,1.18s.18,1.26.34,1.51a1.49,1.49,0,0,0,.72.54,2,2,0,0,1,.21,1.53c-.21.68-.79.7-1,1.34s.28,1.16.59,2.28a5.87,5.87,0,0,1,.08,2.47,5.23,5.23,0,0,1-.53,3.47,4.75,4.75,0,0,1-1,1.22.26.26,0,0,0-.08.33c.19.47.37,1,.56,1.55a19.37,19.37,0,0,1,.72,3.17,2.86,2.86,0,0,1-.45,1.39c-.61.88-1.39.74-1.63,1.42s.4,1.11.31,2.22a2.91,2.91,0,0,1-.5,1.48,4,4,0,0,0-.72,2.07,4.61,4.61,0,0,0,.28,1.55c.22.72.51,1.71.91,2.87V296l1,1.57a2.66,2.66,0,0,1,.59,1.39,1.73,1.73,0,0,1-.3.9c-.33.57-.75,1.34-1.28,2.41a.25.25,0,0,0,0,.25,6,6,0,0,1,.52,2,5.88,5.88,0,0,1-.31,2.24.13.13,0,0,1,0,.09,6.41,6.41,0,0,0-1,1.67c-.47,1.23-.2,1.83-.83,2.6-.46.58-.87.52-1.16,1.08a2.43,2.43,0,0,0,0,1.72c.27,1.06.57,2.09.84,3.16a3.71,3.71,0,0,1-.47,2.3c-.35.57-.61.64-1.55,1.6s-1.6,1.66-1.56,2.39A1.37,1.37,0,0,0,280.45,324.54Z"/><path class="cls-4" d="M291,337.08c-.3,0-.58.17-.88.24l-.1,1.27-.42.89a.92.92,0,0,1-.54.08,1,1,0,0,1-.69-.76l-.69-.74a.23.23,0,0,1,0-.18l-.29-2a.31.31,0,0,0-.16-.24l-.92-.44a.26.26,0,0,1-.16-.18c-.21-.66-.38-1.3-.59-2l.66-.49c-.08-.6-.1-1.18-.16-1.79a9.45,9.45,0,0,1-.77-.65,2,2,0,0,1-.8-.47,2.13,2.13,0,0,1-.43-2c-.2-.59-.44-1.17-.64-1.75l-.12-.78c-.62,0-1.24,0-1.89,0a.28.28,0,0,1-.29-.24,9.13,9.13,0,0,0-.28-1.4c.06-.44.14-.76.17-1,.13-.75.16-1,.33-1.07s.27-.09.67.19a5,5,0,0,1,.37-.42,6.28,6.28,0,0,1,.91-.8l.71-1.12.36-1.51a.33.33,0,0,0,0-.17c-.22-.61-.47-1.24-.69-1.85l-.18-.87a10.65,10.65,0,0,0-.24-1.15.16.16,0,0,1,0-.15c.1-.4.22-.78.34-1.21l.83-.57c.08-.32.19-.61.27-.93.11-.54.25-1.06.35-1.61a4.19,4.19,0,0,1,.39-.76,3.73,3.73,0,0,1,.94-1,.28.28,0,0,0,.12-.2c.05-.44.12-.88.17-1.31a.15.15,0,0,1,0-.11c.2-.38.38-.76.6-1.1a3.52,3.52,0,0,1-.39-.56c-.21-.4-.66-1.23-.37-1.79.09-.16.18-.18.33-.44a2.13,2.13,0,0,0,.23-.74c.1-.41.22-.83.32-1.24a1.39,1.39,0,0,0,.5-1.45,1.31,1.31,0,0,0-1.15-.91,2.38,2.38,0,0,0-.22-1.53c-.24-.39-.5-.51-.65-.93a1.64,1.64,0,0,1,0-1.07.85.85,0,0,1-.59-.28c-.12-.2.07-.63.1-1.27s-.31-.88-.19-1.35.26-.73,1-1.16a.31.31,0,0,0,.15-.36c-.14-.42-.28-.84-.44-1.25l.74-.36a.77.77,0,0,0,0-.72c-.11-.17-.26-.12-.57-.38,0,0-.42-.37-.35-.51h0a11,11,0,0,0,.76-1.12c.27-.37.53-.74.76-1.13a2.41,2.41,0,0,0,.44-1,2.39,2.39,0,0,0,0-1,9.43,9.43,0,0,0-.3-1.51c-.25-1.1-.28-1.31-.46-1.9-.1-.29-.16-.53-.22-.7l.54-.75c.18-.24.33-.45.48-.69.09-.49.14-1,.22-1.48h0a8.91,8.91,0,0,0,.24-1.05,7.08,7.08,0,0,0,.06-2.43,15,15,0,0,1-.49-1.74c0-.18-.18-1.26,0-1.28h0c.1,0,.35-.22.76-.7l-.84-2.44-.66-.13a4.38,4.38,0,0,0,.21-.73,2.61,2.61,0,0,0-.12-1.24,1,1,0,0,0,0-1,1.1,1.1,0,0,0-.68-.45,1.67,1.67,0,0,0,.22-.65,1.39,1.39,0,0,0-.3-.78,7.93,7.93,0,0,0-.23-1c.13-.33.28-.68.42-1a.22.22,0,0,0,0-.08c0-.44.05-.87.1-1.31a.17.17,0,0,0,0-.07l-.24-1.65a4,4,0,0,1,.53-1.37,3.48,3.48,0,0,1,.95-1.07.32.32,0,0,0,.09-.33l-.57-1.55a8,8,0,0,1,.39-.91,5.67,5.67,0,0,1,.7-1.12c.53-.59.73-.47,1-.87a2.05,2.05,0,0,0,.06-1.54,6.68,6.68,0,0,0-.67-1.23c-.22-.35-.4-.68-.53-.94a.28.28,0,0,0-.28-.16l-1.29.07a3.46,3.46,0,0,0-.2-1.38,2.27,2.27,0,0,0-1-1.42c-.36-.19-.49,0-1.87,0h-.43a3.55,3.55,0,0,0-.46,0c-.24,0-.28.2-.45.31-.41.31-1.13,0-1.39-.11a2.64,2.64,0,0,1-.92-.66,6.49,6.49,0,0,1,.92-.72,7.86,7.86,0,0,1,1-.53,1.14,1.14,0,0,0,.74-.42c.26-.31.21-.67.29-1.41a8.25,8.25,0,0,1,.21-1.32,4.42,4.42,0,0,1,.89,0,4.51,4.51,0,0,1,1.24.31,2.93,2.93,0,0,1-.78,1c-.33.26-.51.29-.66.49s-.21.67.29,1.61l3-.42c-.25.62-.47,1.26-.76,1.88a1.68,1.68,0,0,0,1.3-.36c.29-.35.18-.7.46-1.09a1.49,1.49,0,0,1,1.32-.37c.21.34.35.69.21.83s-.54-.17-.73,0-.15.71.49,2.24a.31.31,0,0,1,0,.1c0,.63.05,1.22.08,1.83a1,1,0,0,0,.7-.22c.21-.21.15-.45.31-.62s.51-.29,1.37-.07a1.8,1.8,0,0,1-.06.92c-.15.39-.39.49-.38.76s.49.67.92.89a1.25,1.25,0,0,1,.72-.59,1.38,1.38,0,0,1,.7,0,2.17,2.17,0,0,1-.42,1.13,2.19,2.19,0,0,1-.86.68.79.79,0,0,1,.84-.18.86.86,0,0,1,.53.94,7.51,7.51,0,0,1,.35,1.82,5.6,5.6,0,0,1,0,.71l-.5.56a1.63,1.63,0,0,1-1.36-.52,2.15,2.15,0,0,1-.28-.66,7.65,7.65,0,0,0-.53-1.21c-.34.66-.7,1.32-1,2l-.88.25,1.14.86a.24.24,0,0,0,.14.05l1.23.18c0,.27,0,.58-.06.86a.59.59,0,0,0-.5,1.05.77.77,0,0,0,.76.2c.75-.38,1-.36,1.16-.26s0,.5.15.63.41,0,.63-.09a.73.73,0,0,1-.15-1l.06-.07a.73.73,0,0,1,1,.17c0,1.16-.27,1.51-.54,1.6a1.43,1.43,0,0,0-.55.21c-.16.14-.31.38-.26.55s.56.23.57.35-.63.49-1.27.33c-.25-.05-.29-.14-.77-.29a6.62,6.62,0,0,1-.64-.18,1.58,1.58,0,0,1-.84-.95,1.35,1.35,0,0,0-.13,1c.17.34.58.43.54.56s-.67,0-.76.23.56.54.53,1-.45.49-.83.64l-.1,1.27c-.28.19-.59.35-.87.55.06.39,0,.79,0,1.22.57.1,1.14.23,1.73.33a1.7,1.7,0,0,0-.74,1c-.13.63.33,1.08.12,1.54a1.1,1.1,0,0,1-.63.49,2.9,2.9,0,0,1,.29,2.1,2,2,0,0,1-.36.69,1.05,1.05,0,0,0,.15,1.09,1.07,1.07,0,0,0,.75.32c.26-.13.5-.26.74-.41.4-.43.62-.43.74-.41s.32.32.65,1.1a9.65,9.65,0,0,1,.57,1.27,2.79,2.79,0,0,1-.16,1.64,1.54,1.54,0,0,1,0,1.08c-.27.53-.84.61-.88,1s.29.36.29.79-.2.49-.16.76a.86.86,0,0,0,.59.49,9,9,0,0,0,.1,2.26,8.79,8.79,0,0,0,.54,1.88,3.71,3.71,0,0,1-.47.16c-.5.13-.66,0-.78.11-.29.32.73,1.43.37,1.91-.18.27-.61.08-.83.42a1.06,1.06,0,0,0,.06,1.06,3.55,3.55,0,0,1,0,1.26c-.22,1-.86,1.14-1.09,2-.33,1.15.43,1.51,0,2.67-.25.65-.53.81-.51,1.36s.48,1,.29,1.43a1,1,0,0,1-.72.53,13,13,0,0,0,0,1.53,11.11,11.11,0,0,0,.32,2.22,9.4,9.4,0,0,0,.65,1.77l.12.91c.15.59.23.73.14,1a1.48,1.48,0,0,1-.64.67c-.41.3-.57.29-.66.49s-.06.47.41,1a3.73,3.73,0,0,1,.66,1.41,4.71,4.71,0,0,1,.1,1.18,2.35,2.35,0,0,1-.19,1,4.34,4.34,0,0,0-.45.95c-.08.29,0,.31-.12.87l-.12.67a4.92,4.92,0,0,0,.05,1.27c0,.83-.53.81-.65,1.66a4.48,4.48,0,0,0,.27,1.92c.17.53.41,1,.17,1.23s-.26.1-.42.24a1.12,1.12,0,0,0-.26.78c0,.55.42.79.67,1.28.46.82-.1,1,.18,2.55.24,1.25.74,2,.34,2.4-.14.14-.35.17-.49.44a1.53,1.53,0,0,0-.16.82c.14,1-.29.8-.09,3.5a33.19,33.19,0,0,0,.63,4.44,28.69,28.69,0,0,1,.61,3v.06A13.3,13.3,0,0,0,291,337.08Z"/></g></g><g id="Capa_2" data-name="Capa 2"><path class="cls-5" d="M147,272.59c-22.63,1.47-38.89-2.87-42.43-3.86C75.43,260.63,56.67,243.26,48,234c-8.68-9.64-28.17-34-33.43-70.71A133.07,133.07,0,0,1,18.42,108,141.91,141.91,0,0,1,51.85,48.88c8.47-8.9,40.37-42.41,90-42.43,54.93,0,88.67,41,95.15,48.86,30.43,37,30.91,78.54,30.85,93.85-.06,17.36-.16,47.81-20.57,75.86C215.94,268.1,161.32,271.66,147,272.59Z"/><g class="cls-6"><path class="cls-7" d="M123.33,100.42a7.62,7.62,0,0,1-.67,2.47,3.56,3.56,0,0,1-1.24,1.26,3.38,3.38,0,0,1-1.49.4c-1.14,0-1.4-1.07-3-2.46a19.48,19.48,0,0,0-3.19-2c-2-1.1-2.18-.94-2.71-1.51a5.56,5.56,0,0,1-.86-4.27,6.34,6.34,0,0,1,1.13-3.08c.15-.22,2-2.75,4-2.44.72.12,1.21.54,1.79.31s.71-.91,1.18-.91.45.36,1.07.75a4.52,4.52,0,0,0,1.37.5c2.73.64,3.16.68,3.48,1v.06a13.68,13.68,0,0,1,.39,1.56c.4,1.73.44,2.14.18,2.39s-.63,0-1,.25c-.64.46.25,1.8,0,3.91h0C123.67,99.19,123.57,99,123.33,100.42Z"/><path class="cls-7" d="M204.93,184c.09.16,0,.34,0,.88s-.1,1-.13,1.45c-.2,1.53.11,1.52-.12,2.09-.35.91-1,.73-1.39,1.73-.19.54-.06.76-.33,1.48s-.48.71-.5,1.06c0,.82,1.08,1.1,1,1.72s-.7.61-2.31,1.46c-2,1-1.88,1.19-2.45,1.23-1.05,0-2-.56-3.38-1.49-.82-.57-1-.81-1.65-.9a3.67,3.67,0,0,0-2.15.2c-.84.32-1,.82-1.43.75s-.48-.48-1-1.18c-1-1.16-1.6-1-1.88-1.71-.21-.58.12-.84.54-2.49s.11-1.62.45-2.34c.43-1,1.3-1.64,3.09-2.95a5.15,5.15,0,0,1,2.1-1.18c.63-.09,1,0,1.39-.3s.33-.76.55-1.61c.32-1.34.71-1.24,1-2.32s-.12-1.58.3-2.46c.29-.58.89-1.18,1.28-1.06s.16,1.16.77,1.62,1.43-.27,2.21.23a2,2,0,0,1,.69,1,2.94,2.94,0,0,1,.16,1.85c-.27,1.17-1.2,1.57-1.06,1.89s.84-.12,1.78.29c.61.25.54.47,1.23.71S204.73,183.67,204.93,184Z"/><path class="cls-7" d="M138.39,128.6c0,.47-.31.47-.78,1.75a14.7,14.7,0,0,0-.63,2.05c-.32,1.51,0,1.66-.33,2.55a4.52,4.52,0,0,1-1.4,1.92,5.71,5.71,0,0,1-1.84.89,11.55,11.55,0,0,1-1.91.46,11.19,11.19,0,0,1-2.23.31c-.51,0-1-.06-1.52-.12a7.64,7.64,0,0,1-1.9-.39h0a3.92,3.92,0,0,1-1.3-1.23c-.23-.34-.38-.76-.56-2.56a19.68,19.68,0,0,0-.52-3.66c-.16-.62-.32-1.09-.69-1.24s-.67.09-1.38.29h0a8.83,8.83,0,0,1-3.11.29c-.85-.08-1.23-.12-1.46-.39-.67-.73.41-2-.25-3.58a2.17,2.17,0,0,0-.89-1.19c-.76-.36-1.35.19-2.21-.15a1.88,1.88,0,0,1-1-1.08c-.2-.68.31-1,.78-2.48a6,6,0,0,0,.36-2.23c0-.94-.34-1.08-.25-1.81a2.33,2.33,0,0,1,1-1.67c.55-.25.85.11,1.29-.18.6-.38.26-1.17.9-1.65.41-.3.7.09,1.39-.2s.72-.87,1.42-1c.3,0,.41,0,1.66.34l1.24.3c1.63.25,2.46-.35,2.72,0s-.25,1.17-1.2,2.67c-.4.67-.74,1.15-1.17,2a3.78,3.78,0,0,0-.49,1.51.59.59,0,0,0,0,.13c.24.67,1.27,1,2.1,1.21,1.31.37,1.4.08,2.23.37,1.46.53,1.45,1.53,2.88,2.14,1,.42,1.14,0,2.44.35a9.74,9.74,0,0,1,4.11,2.44h0C137.6,126.93,138.44,127.65,138.39,128.6Z"/><path class="cls-7" d="M160.36,143.13c-.18.27-.85,1.17-.55,1.73s.8.15,1.22.62.13.93.26,2.91a6.3,6.3,0,0,1,0,1.84c-.18.82-.47.83-.69,1.49-.54,1.61.77,2.55.2,4.34-.19.64-.34.49-.43.93-.39,2.1,3.28,3.78,2.68,5a1.48,1.48,0,0,1-1.34.71c-.62,0-.71-.83-1.19-.83s-.76.71-1.33,1.48a23.05,23.05,0,0,1-2.36,2.06,21.53,21.53,0,0,1-3,2.22c-.59.23-2.32.93-3.23.19-1.12-.91.25-2.73-.86-5.12a6.16,6.16,0,0,0-3.32-2.93c-1.2-.46-1.43,0-3.07-.29-3.24-.54-3.51-2.23-6.2-2.39-1.62-.09-2.31.47-3.18-.18a3.38,3.38,0,0,1-1.31-2.66c0-.8.31-1,.21-1.86a10.24,10.24,0,0,0-.54-1.79c-.48-1.56-.17-1.77-.47-2.11-1-1.21-4.55.89-5.37-.22-.48-.65.41-1.62-.18-2.39s-1.26-.19-2.08-.84a3.19,3.19,0,0,1-.95-2.27,6.42,6.42,0,0,1,.46-2.45c.61-1.94.92-2.92,1.37-3.13,1.2-.53,2.24,1.8,4.57,1.72,1.39,0,1.17-.85,3.64-1.44,1.33-.34,2.3-.33,2.93-1.12a3,3,0,0,0,.41-1.19c.54-2.16,1.1-2.3,1.4-3.6.43-1.93-.58-2.85,0-3.4,1-.92,3.77,1.23,4.75.28.57-.59.07-1.88.48-2s.54.61,1.27,1c1.07.41,1.72-.51,2.82-.12s.86,1.09,1.46,1.12c.94,0,1.16-1.81,3-3.11.21-.12,1.86-1.31,2.65-.77s-.11,1.67.75,3.6a10.67,10.67,0,0,0,1.12,1.83,11.84,11.84,0,0,1,.9,1.09,4.28,4.28,0,0,1,.57,2.18c-.05,1.2-.65,1.51-.38,2.13s1,.41,1.57,1.11.11,1.49.67,2.76c.67,1.55,2.11,1.83,2,2.58C161.63,142.24,161,142.18,160.36,143.13Z"/><path class="cls-7" d="M177.6,178.85c-.51,1.2-1,2.36-2.14,2.73-.71.24-1-.06-1.85.31a10,10,0,0,0-1.37.83c-.93.49-1.11.23-2.17.71a3.71,3.71,0,0,0-2,1.61,2.85,2.85,0,0,0-.19.75,20.85,20.85,0,0,0,0,3.87c0,1.2-.1.85,0,1.89a2.75,2.75,0,0,1-.23,1.62c-.16.29-.29.28-.31.47-.06.54,1,.67,1.36,1.59.16.44,0,.56.13.91.33.57.9.45,1.26.88s.16,1.18.08,2.33c-.27,2.55.49,3.52-.17,4.09-.39.36-.72,0-2.16.13a12.76,12.76,0,0,0-3.39.84c-2,.68-2.38,1.11-3,.8s-.41-1.07-1.13-2a4.12,4.12,0,0,0-2.35-1.46c-.78-.09-1.93.57-4.27,1.87l-1.65,1a3,3,0,0,0-.6.46c-.51.53-.36,1-.75,1.55a2,2,0,0,1-1,.71.68.68,0,0,0-.47.28c-.16.23-.26.57-.11.75s1-.22,1.77.07c.41.18.61.54.94,1.2.56,1.05.41,1.58.88,2.3a3.35,3.35,0,0,0,1.46,1.2,7.71,7.71,0,0,1-1.58.22c-.77,0-.74-.1-1.62-.07s-1.11.15-1.38-.13-.13-.45-.38-.75a1,1,0,0,0-1-.38c-.52.23.06,1.45-.61,2.19s-1.42,0-2.58.82a7.15,7.15,0,0,0-1.37,1.43c-.42.51-.39.53-.75,1-1.09,1.29-1.56,1.55-2,1.56a2.46,2.46,0,0,1-1.72-.81,4.24,4.24,0,0,1-1.19-1.68c-.85-2.06,0-3.49-.28-5.64-.21-1.5-1.07-4.21-2.74-4.68-2-.56-3.41,2.64-7.41,3.76a8.61,8.61,0,0,0-3.13,1.25c-.81.59-1,.95-1.61,1.09-1.11.21-1.76-.77-3-1.14a5,5,0,0,0-4.46,1c-.94.79-.68,1.38-2.17,3.71-1,1.64-1.51,2.48-2.08,2.45-1.14-.06-.62-3-3-5.07-.81-.72-1.5-1.6-2.28-2.35-.39-.38-.92-.92-.82-1.45.06-.28.29-.31.62-.82a26.74,26.74,0,0,1,1.75-3c1.78-2.61,2.66-3.93,2.55-4s-.69.46-2.6,1.86c-1.58,1.15-1.56,1-2.21,1.58a11.25,11.25,0,0,0-1.15,1.14c-.66.82-.67,1.23-1,1.27-.6.09-.7-1.46-2-2.07-.84-.4-1.54-.13-1.84-.66a1.63,1.63,0,0,1,.08-1.15c.59-1.58,2-2.27,1.87-2.42a5,5,0,0,0-2.87,1.43c-1.12,1-1,1.43-1.73,1.74-1.06.47-1.91-.15-4.29-1-3.68-1.31-4.34-.72-5.25-1.76-1.45-1.67-.48-4.06-1.42-4.41s-1.75,2.41-4.22,2.92c-1.82.4-2.4-.9-5.33-.87-1.92,0-1.93.57-3.44.43a8.85,8.85,0,0,1-5.09-2.41c-2.07-1.81-1.77-2.86-3.51-3.71a9.36,9.36,0,0,0-4-.57c-2.74-.08-3.34.47-4.16-.14s-.86-1.83-1-4.47c-.35-6.89-.9-6.4-.5-7.56,1.21-3.23,4.67-4.06,5.38-7a8.74,8.74,0,0,1,.71-2.05,10,10,0,0,1,1.48-2.14c1.35-1.6,2-2.05,2.52-2.72,1.62-1.89,1.85-4.2,2.06-6.37.27-2.63-.35-2.48-.25-5.43a55.52,55.52,0,0,1,1.57-8.48c.55-2.47.81-3.69,1-4.29a32.1,32.1,0,0,1,3.6-7.88c2-3,3.22-4.87,5.44-5.5,2-.57,2.69.5,5.25,0,1-.15,1.91-.52,5.52-3.05,4.19-2.94,6.28-4.46,6.89-5.89,1.12-2.43-.39-2.79.49-6.6a19.43,19.43,0,0,1,5.27-8.52,7.13,7.13,0,0,1,1.81-1.32c.94-.46,1.31-.29,1.88-.66s.87-1.2,1.38-3a21.07,21.07,0,0,1,1.58-4.43c.27-.53,1.44-2.79,2.34-2.6.58.15.34,1.18,1.19,2.6.58,1,1.72,1.78,4,3.42.71.5,1.19.84,2,1.5s1.55,1.34,1.55,1.34c1.13,1,1.18,1.24,1.63,1.41,1.08.36,1.94-.46,2.16-.19s-.43,1.2-3.12,4.23c-2,2.3-2.35,2.6-2.55,2.81-1.58,1.36-2.12,1.12-3.33,2.37a6.4,6.4,0,0,0-2,3.3c-.08.47-.35,1.85.35,2.49s1.8-.18,2.33.38c.91.88-1.38,3.78-.44,4.94.7.84,2.23-.24,3.26.62,1.55,1.26.28,5.18.88,5.35.17.05.2-.19.54-.42.94-.63,1.94.21,3.82.18,1.31,0,1.49-.45,2-.17s.66.85.86,3.91a18.83,18.83,0,0,1,0,5c-.2.91-.46,1.81-.75,2.7a2.74,2.74,0,0,0-.29,1.35,4.46,4.46,0,0,0,.51,1.31,3.85,3.85,0,0,0,1,1.55c.58.37.83,0,1.27.36.85.58.39,2,1.18,2.39.13,0,.14,0,.8,0,1-.07,1,0,2.53,0,1,0,1.18-.09,1.32,0,.44.42-.23,1.24.21,2.24.31.78.94.76,1.07,1.48.08.55-.21.76-.32,1.43a3.37,3.37,0,0,0,1.18,3.05c.77.58,1.46.31,2.9.37a31.27,31.27,0,0,1,5.12,1.4c4.13,1.29,4.64,1.54,5.28,2a7.83,7.83,0,0,1,2.56,2.59c1.37,2.41.25,4.2,1.25,4.87,1.24.76,4.16-.94,5.92-2.77,1.38-1.46,1.51-2.48,2.73-2.73s2,.85,3.56.44a7.78,7.78,0,0,1,2.12-.54,1.83,1.83,0,0,1,1.15.09c1.31.71.25,4.43,1.09,4.75.41.15.71-.72,2.15-1.37.44-.19,1.73-.77,2.44-.24.28.21.29.46.67.73a2.46,2.46,0,0,0,1.18.3c.9.13,1,0,1.25.16.42.28.2.78.5,1.62.13.37.25.39,1.4,1.86,1,1.21,1.25,1.55,1.27,2s-.11.43-.16,1c-.08,1.15.43,1.58.16,2s-1.11.16-1.43.68.06,1,0,2v.09A11,11,0,0,1,177.6,178.85Z"/><path class="cls-7" d="M153.3,123.92a.34.34,0,0,1,0,.46L151,126.72c-.38.43-.77.82-1.14,1.29a4.06,4.06,0,0,0-1.54-.77,4.11,4.11,0,0,0-2.65.29.34.34,0,0,1-.41-.12c-.25-.38-.49-.74-.72-1.13l-1.13,1.78-3.26.46c-.68-.56-1.3-1.17-2-1.77s-1.73-1.45-2.57-2.1h0a12.62,12.62,0,0,0-4.35-1.72c-1.16-.21-1.75-.13-2.8-.32a10.51,10.51,0,0,1-4.7-2.38h0c-.33-.35-.64-.71-1-1.08a.28.28,0,0,1-.09-.18,3.68,3.68,0,0,1,.13-1.44,4.76,4.76,0,0,1,1.24-1.85,18.64,18.64,0,0,0,1.44-2,.34.34,0,0,0-.11-.46.31.31,0,0,0-.18-.05c-.71,0-1.41,0-2.11,0l-4.15.16a.26.26,0,0,0-.15,0l-2.42,1.25a.3.3,0,0,0-.13.12l-1.67,2.82a.43.43,0,0,0,0,.14l-.23,2.14a1.23,1.23,0,0,1-2.28-.09,10.6,10.6,0,0,1-.47-2.56,12.43,12.43,0,0,1,.09-2.28.29.29,0,0,1,.13-.22c1.43-1.09,2.85-2.18,4.33-3.24h0l3.76-4,.06-.09a7.26,7.26,0,0,1,2.05-2.79,5.07,5.07,0,0,0,1.54-1.41,3.83,3.83,0,0,0,.49-2c.12-1.59.24-3.13.32-4.71a5.07,5.07,0,0,1,.17-1.69,4,4,0,0,1,.67-1.32.35.35,0,0,0,.06-.26c-.08-.56-.16-1.11-.29-1.66a1,1,0,0,0,0-.17c-1.17-1.33-2.32-2.68-3.49-4-.23-.21-.52-.54-.46-.82s.9-.4,1.2-.95c.13-.26.2-.71-.22-1.51-.56.36-.8.32-1,.24s-.08-.57-.2-1.4-.55-1.28-.32-1.59.58-.18,1.06-.49c.81-.56.19-1.76.94-2.75.26-.34.37-.26,2.35-1.22,1.24-.58,1.17-.61,2.11-1.08a29.4,29.4,0,0,1,2.85-1.17h0a20.72,20.72,0,0,1,2-.5l2.23-.31h.1l1.73.38c-.22-.65-.44-1.27-.66-1.92a.25.25,0,0,1,0-.19c.13-.55.31-1.1.44-1.65a.2.2,0,0,0,0-.11c-.09-.62-.17-1.22-.2-1.86a.31.31,0,0,1,.1-.27A6.55,6.55,0,0,1,137,67a7.55,7.55,0,0,1,2.16-.73.28.28,0,0,1,.29.09,2.49,2.49,0,0,0,1.75.8,2.34,2.34,0,0,0,1.56-.56c0-1-.08-2-.09-3.05a2.18,2.18,0,0,0-1-.64,2.1,2.1,0,0,0-1.63.33,1.42,1.42,0,0,1-1.33,0c-.39-.36-.36-1.38.52-2.15a2.28,2.28,0,0,0,2,.3,1.76,1.76,0,0,0,.59-.43c-.12-.32-.23-.61-.34-.94l1.54-1.7a.44.44,0,0,0,.09-.27A17.93,17.93,0,0,1,142.8,56a.34.34,0,0,1,.19-.33,1.71,1.71,0,0,0,.78-.65c.22-.34.13-.53.33-.76.4-.53,1.18-.34,1.83-.56s1.21-.74,1.69-2.41v-.07c.22-.37.42-.72.64-1.06a.33.33,0,0,0-.05-.39l-1-1.11a.33.33,0,0,0-.14-.1l-2.52-.78a2.65,2.65,0,0,1-.74-1.12,2.85,2.85,0,0,1,0-1.87.33.33,0,0,1,.12-.16l2.72-1.81a.2.2,0,0,0,.09-.09l1.48-1.92a.3.3,0,0,0,.05-.15c.11-.76.23-1.49.31-2.24a.37.37,0,0,1,.14-.23L150.49,37a1.53,1.53,0,0,0,1-.69c.29-.55.07-1.2-.32-2.22a8.29,8.29,0,0,0-.73-1.57.5.5,0,0,1,0-.12L150,29a.27.27,0,0,0-.15-.23c-.54-.35-1.07-.72-1.57-1.12a28.34,28.34,0,0,1-2.91-2.56A.28.28,0,0,0,145,25a6.32,6.32,0,0,1-2.93.11,6.55,6.55,0,0,1-2.09-.84,30.66,30.66,0,0,1,5.1-1,30.26,30.26,0,0,1,5.55-.07.34.34,0,0,1,.3.34c0,1.14-.06,3.28,0,5.47a2.92,2.92,0,0,0,.74,2.07,2.19,2.19,0,0,0,1.22.61l5.63-.27a.34.34,0,0,1,.35.3c.13.9.17,1.82.25,2.72a.34.34,0,0,0,.37.3h0a2.18,2.18,0,0,1,1.38.15,2.69,2.69,0,0,1,1.43,2.06,2.45,2.45,0,0,1-.14,1.86c-.33.56-.69.47-1.16,1.19a9.77,9.77,0,0,0-.65,1.48c-.17.43-.33.76-.43,1a6,6,0,0,1,0,1.59,7.24,7.24,0,0,1-.22,1.05c-.29.9-.42.91-.52,1.41-.17.7.11.8.22,2.31a3.53,3.53,0,0,1-.13,1.48c-.2.47-.47.55-.58,1a2.09,2.09,0,0,0,.21,1.43c.42,1.08.87,1.14,1.1,2,0,.23,0,.06.12,1.31s.2,1.4.37,1.68a1.77,1.77,0,0,0,.8.6,2.16,2.16,0,0,1,.24,1.7c-.23.75-.88.77-1.12,1.49s.32,1.28.67,2.53a6.66,6.66,0,0,1,.08,2.74,5.75,5.75,0,0,1-.59,3.86A5,5,0,0,1,159.61,72a.29.29,0,0,0-.08.37c.21.52.41,1.07.62,1.73a20.37,20.37,0,0,1,.8,3.52,3.12,3.12,0,0,1-.5,1.54c-.68,1-1.55.83-1.82,1.58s.45,1.23.35,2.47a3.09,3.09,0,0,1-.55,1.64,4.62,4.62,0,0,0-.81,2.3,5.61,5.61,0,0,0,.31,1.72c.25.8.58,1.9,1,3.19v.07c.26.4.64,1,1.14,1.74a2.88,2.88,0,0,1,.66,1.54,1.86,1.86,0,0,1-.33,1c-.36.64-.83,1.49-1.42,2.69a.31.31,0,0,0,0,.28,6.29,6.29,0,0,1,.58,2.25,6.19,6.19,0,0,1-.34,2.49.14.14,0,0,1-.05.1,7.11,7.11,0,0,0-1.16,1.85c-.52,1.37-.22,2-.92,2.89-.52.65-1,.58-1.29,1.2a2.79,2.79,0,0,0,0,1.91c.31,1.18.64,2.33.94,3.51a4.16,4.16,0,0,1-.52,2.56c-.39.63-.68.71-1.72,1.77s-1.78,1.85-1.74,2.66A1.53,1.53,0,0,0,153.3,123.92Z"/><path class="cls-7" d="M165,137.84c-.33,0-.65.2-1,.28l-.1,1.41-.48,1a.89.89,0,0,1-.6.09,1,1,0,0,1-.76-.85l-.77-.82a.25.25,0,0,1,0-.19l-.32-2.22a.33.33,0,0,0-.18-.27l-1-.49a.31.31,0,0,1-.17-.2c-.23-.73-.42-1.44-.66-2.18l.74-.55c-.1-.66-.12-1.31-.18-2a8.4,8.4,0,0,1-.85-.73,2.16,2.16,0,0,1-.89-.52,2.32,2.32,0,0,1-.48-2.2c-.23-.65-.49-1.29-.72-1.94l-.12-.87c-.69,0-1.38,0-2.11,0a.32.32,0,0,1-.32-.27,11.19,11.19,0,0,0-.31-1.55c.06-.49.15-.84.18-1.08.16-.84.19-1.09.38-1.19s.29-.11.74.2c.13-.16.27-.32.41-.47a7.68,7.68,0,0,1,1-.88l.79-1.24.4-1.68a.31.31,0,0,0,0-.19c-.24-.68-.51-1.38-.75-2.06l-.21-1a11.2,11.2,0,0,0-.27-1.28.18.18,0,0,1,0-.16c.12-.44.25-.87.38-1.34l.93-.64c.08-.35.21-.68.29-1,.12-.6.28-1.17.4-1.79a4.12,4.12,0,0,1,.42-.84,4.27,4.27,0,0,1,1.05-1.07.29.29,0,0,0,.13-.22c.06-.49.14-1,.19-1.46a.28.28,0,0,1,0-.12c.23-.43.43-.84.67-1.23a3.81,3.81,0,0,1-.43-.62c-.23-.44-.74-1.36-.42-2,.11-.19.21-.2.38-.5a2.54,2.54,0,0,0,.25-.81c.11-.46.25-.92.35-1.38a1.56,1.56,0,0,0,.56-1.61,1.44,1.44,0,0,0-1.28-1,2.56,2.56,0,0,0-.24-1.7c-.26-.44-.55-.57-.72-1a1.86,1.86,0,0,1,0-1.19,1,1,0,0,1-.66-.31c-.13-.22.08-.69.11-1.41s-.34-1-.21-1.5c0-.35.29-.81,1.08-1.29a.35.35,0,0,0,.17-.4c-.16-.46-.32-.93-.5-1.39l.83-.39a.89.89,0,0,0,0-.81c-.13-.19-.29-.13-.64-.42,0,0-.47-.41-.39-.56h0c.32-.39.57-.83.85-1.25s.58-.83.84-1.26a2.45,2.45,0,0,0,.49-1.09,2.54,2.54,0,0,0,0-1.13,9.46,9.46,0,0,0-.34-1.69c-.27-1.22-.3-1.46-.5-2.11-.11-.32-.18-.59-.25-.78.21-.27.4-.57.6-.83s.37-.5.54-.76c.09-.55.15-1.09.25-1.65h0a11,11,0,0,0,.26-1.17,8.1,8.1,0,0,0,.06-2.69,18.58,18.58,0,0,1-.54-1.94c0-.2-.2-1.4,0-1.43h0c.11,0,.38-.24.84-.77l-.92-2.71-.74-.14a4.76,4.76,0,0,0,.23-.82,2.9,2.9,0,0,0-.13-1.37,1.13,1.13,0,0,0,0-1.14,1.24,1.24,0,0,0-.76-.5,1.66,1.66,0,0,0,.24-.72,1.49,1.49,0,0,0-.33-.87c0-.37-.17-.76-.25-1.1.14-.37.31-.76.46-1.14a.28.28,0,0,0,0-.09c0-.49,0-1,.11-1.46a.17.17,0,0,0,0-.07l-.26-1.84a4.4,4.4,0,0,1,.58-1.52,4.13,4.13,0,0,1,1.05-1.19.33.33,0,0,0,.11-.37l-.64-1.71a7.65,7.65,0,0,1,.44-1,6.59,6.59,0,0,1,.77-1.24c.59-.66.82-.53,1.09-1a2.25,2.25,0,0,0,.07-1.71,6.88,6.88,0,0,0-.74-1.36c-.25-.4-.45-.77-.59-1.05a.32.32,0,0,0-.31-.18l-1.44.08a3.79,3.79,0,0,0-.22-1.53,2.52,2.52,0,0,0-1.1-1.58c-.41-.22-.55,0-2.09-.05h-.47a4.53,4.53,0,0,0-.52,0c-.26,0-.31.22-.49.35-.47.33-1.26,0-1.55-.13a2.88,2.88,0,0,1-1-.74,8.79,8.79,0,0,1,1-.79,10.59,10.59,0,0,1,1.1-.6,1.23,1.23,0,0,0,.82-.45c.3-.35.24-.75.33-1.58a8.07,8.07,0,0,1,.23-1.46,6.48,6.48,0,0,1,1,0,5,5,0,0,1,1.38.35,3.22,3.22,0,0,1-.86,1.14c-.37.29-.57.32-.74.55s-.23.75.32,1.79l3.34-.47c-.28.69-.52,1.4-.84,2.09a1.86,1.86,0,0,0,1.44-.4c.32-.39.2-.78.51-1.21a1.65,1.65,0,0,1,1.47-.41c.23.37.38.76.23.92s-.6-.19-.81,0-.16.79.54,2.48a.5.5,0,0,1,0,.12c0,.69,0,1.35.08,2A1.21,1.21,0,0,0,164,35c.24-.24.17-.5.35-.69s.56-.32,1.52-.08a2.25,2.25,0,0,1-.06,1c-.18.43-.44.53-.43.84s.55.74,1,1a1.33,1.33,0,0,1,.79-.66,1.58,1.58,0,0,1,.78,0,2.4,2.4,0,0,1-.47,1.26,2.58,2.58,0,0,1-.95.75.89.89,0,0,1,.93-.2,1,1,0,0,1,.59,1,8.1,8.1,0,0,1,.38,2,5.12,5.12,0,0,1,0,.78l-.56.63a1.77,1.77,0,0,1-1.5-.57,2.29,2.29,0,0,1-.31-.74,10.25,10.25,0,0,0-.6-1.35c-.37.74-.78,1.47-1.15,2.21l-1,.27,1.27,1a.3.3,0,0,0,.16,0l1.36.2c0,.31,0,.65-.06,1a.74.74,0,0,0-.69.23.77.77,0,0,0,.14.94.87.87,0,0,0,.84.22c.83-.43,1.14-.4,1.29-.29s0,.55.17.69.45,0,.7-.1a.8.8,0,0,1-.17-1.13l.07-.08a.82.82,0,0,1,1.08.19c0,1.3-.31,1.68-.6,1.79a1.54,1.54,0,0,0-.62.22c-.18.16-.35.42-.28.62s.61.25.63.39-.71.54-1.41.37c-.28-.07-.33-.16-.86-.32s-.53-.13-.71-.21a1.76,1.76,0,0,1-.94-1.06,1.56,1.56,0,0,0-.14,1.16c.19.38.65.48.6.62s-.74,0-.85.26.63.59.59,1-.5.55-.92.71l-.1,1.41c-.31.21-.66.4-1,.61.06.44,0,.89.05,1.36.63.11,1.26.26,1.93.37a1.86,1.86,0,0,0-.83,1.11c-.14.7.37,1.2.14,1.71a1.17,1.17,0,0,1-.71.54,3.24,3.24,0,0,1,.33,2.34,2.46,2.46,0,0,1-.4.77,1.12,1.12,0,0,0,.17,1.2,1.13,1.13,0,0,0,.83.36,8.2,8.2,0,0,0,.82-.46c.45-.47.68-.47.82-.45s.36.36.72,1.22a11.11,11.11,0,0,1,.64,1.41,3.18,3.18,0,0,1-.18,1.83,1.71,1.71,0,0,1,0,1.2c-.29.58-.92.67-1,1.12s.32.4.32.87-.23.55-.18.85a1,1,0,0,0,.65.55,10.44,10.44,0,0,0,.12,2.5,9.68,9.68,0,0,0,.6,2.1,3.16,3.16,0,0,1-.52.17c-.56.15-.74,0-.87.12-.32.36.81,1.59.41,2.13-.2.3-.67.09-.92.47a1.19,1.19,0,0,0,.06,1.18,3.82,3.82,0,0,1,0,1.39c-.24,1.17-.95,1.27-1.21,2.28-.36,1.28.48,1.67,0,3-.27.72-.59.9-.57,1.51s.53,1.11.33,1.59a1.15,1.15,0,0,1-.8.59,15.89,15.89,0,0,0,0,1.69,12.15,12.15,0,0,0,.35,2.47,11.32,11.32,0,0,0,.72,2l.14,1c.16.65.25.81.16,1.11a1.66,1.66,0,0,1-.71.75c-.46.33-.63.32-.74.54s-.06.52.46,1.07a4.11,4.11,0,0,1,.73,1.57,5.76,5.76,0,0,1,.12,1.31,2.86,2.86,0,0,1-.22,1.08,5.39,5.39,0,0,0-.5,1.06c-.09.32,0,.34-.14,1s-.09.53-.13.74a5.64,5.64,0,0,0,.06,1.42c0,.92-.58.9-.72,1.83a5,5,0,0,0,.3,2.14c.18.59.46,1.07.19,1.37s-.29.11-.47.27a1.22,1.22,0,0,0-.29.86c0,.61.47.88.75,1.42.5.92-.11,1.15.19,2.83.27,1.39.83,2.23.38,2.67-.15.16-.38.19-.54.49a1.77,1.77,0,0,0-.18.91c.16,1.11-.32.89-.1,3.89a39.16,39.16,0,0,0,.7,4.94,32.43,32.43,0,0,1,.68,3.37v.07A13.25,13.25,0,0,0,165,137.84Z"/><path class="cls-7" d="M201.21,182.81a4.79,4.79,0,0,0,2.37-2.51c.39-1.28.31-3.1-.64-3.75-.41-.29-.81-.2-1.07-.63a1.34,1.34,0,0,1,.13-1.45c.49-.65,1.45-.62,1.43-.75s-1.35.11-2.21-.33c-1.63-.84-.76-3.63-1.71-7.13-1.3-4.76-5.25-8-6.78-9.26-1.15-.93-1.38-.93-3.27-2.45a26.74,26.74,0,0,1-5-4.76c-1.77-2.32-1.32-2.94-2.75-4A13,13,0,0,0,177,144c-2.06-.52-2.18-.27-3.07-.74-1.8-1-1.61-2.15-3.24-2.85-1.38-.59-1.7.17-3.39-.51-1.35-.55-1.25-.86-2.69-1.61s-1.87-.75-2.51-1.67-.53-1.4-1.57-6l-1-4.24c-1.19-6.64,0-11.27-1.75-11.92a.74.74,0,0,0-.27-.07c-4.11-.33-9,16.5-6.51,23.31a.64.64,0,0,0,.11.26c5.15,5.23,7.17,7.12,7.64,7.4a4.17,4.17,0,0,1,1,1c.5.64.09,1.12.36,2.57s.77,1.59.54,2.34-.67.6-1,1.32.1.74.32,2.23c.11.82.17,1.71.19,2a.34.34,0,0,1-.07.22,4.4,4.4,0,0,0-.65,1c-.18.46,0,1,.74,2.16,1.12,1.88,1.7,2.82,2.28,2.84s.61-.46,1.74-.89c.65-.26,1.49-.58,1.94-.27,1.05.73-.88,4.37.18,5.11.56.4,1.85-.16,2.13-.3a6.74,6.74,0,0,0,1.05-.59c1.61-.94,1.95-1,2.13-1l.1,0c.4.27.15,1.05.7,1.4s1.65-.37,2,.06-.31,1,0,1.63c.23.48.62.35,1.32,1s.44.68,1.21,1.56,1,.81,1.16,1.27a3.65,3.65,0,0,1-.55,2.34,11,11,0,0,0-1.19,1.7c-.39,1.11.48,1.67.2,2.83-.06.28-.18.4-1.21,1.6s-1.68,1.94-1.84,2.1h-.09c-.79.42-1.32.28-3.5,1.12a2.35,2.35,0,0,1-.69.64c-1,.66-2.31.26-2.35.44s1.86.45,2.17,1.43c.18.55-.28.85-.81,2.29-.33,1-.71,2-.32,2.31s.83.06,1.52-.11a34.52,34.52,0,0,1,3.66-.31c3.52-.4,4.15-1.24,5.06-.61s.46,1.12,1.47,2.41a9.33,9.33,0,0,0,2.73,2.23c2.77,1.75,4.34,2.79,5,2.25.92-.71-1.12-3.07-.07-6a7.52,7.52,0,0,1,3-3.59,28.73,28.73,0,0,1,2.79-1.5s.54-.25,1.08-.48C197.43,183.89,199.08,184.15,201.21,182.81Z"/><path class="cls-7" d="M198.91,196.33c.14.49-.94.78-1.07,1.79s.75,1.49.48,2-.62.19-1.78.6a3.38,3.38,0,0,0-1.62.87c-.4.5-.16.77-.5,1.94s-.78,1.71-.63,1.83.47-.31.75-.21c.57.19-.34,2.16.49,4.19a4.22,4.22,0,0,1,.61,1.88,8.69,8.69,0,0,0,0,1.14,12.71,12.71,0,0,0,.31,1.49c.16,1.11,0,1.26.22,1.6.47.65,1.45.34,1.66.9s-.18.88-.47,1.2c-.55.46-1.12.16-1.36.54-.56.62.6,2.29.35,2.46s-1.63-1.4-1.63-1.4a7.77,7.77,0,0,1-.2,2.45,1.23,1.23,0,0,1-.21.43,8.18,8.18,0,0,1-2,1.85c-.87.84-.06,1.51-.92,3.64-.32.83-.83,2.16-1.85,2.33-.73.11-1.28-.39-1.65-.1s.06,1.12-.33,1.47-1.54-.56-2.1-.14c-.21.16-.08.35-.34.69s-.79.45-1.86.81c-.88.29-1.33.46-1.53.76-.42.64.11,1.21-.29,1.78s-1.93.78-2.12.4c-.33-.6,2.13-2.72,2.13-2.72h0a2.36,2.36,0,0,0,.54-1.5c.17-.74.7-.58,1.13-1.36.65-1.22-.42-2,.12-3.72.22-.64.55-1.21.35-1.38s-.52.14-1,0-.61-.49-1.21-1.57c-1-1.73-1-1.72-1.06-2-.08-1,.57-1.68.26-2s-.61,0-1.35-.15-1.13-.73-1.69-1.09c-1.61-1.07-3.32,1.05-5.45.22-1.3-.53-1.27-1.55-2.67-1.8-.52-.09-.67,0-2.36.34-3.22.59-3.5.29-3.59.16s.26-.58.54-1.71a7.48,7.48,0,0,0,.2-1.76,5.8,5.8,0,0,0-.48-2.66c-.73-1.53-1.84-1.71-1.81-2.7,0-.69.57-.76.58-1.41,0-1.13-1.59-1.37-1.66-2.38,0-.75.79-1.38,1-1.54,1.48-1.1,4-.77,4.58-.65a1.91,1.91,0,0,0,1.31-.08c.63-.33,1.16-1.19.89-1.76-.35-1-2.52-.94-2.47-1.39s1.05-.59,1.24-.62c.63-.15.78,0,1.11-.15a2.08,2.08,0,0,0,.78-2.53c-.43-.89-1.53-.46-2.37-1.4-.69-.72-.68-1.67-.69-3.41,0-2.38.53-2.52.5-4.46,0-2.34-.86-3.48-.34-3.9s1.75.1,2.1.9S167.7,185,168,186s2,2,3.35,2a11.71,11.71,0,0,0,3.73-.86c1.5-.45,2.23-.79,2.8-.4s.21.55.75,1.43a6.52,6.52,0,0,0,1.68,1.83c.74.65.72.52,1.41,1.06,1.44,1.23,1.41,1.92,2.34,2.12.68.18.72-.2,1.63,0a9.89,9.89,0,0,1,1.74.74,5.48,5.48,0,0,0,1.61.55c1.13-.05,1.31-1.13,2.12-1.08.58.06.63.59,1.7,1.19a4.35,4.35,0,0,0,1.26.47C196.81,195.91,198.72,195.71,198.91,196.33Z"/><path class="cls-7" d="M179.12,235.19c.09.63,1,1.21,1.46,1s0-.91.43-1.59,1.07-.39,1.39-1-.14-1,.21-1.66.88-.46,1.36-1.18a3.23,3.23,0,0,0,.36-2c0-1.19-.4-1.62-.09-2.07s.78-.28,1-.69a1.31,1.31,0,0,0-.77-1.62c-.46-.08-.64.53-1.07.49s-.34-.7-1.05-1.93c-.27-.44-.7-1.09-.7-1.09a2.68,2.68,0,0,0,.29-1.78c-.11-.32-.32-.36-1.28-1s-1-.78-1.27-1c-1.73-.94-4,1.7-5.67.81a1.31,1.31,0,0,1-.36-.3,4.08,4.08,0,0,0-3.07-1.69c-3.33-.06-5,1.16-5.41.61-.2-.27.22-.61.41-1.69a10,10,0,0,0-.19-2.83,8.49,8.49,0,0,0-.6-2.77c-.72-1-1.89-1.06-1.86-1.61s.79-.45,1-1-.69-1-1.46-2.31c-.56-1.05-.27-1.18-.88-2.39-.31-.83-1-2.66-1.78-3.15-.94-.43-1.85.63-2.82,1-1.67.44-1.5,1.19-3.57,1.93-.74.27-1.34.36-1.61.87s.14,1-.22,1.57-1.39.33-1.62.87a1.13,1.13,0,0,0,.64,1.34c.57.19,1-.48,1.38-.3.66.32-.36,2.5.59,3.43.63.62,1.68.1,2.09.83a.94.94,0,0,1,0,1.14c-.25.21-.7.1-1.66-.2-.34-.14.43-.39.08-.46-.76-.06-2,.53-2.6.47-.9-.08-1.32-1.31-1.6-1.2s.14,1.75-.57,2.26c-.33.25-.64,0-1.41.09a5.94,5.94,0,0,0-2,.93,10.4,10.4,0,0,0-2.45,1.87c-.45.48-.65.71-.65,1,.12.83,2.13.62,2.67,1.8.35.8-.35,1.38.14,2.4.3.67.8.84.69,1.09-.16.5-2-.15-2.62.71a1,1,0,0,0,0,1.14c.29.4.88.18,1.22.61a1.25,1.25,0,0,1,0,1.2c-.25.44-.55.45-1.3,1s-1.34.87-1.26,1.17,1.57.53,2.86,0c1-.38,1.4-.95,1.63-.78s0,1.13-.42,2.58c-.34,1.18-.58,1.41-.41,1.69.28.51,1.21.54,3,.56a6.65,6.65,0,0,1,2.66.27c.07,0,1.2.48,1.1.83s-2.51.29-2.6.81c0,.24.38.53.74.68a3,3,0,0,0,1.93-.27A13.85,13.85,0,0,1,155,234c1.12-.09,1.7,0,2-.39s.06-.79.35-1.37a2.34,2.34,0,0,1,1.71-1.13c1.33-.19,1.76,1.11,3.29,1.61,2.75.9,5.5-2,6.67-.94.4.38.12.83.76,1.52a3.76,3.76,0,0,0,1.89,1.06c1.57.26,2.56-.9,3.1-.43s-.07,1.14.44,1.67c.39.35,1.12.42,1.35.15.41-.5-1.17-1.81-.73-2.76a1.7,1.7,0,0,1,1.43-.74c.51,0,.64.21,1,.19A2.24,2.24,0,0,0,179.8,230c-.29-.84-1.6-.73-1.74-1.49-.05-.37.21-.44.3-1,.12-1-.67-1.57-.39-2s.87-.33,1.3-.18a2,2,0,0,1,1,1,3.44,3.44,0,0,1,.42,1.57c0,.74-.19.78-.22,1.56s.26,1.1.31,2.23a3.7,3.7,0,0,1-.12,1.55C180.21,234.35,179,234.49,179.12,235.19Z"/><path class="cls-7" d="M142.45,217.91c.3.16.21.24.83.77.8.67,1,.57,1.27.95s.18.86.12,1.82c-.07.73-.08,1.15-.27,1.27-.47.51-1.21.1-1.94.71-.12.12-.49.41-.47.78s.68.49,1,1.09a1.73,1.73,0,0,1-.31,1.65c-.35.42-.68.26-1.09.73s-.23.75-.51,1-.9-.12-2.17-.72a10,10,0,0,1-1.76-.88,2.5,2.5,0,0,1-.84-.87c-.36-.63-.14-1-.46-1.37s-.72-.24-1.73-.64a3.71,3.71,0,0,1-2.56-2.73,3,3,0,0,1-.32-1.79c.2-.75.78-.69,1.37-1.59a3.25,3.25,0,0,0,.53-2.49,2.9,2.9,0,0,0-1.25-1.66c-.56-.3-.8-.13-1.2-.48s-.32-.54-.77-1.36a5.84,5.84,0,0,0-1.38-1.71c-.42-.31-.74-.4-.82-.77a.85.85,0,0,1,.24-.92c.09-.08.27,0,.57-.08s.48,0,.82,0a4.56,4.56,0,0,0,.64,0c.53-.07.55-.65,1.06-1.17.86-.87,1.91-.47,2.3-1.28.13-.29,0-.48.28-.68a1.12,1.12,0,0,1,1.3-.19c.41.22.29.58.69.79s.7-.1,1.14,0,.4.39.68.93c.37.73.3.94.63,1.31s.5.23.79.53c.55.54.47,1.4.36,2.57a1.79,1.79,0,0,1-.36,1.07c-.18.2-.28.18-.39.36s-.09.59.14,1.51c.26,1.1.25,1.3.52,1.46s.68,0,.92.25c.4.42-.41,1.45-.08,1.85S141.43,217.35,142.45,217.91Z"/><path class="cls-7" d="M132.94,216.12a2.24,2.24,0,0,1-.3,1,2.86,2.86,0,0,1-.68,1c-.48.44-.74.28-1,.58-.06.08-.25.38,0,1.73.23,1.16.49,1.56.32,1.76s-.65-.22-1.58-.32c-1.28-.16-1.71.44-2.54.05-.51-.23-.67-.62-1-.51s-.16.57-.54.79-.51,0-1,.14-.5.31-1,.56a2.5,2.5,0,0,1-1.86.09,1.76,1.76,0,0,1-1-1c-.11-.36.14-.49.34-1.48a3.06,3.06,0,0,0,.13-1.24c0-.3-.12-.36-.45-1-.47-1-.36-.9-.64-1.44-.42-.79-.66-.83-.73-1.33s.13-.49.27-1.17c.18-.91-.15-1.11,0-2.18.09-.59.15-1.16.47-1.26s.72.48,1.39.42.55-.46,1.23-.69c.88-.29,1.49.2,1.72-.11s-.43-.89-.2-1.43,1.42-.78,2.21-.41a3.15,3.15,0,0,1,1.49,1.5c.26.4.19.38.73,1.32a6.88,6.88,0,0,0,1,1.5,4.4,4.4,0,0,0,1.27.95c.74.44.89.28,1.22.65A2.63,2.63,0,0,1,132.94,216.12Z"/><path class="cls-7" d="M119.94,218.47c.23.45.49.34.83.84a1.91,1.91,0,0,1,.26,1.87c-.25.41-.6.32-.81.76s.12.83-.14,1.15-.76,0-1.72.11-.87.39-1.35.33-.61-.7-1.58-1.31c-.67-.42-.92-.25-1.83-.88-.26-.17-.45-.31-.72-.51a6.83,6.83,0,0,1-1.11-.9c-.39-.59,0-1.46.6-2.77.72-1.63,1.11-1.72,1.25-2.7.17-1.15-.31-1.48.06-2s1.19-.23,3.45-.38c1.38-.1,2.21-.38,2.41,0s-.18.4-.24,1.16.21,1,0,1.47c-.12.29-.23.24-.4.53a1.31,1.31,0,0,0,0,1.19c.24.48.63.32.89.76S119.69,217.93,119.94,218.47Z"/><path class="cls-8" d="M237.65,264.56c-.08.62-.15.6-.21.71s-.23.3-1.06.52c-4.24,1-5,1.84-6.11,2-.1,0-.45-.24-.62-.29a.45.45,0,0,0-.3.05,5,5,0,0,1-2.31.25c-.69-.27-.7-.58-.53-1.52.21-1.43,2-2.08,2-5.52a18.27,18.27,0,0,0,0-3.39c0-.86.71-1.24,1.77-.25.69.78,1.48-.08,1.74-1.39.13-.56,1-.59,1.5-.72,1.71-.41,5.12-.38,5.41-1s-.31-1.22-.2-1.37.59-.15.72-.2c1.31-.39-.9-1.3-2-2-.53-.37-.72-.54-1-.71-.55-.33,0-1.05.5-1.09a17.33,17.33,0,0,0,3.93-.56c.56-.15.1-1,.61-1.27a2.12,2.12,0,0,0,.43-1.73,6.69,6.69,0,0,1-.14-1.48c0-.58.48-.68.92-.5,1.08.45,2.89,2.62,4.4,3.73,2,1.45,3.85,1,7.26-1.16,1.39-1.69,11.21,1.92,13.8,2.7h0l3.68,1.94c.56.63,1.72.81,3.47.51l.12,0a6.94,6.94,0,0,1,3.79,2.71.38.38,0,0,0,.15.09c2.38.8,4.17,1.68,4.82,4.18.16.62-.72.64-.68,1.23.12.8-.44,1.69-.32,2.49a12.47,12.47,0,0,0,2.77,5.91,55.23,55.23,0,0,0,7.43,7.55,2.12,2.12,0,0,1,.85,2.88,1.09,1.09,0,0,1-.08.15c-.15.6,0,.77.76.84s.54.44,1.06,1c3.7,4.08,6.16,7.74,7.15,11.05a.49.49,0,0,1,0,.12c-.2,3.14,1.45,5.36,4.41,4.2a.3.3,0,0,0,.13-.09c.62-.6.67-2,.11-4.55-.14-1.45-.64-2.36-1.52-2.68a9.64,9.64,0,0,1-2.67-5.3.3.3,0,0,0,0-.13,15.45,15.45,0,0,1-3.73-7.58c-.46-2.59-1-4-2.31-4.58-.54-.23-.72.17-1.12-.69-.77-1.63-1.72-2.78-.53-3.26.29-.11-.07-.53.23-.78.5-.07,1.07.09.67,1.13-.14.43.45,1.23.87,1.55a23.87,23.87,0,0,0,4.15,3,.33.33,0,0,1,.1.06c.81.83.75,1.29.3,3.06a.36.36,0,0,0,0,.1c.07,2.26,1.67,3.77,4.79,4.51,3.09,1.67,3.38,2.76.89,3.27a.34.34,0,0,0-.23.16c-1.35,2.14-.32,4.24,3.15,6.22a.37.37,0,0,1,.16.21c1.34,5.18,2.12,8.26,2.3,9.24a.31.31,0,0,1-.24.37h0l-5.42.95a.31.31,0,0,1-.36-.22c-.24-.67-.43-1.35-1.1-1.24a2.89,2.89,0,0,1-1.67-.44c-5-2.25-6.64-3-6.64-3a2.18,2.18,0,0,0-1.06-.25c-3.57.26-5.66.08-6.91.73-.44.24-.19.78-.43,1a5.9,5.9,0,0,1-2.48.55,4.39,4.39,0,0,1-2.19.11c-.37-.19-.39-.56-.55-.71-2-1.49-3.78-2.7-3.83-4-.13-2.13-1.23-2.48-2-3.13a2.58,2.58,0,0,0-2.27-.9c-1.41.37-1.54,1.88-2.19,2.58-1.29,1.23-3.63.58-5.05-1.81a73.46,73.46,0,0,1-3.78-6.48,5.46,5.46,0,0,0-4.53-2.69c-1.61-.32-2.33-1.54-1-3.12a1.76,1.76,0,0,0,.44-1.2c.93-4.52,1.09-7.5,0-9.67-2.18-5.36-4.59-8.91-6.06-9.66-3.15-1.56-7.8-.77-11.87.25-4.29,1.22-4,5-4.43,8.39Z"/><path class="cls-7" d="M242.9,242.08a4.84,4.84,0,0,1,.25,3.37,2.48,2.48,0,0,1-.66,1.52c-.49.42-1,.3-2.54.58-1.21.17-1.8.31-1.89.59-.17.59,1.33,2,2.9,2.6.31.12.84.31.82.48s-1.41.06-1.77.7c-.25.45.31.88.2,1.39-.31,1.51-6.21,1.83-6.41,1-.05-.35.85-.52,1.11-1.48.18-.71-.24-1-.56-2.32-.42-1.77,0-2.5-.51-2.89s-1.79.44-2.19,0a1.15,1.15,0,0,1,.34-1.47c.49-.35,1.12-.05,1.58-.44.7-.55-.06-1.69.61-2.6s2.19-.55,2.44-1.33-.71-1.19-.51-1.73c.32-.79,2.86-.87,4.77.14A4.56,4.56,0,0,1,242.9,242.08Z"/><path class="cls-7" d="M235.48,241.18c-.21.35-.31.31-1.25,1.16a16,16,0,0,1-1.55,1.42,4,4,0,0,1-2.45.46c-4.28-.17-7.6,3-9.53,1.45a11.36,11.36,0,0,0-1.52-1.42c-1-.69-1.67-.73-1.68-1.08s1.27-1.18,2.56-1.23c1,0,1.36.35,2,.05.38-.19.63-.62,1.1-1.47.73-1.31.6-1.57,1-1.9.68-.5,1.14,0,2-.5a5.65,5.65,0,0,0,1.41-1.63c.75-1,.79-1.24,1.13-1.36a1.85,1.85,0,0,1,1.92,1.26c.18.59-.17.9.06,1.2.36.46,1.29-.18,2.74,0,.51.07,1.87.23,2.36,1.2A2.66,2.66,0,0,1,235.48,241.18Z"/><path class="cls-7" d="M231.22,232.39c-.08.51-.59.46-1.85,1.72-.68.69-.63.79-1.13,1.22-1,.87-1.46.57-2.23,1.19-1.35,1.07-.89,2.66-2.08,3.14-.28.1-.18,0-1.4.08a6,6,0,0,0-2.13.42c-.92.43-1.1,1.06-1.4,1s-.34-.42-.27-2.69.25-2.31.18-3.43c-.11-1.63-.5-1.65-.41-2.89s.55-1.45.5-2.59c-.06-1.4-.8-2.07-.46-2.45s1.2-.23,1.68.2.37.92.69,1,.78-.8,1.21-.72.26.45.58,1a4.61,4.61,0,0,0,2.34,1.76c.58.27.87.41,1,.29.42-.37-.8-2.67-1-2.59s-.06.5.08.53.4-.84.85-.88.6.65,1.39,1.34a7.61,7.61,0,0,0,1.43.78C229,229.88,231.4,231.24,231.22,232.39Z"/><path class="cls-7" d="M222.84,222.64a3.45,3.45,0,0,1,2.08,1.56c.54,1,.51,2.44-.14,2.86s-1-.27-2.19,0c-.74.16-1.06.49-1.48.32s-.44-.65-.89-.86c-.83-.36-1.72.9-2.43.56-.45-.21-.19-.76-.77-1.53s-1.43-.66-1.72-1.4c-.19-.45.11-.49,0-1.86a3.93,3.93,0,0,0-.19-1.36c-.19-.52-.43-.75-.34-.86s1.37.64,1.79.29-.05-1.13.15-1.22.59.45.9.86a15.18,15.18,0,0,0,1.85,2.24C220.49,222.91,221.16,222.05,222.84,222.64Z"/><path class="cls-7" d="M214.45,223.6c-.31,0-.36-.76-1.33-1.35a3.83,3.83,0,0,0-1.27-.48,5.69,5.69,0,0,0-2.53.12,10.39,10.39,0,0,0-2.76,1.19c-2.52,1.38-2.32,1.79-3.33,2a6.11,6.11,0,0,1-4.08-1.07,5.07,5.07,0,0,1-2.5-2.16c-.32-.65-.59-1.68-.17-2.06s.86.06,1.27-.29.08-1.14.37-1.25.73.3,1.09.72c.93,1.13.54,1.9,1.31,3.1,0,.09,1.07,1.62,2.06,1.46.43-.06.76-.53,1.44-1.41s.71-1.23,1.22-1.49c.7-.32,1.33.09,1.5-.21s-.27-.93-.74-1.31-1.2-.46-1.24-.7c-.06-.44,1.61-1,1.61-1a.9.9,0,0,1,.48-.44c.47-.15.78.35,1.62.59s.9-.13,1.44.12.58.87,1.31,1.23.8,0,1.68.21a3.2,3.2,0,0,1,1.88.94C215.8,221.25,215,223.55,214.45,223.6Z"/><path class="cls-9" d="M240,187.16c-1.22,5.48-6,8.87-10.65,7.41-5.91-1.86-11.41-2.41-21-5-9.32-2.56-14-4.14-18.12-2.48-6.12,2.47-9.94,8.9-11.08,7.81s.28-12.6.24-12.74l0-.11,0-.09c-1.12-2.82-6-3.43-11.51-4.41-5-.89-8.21-6.65-6.92-12.43l4-17.95c1.21-5.44,5.94-8.77,10.54-7.6L193,144.46l2,.55,40.55,11.42,2.31.65a10.15,10.15,0,0,1,5.21,5.08,11.9,11.9,0,0,1,.88,7.74Z"/><path class="cls-9" d="M39.72,154.61a9.81,9.81,0,0,0,12.15,6.76c6.58-2,12.74-2.72,23.44-5.59,10.4-2.79,15.6-4.47,20.28-3,6.93,2.16,11.39,8.21,12.64,7.12,1.41-1.22-.64-12.1-.6-12.24a.66.66,0,0,1,0-.1l0-.09c1.19-2.75,6.67-3.5,12.81-4.64a9.6,9.6,0,0,0,7.43-12.19l-5-17.12a10.07,10.07,0,0,0-12-6.94l-19.54,5.36-2.18.59L44,124.91l-2.57.71a11,11,0,0,0-5.71,5.06,9.94,9.94,0,0,0-.8,7.47Z"/></g><path class="cls-10" d="M147,272.59c-22.63,1.47-38.89-2.87-42.43-3.86C75.43,260.63,56.67,243.26,48,234c-8.68-9.64-28.17-34-33.43-70.71A133.07,133.07,0,0,1,18.42,108,141.91,141.91,0,0,1,51.85,48.88c8.47-8.9,40.37-42.41,90-42.43,54.93,0,88.67,41,95.15,48.86,30.43,37,30.91,78.54,30.85,93.85-.06,17.36-.16,47.81-20.57,75.86C215.94,268.1,161.32,271.66,147,272.59Z"/></g><g id="Capa_4" data-name="Capa 4"><g class="cls-11"><g class="cls-12"><g class="cls-13"><circle class="cls-14" cx="63.46" cy="0.76" r="3.58"/></g></g></g></g></svg>