<svg xmlns="http://www.w3.org/2000/svg" xmlns:xlink="http://www.w3.org/1999/xlink" viewBox="0 0 273.57 283.14"><defs><style>.cls-1,.cls-3{fill:#f6f5f5;}.cls-1,.cls-10{stroke:#f0047f;stroke-width:4px;}.cls-1,.cls-10,.cls-14{stroke-miterlimit:10;}.cls-10,.cls-14,.cls-2{fill:none;}.cls-4{clip-path:url(#clip-path);}.cls-5,.cls-6{fill:#ce187d;}.cls-6{fill-rule:evenodd;}.cls-7{fill:#fff;}.cls-8{fill:#df4127;}.cls-9{fill:#f84555;}.cls-11{opacity:0.78;}.cls-12{clip-path:url(#clip-path-2);}.cls-13{opacity:0.81;}.cls-14{stroke:#eec414;stroke-width:0.75px;}</style><clipPath id="clip-path"><path class="cls-1" d="M144.88,271.77c-22.62,1.48-38.89-2.87-42.43-3.85-29.14-8.11-47.9-25.48-56.57-34.72-8.68-9.64-28.16-34-33.43-70.71a132.87,132.87,0,0,1,3.86-55.29c9.63-33.71,28.84-54.45,33.42-59.14C84.5,12.52,129.06,8.81,141,8.2c10,.69,58.91,5.08,93.86,46.29,31.07,36.65,30.91,78.64,30.85,93.86-.06,17.36-.16,47.81-20.57,75.85C213.82,267.29,159.2,270.84,144.88,271.77Z"/></clipPath><clipPath id="clip-path-2"><rect class="cls-2" x="-477.26" y="-451.83" width="1123.71" height="282.86"/></clipPath></defs><title>informate</title><g id="Capa_2" data-name="Capa 2"><path class="cls-3" d="M144.88,271.77c-22.62,1.48-38.89-2.87-42.43-3.85-29.14-8.11-47.9-25.48-56.57-34.72-8.68-9.64-28.16-34-33.43-70.71a132.87,132.87,0,0,1,3.86-55.29c9.63-33.71,28.84-54.45,33.42-59.14C84.5,12.52,129.06,8.81,141,8.2c10,.69,58.91,5.08,93.86,46.29,31.07,36.65,30.91,78.64,30.85,93.86-.06,17.36-.16,47.81-20.57,75.85C213.82,267.29,159.2,270.84,144.88,271.77Z"/><g class="cls-4"><path class="cls-5" d="M120.18,99.74a7.37,7.37,0,0,1-.67,2.48,3.62,3.62,0,0,1-1.24,1.25,3.18,3.18,0,0,1-1.48.4c-1.14,0-1.4-1.07-3-2.45a18.52,18.52,0,0,0-3.18-2c-2-1.11-2.19-.94-2.71-1.52a5.54,5.54,0,0,1-.87-4.26,6.37,6.37,0,0,1,1.13-3.09c.15-.21,2-2.75,4-2.43.72.11,1.21.53,1.79.3s.71-.9,1.19-.9.44.35,1.07.74a4.36,4.36,0,0,0,1.36.5c2.73.65,3.16.69,3.48,1v.07a14.06,14.06,0,0,1,.39,1.55c.41,1.74.44,2.14.18,2.39s-.62,0-1,.25c-.64.47.25,1.8,0,3.91h0C120.52,98.51,120.42,98.3,120.18,99.74Z"/><path class="cls-5" d="M201.78,183.34c.09.15.05.33,0,.88s-.11,1-.14,1.45c-.19,1.52.11,1.51-.11,2.09-.35.9-1,.72-1.39,1.73-.2.53-.07.75-.34,1.47s-.48.72-.5,1.06c-.05.82,1.08,1.11,1,1.73s-.7.61-2.31,1.46c-2,1-1.88,1.18-2.45,1.23-1,0-2-.57-3.37-1.5-.83-.56-1-.8-1.66-.9a3.68,3.68,0,0,0-2.15.2c-.84.33-1,.83-1.43.75s-.47-.48-1.05-1.18c-.95-1.16-1.6-1-1.87-1.71-.22-.58.12-.83.53-2.49s.11-1.61.45-2.33c.44-1,1.3-1.65,3.09-3a5.22,5.22,0,0,1,2.1-1.18c.64-.09,1,0,1.39-.3s.33-.76.55-1.61c.33-1.33.71-1.23,1-2.32s-.12-1.58.3-2.45c.29-.59.89-1.18,1.28-1.07s.17,1.17.78,1.63,1.42-.27,2.21.23a2.06,2.06,0,0,1,.69,1,3,3,0,0,1,.16,1.84c-.28,1.18-1.21,1.57-1.06,1.89s.83-.12,1.77.29c.62.26.55.47,1.24.71S201.59,183,201.78,183.34Z"/><path class="cls-5" d="M135.24,127.92c-.05.47-.31.48-.78,1.76a13.1,13.1,0,0,0-.62,2c-.32,1.51,0,1.65-.34,2.54a4.38,4.38,0,0,1-1.39,1.92,5.89,5.89,0,0,1-1.85.9,12.34,12.34,0,0,1-1.91.45,10.42,10.42,0,0,1-2.22.31,13.14,13.14,0,0,1-1.53-.12,7.14,7.14,0,0,1-1.89-.39h0a3.92,3.92,0,0,1-1.31-1.22c-.23-.34-.38-.77-.56-2.57a20.67,20.67,0,0,0-.51-3.66c-.17-.62-.33-1.08-.7-1.24s-.67.1-1.38.29h0a8.37,8.37,0,0,1-3.11.29c-.85-.07-1.23-.12-1.46-.38-.67-.74.42-2-.25-3.59a2.16,2.16,0,0,0-.89-1.19c-.75-.35-1.35.19-2.21-.15a1.89,1.89,0,0,1-1-1.07c-.2-.69.31-1,.78-2.48a6.08,6.08,0,0,0,.37-2.23c-.06-1-.35-1.09-.26-1.82a2.33,2.33,0,0,1,1-1.67c.56-.25.85.11,1.29-.18.6-.38.27-1.17.9-1.65.41-.29.71.1,1.39-.19s.72-.88,1.42-1c.3,0,.42,0,1.66.33l1.24.3c1.63.26,2.46-.35,2.72,0s-.25,1.17-1.19,2.68a21.71,21.71,0,0,0-1.17,2,3.68,3.68,0,0,0-.49,1.51.3.3,0,0,0,0,.13c.24.67,1.26,1,2.1,1.21,1.31.38,1.39.08,2.22.37,1.46.53,1.46,1.53,2.88,2.15,1,.42,1.14,0,2.45.34a9.8,9.8,0,0,1,4.11,2.44h0C134.46,126.25,135.3,127,135.24,127.92Z"/><path class="cls-5" d="M157.21,142.46c-.18.26-.84,1.16-.55,1.72s.81.16,1.22.62.13.94.27,2.91a6.67,6.67,0,0,1,0,1.84c-.18.82-.47.84-.7,1.49-.53,1.61.77,2.55.2,4.34-.19.64-.33.49-.43.94-.38,2.09,3.28,3.78,2.68,5a1.49,1.49,0,0,1-1.34.72c-.62-.05-.71-.83-1.18-.84s-.77.71-1.34,1.49a20.89,20.89,0,0,1-2.36,2,21,21,0,0,1-3,2.22c-.59.23-2.32.93-3.23.2-1.11-.91.25-2.74-.86-5.12a6.1,6.1,0,0,0-3.32-2.94c-1.19-.45-1.42,0-3.07-.29-3.24-.54-3.51-2.23-6.2-2.39-1.62-.09-2.3.47-3.18-.17a3.39,3.39,0,0,1-1.3-2.67c0-.8.3-1,.2-1.85a9.33,9.33,0,0,0-.54-1.8c-.48-1.55-.17-1.77-.47-2.11-1-1.21-4.54.89-5.37-.22-.48-.64.42-1.62-.18-2.39s-1.26-.18-2.08-.84a3.22,3.22,0,0,1-.94-2.27,6.23,6.23,0,0,1,.45-2.45c.62-1.93.92-2.92,1.38-3.13,1.19-.53,2.24,1.81,4.56,1.73,1.39,0,1.18-.86,3.64-1.45,1.33-.33,2.31-.32,2.93-1.11a3,3,0,0,0,.41-1.2c.55-2.16,1.11-2.3,1.4-3.6.43-1.93-.57-2.84,0-3.4,1-.91,3.78,1.24,4.75.28.58-.59.08-1.88.49-2s.54.62,1.27,1c1.06.4,1.72-.52,2.81-.13s.86,1.09,1.47,1.12c.93,0,1.15-1.81,3-3.11.21-.12,1.86-1.3,2.65-.77s-.11,1.67.76,3.61a9.48,9.48,0,0,0,1.12,1.82,13.22,13.22,0,0,1,.89,1.09,4.29,4.29,0,0,1,.57,2.19c-.05,1.2-.65,1.51-.38,2.13s1,.41,1.57,1.1.11,1.5.68,2.77c.66,1.55,2.1,1.82,2,2.58C158.48,141.56,157.89,141.5,157.21,142.46Z"/><path class="cls-5" d="M174.45,178.17c-.51,1.21-1,2.36-2.14,2.73-.7.25-.95-.06-1.85.32a8.33,8.33,0,0,0-1.37.83c-.93.48-1.1.22-2.17.7a3.73,3.73,0,0,0-2,1.62,2.76,2.76,0,0,0-.19.75,19.92,19.92,0,0,0,0,3.86c0,1.2-.11.86,0,1.89a2.82,2.82,0,0,1-.24,1.62c-.16.3-.29.28-.31.48-.06.54,1,.66,1.36,1.59.17.44,0,.55.13.91.33.56.91.45,1.26.87s.17,1.18.08,2.33c-.26,2.56.5,3.53-.17,4.1-.39.36-.72,0-2.16.12a13.26,13.26,0,0,0-3.39.84c-1.94.68-2.38,1.11-3,.81s-.41-1.08-1.13-2a4.17,4.17,0,0,0-2.35-1.46c-.78-.09-1.92.57-4.27,1.88l-1.65,1a2.62,2.62,0,0,0-.6.45c-.5.53-.36,1-.75,1.55a2,2,0,0,1-1,.71.69.69,0,0,0-.47.29c-.16.22-.26.57-.11.75s1-.22,1.77.07c.41.18.61.53.94,1.19.57,1.05.42,1.59.88,2.3a3.41,3.41,0,0,0,1.46,1.2,7.53,7.53,0,0,1-1.58.23c-.77,0-.74-.1-1.62-.08s-1.11.16-1.38-.12-.13-.46-.38-.75a1,1,0,0,0-1-.39c-.52.23.06,1.46-.61,2.2s-1.42,0-2.58.82a6.78,6.78,0,0,0-1.36,1.42c-.43.52-.39.54-.75,1-1.09,1.29-1.57,1.55-2.05,1.56a2.44,2.44,0,0,1-1.73-.81,4.17,4.17,0,0,1-1.19-1.68c-.84-2.06,0-3.49-.27-5.63-.21-1.5-1.07-4.22-2.75-4.69-2-.56-3.41,2.64-7.41,3.76a8.76,8.76,0,0,0-3.13,1.25c-.81.59-1,1-1.61,1.09-1.11.21-1.75-.76-3-1.13a5,5,0,0,0-4.46,1c-.93.79-.68,1.38-2.16,3.71-1,1.64-1.51,2.48-2.09,2.45-1.14-.05-.62-3-3-5.07-.81-.71-1.5-1.59-2.27-2.34-.4-.39-.93-.93-.83-1.45.06-.28.3-.32.62-.83a28.4,28.4,0,0,1,1.75-3c1.78-2.61,2.67-3.92,2.55-4s-.68.46-2.6,1.86c-1.58,1.16-1.56,1-2.21,1.59a10.23,10.23,0,0,0-1.14,1.14c-.67.82-.68,1.23-1,1.26-.6.09-.69-1.45-2-2.07-.84-.4-1.54-.13-1.84-.66a1.72,1.72,0,0,1,.09-1.14c.58-1.58,2-2.27,1.87-2.42a4.91,4.91,0,0,0-2.87,1.42c-1.13,1-1,1.43-1.73,1.75-1.07.46-1.92-.15-4.3-1-3.67-1.3-4.34-.71-5.25-1.75-1.45-1.68-.48-4.06-1.41-4.42s-1.76,2.42-4.23,2.92c-1.82.41-2.4-.89-5.33-.86-1.92,0-1.93.56-3.43.42a8.79,8.79,0,0,1-5.1-2.41c-2.07-1.8-1.76-2.86-3.51-3.71a9.49,9.49,0,0,0-4-.57c-2.73-.08-3.34.47-4.16-.14s-.86-1.83-1-4.46c-.35-6.9-.91-6.41-.51-7.57,1.22-3.23,4.67-4.06,5.39-7a8.3,8.3,0,0,1,.71-2.05,9.8,9.8,0,0,1,1.47-2.14c1.36-1.59,2-2.05,2.53-2.71,1.61-1.9,1.84-4.21,2.06-6.37.26-2.64-.35-2.48-.26-5.44a55.75,55.75,0,0,1,1.57-8.48c.56-2.47.82-3.68,1-4.29a31.77,31.77,0,0,1,3.61-7.88c2-3,3.21-4.87,5.44-5.5,2-.57,2.69.51,5.24,0,1-.14,1.91-.52,5.52-3,4.19-2.94,6.28-4.46,6.9-5.88,1.12-2.43-.4-2.8.48-6.61a19.42,19.42,0,0,1,5.28-8.51,6.39,6.39,0,0,1,1.81-1.32c.93-.47,1.3-.29,1.88-.67s.86-1.2,1.37-3a21.27,21.27,0,0,1,1.58-4.43c.28-.52,1.44-2.79,2.34-2.6.58.15.34,1.18,1.2,2.6.58,1,1.71,1.78,4,3.42.7.5,1.18.84,2,1.51s1.55,1.33,1.55,1.33c1.14,1,1.19,1.24,1.63,1.42,1.08.35,1.94-.47,2.16-.19s-.43,1.19-3.12,4.23c-2,2.3-2.34,2.6-2.55,2.81-1.58,1.35-2.11,1.11-3.33,2.36a6.4,6.4,0,0,0-2,3.3c-.08.48-.35,1.85.36,2.49s1.8-.17,2.32.39c.92.88-1.37,3.78-.44,4.94.7.83,2.24-.25,3.27.61,1.55,1.26.27,5.18.88,5.36.16,0,.2-.2.54-.43.93-.63,1.93.21,3.81.19,1.31,0,1.49-.45,2-.18s.67.85.86,3.91a18.83,18.83,0,0,1,0,5,25.27,25.27,0,0,1-.75,2.71,2.71,2.71,0,0,0-.29,1.34,4.13,4.13,0,0,0,.52,1.31,3.85,3.85,0,0,0,1,1.55c.57.37.82,0,1.26.37.85.57.39,2,1.18,2.38.13,0,.14,0,.8,0,1-.07,1,0,2.54,0,1.05,0,1.18-.09,1.31,0,.44.43-.22,1.25.21,2.24.32.79.94.77,1.07,1.48.08.55-.21.76-.32,1.43a3.39,3.39,0,0,0,1.18,3.06c.78.57,1.47.3,2.9.36a31,31,0,0,1,5.12,1.41c4.13,1.29,4.65,1.53,5.28,1.95a7.83,7.83,0,0,1,2.56,2.59c1.37,2.42.25,4.21,1.25,4.87,1.25.77,4.16-.94,5.92-2.76,1.38-1.47,1.51-2.49,2.73-2.74s2,.86,3.56.44a7.78,7.78,0,0,1,2.12-.54,1.83,1.83,0,0,1,1.15.09c1.31.71.25,4.43,1.09,4.76.41.14.72-.73,2.16-1.37.43-.2,1.72-.78,2.44-.25.27.22.29.46.67.74a2.64,2.64,0,0,0,1.17.3c.91.12,1,0,1.25.15.43.28.2.79.5,1.62.13.38.25.4,1.4,1.87,1,1.2,1.25,1.54,1.27,2s-.11.42-.16,1c-.08,1.14.44,1.57.16,2s-1.11.16-1.42.68.06,1,0,2l0,.09A10.93,10.93,0,0,1,174.45,178.17Z"/><path class="cls-5" d="M150.15,123.24a.35.35,0,0,1,0,.47L147.82,126c-.38.43-.76.83-1.14,1.3a3.86,3.86,0,0,0-1.54-.77,4.17,4.17,0,0,0-2.65.28.32.32,0,0,1-.41-.12c-.25-.37-.49-.74-.71-1.12l-1.14,1.78-3.26.46c-.68-.56-1.3-1.18-2-1.78s-1.72-1.44-2.56-2.1h0a12.7,12.7,0,0,0-4.35-1.72c-1.17-.21-1.76-.13-2.81-.32a10.49,10.49,0,0,1-4.7-2.37h0c-.33-.35-.63-.72-1-1.08a.31.31,0,0,1-.09-.18,3.56,3.56,0,0,1,.14-1.45,4.6,4.6,0,0,1,1.23-1.84,17,17,0,0,0,1.44-2,.34.34,0,0,0-.11-.47.37.37,0,0,0-.18,0c-.71,0-1.41,0-2.11,0l-4.15.15a.32.32,0,0,0-.14,0L113.16,114a.26.26,0,0,0-.13.12l-1.68,2.83a.57.57,0,0,0,0,.14l-.23,2.13a1.25,1.25,0,0,1-1,.72,1.28,1.28,0,0,1-1.25-.81,10.05,10.05,0,0,1-.46-2.55,12.4,12.4,0,0,1,.08-2.28.36.36,0,0,1,.13-.23c1.43-1.08,2.86-2.18,4.33-3.24h0l3.76-4,.06-.09a7.3,7.3,0,0,1,2-2.8,4.83,4.83,0,0,0,1.54-1.41,3.83,3.83,0,0,0,.49-2c.12-1.58.24-3.13.33-4.71a4.82,4.82,0,0,1,.16-1.69,4.45,4.45,0,0,1,.67-1.32.3.3,0,0,0,.06-.26,13.74,13.74,0,0,0-.29-1.66.3.3,0,0,0,0-.16c-1.16-1.34-2.32-2.68-3.49-4.05-.23-.2-.52-.54-.45-.82s.89-.4,1.19-1c.13-.26.21-.71-.21-1.5-.57.35-.81.32-1,.23s-.08-.56-.19-1.4-.56-1.28-.33-1.58.59-.19,1.06-.49c.81-.56.2-1.77.94-2.76.26-.34.37-.25,2.35-1.21,1.24-.59,1.17-.61,2.11-1.09a29.57,29.57,0,0,1,2.86-1.17h0a19.37,19.37,0,0,1,2-.49l2.22-.32h.1c.57.12,1.17.27,1.73.38-.21-.65-.44-1.27-.65-1.92a.28.28,0,0,1,0-.18c.14-.56.31-1.1.45-1.66a.23.23,0,0,0,0-.11,16.33,16.33,0,0,1-.19-1.85.32.32,0,0,1,.09-.28,7,7,0,0,1,1.52-1.07,7.28,7.28,0,0,1,2.16-.74.29.29,0,0,1,.29.1,2.55,2.55,0,0,0,1.76.79,2.22,2.22,0,0,0,1.55-.56c0-1-.08-2-.09-3a2,2,0,0,0-2.66-.3,1.45,1.45,0,0,1-1.33,0c-.39-.35-.37-1.38.51-2.15a2.22,2.22,0,0,0,2,.3,1.67,1.67,0,0,0,.59-.42c-.11-.33-.22-.62-.34-.94l1.54-1.71a.42.42,0,0,0,.09-.27,17.92,17.92,0,0,1-.21-2.07.32.32,0,0,1,.19-.33,1.61,1.61,0,0,0,.77-.64c.22-.34.13-.53.33-.77.4-.53,1.18-.33,1.83-.56s1.21-.74,1.69-2.4v-.07c.22-.37.42-.73.64-1.07a.33.33,0,0,0,0-.39l-1-1.11a.29.29,0,0,0-.15-.09l-2.52-.78A2.69,2.69,0,0,1,140.7,46a2.79,2.79,0,0,1,0-1.87.31.31,0,0,1,.13-.17c.91-.62,1.8-1.2,2.71-1.8a.26.26,0,0,0,.09-.09l1.48-1.92a.44.44,0,0,0,.06-.16c.11-.75.22-1.48.3-2.23a.42.42,0,0,1,.14-.24c.58-.39,1.16-.76,1.74-1.16a1.57,1.57,0,0,0,1-.69c.3-.56.07-1.2-.31-2.23a8.25,8.25,0,0,0-.74-1.56.25.25,0,0,1,0-.12l-.49-3.44a.3.3,0,0,0-.14-.23c-.55-.35-1.07-.72-1.58-1.12a28.09,28.09,0,0,1-2.9-2.56.3.3,0,0,0-.32-.08,6.14,6.14,0,0,1-2.92.11,6.38,6.38,0,0,1-2.1-.84,30.63,30.63,0,0,1,5.1-1,29.42,29.42,0,0,1,5.55-.07.33.33,0,0,1,.3.33c0,1.14-.06,3.29,0,5.47a2.94,2.94,0,0,0,.73,2.08,2.36,2.36,0,0,0,1.22.61c1.89-.11,3.78-.18,5.63-.28a.34.34,0,0,1,.35.31c.13.9.17,1.81.25,2.72a.34.34,0,0,0,.37.3h0a2.34,2.34,0,0,1,1.38.15,2.74,2.74,0,0,1,1.42,2.07,2.38,2.38,0,0,1-.14,1.85c-.33.56-.68.48-1.16,1.19a8.92,8.92,0,0,0-.64,1.49c-.18.43-.34.76-.44,1a5.72,5.72,0,0,1,0,1.6,6.54,6.54,0,0,1-.22,1.05c-.28.89-.42.91-.52,1.4-.17.7.11.8.23,2.32a3.91,3.91,0,0,1-.13,1.48c-.21.47-.47.54-.58,1a2.17,2.17,0,0,0,.2,1.44c.42,1.07.88,1.13,1.1,2,0,.23,0,.07.12,1.31s.2,1.4.37,1.68a1.78,1.78,0,0,0,.8.61,2.16,2.16,0,0,1,.24,1.7c-.23.75-.87.77-1.11,1.48s.31,1.28.66,2.53a6.49,6.49,0,0,1,.08,2.74,5.74,5.74,0,0,1-.59,3.86,4.84,4.84,0,0,1-1.07,1.36.29.29,0,0,0-.08.36c.21.53.41,1.08.62,1.73a20.27,20.27,0,0,1,.8,3.53,3.21,3.21,0,0,1-.49,1.53c-.68,1-1.55.83-1.82,1.58s.44,1.23.35,2.47a3.25,3.25,0,0,1-.55,1.65,4.37,4.37,0,0,0-.81,2.29,5,5,0,0,0,.31,1.72c.25.81.57,1.91,1,3.2v.06c.27.41.64,1,1.15,1.75a3,3,0,0,1,.66,1.54,1.9,1.9,0,0,1-.34,1c-.36.64-.83,1.49-1.42,2.68a.31.31,0,0,0,0,.28,6.79,6.79,0,0,1,.58,2.26,6.54,6.54,0,0,1-.34,2.48.21.21,0,0,1-.06.1,7.54,7.54,0,0,0-1.15,1.85c-.53,1.37-.23,2-.92,2.89-.52.65-1,.58-1.3,1.2a2.76,2.76,0,0,0,0,1.92c.3,1.18.63,2.32.94,3.5a4.15,4.15,0,0,1-.53,2.56c-.38.64-.68.71-1.72,1.78s-1.78,1.85-1.73,2.66A1.5,1.5,0,0,0,150.15,123.24Z"/><path class="cls-5" d="M198.06,182.14a4.72,4.72,0,0,0,2.37-2.51c.4-1.29.31-3.11-.63-3.76-.42-.28-.81-.19-1.08-.63a1.34,1.34,0,0,1,.14-1.45c.48-.65,1.44-.61,1.42-.75s-1.34.12-2.21-.33c-1.63-.83-.76-3.62-1.71-7.13-1.3-4.76-5.24-8-6.78-9.25-1.14-.94-1.38-.93-3.26-2.46a26.83,26.83,0,0,1-5-4.75c-1.77-2.33-1.32-2.94-2.75-4a13,13,0,0,0-4.66-1.79c-2.05-.52-2.18-.27-3.07-.74-1.8-1-1.61-2.15-3.24-2.85-1.38-.59-1.7.18-3.39-.51-1.34-.54-1.25-.86-2.69-1.6s-1.86-.76-2.51-1.67-.53-1.4-1.57-6l-1-4.24c-1.19-6.64.05-11.27-1.74-11.92a1.37,1.37,0,0,0-.27-.06c-4.11-.34-9,16.5-6.51,23.3a.57.57,0,0,0,.1.27c5.15,5.23,7.17,7.12,7.64,7.39a4.36,4.36,0,0,1,1,1c.5.65.09,1.12.37,2.57s.77,1.59.53,2.34-.66.61-.95,1.33.11.73.32,2.22c.11.82.17,1.71.19,2a.33.33,0,0,1-.07.21,4.64,4.64,0,0,0-.65,1c-.17.47,0,1,.75,2.16,1.11,1.89,1.69,2.83,2.27,2.85s.62-.46,1.75-.9c.64-.26,1.48-.58,1.93-.27,1.06.74-.88,4.38.18,5.11.57.4,1.85-.16,2.13-.3a6.49,6.49,0,0,0,1.06-.59c1.6-.94,1.94-1,2.13-1l.09,0c.41.28.15,1,.7,1.4s1.65-.37,2,.06-.3,1,0,1.63c.24.48.63.36,1.32,1s.44.69,1.21,1.56,1,.81,1.17,1.27a3.68,3.68,0,0,1-.56,2.35,9.55,9.55,0,0,0-1.18,1.7c-.39,1.11.47,1.66.19,2.83-.06.28-.18.4-1.2,1.6s-1.69,1.94-1.85,2.09l-.09,0c-.79.42-1.32.27-3.49,1.12a2.67,2.67,0,0,1-.7.64c-1,.65-2.31.26-2.35.43s1.87.45,2.18,1.43c.18.55-.29.86-.81,2.29-.34,1-.71,2-.32,2.32s.82,0,1.51-.12c1.22-.16,2.44-.27,3.67-.31,3.51-.39,4.14-1.23,5.05-.61s.46,1.12,1.47,2.41a9.56,9.56,0,0,0,2.74,2.24c2.76,1.75,4.34,2.78,5,2.25.92-.71-1.12-3.08-.07-6a7.63,7.63,0,0,1,3-3.59,27.68,27.68,0,0,1,2.79-1.49s.54-.26,1.08-.48C194.29,183.21,195.94,183.47,198.06,182.14Z"/><path class="cls-5" d="M195.76,195.66c.14.49-.94.78-1.07,1.78s.75,1.49.49,2-.62.19-1.79.59a3.32,3.32,0,0,0-1.61.88c-.41.5-.17.77-.51,1.94s-.78,1.71-.63,1.82.47-.3.76-.21c.57.2-.35,2.16.48,4.19a4.22,4.22,0,0,1,.61,1.89,8.69,8.69,0,0,0,0,1.14,14.38,14.38,0,0,0,.31,1.48c.16,1.12,0,1.27.23,1.61.46.65,1.44.34,1.66.9s-.19.87-.48,1.2c-.55.45-1.11.16-1.36.53-.55.62.6,2.3.35,2.47s-1.62-1.4-1.62-1.4a8,8,0,0,1-.2,2.44,1.19,1.19,0,0,1-.21.44,8.63,8.63,0,0,1-2,1.85c-.87.83-.06,1.5-.92,3.63-.32.83-.83,2.16-1.84,2.34-.74.1-1.29-.4-1.65-.11s0,1.13-.34,1.48-1.54-.57-2.1-.15c-.21.17-.08.35-.34.7s-.79.45-1.86.8c-.88.3-1.33.46-1.53.76-.42.64.11,1.21-.29,1.78s-1.93.78-2.12.4c-.32-.6,2.13-2.71,2.13-2.71h0a2.39,2.39,0,0,0,.54-1.51c.17-.74.7-.58,1.14-1.35.64-1.23-.42-2,.12-3.73.21-.64.54-1.21.35-1.37s-.53.14-1,0-.62-.49-1.21-1.56c-1-1.74-1-1.73-1.07-2-.08-1,.58-1.68.26-2s-.61,0-1.35-.15-1.12-.73-1.69-1.09c-1.61-1.06-3.32,1-5.44.23-1.3-.53-1.28-1.56-2.67-1.8-.53-.1-.68,0-2.37.33-3.22.59-3.5.29-3.59.17s.26-.58.55-1.71a8.06,8.06,0,0,0,.19-1.77,5.73,5.73,0,0,0-.48-2.65c-.73-1.53-1.84-1.71-1.81-2.71,0-.68.57-.76.58-1.41,0-1.13-1.59-1.37-1.66-2.38,0-.74.79-1.37,1-1.54,1.48-1.09,4-.76,4.57-.64a2,2,0,0,0,1.31-.09c.64-.33,1.16-1.18.89-1.76-.35-1-2.52-.93-2.47-1.38s1.06-.59,1.24-.62c.63-.16.79,0,1.12-.16a2.08,2.08,0,0,0,.77-2.52c-.43-.9-1.53-.47-2.37-1.4-.68-.73-.68-1.68-.69-3.41,0-2.39.53-2.53.51-4.46-.06-2.34-.87-3.49-.35-3.9s1.75.09,2.1.89-.76,1.61-.5,2.69,2,2,3.35,2a11.94,11.94,0,0,0,3.72-.87c1.5-.45,2.24-.79,2.8-.39s.22.54.75,1.42a6.45,6.45,0,0,0,1.69,1.84c.74.64.72.51,1.41,1.06,1.43,1.23,1.4,1.91,2.34,2.12.67.18.72-.21,1.63,0a12.12,12.12,0,0,1,1.74.74,5.31,5.31,0,0,0,1.61.56c1.12-.06,1.3-1.14,2.11-1.08.59.05.63.59,1.7,1.19a4.64,4.64,0,0,0,1.26.46C193.66,195.24,195.57,195,195.76,195.66Z"/><path class="cls-5" d="M176,234.51c.09.64,1.06,1.22,1.47,1s0-.92.42-1.59,1.08-.39,1.39-1-.14-1,.21-1.67.89-.46,1.36-1.18a3.14,3.14,0,0,0,.36-2c0-1.19-.39-1.61-.08-2.06s.77-.28,1-.69a1.3,1.3,0,0,0-.77-1.63c-.45-.07-.64.53-1.07.49s-.33-.7-1-1.93c-.27-.44-.7-1.09-.7-1.09a2.68,2.68,0,0,0,.29-1.78c-.11-.32-.32-.36-1.27-1s-1-.78-1.27-1c-1.74-.95-4,1.7-5.67.8a1.05,1.05,0,0,1-.36-.3,4.16,4.16,0,0,0-3.08-1.69c-3.33-.06-5,1.16-5.4.62-.21-.28.22-.61.41-1.69a10,10,0,0,0-.2-2.83,8.29,8.29,0,0,0-.6-2.78c-.72-1-1.88-1.06-1.86-1.61s.79-.45,1-1-.69-1-1.46-2.31c-.56-1.06-.27-1.19-.88-2.4-.31-.83-1-2.66-1.77-3.15-.94-.43-1.85.64-2.83,1-1.67.44-1.49,1.2-3.57,1.93-.74.28-1.34.36-1.61.88s.15,1-.22,1.56-1.38.33-1.61.87a1.11,1.11,0,0,0,.63,1.34c.57.2,1-.47,1.39-.29.65.31-.37,2.5.58,3.42.63.62,1.68.1,2.09.84a.93.93,0,0,1,0,1.14c-.24.2-.7.1-1.66-.21-.33-.13.43-.39.08-.45-.76-.07-2,.52-2.6.47-.89-.08-1.32-1.31-1.6-1.21s.15,1.75-.56,2.26c-.34.25-.65,0-1.42.1a5.59,5.59,0,0,0-1.94.92,10.23,10.23,0,0,0-2.46,1.88c-.45.47-.65.7-.65,1,.12.84,2.13.62,2.67,1.81.36.8-.35,1.37.14,2.39.3.67.8.84.7,1.09-.17.5-2-.15-2.62.72a1,1,0,0,0-.05,1.14c.3.4.88.18,1.22.61a1.2,1.2,0,0,1,0,1.19c-.25.45-.55.45-1.29,1s-1.35.87-1.27,1.16,1.57.53,2.86,0c1-.38,1.4-1,1.63-.77s0,1.13-.42,2.57c-.34,1.19-.58,1.41-.41,1.7.28.5,1.22.54,3,.55a7,7,0,0,1,2.66.27c.07,0,1.2.48,1.11.83s-2.51.29-2.61.82c0,.24.38.52.74.67a3,3,0,0,0,1.94-.27,14.17,14.17,0,0,1,3.42-.59c1.12-.09,1.7,0,2-.38s.06-.79.35-1.38a2.37,2.37,0,0,1,1.71-1.13c1.34-.19,1.76,1.12,3.29,1.61,2.75.91,5.5-2,6.68-.94.39.39.11.83.76,1.53a3.73,3.73,0,0,0,1.88,1.06c1.57.25,2.56-.91,3.1-.44s-.07,1.14.44,1.67c.4.36,1.12.42,1.35.15.41-.5-1.17-1.81-.73-2.75a1.68,1.68,0,0,1,1.43-.75c.51,0,.64.22,1,.2a2.24,2.24,0,0,0,1.52-2.49c-.28-.84-1.6-.72-1.74-1.49,0-.36.21-.43.3-1,.13-1-.66-1.58-.39-2s.88-.32,1.3-.18a2,2,0,0,1,1,1,3.44,3.44,0,0,1,.42,1.57c0,.75-.19.78-.22,1.57s.26,1.09.32,2.22a3.86,3.86,0,0,1-.12,1.55C177.07,233.68,175.87,233.81,176,234.51Z"/><path class="cls-5" d="M139.31,217.23c.29.17.2.25.82.77.81.67,1,.58,1.27,1s.19.86.12,1.82c-.07.72-.08,1.14-.27,1.26-.47.51-1.21.1-1.94.72-.11.12-.48.41-.46.78s.68.48,1,1.09a1.74,1.74,0,0,1-.32,1.64c-.34.42-.67.27-1.08.73s-.24.75-.51,1-.91-.11-2.18-.71a10.76,10.76,0,0,1-1.76-.89,2.34,2.34,0,0,1-.84-.87c-.36-.63-.13-1-.46-1.36s-.72-.24-1.73-.64a3.74,3.74,0,0,1-2.56-2.74,3,3,0,0,1-.32-1.79c.2-.74.79-.69,1.37-1.59a3.28,3.28,0,0,0,.54-2.49,2.91,2.91,0,0,0-1.26-1.66c-.55-.3-.8-.13-1.2-.48s-.32-.53-.77-1.35a5.45,5.45,0,0,0-1.38-1.71c-.42-.32-.74-.41-.82-.77a.84.84,0,0,1,.24-.92c.09-.08.27,0,.57-.08a7.72,7.72,0,0,1,.82,0c.21,0,.43,0,.64,0,.54-.08.56-.66,1.06-1.17.87-.88,1.91-.48,2.31-1.28.13-.29,0-.48.27-.69a1.14,1.14,0,0,1,1.31-.18c.4.21.28.57.69.78s.7-.09,1.14,0,.39.38.67.92c.38.73.3.95.63,1.31s.51.23.79.53c.55.54.47,1.4.36,2.57a1.82,1.82,0,0,1-.36,1.08c-.17.19-.28.17-.39.36s-.09.59.15,1.51c.25,1.1.25,1.29.51,1.46s.68,0,.92.24c.4.42-.41,1.45-.08,1.85S138.28,216.68,139.31,217.23Z"/><path class="cls-5" d="M129.8,215.45a2.31,2.31,0,0,1-.31,1,2.88,2.88,0,0,1-.67,1c-.49.45-.75.28-1,.58,0,.08-.25.38,0,1.73.24,1.16.5,1.57.32,1.76s-.64-.21-1.58-.32c-1.28-.16-1.7.45-2.54.05-.51-.23-.67-.62-1-.51s-.16.57-.53.79-.51,0-1,.14-.51.31-1.06.56a2.49,2.49,0,0,1-1.86.09,1.75,1.75,0,0,1-1-1c-.12-.35.13-.49.33-1.47a3.11,3.11,0,0,0,.13-1.25c0-.3-.12-.35-.44-1-.48-1-.37-.9-.65-1.44-.42-.79-.66-.82-.73-1.32s.13-.5.28-1.18c.17-.91-.16-1.11,0-2.18.08-.59.14-1.15.47-1.26s.71.48,1.38.42.55-.45,1.23-.68c.88-.3,1.49.19,1.72-.11s-.43-.89-.2-1.44,1.42-.78,2.21-.41a3.17,3.17,0,0,1,1.5,1.5c.26.41.19.38.73,1.33a6.44,6.44,0,0,0,1,1.49,4.62,4.62,0,0,0,1.27,1c.74.43.89.28,1.23.64A2.76,2.76,0,0,1,129.8,215.45Z"/><path class="cls-5" d="M116.79,217.8c.23.44.49.34.83.83a1.86,1.86,0,0,1,.26,1.87c-.24.41-.6.32-.81.76s.12.84-.14,1.16-.75,0-1.72.1-.86.4-1.35.33-.61-.7-1.58-1.31c-.67-.41-.92-.24-1.82-.88a6.76,6.76,0,0,1-.72-.51,6,6,0,0,1-1.12-.89c-.39-.6,0-1.47.6-2.78.72-1.63,1.12-1.72,1.25-2.69.18-1.16-.31-1.49.06-2s1.19-.24,3.45-.39c1.38-.09,2.22-.38,2.42,0s-.18.4-.25,1.17.21,1,0,1.46c-.13.29-.24.24-.4.53a1.3,1.3,0,0,0,0,1.2c.24.47.63.32.89.75S116.54,217.25,116.79,217.8Z"/><path class="cls-6" d="M234.5,263.88c-.08.63-.15.6-.2.71s-.23.31-1.06.53c-4.25,1-5,1.83-6.12,2-.1,0-.44-.24-.62-.28a.45.45,0,0,0-.3,0,4.91,4.91,0,0,1-2.31.26c-.69-.28-.7-.58-.52-1.53.2-1.42,2-2.08,1.94-5.51a18.39,18.39,0,0,0,0-3.4c0-.85.71-1.24,1.77-.25.69.79,1.49-.07,1.75-1.38.12-.56,1.05-.59,1.49-.72,1.71-.42,5.12-.39,5.41-1s-.31-1.21-.2-1.36.6-.16.72-.21c1.31-.39-.89-1.3-2-2-.53-.36-.72-.54-1-.71-.56-.33,0-1.05.49-1.09a17.49,17.49,0,0,0,3.94-.55c.55-.15.09-1,.6-1.28a2.11,2.11,0,0,0,.43-1.73,6.63,6.63,0,0,1-.14-1.48c0-.57.49-.68.92-.5,1.09.46,2.89,2.62,4.41,3.73,2,1.45,3.85,1,7.25-1.16,1.4-1.68,11.21,1.92,13.8,2.7h0l3.68,1.94c.57.64,1.73.81,3.47.51l.13,0a7,7,0,0,1,3.78,2.71.31.31,0,0,0,.15.1c2.38.79,4.18,1.67,4.82,4.17.16.62-.72.65-.67,1.23.11.8-.44,1.69-.33,2.5a12.58,12.58,0,0,0,2.77,5.9,55.88,55.88,0,0,0,7.43,7.56,2.13,2.13,0,0,1,.86,2.88l-.09.14c-.15.6,0,.78.77.85s.54.43,1.06,1c3.69,4.08,6.15,7.74,7.14,11.05a.5.5,0,0,1,0,.12c-.21,3.14,1.45,5.37,4.4,4.2a.42.42,0,0,0,.14-.09c.61-.59.66-2,.1-4.55-.14-1.44-.64-2.36-1.51-2.68a9.66,9.66,0,0,1-2.68-5.29.19.19,0,0,0,0-.13,15.47,15.47,0,0,1-3.72-7.59c-.47-2.59-1-4-2.32-4.57-.54-.23-.72.17-1.12-.7-.77-1.62-1.72-2.78-.53-3.26.3-.1-.07-.53.23-.78.51-.07,1.07.09.68,1.13-.15.43.44,1.23.86,1.55a23.72,23.72,0,0,0,4.15,3l.1.07c.81.83.75,1.29.31,3.05a.31.31,0,0,0,0,.1c.07,2.26,1.67,3.77,4.79,4.51,3.09,1.67,3.39,2.77.89,3.28a.29.29,0,0,0-.22.15c-1.36,2.15-.32,4.25,3.15,6.23a.34.34,0,0,1,.15.2c1.34,5.18,2.12,8.27,2.3,9.24a.3.3,0,0,1-.24.37h0l-5.43,1a.34.34,0,0,1-.36-.22c-.24-.67-.43-1.36-1.1-1.24a2.85,2.85,0,0,1-1.66-.45c-5.05-2.24-6.65-3-6.65-3a2.31,2.31,0,0,0-1.06-.26c-3.57.27-5.66.08-6.9.74-.45.23-.2.77-.44,1a5.72,5.72,0,0,1-2.47.56,4.44,4.44,0,0,1-2.2.1c-.37-.18-.39-.56-.54-.7-2-1.49-3.79-2.7-3.83-4-.14-2.13-1.24-2.48-2-3.12a2.58,2.58,0,0,0-2.27-.91c-1.41.37-1.54,1.89-2.19,2.58-1.29,1.24-3.62.58-5.05-1.81a70.8,70.8,0,0,1-3.77-6.47,5.46,5.46,0,0,0-4.54-2.7c-1.61-.31-2.33-1.54-1-3.12a1.77,1.77,0,0,0,.45-1.2c.92-4.52,1.08-7.5,0-9.67-2.19-5.36-4.6-8.91-6.07-9.65-3.14-1.57-7.8-.77-11.87.24-4.29,1.22-3.95,5-4.43,8.39Z"/><path class="cls-5" d="M239.75,241.4a4.79,4.79,0,0,1,.25,3.37,2.5,2.5,0,0,1-.66,1.53c-.49.42-1,.29-2.53.57-1.22.17-1.81.31-1.89.6-.18.59,1.33,1.94,2.89,2.59.31.13.84.31.82.49s-1.41,0-1.76.69c-.26.45.3.89.19,1.39-.3,1.52-6.2,1.83-6.41,1-.05-.35.86-.52,1.11-1.47.18-.72-.24-1-.56-2.33-.42-1.77,0-2.5-.51-2.89s-1.78.45-2.19,0a1.13,1.13,0,0,1,.34-1.46c.49-.36,1.12-.06,1.58-.44.71-.56-.06-1.7.61-2.61s2.19-.54,2.44-1.33-.71-1.19-.5-1.73c.32-.78,2.86-.87,4.76.14A4.61,4.61,0,0,1,239.75,241.4Z"/><path class="cls-5" d="M232.33,240.5c-.21.35-.3.32-1.25,1.17a16.11,16.11,0,0,1-1.55,1.42,4.16,4.16,0,0,1-2.45.46c-4.28-.18-7.6,3-9.53,1.45a10.75,10.75,0,0,0-1.52-1.42c-1-.7-1.66-.73-1.68-1.08s1.27-1.19,2.56-1.24c1,0,1.37.36,2,.05.38-.19.63-.62,1.1-1.47.73-1.3.6-1.57,1-1.89.67-.51,1.13,0,2-.5a6,6,0,0,0,1.42-1.63c.75-1,.78-1.25,1.12-1.36a1.83,1.83,0,0,1,1.92,1.26c.18.59-.16.89.06,1.19.36.46,1.29-.18,2.74.06.51.06,1.87.22,2.36,1.19A2.66,2.66,0,0,1,232.33,240.5Z"/><path class="cls-5" d="M228.07,231.71c-.07.51-.59.46-1.85,1.73-.68.68-.63.79-1.12,1.21-1,.87-1.47.57-2.24,1.19-1.35,1.08-.88,2.67-2.07,3.14-.28.11-.19,0-1.41.09a6.2,6.2,0,0,0-2.13.41c-.92.44-1.1,1.06-1.4,1s-.34-.43-.27-2.7.26-2.3.18-3.43c-.11-1.63-.5-1.65-.41-2.89s.55-1.45.51-2.59c-.06-1.4-.8-2.06-.46-2.45s1.19-.23,1.67.21.37.92.69,1,.78-.8,1.22-.71.25.45.58,1.05a4.64,4.64,0,0,0,2.33,1.76c.58.26.88.4,1,.28.42-.36-.8-2.66-1-2.59s-.07.5.07.54.4-.84.85-.88.6.65,1.39,1.33a8,8,0,0,0,1.43.79C225.82,229.21,228.25,230.56,228.07,231.71Z"/><path class="cls-5" d="M219.7,222a3.49,3.49,0,0,1,2.08,1.57c.53,1,.5,2.43-.14,2.85s-1-.27-2.2,0c-.73.16-1.06.49-1.48.33s-.43-.66-.88-.87c-.84-.35-1.72.91-2.44.56-.45-.2-.19-.75-.76-1.52s-1.43-.66-1.73-1.4c-.19-.45.11-.49,0-1.87a3.71,3.71,0,0,0-.19-1.36c-.19-.52-.42-.74-.34-.86s1.38.65,1.79.3,0-1.13.16-1.23.58.45.89.86a16.64,16.64,0,0,0,1.85,2.25C217.34,222.24,218,221.37,219.7,222Z"/><path class="cls-5" d="M211.3,222.92c-.31,0-.36-.76-1.32-1.34a3.63,3.63,0,0,0-1.27-.48,5.46,5.46,0,0,0-2.54.12,10,10,0,0,0-2.76,1.18c-2.51,1.39-2.32,1.79-3.32,2a6.12,6.12,0,0,1-4.09-1.07,5,5,0,0,1-2.49-2.16c-.32-.65-.59-1.68-.18-2s.86.06,1.27-.3.08-1.14.37-1.25.74.3,1.09.72c.93,1.14.54,1.91,1.31,3.1,0,.09,1.07,1.62,2.07,1.46.42-.06.75-.53,1.43-1.41s.71-1.23,1.22-1.48c.7-.33,1.33.08,1.5-.22s-.26-.92-.74-1.31-1.2-.45-1.23-.7c-.06-.43,1.6-1,1.6-1a.88.88,0,0,1,.49-.44c.46-.14.77.36,1.61.59s.9-.13,1.45.12.57.88,1.31,1.24.79,0,1.67.2a3.17,3.17,0,0,1,1.88.94C212.65,220.57,211.84,222.88,211.3,222.92Z"/><path class="cls-7" d="M135.59,110.59c.16.92,1,5.5-1.9,8.83-2.27,2.64-6.41,3.1-9,2.23-3.3-1.1-5.25-4.52-5.41-8.82-.16-4.52,1.8-8.12,4.89-9.43.63-.26,4.39-1.43,7.36.37C134.73,105.72,135.41,109.59,135.59,110.59Z"/><path class="cls-8" d="M135.59,110.59a12.23,12.23,0,0,1-.62,7,8,8,0,0,1-2.15,2.94,8.61,8.61,0,0,1-3.3,1.64,10.37,10.37,0,0,1-3.73.27,7.39,7.39,0,0,1-3.59-1.4,8.44,8.44,0,0,1-2.47-3,12.6,12.6,0,0,1-1.13-3.64,12.92,12.92,0,0,1,1.05-7.42,7.76,7.76,0,0,1,5.87-4.45,10.06,10.06,0,0,1,3.67.05,7.12,7.12,0,0,1,3.25,1.64A10.6,10.6,0,0,1,135.59,110.59Zm0,0a9.71,9.71,0,0,0-3.3-6.12,7.59,7.59,0,0,0-6.61-1.07,6.74,6.74,0,0,0-4.75,4.24,12.62,12.62,0,0,0-.71,6.59,9,9,0,0,0,2.85,5.76,7.6,7.6,0,0,0,6.28,1.43,8,8,0,0,0,3.17-1.25,7.21,7.21,0,0,0,2.24-2.62A11.16,11.16,0,0,0,135.59,110.59Z"/><path class="cls-7" d="M118.52,197.13c-.73-.66-2.89-2.75-4.5-8.93-1.54-5.91-1.15-9.85-.64-19.28.45-8.34,1.27-25.88,1-30.54-.08-1.28,0-2.57,0-3.86,0-2.3-.06-3.08.54-3.85a4.23,4.23,0,0,1,2.25-1.4,35.24,35.24,0,0,1,9.1-1.5c6.44,0,9.66.07,10.71,1.51.29.4.52.9-.1,6.53-.47,4.33-.94,7.3-1.61,12.54-.38,3-.61,5.55-1,10.6-.48,7-.72,10.6-.64,13.5.11,4.19.21,7,1.28,10.61.78,2.61,1.64,5.49,3.86,8,4.35,5,11,5.41,13.18,5.46a52.2,52.2,0,0,1-17.68,3.86C128.19,200.65,122.64,200.86,118.52,197.13Z"/><path class="cls-9" d="M118.52,197.13a13,13,0,0,1-2.94-4.33,30.54,30.54,0,0,1-1.69-5,37.3,37.3,0,0,1-1-10.48c.25-7,.58-14,.75-21.07.1-3.51.18-7,.21-10.53,0-1.76,0-3.51,0-5.26,0-.89-.06-1.69-.12-2.62s0-1.8,0-2.66,0-1.74,0-2.65a4.83,4.83,0,0,1,.22-1.53,3.56,3.56,0,0,1,1-1.37,6.31,6.31,0,0,1,2.66-1.29c.86-.25,1.73-.47,2.6-.67a36.66,36.66,0,0,1,5.35-.76c1.85-.07,3.54,0,5.34,0,.89,0,1.78,0,2.7.13a9.51,9.51,0,0,1,2.86.62,3.21,3.21,0,0,1,1.44,1.12,2.26,2.26,0,0,1,.38,1,5.54,5.54,0,0,1,.06.78c0,1-.06,1.84-.13,2.73-.13,1.78-.35,3.52-.58,5.27l-.67,5.23c-.22,1.75-.48,3.49-.67,5.24l-.49,5.22-.51,5.22-.4,5.25c-.12,1.75-.24,3.5-.31,5.23s0,3.47,0,5.22a35.21,35.21,0,0,0,.46,5.15,41,41,0,0,0,1.32,5,16.93,16.93,0,0,0,2.23,4.58,13.94,13.94,0,0,0,3.68,3.5,19.46,19.46,0,0,0,9.82,2.88l1.27.06-1.18.46a54.29,54.29,0,0,1-17,3.64,64.46,64.46,0,0,1-8.68-.07A13.56,13.56,0,0,1,118.52,197.13Zm0,0a13.6,13.6,0,0,0,7.9,3.19,57,57,0,0,0,8.67,0,51.59,51.59,0,0,0,8.56-1.29,52.85,52.85,0,0,0,8.2-2.71l.09.52a20.27,20.27,0,0,1-10.25-2.71,14.8,14.8,0,0,1-4-3.62,17.69,17.69,0,0,1-2.51-4.79,40.06,40.06,0,0,1-1.52-5.14,35.73,35.73,0,0,1-.64-5.33c-.09-1.76-.19-3.53-.16-5.32s.1-3.54.19-5.3l.31-5.27.42-5.27.47-5.28c.17-1.76.42-3.49.63-5.23l.66-5.23c.24-1.74.47-3.48.61-5.21.08-.85.14-1.73.14-2.53a2,2,0,0,0-.09-.74,1.42,1.42,0,0,0-.63-.45,8.11,8.11,0,0,0-2.27-.48c-.83-.09-1.7-.14-2.56-.17-1.72,0-3.55-.11-5.2-.08a36.81,36.81,0,0,0-5.1.63c-.84.17-1.68.35-2.52.57a4.79,4.79,0,0,0-2.08.89,2.09,2.09,0,0,0-.58.75,3.8,3.8,0,0,0-.17,1.07c0,.83,0,1.71,0,2.62s-.08,1.76-.06,2.6.05,1.78.05,2.65c0,1.77-.07,3.53-.14,5.29-.13,3.52-.32,7-.51,10.54l-.65,10.53c-.24,3.51-.51,7-.65,10.52a35,35,0,0,0,.89,10.45,30.22,30.22,0,0,0,1.66,5A13.05,13.05,0,0,0,118.52,197.13Z"/></g><path class="cls-10" d="M144.88,271.77c-22.62,1.48-38.89-2.87-42.43-3.85-29.14-8.11-47.9-25.48-56.57-34.72-8.68-9.64-28.16-34-33.43-70.71a132.87,132.87,0,0,1,3.86-55.29c9.63-33.71,28.84-54.45,33.42-59.14C84.5,12.52,129.06,8.81,141,8.2c10,.69,58.91,5.08,93.86,46.29,31.07,36.65,30.91,78.64,30.85,93.86-.06,17.36-.16,47.81-20.57,75.85C213.82,267.29,159.2,270.84,144.88,271.77Z"/></g><g id="Capa_4" data-name="Capa 4"><g class="cls-11"><g class="cls-12"><g class="cls-13"><circle class="cls-14" cx="92.75" cy="-2.11" r="3.58"/></g></g></g></g></svg>