<?xml version="1.0" encoding="utf-8"?>
<!-- Generator: Adobe Illustrator 17.0.0, SVG Export Plug-In . SVG Version: 6.00 Build 0)  -->
<!DOCTYPE svg PUBLIC "-//W3C//DTD SVG 1.1//EN" "http://www.w3.org/Graphics/SVG/1.1/DTD/svg11.dtd">
<svg version="1.1"
	 id="svg1834" xmlns:cc="http://creativecommons.org/ns#" xmlns:inkscape="http://www.inkscape.org/namespaces/inkscape" xmlns:svg="http://www.w3.org/2000/svg" xmlns:dc="http://purl.org/dc/elements/1.1/" xmlns:rdf="http://www.w3.org/1999/02/22-rdf-syntax-ns#" xmlns:sodipodi="http://sodipodi.sourceforge.net/DTD/sodipodi-0.dtd" sodipodi:docname="latinamerica-10.svg" inkscape:version="0.92.3 (2405546, 2018-03-11)"
	 xmlns="http://www.w3.org/2000/svg" xmlns:xlink="http://www.w3.org/1999/xlink" x="0px" y="0px" width="901.578px"
	 height="983.431px" viewBox="0 0 901.578 983.431" enable-background="new 0 0 901.578 983.431" xml:space="preserve">
<sodipodi:namedview  fit-margin-left="0" fit-margin-top="0" showgrid="false" inkscape:cy="1250.1021" inkscape:cx="458.04699" inkscape:zoom="2.8" pagecolor="#ffffff" id="base" borderopacity="1.0" bordercolor="#666666" inkscape:window-maximized="1" inkscape:window-y="0" inkscape:window-x="0" inkscape:window-height="1052" inkscape:window-width="1920" inkscape:current-layer="layer1" inkscape:document-units="mm" inkscape:pageopacity="0.0" fit-margin-right="0" fit-margin-bottom="0" inkscape:pageshadow="2">
	</sodipodi:namedview>
<g id="layer1" transform="translate(66.598169,12.422692)" inkscape:label="Layer 1" inkscape:groupmode="layer">
	
		<path id="path814" sodipodi:nodetypes="cccccsccccccccsccccccscccccccccccccccccccccccccccccccccscccsccccccccccccccccccccccccccccccc" inkscape:connector-curvature="0" fill="none" stroke="#000000" stroke-miterlimit="10" d="
		M812.365,368.08c-3.866-1.384-7.733-2.769-11.599-4.154c-9.565-3.425-19.13-6.85-28.695-10.275
		c-12.212-4.373-24.424-8.746-36.637-13.119c-11.808-4.228-23.616-8.456-35.424-12.685c-8.352-2.991-16.704-5.981-25.056-8.972
		c-1.927-0.69-3.853-1.38-5.78-2.07c-0.113-0.041-0.65-0.145-0.709-0.261c-0.396-0.774-0.792-1.548-1.189-2.322
		c-5.256-10.27-10.512-20.541-15.768-30.811c-2.037-3.981-4.075-7.962-6.112-11.943c-2.891-5.65-6.841-10.467-12.293-13.836
		c-4.208-2.601-8.416-5.202-12.624-7.803c-9.468-5.852-18.936-11.705-28.404-17.557c-11.192-6.918-22.383-13.836-33.575-20.753
		c-9.379-5.798-18.759-11.595-28.138-17.393c-4.031-2.492-8.062-4.984-12.094-7.475c-6.461-3.994-14.055-5.44-21.55-4.434
		c-2.01,0.27-4.021,0.54-6.031,0.81c-9.293,1.248-18.587,2.495-27.88,3.743c-12.801,1.719-25.603,3.437-38.404,5.156
		c-12.083,1.622-24.166,3.244-36.248,4.866c-7.138,0.958-14.276,1.916-21.414,2.875c-0.967,0.13-1.516,0.266-2.417-0.035
		c-3.213-1.073-6.425-2.145-9.638-3.218c-11.816-3.945-23.632-7.889-35.448-11.834c-7.773-2.595-15.546-5.19-23.319-7.785
		c-0.275-0.092-0.327-0.532-0.426-0.782c-0.429-1.079-0.857-2.159-1.286-3.238c-1.647-4.149-3.295-8.298-4.942-12.447
		c-4.711-11.864-9.421-23.728-14.132-35.592c-3.275-8.248-6.549-16.495-9.824-24.743c-2.19-5.516-5.44-10.398-10.103-14.143
		c-5.16-4.145-11.306-6.346-17.844-6.996c-9.925-0.987-19.85-1.975-29.775-2.962c-10.472-1.042-20.945-2.084-31.417-3.125
		c-0.568-0.056-1.135-0.113-1.703-0.169c6.656-6.839,13.312-13.679,19.968-20.518c3.442-3.537,6.883-7.073,10.325-10.61
		c0.182-0.187,0.878-1.158,1.166-1.124c0.531,0.062,1.061,0.124,1.592,0.186c7.737,0.902,15.473,1.803,23.21,2.705
		c12.599,1.468,25.197,2.936,37.796,4.404c11.967,1.394,23.934,2.789,35.9,4.183c5.841,0.681,11.682,1.361,17.524,2.042
		c2.132,0.248,4.612,0.428,6.798,0.028c0.368-0.067,1.549-0.288,1.166-0.91c-0.651-1.056-2.656-1.547-3.715-1.932
		c-3.648-1.323-7.427-2.303-11.183-3.263c-7.039-1.798-14.134-3.378-21.236-4.903c-11.264-2.42-22.564-4.668-33.876-6.854
		c-16.345-3.158-32.717-6.169-49.102-9.113c-22.285-4.005-44.594-7.878-66.914-11.682c-23.634-4.028-47.283-7.963-70.969-11.676
		C55.172,0.778,37.409-1.89,19.612-4.307C7.007-6.02-5.617-7.618-18.273-8.913c-8.292-0.848-16.605-1.591-24.935-1.934
		c-4.804-0.198-9.663-0.326-14.456,0.149c-2.101,0.208-4.637,0.427-6.447,1.643c-0.896,0.602-1.291,1.513-0.908,2.548
		c0.414,1.12,1.327,2.044,2.161,2.865c0.077,0.076,0.154,0.151,0.231,0.225c4.495,4.325,8.991,8.65,13.486,12.975
		c9.172,8.824,18.343,17.648,27.515,26.472c7.376,7.096,14.751,14.192,22.127,21.288c0.805,0.774,1.61,1.549,2.414,2.323
		c0.223,0.215,0.572,0.428,0.649,0.739c0.961,3.908,1.922,7.817,2.884,11.725c1.525,6.199,3.049,12.399,4.574,18.598
		c0.91,3.699,1.644,7.514,2.836,11.138c1.308,3.977,3.507,7.354,5.809,10.775c2.461,3.657,4.921,7.314,7.382,10.971
		c7.122,10.585,14.245,21.171,21.367,31.756c4.28,6.361,8.56,12.722,12.84,19.083c5.056,7.514,13.166,12.632,22.141,13.901
		c5.275,0.746,10.697,0.147,15.688-1.715c1.269-0.473,2.538-0.947,3.807-1.42c8.768-3.271,17.535-6.542,26.303-9.813
		c2.242,6.604,6.745,12.173,12.384,16.187c1.968,1.401,3.935,2.801,5.903,4.202c8.284,5.898,16.569,11.795,24.853,17.693
		c10.676,7.6,21.352,15.201,32.028,22.801c8.979,6.392,17.959,12.785,26.938,19.177c2.576,1.834,5.152,3.667,7.727,5.501
		c0.418,0.298,1.99,1.038,2.044,1.606c0.464,4.808,0.928,9.616,1.393,14.423c1.007,10.427,2.014,20.854,3.021,31.281
		c1.253,12.976,2.506,25.952,3.759,38.927c1.203,12.454,2.405,24.908,3.608,37.361c0.856,8.861,1.711,17.722,2.567,26.583
		c0.205,2.124,0.41,4.247,0.615,6.371c0.502,5.199,1.938,10.177,4.693,14.654c1.983,3.224,4.574,5.821,7.28,8.4
		c2.775,2.644,5.549,5.289,8.324,7.933c8.926,8.506,17.851,17.013,26.777,25.519c8.205,7.82,16.41,15.639,24.615,23.459
		c2.699,2.573,5.413,5.11,7.988,7.804c6.902,7.221,13.804,14.443,20.706,21.664c8.703,9.105,17.405,18.21,26.108,27.316
		c2.82,2.95,5.64,5.901,8.46,8.851c0.756,0.791,1.997,1.636,2.286,2.729c2.275,8.601,4.55,17.201,6.825,25.802
		c3.116,11.782,6.233,23.563,9.349,35.345c0.718,2.714,1.436,5.428,2.154,8.143c0.114,0.43-0.074,0.914-0.15,1.344
		c-0.317,1.784-0.634,3.567-0.952,5.351c-2.072,11.65-4.143,23.3-6.215,34.95c-0.933,5.245-1.739,10.418-0.767,15.765
		c0.329,1.808,0.772,3.588,1.196,5.378c2.067,8.723,4.133,17.446,6.2,26.17c2.991,12.626,5.982,25.251,8.973,37.877
		c2.604,10.993,5.208,21.985,7.813,32.978c0.747,3.154,1.494,6.308,2.242,9.463c0.163,0.689,0.326,1.378,0.49,2.067
		c0.068,0.285,0.09,0.215-0.138,0.498c-1.628,2.029-3.007,4.255-4.101,6.615c-4.027,8.691-3.929,18.877,0.269,27.486
		c0.901,1.847,1.802,3.695,2.702,5.542c4.763,9.767,9.525,19.534,14.288,29.301c5.488,11.254,10.976,22.508,16.463,33.762
		c1.807,3.706,3.614,7.412,5.422,11.118c1.218,2.499,2.372,5.034,3.935,7.344c4.028,5.954,9.905,10.202,16.668,12.526
		c2.758,0.948,5.516,1.896,8.274,2.844c11.255,3.868,22.51,7.736,33.765,11.604c10.526,3.617,21.052,7.235,31.577,10.852
		c5.256,1.806,10.26,3.51,15.94,3.645c9.731,0,19.462,0,29.194,0c4.217,0,8.433,0,12.65,0c7.767,0,15.309-2.656,21.22-7.735
		c7.103-6.104,11.235-15.221,11.151-24.587c-0.085-9.476-4.505-18.633-11.875-24.59c-3.291-2.66-7.097-4.365-10.867-6.201
		c-5.221-2.543-10.442-5.085-15.663-7.628c-5.539-2.698-11.078-5.395-16.617-8.093c-1.784-0.869-3.569-1.738-5.353-2.607
		c-0.414-0.201-1.516-0.489-1.722-0.939c-2.191-4.775-4.382-9.549-6.573-14.324c-1.302-2.837-2.722-5.571-4.664-8.04
		c-2.803-3.564-6.286-6.214-10.142-8.529c-0.242-0.145-1.334-0.556-1.273-0.889c0.05-0.273,0.101-0.546,0.152-0.819
		c0.232-1.255,0.464-2.51,0.697-3.765c0.864-4.671,1.729-9.343,2.593-14.014c2.329-12.589,4.659-25.178,6.988-37.767
		c0.894-4.833,1.789-9.666,2.683-14.5c0.369-1.995,0.626-4.056,1.079-6.031c0.989-5.896,0.203-11.796-1.907-17.364
		c-0.494-1.305-1.177-2.523-1.815-3.761c-0.083-0.162-0.94-1.484-0.897-1.53c0.08-0.084,0.16-0.169,0.24-0.253
		c1.214-1.282,2.429-2.565,3.643-3.847c5.825-6.151,11.649-12.301,17.474-18.451c8.51-8.987,17.021-17.973,25.531-26.96
		c8.986-9.488,17.971-18.977,26.957-28.465c7.25-7.656,14.501-15.312,21.751-22.968c3.305-3.489,6.609-6.979,9.914-10.468
		c3.986-4.209,7.835-8.555,11.749-12.83c8.626-9.422,17.252-18.844,25.878-28.266c5.626-6.145,11.252-12.29,16.877-18.435
		c3.729-4.073,6.277-8.797,7.746-14.111c1.033-3.737,2.066-7.474,3.099-11.212c3.258-11.788,6.516-23.576,9.775-35.365
		c0.485-1.756,0.971-3.511,1.456-5.267c0.156-0.563,0.254-1.201,0.485-1.74c1.433-3.329,2.867-6.658,4.3-9.987
		c4.036-9.375,8.072-18.749,12.109-28.124c0.147-0.342,0.534-0.65,0.774-0.925c0.87-0.998,1.741-1.995,2.611-2.993
		c3.143-3.602,6.285-7.204,9.428-10.806c8.428-9.661,16.856-19.322,25.284-28.982c4.686-5.372,9.373-10.744,14.059-16.115
		c6.899-7.908,9.502-18.97,6.86-29.125c-2.44-9.369-9.169-17.289-18.021-21.21C813.854,368.683,812.873,368.439,812.365,368.08z"/>
</g>
</svg>
