<?xml version="1.0" encoding="UTF-8" standalone="no"?>
<!-- Generator: Adobe Illustrator 18.0.0, SVG Export Plug-In . SVG Version: 6.00 Build 0)  -->

<svg
   xmlns:dc="http://purl.org/dc/elements/1.1/"
   xmlns:cc="http://creativecommons.org/ns#"
   xmlns:rdf="http://www.w3.org/1999/02/22-rdf-syntax-ns#"
   xmlns:svg="http://www.w3.org/2000/svg"
   xmlns="http://www.w3.org/2000/svg"
   xmlns:sodipodi="http://sodipodi.sourceforge.net/DTD/sodipodi-0.dtd"
   xmlns:inkscape="http://www.inkscape.org/namespaces/inkscape"
   version="1.1"
   x="0px"
   y="0px"
   viewBox="0 0 706.10291 1218.1"
   enable-background="new 0 0 2255 1400"
   xml:space="preserve"
   id="svg90"
   sodipodi:docname="latinamerica-03.svg"
   width="706.10291"
   height="1218.1"
   inkscape:version="0.92.3 (2405546, 2018-03-11)"><metadata
   id="metadata96"><rdf:RDF><cc:Work
       rdf:about=""><dc:format>image/svg+xml</dc:format><dc:type
         rdf:resource="http://purl.org/dc/dcmitype/StillImage" /><dc:title></dc:title></cc:Work></rdf:RDF></metadata><defs
   id="defs94">
	
	

		
		
		
		
		
		
		
		
		
		
		
		
		
		
		
		
		
		
		
		
	</defs><sodipodi:namedview
   pagecolor="#ffffff"
   bordercolor="#666666"
   borderopacity="1"
   objecttolerance="10"
   gridtolerance="10"
   guidetolerance="10"
   inkscape:pageopacity="0"
   inkscape:pageshadow="2"
   inkscape:window-width="1920"
   inkscape:window-height="1052"
   id="namedview92"
   showgrid="false"
   showguides="false"
   fit-margin-top="0"
   fit-margin-left="0"
   fit-margin-right="0"
   fit-margin-bottom="0"
   inkscape:zoom="0.85793532"
   inkscape:cx="484.54906"
   inkscape:cy="716.68996"
   inkscape:window-x="0"
   inkscape:window-y="0"
   inkscape:window-maximized="1"
   inkscape:current-layer="svg90" />
<g
   id="Background"
   transform="translate(-115.98798,-16.628801)">
	
</g>
<path
   id="path9"
   style="fill:#002932"
   d="m 704.87664,754.5 -44.1,-10.7 c 0,0 0,0 0,0 0,0 0,0 0,0 h -0.1 l -53.3,-8 -58.1,-10.6 -49,-47.6 c -0.4,-0.4 -0.9,-0.6 -1.5,-0.6 l -72.1,2.7 c 0,0 0,0 0,0 v 0 c -0.5,0 -1,0.2 -1.4,0.6 v 0 c 0,0 0,0 0,0 l -25.3,26.5 -11.9,-11.9 c -0.4,-0.4 -0.9,-0.6 -1.4,-0.6 h -16.4 l -9.5,-14.3 7.7,-21.7 c 0.2,-0.4 0.2,-0.9 0,-1.3 0,0 0,0 0,0 0,-0.1 -0.1,-0.2 -0.1,-0.2 0,0 0,0 0,0 -0.2,-0.4 -0.5,-0.7 -0.9,-0.9 v 0 c 0,0 0,0 0,0 0,0 0,0 0,0 -0.1,0 -0.1,-0.1 -0.2,-0.1 v 0 c 0,0 0,0 0,0 0,0 0,0 0,0 -0.1,0 -0.2,-0.1 -0.3,-0.1 l -36.2,-6.2 20.4,-47.1 c 0.2,-0.6 0.2,-1.2 -0.1,-1.7 -0.3,-0.5 -0.8,-0.9 -1.4,-1 l -21.4,-4 c -0.1,0 -0.2,0 -0.3,0 0,0 -0.1,0 -0.1,0 0,0 0,0 -0.1,0 -0.2,0 -0.5,0.1 -0.7,0.1 0,0 -0.1,0 -0.1,0.1 -0.2,0.1 -0.3,0.2 -0.5,0.3 0,0 -0.1,0.1 -0.1,0.1 0,0 -0.1,0.1 -0.1,0.1 l -9,11.6 -16.1,7.4 -19,-8.3 7.5,-34 32.8,-38 20.6,-9 28.2,-2.5 v 48.6 c 0,0.8 0.5,1.5 1.2,1.8 0.7,0.3 1.6,0.2 2.2,-0.4 l 24.7,-22.7 c 0.4,-0.4 0.6,-0.9 0.6,-1.5 v -29.8 l 20,-22 c 0,0 0,0 0,0 l 0.1,-0.1 41.1,-43.7 31.7,-13.2 c 0.5,-0.2 0.8,-0.5 1,-1 l 14.1,-29.6 h 32.1 c 1.1,0 2,-0.9 2,-2 v -55.5 l 45.8,-2.4 -12.2,31.8 c -0.2,0.6 -0.2,1.3 0.2,1.8 l 16,25.4 c 0.3,0.5 0.9,0.9 1.5,0.9 0.6,0.1 1.2,-0.1 1.6,-0.6 l 13.4,-13.4 c 0.7,-0.7 0.8,-1.8 0.2,-2.6 l -10.3,-14.2 -1.2,-18.7 11.5,-14.1 c 0.7,-0.8 0.6,-2.1 -0.2,-2.8 l -19.7,-17 -10.6,-26 -5.3,-29.2 c -0.1,-0.6 -0.5,-1.1 -1,-1.4 l -59,-34.7 21,-18.7 49.6,20.9 c 0.7,0.3 1.4,0.2 2,-0.3 0.6,-0.5 0.9,-1.2 0.7,-1.9 l -6.3,-37.7 h 27 c 0.7,0 1.3,-0.3 1.6,-0.8 0.4,-0.5 0.5,-1.2 0.3,-1.8 l -8,-22.7 c -0.1,-0.2 -0.2,-0.4 -0.3,-0.6 l -17.5,-21.5 -20,-21.4 c -0.2,-0.2 -0.4,-0.3 -0.6,-0.4 l -42.1,-19.7 -15.7,-30.1 c -0.3,-0.7 -1,-1.1 -1.8,-1.1 0,0 0,0 0,0 -0.8,0 -1.4,0.4 -1.8,1.1 l -24,48.1 c -0.3,0.6 -0.3,1.4 0.1,2 0.4,0.6 1,0.9 1.8,0.9 l 32.6,-1.1 -41.6,25.8 -32.3,-38.7 c -0.1,-0.1 -0.2,-0.2 -0.3,-0.2 0,0 -0.1,-0.1 -0.1,-0.1 -0.4,-0.3 -0.9,-0.4 -1.4,-0.3 0,0 0,0 -0.1,0 -0.1,0 -0.1,0 -0.1,0.1 -0.1,0 -0.2,0 -0.3,0.1 l -72.2,28.9 -79.2,-77.9 c 0,0 0,0 0,0 0,0 -0.1,-0.1 -0.1,-0.1 0,0 -0.1,-0.1 -0.1,-0.1 -0.1,-0.1 -0.2,-0.1 -0.3,-0.2 -0.1,0 -0.2,-0.1 -0.2,-0.1 -0.1,0 -0.1,0 -0.2,-0.1 l -78.3,-18.6 -53,-46.4 c -0.1,-0.1 -0.2,-0.1 -0.3,-0.2 -0.1,-0.1 -0.2,-0.1 -0.3,-0.2 -0.1,-0.1 -0.3,-0.1 -0.4,-0.1 -0.1,0 -0.2,-0.1 -0.3,-0.1 0,0 -0.1,0 -0.1,0 H 66.076641 c -0.7,0 -1.3,0.3 -1.6,0.9 -0.4,0.5 -0.5,1.2 -0.2,1.8 l 19.3,52.7 -50,14.1 c -0.6,0.2 -1,0.5 -1.3,1.1 l -21.4,45.4 c -0.1,0.1 -0.1,0.3 -0.1,0.4 L 0.07664068,161.8 c -0.2,0.6 0,1.3 0.5,1.8 l 29.40000032,32 c 0.1,0.2 0.3,0.3 0.5,0.4 0,0 0,0 0,0 0,0 0,0 0,0 0,0 0,0 0,0 0.2,0.1 0.3,0.1 0.5,0.2 0.1,0 0.1,0 0.2,0 0.1,0 0.1,0 0.2,0 0.1,0 0.2,0 0.2,0 0.1,0 0.1,0 0.2,0 0.2,0 0.4,-0.1 0.6,-0.2 0,0 0,0 0,0 v 0 c 0,0 0,0 0,0 l 40.8,-23.7 42.799999,6.5 41.6,35.1 2.6,65.9 c 0,0.4 0.2,0.8 0.4,1.2 l 33.7,41.5 -40.5,56.1 -20,26.7 c -0.3,0.3 -0.4,0.8 -0.4,1.2 v 46.7 c 0,0.4 0.1,0.7 0.3,1 l 26.4,43.6 v 59.5 c 0,0.5 0.2,1 0.6,1.4 l 18.5,18.5 13.2,21.2 c 0.1,0.2 0.3,0.4 0.6,0.6 l 28.5,19.7 c 0,0 0,0 0,0 l 6.3,4.4 47.9,29.3 22.5,22.5 c 0.5,0.5 1.1,0.7 1.7,0.6 l 44.4,-7.4 -3.8,8.5 -13,20 c -0.5,0.8 -0.4,1.9 0.3,2.6 l 32,30.7 c 0.4,0.4 1,0.6 1.5,0.6 0.6,0 1.1,-0.3 1.4,-0.8 l 8.9,-11.5 25.7,-5.8 -6.1,32.9 -18.7,70.8 c -0.1,0.2 -0.1,0.5 -0.1,0.7 0,0 0,0 0,0 0,0.1 0,0.1 0,0.2 0,0.2 0.1,0.3 0.1,0.5 l 26.7,60.1 c 0,0 0,0.1 0.1,0.1 0,0.1 0.1,0.2 0.2,0.2 0.1,0.1 0.1,0.2 0.2,0.3 0,0 0,0.1 0.1,0.1 0,0 0.1,0.1 0.2,0.1 0.1,0 0.1,0.1 0.1,0.1 l 48.5,30.1 1.3,67.2 9.3,80 -4,101.3 c 0,0 0,0.1 0,0.1 0,0.1 0,0.1 0,0.2 0,0.2 0.1,0.4 0.1,0.6 0,0 0,0 0,0 0.1,0.2 0.2,0.4 0.4,0.6 0,0 0,0.1 0.1,0.1 l 46.7,45.4 c 0,0 0,0 0,0 0,0 0,0 0.1,0 0.2,0.1 0.3,0.3 0.5,0.3 0,0 0.1,0 0.1,0.1 0,0 0.1,0 0.1,0 0,0 0.1,0 0.1,0.1 l 56.1,13.4 c 0.2,0 0.3,0.1 0.5,0.1 0.7,0 1.4,-0.4 1.8,-1.1 0.4,-0.8 0.2,-1.8 -0.5,-2.4 l -45.4,-37.6 19.1,-31.9 c 0.4,-0.7 0.4,-1.6 -0.1,-2.2 l -15.4,-20.5 14.2,-43.9 38.4,-35.8 41.4,-44.1 c 0,0 0,0 0,0 0.1,-0.1 0.2,-0.3 0.3,-0.5 0,0 0,0 0,-0.1 0.1,-0.2 0.1,-0.3 0.1,-0.5 0,-0.1 0,-0.1 0,-0.2 0,0 0,0 0,0 l 1.3,-44 45.5,-16.9 c 0,0 0.1,0 0.1,-0.1 0,0 0.1,0 0.1,-0.1 0.2,-0.1 0.5,-0.3 0.6,-0.5 0,0 0,0 0,0 0,0 0,-0.1 0,-0.1 0.1,-0.2 0.2,-0.4 0.3,-0.6 0,0 0,-0.1 0,-0.1 0,0 0,0 0,0 l 15.9,-75.5 27.6,-26.3 c 0,0 0,-0.1 0.1,-0.1 0.1,-0.1 0.2,-0.2 0.2,-0.4 0.1,-0.1 0.1,-0.2 0.2,-0.3 0.1,-0.1 0.1,-0.3 0.1,-0.4 0,-0.1 0.1,-0.2 0.1,-0.3 v -74.8 c 0.4,-1.2 -0.2,-2 -1.1,-2.3 z m -363.9,-48.2 -9.2,-8.9 12.4,-18.6 c 0,-0.1 0.1,-0.1 0.1,-0.2 z m -11.2,-106.3 16.5,3.1 -16.5,38.2 z m 11.4,-77.4 -19.9,8.7 -60.1,-33.8 153.9,-86 z m 133.7,-187 h -163.9 l 86.9,-86.2 z m -72.8,-87.6 104.6,-10 -28.2,95.5 z m -94.5,85.3 -11.2,-84.9 h 96.7 z m -3.8,1.9 -101.9,-14 90.7,-71 z m -1,3.9 -53.5,84.5 -48.8,-98.6 z m -48,156.4 h -86.9 l 79.5,-63.9 z m -3.7,-67.3 48.7,-76.9 -41.9,136.5 z m 56.2,-87.6 110,65 -156.8,87.7 z m 109.4,154.7 -20.2,22.2 c -0.3,0.4 -0.5,0.9 -0.5,1.3 v 29.8 l -20.7,19 v -46.2 c 0,-0.6 -0.2,-1.1 -0.6,-1.5 -0.4,-0.4 -1,-0.6 -1.5,-0.5 l -26.6,2.3 72.5,-109.1 z m -103.2,-155.7 h 161.6 l -54.2,63.5 z m 107.3,151.3 2.4,-79.9 34.2,41 z m 69.8,-53.8 -30,12.5 -36.7,-44 54.8,-64.3 25.8,66.5 z m 47.5,-31.1 h -30 l -25.5,-65.7 55.5,11.9 z m 30.9,-132.9 5.2,28.5 c 0,0.1 0.1,0.3 0.1,0.4 l 10.7,26.7 c 0.1,0.3 0.3,0.6 0.5,0.8 l 18.6,16.1 -10.8,13.1 c -0.3,0.4 -0.5,0.9 -0.4,1.4 l 1.3,20 c 0,0.4 0.2,0.7 0.4,1 l 9.7,13.3 -10.4,10.4 -14.1,-22.4 13,-33.8 c 0.2,-0.6 0.2,-1.3 -0.2,-1.9 -0.4,-0.6 -1,-0.9 -1.7,-0.8 l -50.6,2.7 -58.4,-12.5 28.7,-97.3 z m 12.6,-40.6 -45,-18.9 28.4,-37 10.6,19.8 z m 15.5,-58.5 7,19.7 h -25.3 l -11,-20.7 13.9,-18.1 z m -115.1,-48.5 20.8,-41.600001 14.2,27.200001 c 0.2,0.4 0.5,0.7 0.9,0.9 l 42.4,19.9 18.6,19.8 -13.5,17.6 -45.2,-44.6 c 0,0 -0.1,0 -0.1,-0.1 -0.1,-0.1 -0.3,-0.2 -0.4,-0.3 -0.1,0 -0.1,-0.1 -0.2,-0.1 -0.2,-0.1 -0.3,-0.1 -0.5,-0.1 -0.1,0 -0.1,0 -0.2,0 0,0 0,0 0,0 z m 13.8,17.4 11.4,14.4 -10.4,24.1 -24.2,-24 z m 0.2,43.4 c 0.5,0.5 1.1,0.7 1.8,0.5 0.7,-0.1 1.2,-0.6 1.5,-1.2 l 12,-27.9 c 0.3,-0.7 0.2,-1.5 -0.3,-2 l -11.8,-14.9 19.3,-12 44.4,43.7 v 0.1 l -30.9,40.4 -23.4,20.8 -106.2,10.2 45.5,-57.9 21.6,-26.2 z m -29.2,-29.3 -19.1,23.1 -8.6,-56.4 z m -32.4,-37.3 9.4,61.8 -76.2,-35.1 z m 8.8,65.9 -44.6,56.7 -32.6,-92.2 z m -48.1,58.8 h -97.2 l 64.1,-93.8 z m -35.1,-97.9 -64.2,94 -11,-167.9 z m -68,97.3 -128.7,-31.9 117.5,-139.3 z m -129.3,-37.5 21,-137.1 94.5,0.3 z m 39.6,-156 c 0.2,0.2 0.5,0.4 0.9,0.4 l 61.9,14.7 -83,-0.3 L 90.976641,55.3 150.17664,4.7 Z M 68.976641,4.1 H 144.77664 L 86.976641,53.4 Z m 18.7,54.9 87.099999,9.4 -101.099999,49.2 z m -52.2,14.2 47.9,-13.5 -14.1,59.1 -49.7,-11.9 z m -4.5,117.7 -26.8000003,-29.2 10.4000003,-44.1 3.3,-6.9 49.9,12 z m 87.199999,-15.4 c -0.3,-0.2 -0.6,-0.4 -1,-0.4 l -44.099999,-6.7 c -0.4,-0.1 -0.9,0 -1.3,0.2 l -35.3,20.5 34.8,-64.5 59.399999,61.4 z m 40,33.3 L 74.076641,121.9 179.37664,70.6 Z m 6,70.3 -2.5,-63.4 128,31.7 -92.4,72.3 z m -7,102 39.4,-54.7 48.1,97.2 -89.3,-40.1 z m -19.6,71.7 v -45.5 l 15.5,-20.6 92.2,41.5 -82.5,66.3 z m 84,161.3 -25.8,-17.9 -13.1,-21 c -0.1,-0.1 -0.2,-0.2 -0.3,-0.4 l -18.1,-18.1 v -57.3 h 90.1 z m 53.7,33.5 -45.1,-27.6 -2.1,-1.5 49.6,-7.9 z m -49.7,-32.8 32.7,-114.4 59.7,33.6 -31.7,36.9 c -0.2,0.3 -0.4,0.6 -0.4,0.9 l -7.7,34.7 z m 74.9,56.8 -21.3,-21.3 2.4,-39 17.9,7.8 15.1,50.1 z m 18,-3 -15,-49.8 15.8,-7.3 c 0.3,-0.1 0.5,-0.3 0.7,-0.6 l 5.8,-7.4 v 47.6 c 0,0 0,0 0,0 0,0.1 0,0.2 0.1,0.3 0,0.2 0.1,0.4 0.2,0.6 0,0 0,0.1 0,0.1 0,0.1 0.1,0.1 0.1,0.2 0.1,0.2 0.2,0.3 0.4,0.4 0.1,0.1 0.2,0.1 0.3,0.2 0.1,0.1 0.3,0.2 0.5,0.2 0.1,0 0.1,0.1 0.2,0.1 l 32.1,5.5 -12.3,5.3 z m 42.5,56.9 -16.4,-15.7 5.1,-42.7 13.4,-5.8 -6.5,18.4 c -0.2,0.6 -0.1,1.3 0.2,1.8 l 10.4,15.6 1.2,18.7 z m 11.4,-11.5 -1,-15.6 h 14.4 l 10.2,10.2 z m 138.2,167.9 -28.3,-44.8 90.2,-41.9 z m 66.8,-86.7 10.9,59.8 -72.4,26.4 z m -92.9,36.5 22.1,-36.5 62,-2.5 z m 17.3,-39.7 -71.1,16.6 12.9,-87.4 z m -54.8,-73 54.5,6 1.8,62.5 z m 54.3,77.2 -22.6,37.4 -44.4,-21.8 z m -21.5,44.4 27.7,43.9 -53.3,19.4 z m 28.7,47.8 v 55.3 l -53.4,-35.8 z m 1.1,135.3 19.2,50.2 -63,-19 z m -1.1,-7.2 -52.7,-40.6 52.7,-25.3 z m 4,-60.7 35.2,69.3 -35.2,-6.3 z m 0,-66.6 93.8,60 -93.8,-3.6 z m 2.5,-3.2 74.1,-27.1 21.3,88.1 z m 65.8,-94.7 73.8,-40 -62.9,99.7 z m 27.2,-51.3 46.1,6.9 -70.6,38.3 z m -4.2,-0.7 -25.1,46.3 -22.7,-55 z m -28.2,49 -66.1,2.7 42.9,-59 z m -26.3,-58.9 -42,57.9 -1.8,-62 42.4,3.8 z m -6.6,-4.8 -35,-3.1 15.1,-16.2 z m -44.7,-43.5 22,21.4 -16.3,17.5 -26.7,-38.1 z m 1.2,39.5 -52.7,-5.8 27.7,-30 z m -27.9,-38.5 -28.4,30.8 -13.2,-29.3 z m -69.5,28.6 24.2,-25.5 13.7,30.4 -43.7,26.2 z m 37.9,9.6 -12.5,84.6 -31.3,-58.4 z m -45.8,30.9 31.2,58.3 -47.9,4.8 z m -16.4,67.1 47.7,-4.7 -24,58 z m 51.9,-4.3 45.6,22.3 -69.7,36 z m 20.3,90.4 -44.4,-27.6 70.2,-36.3 z m 3.1,6.8 53.7,36 -52.5,25.2 z m 1.8,68.7 52.6,40.5 -44.2,31.5 z m 57.7,139.5 -51.1,-9.5 1.9,-49 z m -51.2,-5.5 50.7,9.4 -52.2,30.2 z m 54.1,12.1 -3.5,48.3 -49.5,-17.7 z m -11.9,72.9 -37.9,-36.8 45.5,16.2 z m 49,13 -45.5,-10.8 7.6,-20.6 z m -21.2,-68.1 -15,25 3,-41 z m -14.4,-25.5 -49.4,-58.8 62.4,18.8 z m 16.2,-44.8 -19.3,-50.3 36.3,6.5 9.6,19 z m 36.6,-34.1 -6.9,6.4 -7.8,-15.3 19.7,3.5 z m 8.3,-8.8 -25.2,-4.5 -37.6,-74.2 93.9,45.6 z m 32.5,-36.9 -90.4,-43.9 91.5,3.6 z m 4.7,-44.9 -19.8,-82 27.8,41.7 c 0,0.1 0.1,0.1 0.1,0.1 0,0 0,0.1 0.1,0.1 0,0 0.1,0 0.1,0.1 0,0 0.1,0.1 0.1,0.1 l 32.8,24.5 z m -20.7,-90.4 77.1,1.5 -46.5,44.4 z m 64.7,72.2 -31.3,-23.4 45.4,-43.3 z m -64.9,-76.2 65,-102.9 14.9,104.4 z m 83.7,-0.6 -13.8,-96.6 37.9,73.6 z m 24.6,-30.8 -38.3,-74.2 38.3,9.3 z"
   inkscape:connector-curvature="0" />
</svg>