<svg xmlns="http://www.w3.org/2000/svg" width="1202.105" height="1311.241" viewBox="0 0 318.057 346.933"><path d="M310.079 134.233l-50.764-18.177-8.35-16.318a11.286 11.286 0 00-4.116-4.463l-40.523-25.048a11.288 11.288 0 00-7.442-1.584l-46.593 6.255-24.45-8.162-10.891-27.43a11.298 11.298 0 00-9.38-7.072l-22.527-2.24 11.075-11.382 40.993 4.777c.438.05.873.076 1.309.076 3.528 0 6.887-1.655-67.047-14.198C-2.56-3.275-1.33.548 1.401 3.177L24.74 25.631l3.405 13.845c.316 1.287.856 2.51 1.597 3.608l15.38 22.857a11.296 11.296 0 0013.32 4.278l10.63-3.966c.079.23.18.444.272.667.049.113.09.232.14.347.239.52.514 1.023.826 1.497.072.111.152.215.228.324.296.422.62.825.973 1.2.067.074.126.15.193.22.42.424.877.81 1.36 1.167.056.037.092.085.144.122l35.327 25.15 5.317 55.056a11.296 11.296 0 003.45 7.09l23.902 22.778 20.986 21.958 6.528 24.679-2.883 16.21c-.037.205-.043.41-.065.615-.03.232-.063.464-.076.7-.018.349-.012.698 0 1.045.006.197 0 .394.018.596.043.511.124 1.018.239 1.517.006.037.006.071.012.106l.006.025c0 .006.002.012.005.018l9.389 39.632c-2.72 3.322-3.416 8.028-1.43 12.098l14.312 29.352a11.291 11.291 0 006.483 5.733l28.121 9.664c.067.024.139.03.206.055.397.126.804.223 1.216.305.167.037.332.085.498.11a11.2 11.2 0 001.746.144h14.887c5.26 0 9.825-3.63 11.006-8.759a11.289 11.289 0 00-6.06-12.691l-15.535-7.566-2.6-5.664a11.276 11.276 0 00-4.449-4.971l-.97-.583 4.986-26.953c.002-.002.002-.005.002-.006l.006-.043c.013-.056.006-.111.019-.165.065-.388.121-.78.147-1.177.002-.055-.002-.106 0-.158.006-.177 0-.35.002-.529 0-.333-.006-.663-.037-.992-.012-.193-.043-.384-.07-.58a11.281 11.281 0 00-.307-1.486c-.085-.3-.182-.592-.29-.884-.066-.178-.128-.356-.202-.531a12.22 12.22 0 00-.442-.895c-.078-.145-.148-.297-.234-.438-.063-.109-.135-.213-.202-.317l37.257-39.341 19.308-21.09a11.267 11.267 0 002.556-4.617l5.288-19.133 5.804-13.48 18.39-21.08a11.302 11.302 0 002.419-10.273 11.302 11.302 0 00-7.125-7.79z" fill="none" stroke="#000" stroke-miterlimit="10"/></svg>