<?xml version="1.0" encoding="utf-8"?>
<!-- Generator: Adobe Illustrator 17.0.0, SVG Export Plug-In . SVG Version: 6.00 Build 0)  -->
<!DOCTYPE svg PUBLIC "-//W3C//DTD SVG 1.1//EN" "http://www.w3.org/Graphics/SVG/1.1/DTD/svg11.dtd">
<svg version="1.1"
	 id="svg90" xmlns:cc="http://creativecommons.org/ns#" xmlns:inkscape="http://www.inkscape.org/namespaces/inkscape" xmlns:svg="http://www.w3.org/2000/svg" xmlns:dc="http://purl.org/dc/elements/1.1/" xmlns:rdf="http://www.w3.org/1999/02/22-rdf-syntax-ns#" xmlns:sodipodi="http://sodipodi.sourceforge.net/DTD/sodipodi-0.dtd" sodipodi:docname="latinamerica-03.svg" inkscape:version="0.92.3 (2405546, 2018-03-11)"
	 xmlns="http://www.w3.org/2000/svg" xmlns:xlink="http://www.w3.org/1999/xlink" x="0px" y="0px" width="547.026px"
	 height="721.501px" viewBox="79.538 248.299 547.026 721.501" enable-background="new 79.538 248.299 547.026 721.501"
	 xml:space="preserve">
<sodipodi:namedview  showguides="false" guidetolerance="10" objecttolerance="10" gridtolerance="10" fit-margin-left="0" fit-margin-top="0" showgrid="false" inkscape:cy="716.68996" inkscape:cx="484.54906" inkscape:zoom="0.85793532" pagecolor="#ffffff" id="namedview92" borderopacity="1" bordercolor="#666666" inkscape:window-maximized="1" inkscape:window-y="0" inkscape:window-x="0" inkscape:window-height="1052" inkscape:window-width="1920" inkscape:current-layer="svg90" inkscape:pageopacity="0" fit-margin-right="0" fit-margin-bottom="0" inkscape:pageshadow="2">
	</sodipodi:namedview>
<g id="Background" transform="translate(-115.98798,-16.628801)">
</g>
<path id="path9" inkscape:connector-curvature="0" fill="none" stroke="#000000" stroke-miterlimit="10" d="M80.038,249v59.5
	c0,0.5,0.2,1,0.6,1.4l18.5,18.5l13.2,21.2c0.1,0.2,0.3,0.4,0.6,0.6l28.5,19.7l0,0l6.3,4.4l47.9,29.3l22.5,22.5
	c0.5,0.5,1.1,0.7,1.7,0.6l44.4-7.4l-3.8,8.5l-13,20c-0.5,0.8-0.4,1.9,0.3,2.6l32,30.7c0.4,0.4,1,0.6,1.5,0.6c0.6,0,1.1-0.3,1.4-0.8
	l8.9-11.5l25.7-5.8l-6.1,32.9l-18.7,70.8c-0.1,0.2-0.1,0.5-0.1,0.7l0,0c0,0.1,0,0.1,0,0.2c0,0.2,0.1,0.3,0.1,0.5l26.7,60.1
	c0,0,0,0.1,0.1,0.1c0,0.1,0.1,0.2,0.2,0.2c0.1,0.1,0.1,0.2,0.2,0.3c0,0,0,0.1,0.1,0.1c0,0,0.1,0.1,0.2,0.1s0.1,0.1,0.1,0.1
	l48.5,30.1l10.6,147.2l-4,101.3v0.1c0,0.1,0,0.1,0,0.2c0,0.2,0.1,0.4,0.1,0.6l0,0c0.1,0.2,0.2,0.4,0.4,0.6c0,0,0,0.1,0.1,0.1
	l46.7,45.4l0,0c0,0,0,0,0.1,0c0.2,0.1,0.3,0.3,0.5,0.3c0,0,0.1,0,0.1,0.1h0.1c0,0,0.1,0,0.1,0.1l56.1,13.4c0.2,0,0.3,0.1,0.5,0.1
	c0.7,0,1.4-0.4,1.8-1.1c0.4-0.8,0.2-1.8-0.5-2.4l-45.4-37.6l19.1-31.9c0.4-0.7,0.4-1.6-0.1-2.2l-15.4-20.5l14.2-43.9l38.4-35.8
	l41.4-44.1l0,0c0.1-0.1,0.2-0.3,0.3-0.5c0,0,0,0,0-0.1c0.1-0.2,0.1-0.3,0.1-0.5c0-0.1,0-0.1,0-0.2l0,0l1.3-44l45.5-16.9
	c0,0,0.1,0,0.1-0.1c0,0,0.1,0,0.1-0.1c0.2-0.1,0.5-0.3,0.6-0.5l0,0v-0.1c0.1-0.2,0.2-0.4,0.3-0.6v-0.1l0,0l15.9-75.5l27.6-26.3
	c0,0,0-0.1,0.1-0.1c0.1-0.1,0.2-0.2,0.2-0.4c0.1-0.1,0.1-0.2,0.2-0.3c0.1-0.1,0.1-0.3,0.1-0.4c0-0.1,0.1-0.2,0.1-0.3V508
	c0.4-1.2-0.2-2-1.1-2.3h0l-44.1-10.7l0,0l0,0h-0.1l-53.3-8l-58.1-10.6l-49-47.6c-0.4-0.4-0.9-0.6-1.5-0.6l-72.1,2.7l0,0l0,0
	c-0.5,0-1,0.2-1.4,0.6l0,0l0,0l-25.3,26.5l-11.9-11.9c-0.4-0.4-0.9-0.6-1.4-0.6h-16.4l-9.5-14.3l7.7-21.7c0.2-0.4,0.2-0.9,0-1.3l0,0
	c0-0.1-0.1-0.2-0.1-0.2l0,0c-0.2-0.4-0.5-0.7-0.9-0.9l0,0l0,0l0,0c-0.1,0-0.1-0.1-0.2-0.1l0,0l0,0l0,0c-0.1,0-0.2-0.1-0.3-0.1
	l-36.2-6.2l20.4-47.1c0.2-0.6,0.2-1.2-0.1-1.7c-0.3-0.5-0.8-0.9-1.4-1l-21.4-4c-0.1,0-0.2,0-0.3,0h-0.1c0,0,0,0-0.1,0
	c-0.2,0-0.5,0.1-0.7,0.1c0,0-0.1,0-0.1,0.1c-0.2,0.1-0.3,0.2-0.5,0.3l-0.1,0.1l-0.1,0.1l-9,11.6l-16.1,7.4l-19-8.3l7.5-34l32.8-38
	l20.6-9l28.2-2.5v48.6c0,0.8,0.5,1.5,1.2,1.8s1.6,0.2,2.2-0.4l24.7-22.7c0.4-0.4,0.6-0.9,0.6-1.5v-29.8l20-22L80.038,249z"/>
</svg>
