<?xml version="1.0" encoding="UTF-8" standalone="no"?>
<!-- Generator: Adobe Illustrator 18.0.0, SVG Export Plug-In . SVG Version: 6.00 Build 0)  -->

<svg
   xmlns:dc="http://purl.org/dc/elements/1.1/"
   xmlns:cc="http://creativecommons.org/ns#"
   xmlns:rdf="http://www.w3.org/1999/02/22-rdf-syntax-ns#"
   xmlns:svg="http://www.w3.org/2000/svg"
   xmlns="http://www.w3.org/2000/svg"
   xmlns:sodipodi="http://sodipodi.sourceforge.net/DTD/sodipodi-0.dtd"
   xmlns:inkscape="http://www.inkscape.org/namespaces/inkscape"
   version="1.1"
   x="0px"
   y="0px"
   viewBox="0 0 698.19928 1207.7989"
   enable-background="new 0 0 2255 1400"
   xml:space="preserve"
   id="svg90"
   sodipodi:docname="latinamerica-06.svg"
   width="698.19928"
   height="1207.7988"
   inkscape:version="0.92.3 (2405546, 2018-03-11)"><metadata
   id="metadata96"><rdf:RDF><cc:Work
       rdf:about=""><dc:format>image/svg+xml</dc:format><dc:type
         rdf:resource="http://purl.org/dc/dcmitype/StillImage" /><dc:title></dc:title></cc:Work></rdf:RDF></metadata><defs
   id="defs94">
	
	

		
		
		
		
		
		
		
		
		
		
		
		
		
		
		
		
		
		
		
		
	</defs><sodipodi:namedview
   pagecolor="#ffffff"
   bordercolor="#666666"
   borderopacity="1"
   objecttolerance="10"
   gridtolerance="10"
   guidetolerance="10"
   inkscape:pageopacity="0"
   inkscape:pageshadow="2"
   inkscape:window-width="1920"
   inkscape:window-height="1052"
   id="namedview92"
   showgrid="false"
   showguides="true"
   fit-margin-top="0"
   fit-margin-left="0"
   fit-margin-right="0"
   fit-margin-bottom="0"
   inkscape:zoom="0.85793532"
   inkscape:cx="73.217014"
   inkscape:cy="822.34215"
   inkscape:window-x="0"
   inkscape:window-y="0"
   inkscape:window-maximized="1"
   inkscape:current-layer="svg90" />
<path
   style="opacity:1;fill:none;fill-opacity:1;fill-rule:nonzero;stroke:#ffffff;stroke-width:1;stroke-miterlimit:4;stroke-dasharray:none;stroke-dashoffset:0;stroke-opacity:1"
   d="m 510.19922,1176.3984 -7.59961,20.6016 45.5,10.7988 z"
   id="path2837"
   inkscape:connector-curvature="0" /><path
   style="opacity:1;fill:none;fill-opacity:1;fill-rule:nonzero;stroke:#ffffff;stroke-width:1;stroke-miterlimit:4;stroke-dasharray:none;stroke-dashoffset:0;stroke-opacity:1"
   d="m 461.19922,1158 37.90039,36.7988 7.59961,-20.5996 z"
   id="path2835"
   inkscape:connector-curvature="0" /><path
   style="opacity:1;fill:none;fill-opacity:1;fill-rule:nonzero;stroke:#ffffff;stroke-width:1;stroke-miterlimit:4;stroke-dasharray:none;stroke-dashoffset:0;stroke-opacity:1"
   d="m 514.90039,1123.6992 -3,41 15,-25 z"
   id="path2833"
   inkscape:connector-curvature="0" /><path
   style="opacity:1;fill:none;fill-opacity:1;fill-rule:nonzero;stroke:#ffffff;stroke-width:1;stroke-miterlimit:4;stroke-dasharray:none;stroke-dashoffset:0;stroke-opacity:1"
   d="m 511,1121.8984 -53,30.6016 49.5,17.6992 z"
   id="path2831"
   inkscape:connector-curvature="0" /><path
   style="opacity:1;fill:none;fill-opacity:1;fill-rule:nonzero;stroke:#ffffff;stroke-width:1;stroke-miterlimit:4;stroke-dasharray:none;stroke-dashoffset:0;stroke-opacity:1"
   d="m 456.90039,1109.7988 -1.5,39.5996 52.19922,-30.1992 z"
   id="path2829"
   inkscape:connector-curvature="0" /><path
   style="opacity:1;fill:none;fill-opacity:1;fill-rule:nonzero;stroke:#ffffff;stroke-width:1;stroke-miterlimit:4;stroke-dasharray:none;stroke-dashoffset:0;stroke-opacity:1"
   d="m 458.90039,1056.7988 -1.90039,49 51.09961,9.5 z"
   id="path2827"
   inkscape:connector-curvature="0" /><path
   style="opacity:1;fill:none;fill-opacity:1;fill-rule:nonzero;stroke:#ffffff;stroke-width:1;stroke-miterlimit:4;stroke-dasharray:none;stroke-dashoffset:0;stroke-opacity:1"
   d="m 463.09961,1055.3984 49.40039,58.8008 13,-40 z"
   id="path2825"
   inkscape:connector-curvature="0" /><path
   style="opacity:1;fill:none;fill-opacity:1;fill-rule:nonzero;stroke:#ffffff;stroke-width:1;stroke-miterlimit:4;stroke-dasharray:none;stroke-dashoffset:0;stroke-opacity:1"
   d="m 550.59961,1026.3984 7.80078,15.3008 6.89844,-6.4004 5,-5.4004 z"
   id="path2823"
   inkscape:connector-curvature="0" /><path
   style="opacity:1;fill:none;fill-opacity:1;fill-rule:nonzero;stroke:#ffffff;stroke-width:1;stroke-miterlimit:4;stroke-dasharray:none;stroke-dashoffset:0;stroke-opacity:1"
   d="m 505.40039,1019.5996 -43.80078,31.1992 63,19 z"
   id="path2821"
   inkscape:connector-curvature="0" /><path
   style="opacity:1;fill:none;fill-opacity:1;fill-rule:nonzero;stroke:#ffffff;stroke-width:1;stroke-miterlimit:4;stroke-dasharray:none;stroke-dashoffset:0;stroke-opacity:1"
   d="m 509.40039,1019.0996 19.29883,50.2988 26.59961,-24.7988 -9.59961,-19 z"
   id="path2819"
   inkscape:connector-curvature="0" /><path
   style="opacity:1;fill:none;fill-opacity:1;fill-rule:nonzero;stroke:#ffffff;stroke-width:1;stroke-miterlimit:4;stroke-dasharray:none;stroke-dashoffset:0;stroke-opacity:1"
   d="m 450.40039,975.79883 8.39844,71.99997 44.20117,-31.5 z"
   id="path2817"
   inkscape:connector-curvature="0" /><path
   style="opacity:1;fill:none;fill-opacity:1;fill-rule:nonzero;stroke:#ffffff;stroke-width:1;stroke-miterlimit:4;stroke-dasharray:none;stroke-dashoffset:0;stroke-opacity:1"
   d="m 508.29883,951.69922 v 62.99998 L 543.5,1021 Z"
   id="path2815"
   inkscape:connector-curvature="0" /><path
   style="opacity:1;fill:none;fill-opacity:1;fill-rule:nonzero;stroke:#ffffff;stroke-width:1;stroke-miterlimit:4;stroke-dasharray:none;stroke-dashoffset:0;stroke-opacity:1"
   d="M 510.79883,947.79883 548.40039,1022 l 25.19922,4.5 31.09961,-33.10156 z"
   id="path2813"
   inkscape:connector-curvature="0" /><path
   style="opacity:1;fill:none;fill-opacity:1;fill-rule:nonzero;stroke:#ffffff;stroke-width:1;stroke-miterlimit:4;stroke-dasharray:none;stroke-dashoffset:0;stroke-opacity:1"
   d="m 504.29883,946.5 -52.69922,25.29883 52.69922,40.59957 z"
   id="path2811"
   inkscape:connector-curvature="0" /><path
   style="opacity:1;fill:none;fill-opacity:1;fill-rule:nonzero;stroke:#ffffff;stroke-width:1;stroke-miterlimit:4;stroke-dasharray:none;stroke-dashoffset:0;stroke-opacity:1"
   d="m 515.69922,945.69922 90.40039,43.90039 1.09961,-40.30078 z"
   id="path2809"
   inkscape:connector-curvature="0" /><path
   style="opacity:1;fill:none;fill-opacity:1;fill-rule:nonzero;stroke:#ffffff;stroke-width:1;stroke-miterlimit:4;stroke-dasharray:none;stroke-dashoffset:0;stroke-opacity:1"
   d="m 448.59961,907.09961 1.19922,61.19922 52.5,-25.19922 z"
   id="path2807"
   inkscape:connector-curvature="0" /><path
   style="opacity:1;fill:none;fill-opacity:1;fill-rule:nonzero;stroke:#ffffff;stroke-width:1;stroke-miterlimit:4;stroke-dasharray:none;stroke-dashoffset:0;stroke-opacity:1"
   d="M 508.29883,885.09961 V 941.5 l 93.80078,3.59961 z"
   id="path2805"
   inkscape:connector-curvature="0" /><path
   style="opacity:1;fill:none;fill-opacity:1;fill-rule:nonzero;stroke:#ffffff;stroke-width:1;stroke-miterlimit:4;stroke-dasharray:none;stroke-dashoffset:0;stroke-opacity:1"
   d="m 504.29883,884.29883 -53.39844,19.5 53.39844,35.80078 z"
   id="path2803"
   inkscape:connector-curvature="0" /><path
   style="opacity:1;fill:none;fill-opacity:1;fill-rule:nonzero;stroke:#ffffff;stroke-width:1;stroke-miterlimit:4;stroke-dasharray:none;stroke-dashoffset:0;stroke-opacity:1"
   d="m 591,862.69922 19.79883,82 L 652,929.29883 l -32.80078,-24.5 -0.0996,-0.0996 c 0,-0.1 -0.0996,-0.0996 -0.0996,-0.0996 -0.1,0 -0.0996,-0.0996 -0.0996,-0.0996 0,0 -0.10156,-0.002 -0.10156,-0.10156 z"
   id="path2801"
   inkscape:connector-curvature="0" /><path
   style="opacity:1;fill:none;fill-opacity:1;fill-rule:nonzero;stroke:#ffffff;stroke-width:1;stroke-miterlimit:4;stroke-dasharray:none;stroke-dashoffset:0;stroke-opacity:1"
   d="M 668.90039,859.79883 623.5,903.09961 654.79883,926.5 Z"
   id="path2799"
   inkscape:connector-curvature="0" /><path
   style="opacity:1;fill:none;fill-opacity:1;fill-rule:nonzero;stroke:#ffffff;stroke-width:1;stroke-miterlimit:4;stroke-dasharray:none;stroke-dashoffset:0;stroke-opacity:1"
   d="m 584.90039,854.79883 -74.10156,27.09961 95.40039,61 z"
   id="path2797"
   inkscape:connector-curvature="0" /><path
   style="opacity:1;fill:none;fill-opacity:1;fill-rule:nonzero;stroke:#ffffff;stroke-width:1;stroke-miterlimit:4;stroke-dasharray:none;stroke-dashoffset:0;stroke-opacity:1"
   d="m 590.09961,854.29883 30.59961,45.90039 46.5,-44.40039 z"
   id="path2795"
   inkscape:connector-curvature="0" /><path
   style="opacity:1;fill:none;fill-opacity:1;fill-rule:nonzero;stroke:#ffffff;stroke-width:1;stroke-miterlimit:4;stroke-dasharray:none;stroke-dashoffset:0;stroke-opacity:1"
   d="M 475.59961,836.5 450,899.79883 503.29883,880.39844 Z"
   id="path2793"
   inkscape:connector-curvature="0" /><path
   style="opacity:1;fill:none;fill-opacity:1;fill-rule:nonzero;stroke:#ffffff;stroke-width:1;stroke-miterlimit:4;stroke-dasharray:none;stroke-dashoffset:0;stroke-opacity:1"
   d="M 471.29883,836.39844 401.09961,872.69922 445.5,900.29883 Z"
   id="path2791"
   inkscape:connector-curvature="0" /><path
   style="opacity:1;fill:none;fill-opacity:1;fill-rule:nonzero;stroke:#ffffff;stroke-width:1;stroke-miterlimit:4;stroke-dasharray:none;stroke-dashoffset:0;stroke-opacity:1"
   d="m 425.19922,809.89844 -24.09961,58.30078 69.69922,-36 z"
   id="path2789"
   inkscape:connector-curvature="0" /><path
   style="opacity:1;fill:none;fill-opacity:1;fill-rule:nonzero;stroke:#ffffff;stroke-width:1;stroke-miterlimit:4;stroke-dasharray:none;stroke-dashoffset:0;stroke-opacity:1"
   d="M 421,809.5 373.29883,814.19922 397,867.5 Z"
   id="path2787"
   inkscape:connector-curvature="0" /><path
   style="opacity:1;fill:none;fill-opacity:1;fill-rule:nonzero;stroke:#ffffff;stroke-width:1;stroke-miterlimit:4;stroke-dasharray:none;stroke-dashoffset:0;stroke-opacity:1"
   d="m 497.09961,792.09961 -67,15.59961 L 474.5,829.5 Z"
   id="path2785"
   inkscape:connector-curvature="0" /><path
   style="opacity:1;fill:none;fill-opacity:1;fill-rule:nonzero;stroke:#ffffff;stroke-width:1;stroke-miterlimit:4;stroke-dasharray:none;stroke-dashoffset:0;stroke-opacity:1"
   d="m 573.19922,791.09961 -61.5,86.19922 72.40039,-26.40039 z"
   id="path2783"
   inkscape:connector-curvature="0" /><path
   style="opacity:1;fill:none;fill-opacity:1;fill-rule:nonzero;stroke:#ffffff;stroke-width:1;stroke-miterlimit:4;stroke-dasharray:none;stroke-dashoffset:0;stroke-opacity:1"
   d="M 568.29883,791.09961 478.09961,833 l 28.30078,44.79883 z"
   id="path2781"
   inkscape:connector-curvature="0" /><path
   style="opacity:1;fill:none;fill-opacity:1;fill-rule:nonzero;stroke:#ffffff;stroke-width:1;stroke-miterlimit:4;stroke-dasharray:none;stroke-dashoffset:0;stroke-opacity:1"
   d="m 564.40039,788.59961 -62,2.5 -22.10156,36.5 z"
   id="path2779"
   inkscape:connector-curvature="0" /><path
   style="opacity:1;fill:none;fill-opacity:1;fill-rule:nonzero;stroke:#ffffff;stroke-width:1;stroke-miterlimit:4;stroke-dasharray:none;stroke-dashoffset:0;stroke-opacity:1"
   d="m 659.79883,753.09961 13.80078,96.59961 24.09964,-23 z"
   id="path2777"
   inkscape:connector-curvature="0" /><path
   style="opacity:1;fill:none;fill-opacity:1;fill-rule:nonzero;stroke:#ffffff;stroke-width:1;stroke-miterlimit:4;stroke-dasharray:none;stroke-dashoffset:0;stroke-opacity:1"
   d="m 654.90039,747.39844 -65,102.90039 79.89844,1.5 z"
   id="path2775"
   inkscape:connector-curvature="0" /><path
   style="opacity:1;fill:none;fill-opacity:1;fill-rule:nonzero;stroke:#ffffff;stroke-width:1;stroke-miterlimit:4;stroke-dasharray:none;stroke-dashoffset:0;stroke-opacity:1"
   d="m 650.40039,747.19922 -73.80078,40 10.90039,59.69922 z"
   id="path2773"
   inkscape:connector-curvature="0" /><path
   style="opacity:1;fill:none;fill-opacity:1;fill-rule:nonzero;stroke:#ffffff;stroke-width:1;stroke-miterlimit:4;stroke-dasharray:none;stroke-dashoffset:0;stroke-opacity:1"
   d="M 389.69922,747.09961 373,810.19922 l 47.90039,-4.80078 z"
   id="path2771"
   inkscape:connector-curvature="0" /><path
   style="opacity:1;fill:none;fill-opacity:1;fill-rule:nonzero;stroke:#ffffff;stroke-width:1;stroke-miterlimit:4;stroke-dasharray:none;stroke-dashoffset:0;stroke-opacity:1"
   d="m 659.90039,744.69922 38.29886,74.19922 V 754 Z"
   id="path2769"
   inkscape:connector-curvature="0" /><path
   style="opacity:1;fill:none;fill-opacity:1;fill-rule:nonzero;stroke:#ffffff;stroke-width:1;stroke-miterlimit:4;stroke-dasharray:none;stroke-dashoffset:0;stroke-opacity:1"
   d="m 603.79883,735.89844 -24.5,45.20117 70.60156,-38.30078 z"
   id="path2767"
   inkscape:connector-curvature="0" /><path
   style="opacity:1;fill:none;fill-opacity:1;fill-rule:nonzero;stroke:#ffffff;stroke-width:1;stroke-miterlimit:4;stroke-dasharray:none;stroke-dashoffset:0;stroke-opacity:1"
   d="m 548.19922,727.89844 -42.90039,59 66.10156,-2.69922 z"
   id="path2765"
   inkscape:connector-curvature="0" /><path
   style="opacity:1;fill:none;fill-opacity:1;fill-rule:nonzero;stroke:#ffffff;stroke-width:1;stroke-miterlimit:4;stroke-dasharray:none;stroke-dashoffset:0;stroke-opacity:1"
   d="m 551.79883,726.5 22.70117,55 25.09961,-46.30078 z"
   id="path2763"
   inkscape:connector-curvature="0" /><path
   style="opacity:1;fill:none;fill-opacity:1;fill-rule:nonzero;stroke:#ffffff;stroke-width:1;stroke-miterlimit:4;stroke-dasharray:none;stroke-dashoffset:0;stroke-opacity:1"
   d="m 501.29883,721.19922 1.80078,62 42,-57.90039 L 543.69922,725 Z"
   id="path2761"
   inkscape:connector-curvature="0" /><path
   style="opacity:1;fill:none;fill-opacity:1;fill-rule:nonzero;stroke:#ffffff;stroke-width:1;stroke-miterlimit:4;stroke-dasharray:none;stroke-dashoffset:0;stroke-opacity:1"
   d="M 439.40039,717.09961 426.5,804.5 497.59961,787.89844 Z"
   id="path2759"
   inkscape:connector-curvature="0" /><path
   style="opacity:1;fill:none;fill-opacity:1;fill-rule:nonzero;stroke:#ffffff;stroke-width:1;stroke-miterlimit:4;stroke-dasharray:none;stroke-dashoffset:0;stroke-opacity:1"
   d="M 435.5,716.19922 391.69922,742.39844 423,800.79883 Z"
   id="path2757"
   inkscape:connector-curvature="0" /><path
   style="opacity:1;fill:none;fill-opacity:1;fill-rule:nonzero;stroke:#ffffff;stroke-width:1;stroke-miterlimit:4;stroke-dasharray:none;stroke-dashoffset:0;stroke-opacity:1"
   d="m 442.79883,714.89844 56.30078,68.5 -1.80078,-62.5 z"
   id="path2755"
   inkscape:connector-curvature="0" /><path
   style="opacity:1;fill:none;fill-opacity:1;fill-rule:nonzero;stroke:#ffffff;stroke-width:1;stroke-miterlimit:4;stroke-dasharray:none;stroke-dashoffset:0;stroke-opacity:1"
   d="M 518.59961,701.19922 503.5,717.39844 538.5,720.5 Z"
   id="path2753"
   inkscape:connector-curvature="0" /><path
   style="opacity:1;fill:none;fill-opacity:1;fill-rule:nonzero;stroke:#ffffff;stroke-width:1;stroke-miterlimit:4;stroke-dasharray:none;stroke-dashoffset:0;stroke-opacity:1"
   d="m 367.19922,694.29883 1,15.59961 23.59961,-5.39844 -10.19922,-10.20117 z"
   id="path2751"
   inkscape:connector-curvature="0" /><path
   style="opacity:1;fill:none;fill-opacity:1;fill-rule:nonzero;stroke:#ffffff;stroke-width:1;stroke-miterlimit:4;stroke-dasharray:none;stroke-dashoffset:0;stroke-opacity:1"
   d="m 421.79883,681.09961 -24.19922,25.5 -5.80078,31.09961 L 435.5,711.5 Z"
   id="path2749"
   inkscape:connector-curvature="0" /><path
   style="opacity:1;fill:none;fill-opacity:1;fill-rule:nonzero;stroke:#ffffff;stroke-width:1;stroke-miterlimit:4;stroke-dasharray:none;stroke-dashoffset:0;stroke-opacity:1"
   d="m 470,680.69922 -27.70117,30 L 495,716.5 Z"
   id="path2747"
   inkscape:connector-curvature="0" /><path
   style="opacity:1;fill:none;fill-opacity:1;fill-rule:nonzero;stroke:#ffffff;stroke-width:1;stroke-miterlimit:4;stroke-dasharray:none;stroke-dashoffset:0;stroke-opacity:1"
   d="M 467.09961,678 425.5,679.5 438.69922,708.79883 Z"
   id="path2745"
   inkscape:connector-curvature="0" /><path
   style="opacity:1;fill:none;fill-opacity:1;fill-rule:nonzero;stroke:#ffffff;stroke-width:1;stroke-miterlimit:4;stroke-dasharray:none;stroke-dashoffset:0;stroke-opacity:1"
   d="m 493.79883,677 -21,0.79883 26.70117,38.09961 16.29883,-17.5 z"
   id="path2743"
   inkscape:connector-curvature="0" /><path
   style="opacity:1;fill:none;fill-opacity:1;fill-rule:nonzero;stroke:#ffffff;stroke-width:1;stroke-miterlimit:4;stroke-dasharray:none;stroke-dashoffset:0;stroke-opacity:1"
   d="m 340.09961,674.5 c 0,0.1 -0.0996,0.0992 -0.0996,0.19922 l -12.40039,18.59961 9.19922,8.90039 z"
   id="path2741"
   inkscape:connector-curvature="0" /><path
   style="opacity:1;fill:none;fill-opacity:1;fill-rule:nonzero;stroke:#ffffff;stroke-width:1;stroke-miterlimit:4;stroke-dasharray:none;stroke-dashoffset:0;stroke-opacity:1"
   d="M 358.90039,657.19922 345.5,663 l -5.09961,42.69922 16.39844,15.69922 7.40039,-9.69922 L 363,693 352.59961,677.39844 c -0.3,-0.5 -0.39922,-1.19883 -0.19922,-1.79883 z"
   id="path2739"
   inkscape:connector-curvature="0" /><path
   style="opacity:1;fill:none;fill-opacity:1;fill-rule:nonzero;stroke:#ffffff;stroke-width:1;stroke-miterlimit:4;stroke-dasharray:none;stroke-dashoffset:0;stroke-opacity:1"
   d="m 358.90039,657.19922 -6.5,18.40039 c -0.2,0.6 -0.10078,1.29883 0.19922,1.79883 L 363,693 l 1.19922,18.69922 -7.40039,9.69922 L 340.40039,705.69922 345.5,663 Z"
   id="path2737"
   inkscape:connector-curvature="0" /><path
   style="opacity:1;fill:none;fill-opacity:1;fill-rule:nonzero;stroke:#ffffff;stroke-width:1;stroke-miterlimit:4;stroke-dasharray:none;stroke-dashoffset:0;stroke-opacity:1"
   d="M 277.40039,607.19922 275,646.19922 296.29883,667.5 310.40039,665.09961 295.29883,615 Z"
   id="path2735"
   inkscape:connector-curvature="0" /><path
   style="opacity:1;fill:none;fill-opacity:1;fill-rule:nonzero;stroke:#ffffff;stroke-width:1;stroke-miterlimit:4;stroke-dasharray:none;stroke-dashoffset:0;stroke-opacity:1"
   d="M 277.40039,607.19922 295.29883,615 310.40039,665.09961 296.29883,667.5 275,646.19922 Z"
   id="path2733"
   inkscape:connector-curvature="0" /><path
   style="opacity:1;fill:none;fill-opacity:1;fill-rule:nonzero;stroke:#ffffff;stroke-width:1;stroke-miterlimit:4;stroke-dasharray:none;stroke-dashoffset:0;stroke-opacity:1"
   d="m 273.5,606.5 -49.59961,7.89844 2.09961,1.5 45.09961,27.60156 z"
   id="path2731"
   inkscape:connector-curvature="0" /><path
   style="opacity:1;fill:none;fill-opacity:1;fill-rule:nonzero;stroke:#ffffff;stroke-width:1;stroke-miterlimit:4;stroke-dasharray:none;stroke-dashoffset:0;stroke-opacity:1"
   d="m 273.5,606.5 -2.40039,37 L 226,615.89844 l -2.09961,-1.5 z"
   id="path2729"
   inkscape:connector-curvature="0" /><path
   style="opacity:1;fill:none;fill-opacity:1;fill-rule:nonzero;stroke:#ffffff;stroke-width:1;stroke-miterlimit:4;stroke-dasharray:none;stroke-dashoffset:0;stroke-opacity:1"
   d="m 321.59961,599.39844 -5.80078,7.40039 c -0.2,0.3 -0.39922,0.49961 -0.69922,0.59961 l -15.80078,7.30078 15,49.80078 28.90039,-4.60156 12.30078,-5.29883 -32.09961,-5.5 c -0.1,0 -0.10117,-0.0996 -0.20117,-0.0996 -0.2,0 -0.4,-0.10117 -0.5,-0.20117 -0.1,-0.1 -0.19883,-0.0992 -0.29883,-0.19922 -0.2,-0.1 -0.30039,-0.20039 -0.40039,-0.40039 0,-0.1 -0.0996,-0.0992 -0.0996,-0.19922 v -0.10156 c -0.1,-0.2 -0.20117,-0.39961 -0.20117,-0.59961 -0.1,-0.1 -0.0996,-0.19883 -0.0996,-0.29883 z"
   id="path2727"
   inkscape:connector-curvature="0" /><path
   style="opacity:1;fill:none;fill-opacity:1;fill-rule:nonzero;stroke:#ffffff;stroke-width:1;stroke-miterlimit:4;stroke-dasharray:none;stroke-dashoffset:0;stroke-opacity:1"
   d="m 325.59961,595.89844 v 41.30078 L 342.09961,599 Z"
   id="path2725"
   inkscape:connector-curvature="0" /><path
   style="opacity:1;fill:none;fill-opacity:1;fill-rule:nonzero;stroke:#ffffff;stroke-width:1;stroke-miterlimit:4;stroke-dasharray:none;stroke-dashoffset:0;stroke-opacity:1"
   d="M 254.09961,496.29883 221.40039,610.69922 274,602.39844 l 7.69922,-34.69922 c 0,-0.3 0.20039,-0.60039 0.40039,-0.90039 l 31.69922,-36.90039 z"
   id="path2723"
   inkscape:connector-curvature="0" /><path
   style="opacity:1;fill:none;fill-opacity:1;fill-rule:nonzero;stroke:#ffffff;stroke-width:1;stroke-miterlimit:4;stroke-dasharray:none;stroke-dashoffset:0;stroke-opacity:1"
   d="m 160.09961,495.29883 v 57.30078 l 18.09961,18.09961 c 0.1,0.2 0.20078,0.30039 0.30078,0.40039 l 13.09961,21 L 217.40039,610 250.19922,495.29883 Z"
   id="path2721"
   inkscape:connector-curvature="0" /><path
   style="opacity:1;fill:none;fill-opacity:1;fill-rule:nonzero;stroke:#ffffff;stroke-width:1;stroke-miterlimit:4;stroke-dasharray:none;stroke-dashoffset:0;stroke-opacity:1"
   d="m 243.19922,427.5 -79.5,63.89844 h 86.90039 z"
   id="path2719"
   inkscape:connector-curvature="0" /><path
   style="opacity:1;fill:none;fill-opacity:1;fill-rule:nonzero;stroke:#ffffff;stroke-width:1;stroke-miterlimit:4;stroke-dasharray:none;stroke-dashoffset:0;stroke-opacity:1"
   d="m 414.90039,408.5 -72.5,109.09961 L 369,515.29883 c 0.5,-0.1 1.1,0.1 1.5,0.5 0.4,0.4 0.59961,0.9 0.59961,1.5 V 563.5 l 20.69922,-19 v -29.80078 c 0,-0.4 0.2,-0.90078 0.5,-1.30078 L 412.5,491.19922 Z"
   id="path2717"
   inkscape:connector-curvature="0" /><path
   style="opacity:1;fill:none;fill-opacity:1;fill-rule:nonzero;stroke:#ffffff;stroke-width:1;stroke-miterlimit:4;stroke-dasharray:none;stroke-dashoffset:0;stroke-opacity:1"
   d="M 410.90039,407.39844 257,493.39844 317.09961,527.19922 337,518.5 Z"
   id="path2715"
   inkscape:connector-curvature="0" /><path
   style="opacity:1;fill:none;fill-opacity:1;fill-rule:nonzero;stroke:#ffffff;stroke-width:1;stroke-miterlimit:4;stroke-dasharray:none;stroke-dashoffset:0;stroke-opacity:1"
   d="m 419,406.89844 -2.40039,79.90039 36.59961,-38.90039 z"
   id="path2713"
   inkscape:connector-curvature="0" /><path
   style="opacity:1;fill:none;fill-opacity:1;fill-rule:nonzero;stroke:#ffffff;stroke-width:1;stroke-miterlimit:4;stroke-dasharray:none;stroke-dashoffset:0;stroke-opacity:1"
   d="m 148.90039,382.59961 -15.5,20.59961 v 45.5 l 25.19922,41.69922 82.5,-66.29883 z"
   id="path2711"
   inkscape:connector-curvature="0" /><path
   style="opacity:1;fill:none;fill-opacity:1;fill-rule:nonzero;stroke:#ffffff;stroke-width:1;stroke-miterlimit:4;stroke-dasharray:none;stroke-dashoffset:0;stroke-opacity:1"
   d="m 295.59961,347.19922 -48.69922,76.90039 6.79883,59.59961 z"
   id="path2709"
   inkscape:connector-curvature="0" /><path
   style="opacity:1;fill:none;fill-opacity:1;fill-rule:nonzero;stroke:#ffffff;stroke-width:1;stroke-miterlimit:4;stroke-dasharray:none;stroke-dashoffset:0;stroke-opacity:1"
   d="m 295.59961,347.19922 -41.90039,136.5 -6.79883,-59.59961 z"
   id="path2707"
   inkscape:connector-curvature="0" /><path
   style="opacity:1;fill:none;fill-opacity:1;fill-rule:nonzero;stroke:#ffffff;stroke-width:1;stroke-miterlimit:4;stroke-dasharray:none;stroke-dashoffset:0;stroke-opacity:1"
   d="M 474.5,337.19922 419.69922,401.5 l 36.70117,44 30,-12.5 13.89844,-29.30078 z"
   id="path2705"
   inkscape:connector-curvature="0" /><path
   style="opacity:1;fill:none;fill-opacity:1;fill-rule:nonzero;stroke:#ffffff;stroke-width:1;stroke-miterlimit:4;stroke-dasharray:none;stroke-dashoffset:0;stroke-opacity:1"
   d="m 474.5,337.19922 25.79883,66.5 L 486.40039,433 l -30,12.5 -36.70117,-44 z"
   id="path2703"
   inkscape:connector-curvature="0" /><path
   style="opacity:1;fill:none;fill-opacity:1;fill-rule:nonzero;stroke:#ffffff;stroke-width:1;stroke-miterlimit:4;stroke-dasharray:none;stroke-dashoffset:0;stroke-opacity:1"
   d="M 303.09961,336.5 256.29883,489.19922 413.09961,401.5 Z"
   id="path2701"
   inkscape:connector-curvature="0" /><path
   style="opacity:1;fill:none;fill-opacity:1;fill-rule:nonzero;stroke:#ffffff;stroke-width:1;stroke-miterlimit:4;stroke-dasharray:none;stroke-dashoffset:0;stroke-opacity:1"
   d="m 303.09961,336.5 110,65 -156.80078,87.69922 z"
   id="path2699"
   inkscape:connector-curvature="0" /><path
   style="opacity:1;fill:none;fill-opacity:1;fill-rule:nonzero;stroke:#ffffff;stroke-width:1;stroke-miterlimit:4;stroke-dasharray:none;stroke-dashoffset:0;stroke-opacity:1"
   d="m 478.40039,336.19922 25.5,65.69922 h 30 v -53.79883 z"
   id="path2697"
   inkscape:connector-curvature="0" /><path
   style="opacity:1;fill:none;fill-opacity:1;fill-rule:nonzero;stroke:#ffffff;stroke-width:1;stroke-miterlimit:4;stroke-dasharray:none;stroke-dashoffset:0;stroke-opacity:1"
   d="m 478.40039,336.19922 55.5,11.90039 v 53.79883 h -30 z"
   id="path2695"
   inkscape:connector-curvature="0" /><path
   style="opacity:1;fill:none;fill-opacity:1;fill-rule:nonzero;stroke:#ffffff;stroke-width:1;stroke-miterlimit:4;stroke-dasharray:none;stroke-dashoffset:0;stroke-opacity:1"
   d="M 309.29883,335.5 416.69922,399 470.90039,335.5 Z"
   id="path2693"
   inkscape:connector-curvature="0" /><path
   style="opacity:1;fill:none;fill-opacity:1;fill-rule:nonzero;stroke:#ffffff;stroke-width:1;stroke-miterlimit:4;stroke-dasharray:none;stroke-dashoffset:0;stroke-opacity:1"
   d="M 309.29883,335.5 H 470.90039 L 416.69922,399 Z"
   id="path2691"
   inkscape:connector-curvature="0" /><path
   style="opacity:1;fill:none;fill-opacity:1;fill-rule:nonzero;stroke:#ffffff;stroke-width:1;stroke-miterlimit:4;stroke-dasharray:none;stroke-dashoffset:0;stroke-opacity:1"
   d="M 192.40039,322.29883 153,377 151.19922,379.39844 240.5,419.5 Z"
   id="path2689"
   inkscape:connector-curvature="0" /><path
   style="opacity:1;fill:none;fill-opacity:1;fill-rule:nonzero;stroke:#ffffff;stroke-width:1;stroke-miterlimit:4;stroke-dasharray:none;stroke-dashoffset:0;stroke-opacity:1"
   d="M 192.40039,322.29883 240.5,419.5 151.19922,379.39844 153,377 Z"
   id="path2687"
   inkscape:connector-curvature="0" /><path
   style="opacity:1;fill:none;fill-opacity:1;fill-rule:nonzero;stroke:#ffffff;stroke-width:1;stroke-miterlimit:4;stroke-dasharray:none;stroke-dashoffset:0;stroke-opacity:1"
   d="m 196.29883,320.89844 48.80078,98.60156 53.5,-84.5 z"
   id="path2685"
   inkscape:connector-curvature="0" /><path
   style="opacity:1;fill:none;fill-opacity:1;fill-rule:nonzero;stroke:#ffffff;stroke-width:1;stroke-miterlimit:4;stroke-dasharray:none;stroke-dashoffset:0;stroke-opacity:1"
   d="M 196.29883,320.89844 298.59961,335 l -53.5,84.5 z"
   id="path2683"
   inkscape:connector-curvature="0" /><path
   style="opacity:1;fill:none;fill-opacity:1;fill-rule:nonzero;stroke:#ffffff;stroke-width:1;stroke-miterlimit:4;stroke-dasharray:none;stroke-dashoffset:0;stroke-opacity:1"
   d="m 288.40039,246.09961 -90.70117,71 101.90039,14 z"
   id="path2681"
   inkscape:connector-curvature="0" /><path
   style="opacity:1;fill:none;fill-opacity:1;fill-rule:nonzero;stroke:#ffffff;stroke-width:1;stroke-miterlimit:4;stroke-dasharray:none;stroke-dashoffset:0;stroke-opacity:1"
   d="m 288.40039,246.09961 11.19922,85 -101.90039,-14 z"
   id="path2679"
   inkscape:connector-curvature="0" /><path
   style="opacity:1;fill:none;fill-opacity:1;fill-rule:nonzero;stroke:#ffffff;stroke-width:1;stroke-miterlimit:4;stroke-dasharray:none;stroke-dashoffset:0;stroke-opacity:1"
   d="M 393.69922,245.29883 306.79883,331.5 h 163.90039 z"
   id="path2677"
   inkscape:connector-curvature="0" /><path
   style="opacity:1;fill:none;fill-opacity:1;fill-rule:nonzero;stroke:#ffffff;stroke-width:1;stroke-miterlimit:4;stroke-dasharray:none;stroke-dashoffset:0;stroke-opacity:1"
   d="m 393.69922,245.29883 77,86.20117 H 306.79883 Z"
   id="path2675"
   inkscape:connector-curvature="0" /><path
   style="opacity:1;fill:none;fill-opacity:1;fill-rule:nonzero;stroke:#ffffff;stroke-width:1;stroke-miterlimit:4;stroke-dasharray:none;stroke-dashoffset:0;stroke-opacity:1"
   d="m 292.19922,244.29883 11.20117,84.90039 85.5,-84.90039 z"
   id="path2673"
   inkscape:connector-curvature="0" /><path
   style="opacity:1;fill:none;fill-opacity:1;fill-rule:nonzero;stroke:#ffffff;stroke-width:1;stroke-miterlimit:4;stroke-dasharray:none;stroke-dashoffset:0;stroke-opacity:1"
   d="m 292.19922,244.29883 h 96.70117 l -85.5,84.90039 z"
   id="path2671"
   inkscape:connector-curvature="0" /><path
   style="opacity:1;fill:none;fill-opacity:1;fill-rule:nonzero;stroke:#ffffff;stroke-width:1;stroke-miterlimit:4;stroke-dasharray:none;stroke-dashoffset:0;stroke-opacity:1"
   d="M 506.40039,234.69922 477.69922,332 l 58.40039,12.5 50.59961,-2.70117 c 0.35,-0.05 0.67539,10e-4 0.96289,0.13867 0.2875,0.1375 0.53828,0.36211 0.73828,0.66211 0.2,0.3 0.29922,0.62422 0.32422,0.94922 0.025,0.325 -0.025,0.65117 -0.125,0.95117 l -13,33.79883 14.09961,22.40039 10.40039,-10.40039 L 590.40039,377 C 590.20039,376.7 590,376.4 590,376 l -1.30078,-20 c -0.1,-0.5 0.10039,-1.00039 0.40039,-1.40039 L 599.90039,341.5 581.29883,325.39844 c -0.2,-0.2 -0.4,-0.49883 -0.5,-0.79883 l -10.69922,-26.70117 c 0,-0.1 -0.0996,-0.29844 -0.0996,-0.39844 L 564.79884,269 Z"
   id="path2669"
   inkscape:connector-curvature="0" /><path
   style="opacity:1;fill:none;fill-opacity:1;fill-rule:nonzero;stroke:#ffffff;stroke-width:1;stroke-miterlimit:4;stroke-dasharray:none;stroke-dashoffset:0;stroke-opacity:1"
   d="M 506.40039,234.69922 564.79883,269 570,297.5 c 0,0.1 0.0996,0.29844 0.0996,0.39844 l 10.69922,26.70117 c 0.1,0.3 0.3,0.59883 0.5,0.79883 L 599.90038,341.5 589.0996,354.59961 c -0.3,0.4 -0.50039,0.90039 -0.40039,1.40039 l 1.30078,20 c 0,0.4 0.20039,0.7 0.40039,1 l 9.69922,13.29883 -10.40039,10.40039 -14.09961,-22.40039 13,-33.79883 c 0.1,-0.3 0.15,-0.62617 0.125,-0.95117 -0.025,-0.325 -0.12422,-0.64922 -0.32422,-0.94922 -0.2,-0.3 -0.45078,-0.52461 -0.73828,-0.66211 -0.2875,-0.1375 -0.61289,-0.18867 -0.96289,-0.13867 L 536.0996,344.5 477.69921,332 Z"
   id="path2667"
   inkscape:connector-curvature="0" /><path
   style="opacity:1;fill:none;fill-opacity:1;fill-rule:nonzero;stroke:#ffffff;stroke-width:1;stroke-miterlimit:4;stroke-dasharray:none;stroke-dashoffset:0;stroke-opacity:1"
   d="m 502.5,233.89844 -104.59961,10 76.39844,85.5 z"
   id="path2665"
   inkscape:connector-curvature="0" /><path
   style="opacity:1;fill:none;fill-opacity:1;fill-rule:nonzero;stroke:#ffffff;stroke-width:1;stroke-miterlimit:4;stroke-dasharray:none;stroke-dashoffset:0;stroke-opacity:1"
   d="m 502.5,233.89844 -28.20117,95.5 -76.39844,-85.5 z"
   id="path2663"
   inkscape:connector-curvature="0" /><path
   style="opacity:1;fill:none;fill-opacity:1;fill-rule:nonzero;stroke:#ffffff;stroke-width:1;stroke-miterlimit:4;stroke-dasharray:none;stroke-dashoffset:0;stroke-opacity:1"
   d="M 157.5,211.59961 160,275 193.09961,315.59961 285.5,243.29883 Z"
   id="path2661"
   inkscape:connector-curvature="0" /><path
   style="opacity:1;fill:none;fill-opacity:1;fill-rule:nonzero;stroke:#ffffff;stroke-width:1;stroke-miterlimit:4;stroke-dasharray:none;stroke-dashoffset:0;stroke-opacity:1"
   d="m 157.5,211.59961 128,31.69922 -92.40039,72.30078 L 160,275 Z"
   id="path2659"
   inkscape:connector-curvature="0" /><path
   style="opacity:1;fill:none;fill-opacity:1;fill-rule:nonzero;stroke:#ffffff;stroke-width:1;stroke-miterlimit:4;stroke-dasharray:none;stroke-dashoffset:0;stroke-opacity:1"
   d="m 560.79883,172.5 -28.39844,37 45,18.89844 -6,-36.09961 z"
   id="path2657"
   inkscape:connector-curvature="0" /><path
   style="opacity:1;fill:none;fill-opacity:1;fill-rule:nonzero;stroke:#ffffff;stroke-width:1;stroke-miterlimit:4;stroke-dasharray:none;stroke-dashoffset:0;stroke-opacity:1"
   d="m 560.79883,172.5 10.60156,19.79883 6,36.09961 -45,-18.89844 z"
   id="path2655"
   inkscape:connector-curvature="0" /><path
   style="opacity:1;fill:none;fill-opacity:1;fill-rule:nonzero;stroke:#ffffff;stroke-width:1;stroke-miterlimit:4;stroke-dasharray:none;stroke-dashoffset:0;stroke-opacity:1"
   d="m 577.5,150.79883 -13.90039,18.09961 11,20.70117 h 25.30078 l -7,-19.70117 z"
   id="path2653"
   inkscape:connector-curvature="0" /><path
   style="opacity:1;fill:none;fill-opacity:1;fill-rule:nonzero;stroke:#ffffff;stroke-width:1;stroke-miterlimit:4;stroke-dasharray:none;stroke-dashoffset:0;stroke-opacity:1"
   d="m 357.79883,146.5 -64.09961,93.79883 h 97.20117 z"
   id="path2651"
   inkscape:connector-curvature="0" /><path
   style="opacity:1;fill:none;fill-opacity:1;fill-rule:nonzero;stroke:#ffffff;stroke-width:1;stroke-miterlimit:4;stroke-dasharray:none;stroke-dashoffset:0;stroke-opacity:1"
   d="M 361.79883,146 394.40039,238.19922 439,181.5 Z"
   id="path2649"
   inkscape:connector-curvature="0" /><path
   style="opacity:1;fill:none;fill-opacity:1;fill-rule:nonzero;stroke:#ffffff;stroke-width:1;stroke-miterlimit:4;stroke-dasharray:none;stroke-dashoffset:0;stroke-opacity:1"
   d="m 491.59961,138.79883 -23.19922,14.5 24.19922,24 L 503,153.19922 Z"
   id="path2647"
   inkscape:connector-curvature="0" /><path
   style="opacity:1;fill:none;fill-opacity:1;fill-rule:nonzero;stroke:#ffffff;stroke-width:1;stroke-miterlimit:4;stroke-dasharray:none;stroke-dashoffset:0;stroke-opacity:1"
   d="m 514.29883,124.69922 -19.29883,12 11.79883,14.90039 c 0.25,0.25 0.40117,0.57383 0.45117,0.92383 0.05,0.35 -3.9e-4,0.72617 -0.15039,1.07617 l -12,27.90039 c -0.15,0.3 -0.34961,0.57461 -0.59961,0.78711 -0.25,0.2125 -0.55039,0.36211 -0.90039,0.41211 -0.35,0.1 -0.67461,0.0992 -0.97461,0.0117 -0.3,-0.0875 -0.57617,-0.26172 -0.82617,-0.51172 l -26.5,-26.40039 -21.59961,26.20117 -45.5,57.89844 106.20117,-10.19922 23.39844,-20.80078 30.90039,-40.39844 v -0.10156 z"
   id="path2645"
   inkscape:connector-curvature="0" /><path
   style="opacity:1;fill:none;fill-opacity:1;fill-rule:nonzero;stroke:#ffffff;stroke-width:1;stroke-miterlimit:4;stroke-dasharray:none;stroke-dashoffset:0;stroke-opacity:1"
   d="m 67.099609,120.5 -34.80078,64.5 35.30078,-20.5 c 0.4,-0.2 0.90078,-0.30117 1.30078,-0.20117 L 113,171 c 0.4,0 0.7,0.19844 1,0.39844 l 12.5,10.5 z"
   id="path2643"
   inkscape:connector-curvature="0" /><path
   style="opacity:1;fill:none;fill-opacity:1;fill-rule:nonzero;stroke:#ffffff;stroke-width:1;stroke-miterlimit:4;stroke-dasharray:none;stroke-dashoffset:0;stroke-opacity:1"
   d="M 434.90039,119.59961 443.5,176 462.59961,152.89844 Z"
   id="path2641"
   inkscape:connector-curvature="0" /><path
   style="opacity:1;fill:none;fill-opacity:1;fill-rule:nonzero;stroke:#ffffff;stroke-width:1;stroke-miterlimit:4;stroke-dasharray:none;stroke-dashoffset:0;stroke-opacity:1"
   d="m 430.19922,115.59961 -66.79883,26.69922 76.19922,35.09961 z"
   id="path2639"
   inkscape:connector-curvature="0" /><path
   style="opacity:1;fill:none;fill-opacity:1;fill-rule:nonzero;stroke:#ffffff;stroke-width:1;stroke-miterlimit:4;stroke-dasharray:none;stroke-dashoffset:0;stroke-opacity:1"
   d="M 13.69922,106.59961 10.40039,113.5 0,157.59961 l 26.798829,29.19922 36.80078,-68.19922 z"
   id="path2637"
   inkscape:connector-curvature="0" /><path
   style="opacity:1;fill:none;fill-opacity:1;fill-rule:nonzero;stroke:#ffffff;stroke-width:1;stroke-miterlimit:4;stroke-dasharray:none;stroke-dashoffset:0;stroke-opacity:1"
   d="M 498.59961,79.79883 477.79883,121.39844 514.59961,120 h 0.19922 c 0.2,0 0.3,-3.9e-4 0.5,0.0996 0.1,0 0.10117,0.0996 0.20117,0.0996 0.1,0.1 0.30039,0.20078 0.40039,0.30078 0,0.1 0.0996,0.0996 0.0996,0.0996 l 45.19922,44.59961 13.5,-17.59961 -18.59961,-19.80078 -42.40039,-19.90039 c -0.4,-0.2 -0.70039,-0.49843 -0.90039,-0.89843 z"
   id="path2635"
   inkscape:connector-curvature="0" /><path
   style="opacity:1;fill:none;fill-opacity:1;fill-rule:nonzero;stroke:#ffffff;stroke-width:1;stroke-miterlimit:4;stroke-dasharray:none;stroke-dashoffset:0;stroke-opacity:1"
   d="m 280.59961,68.500002 11,167.898438 64.19922,-94 z"
   id="path2633"
   inkscape:connector-curvature="0" /><path
   style="opacity:1;fill:none;fill-opacity:1;fill-rule:nonzero;stroke:#ffffff;stroke-width:1;stroke-miterlimit:4;stroke-dasharray:none;stroke-dashoffset:0;stroke-opacity:1"
   d="m 276.59961,68.500002 -117.5,139.298828 128.69922,31.90039 z"
   id="path2631"
   inkscape:connector-curvature="0" /><path
   style="opacity:1;fill:none;fill-opacity:1;fill-rule:nonzero;stroke:#ffffff;stroke-width:1;stroke-miterlimit:4;stroke-dasharray:none;stroke-dashoffset:0;stroke-opacity:1"
   d="M 175.19922,66.500002 69.900389,117.79883 154,204.69922 Z"
   id="path2629"
   inkscape:connector-curvature="0" /><path
   style="opacity:1;fill:none;fill-opacity:1;fill-rule:nonzero;stroke:#ffffff;stroke-width:1;stroke-miterlimit:4;stroke-dasharray:none;stroke-dashoffset:0;stroke-opacity:1"
   d="M 179.5,65.099611 158.5,202.19922 274,65.398439 Z"
   id="path2627"
   inkscape:connector-curvature="0" /><path
   style="opacity:1;fill:none;fill-opacity:1;fill-rule:nonzero;stroke:#ffffff;stroke-width:1;stroke-miterlimit:4;stroke-dasharray:none;stroke-dashoffset:0;stroke-opacity:1"
   d="m 79.199219,55.599611 -47.90039,13.5 -15.898439,33.699219 49.699219,11.90039 z"
   id="path2625"
   inkscape:connector-curvature="0" /><path
   style="opacity:1;fill:none;fill-opacity:1;fill-rule:nonzero;stroke:#ffffff;stroke-width:1;stroke-miterlimit:4;stroke-dasharray:none;stroke-dashoffset:0;stroke-opacity:1"
   d="M 83.499999,54.898439 69.499999,113.5 170.59961,64.29883 Z"
   id="path2623"
   inkscape:connector-curvature="0" /><path
   style="opacity:1;fill:none;fill-opacity:1;fill-rule:nonzero;stroke:#ffffff;stroke-width:1;stroke-miterlimit:4;stroke-dasharray:none;stroke-dashoffset:0;stroke-opacity:1"
   d="m 146,0.59961 -59.201171,50.599611 91.101561,9.800781 83,0.298828 L 199,46.599611 c -0.4,0 -0.70039,-0.20039 -0.90039,-0.40039 z"
   id="path2621"
   inkscape:connector-curvature="0" /><path
   style="opacity:1;fill:none;fill-opacity:1;fill-rule:nonzero;stroke:#ffffff;stroke-width:1;stroke-miterlimit:4;stroke-dasharray:none;stroke-dashoffset:0;stroke-opacity:1"
   d="m 64.798829,0 18,49.29883 L 140.59961,0 Z"
   id="path2619"
   inkscape:connector-curvature="0" /><g
   id="Background"
   transform="translate(-123.66164,-19.564162)">
	
</g>

</svg>