<?xml version="1.0" encoding="UTF-8" standalone="no"?>
<!-- Created with Inkscape (http://www.inkscape.org/) -->

<svg
   xmlns:dc="http://purl.org/dc/elements/1.1/"
   xmlns:cc="http://creativecommons.org/ns#"
   xmlns:rdf="http://www.w3.org/1999/02/22-rdf-syntax-ns#"
   xmlns:svg="http://www.w3.org/2000/svg"
   xmlns="http://www.w3.org/2000/svg"
   xmlns:sodipodi="http://sodipodi.sourceforge.net/DTD/sodipodi-0.dtd"
   xmlns:inkscape="http://www.inkscape.org/namespaces/inkscape"
   width="210mm"
   height="297mm"
   viewBox="0 0 210 297"
   version="1.1"
   id="svg834"
   inkscape:version="0.92.3 (2405546, 2018-03-11)"
   sodipodi:docname="latinamerica-02.svg">
  <defs
     id="defs828" />
  <sodipodi:namedview
     id="base"
     pagecolor="#ffffff"
     bordercolor="#666666"
     borderopacity="1.0"
     inkscape:pageopacity="0.0"
     inkscape:pageshadow="2"
     inkscape:zoom="1.4"
     inkscape:cx="432.19565"
     inkscape:cy="761.01274"
     inkscape:document-units="mm"
     inkscape:current-layer="layer1"
     showgrid="false"
     inkscape:window-width="1280"
     inkscape:window-height="692"
     inkscape:window-x="1920"
     inkscape:window-y="360"
     inkscape:window-maximized="1" />
  <metadata
     id="metadata831">
    <rdf:RDF>
      <cc:Work
         rdf:about="">
        <dc:format>image/svg+xml</dc:format>
        <dc:type
           rdf:resource="http://purl.org/dc/dcmitype/StillImage" />
        <dc:title></dc:title>
      </cc:Work>
    </rdf:RDF>
  </metadata>
  <g
     inkscape:label="Layer 1"
     inkscape:groupmode="layer"
     id="layer1">
    <path
       style="color:#000000;font-style:normal;font-variant:normal;font-weight:normal;font-stretch:normal;font-size:medium;line-height:normal;font-family:sans-serif;font-variant-ligatures:normal;font-variant-position:normal;font-variant-caps:normal;font-variant-numeric:normal;font-variant-alternates:normal;font-feature-settings:normal;text-indent:0;text-align:start;text-decoration:none;text-decoration-line:none;text-decoration-style:solid;text-decoration-color:#000000;letter-spacing:normal;word-spacing:normal;text-transform:none;writing-mode:lr-tb;direction:ltr;text-orientation:mixed;dominant-baseline:auto;baseline-shift:baseline;text-anchor:start;white-space:normal;shape-padding:0;clip-rule:nonzero;display:inline;overflow:visible;visibility:visible;opacity:1;isolation:auto;mix-blend-mode:normal;color-interpolation:sRGB;color-interpolation-filters:linearRGB;solid-color:#000000;solid-opacity:1;vector-effect:none;fill:#000000;fill-opacity:1;fill-rule:nonzero;stroke:none;stroke-width:0.95249999;stroke-linecap:butt;stroke-linejoin:miter;stroke-miterlimit:4;stroke-dasharray:none;stroke-dashoffset:0;stroke-opacity:1;color-rendering:auto;image-rendering:auto;shape-rendering:auto;text-rendering:auto;enable-background:accumulate"
       d="m 23.576069,34.438793 c -1.133689,0 -1.802202,-0.0329 -2.350761,0.36535 -0.27428,0.19913 -0.446216,0.4932 -0.561206,0.81856 -0.114991,0.32535 -0.19192,0.70196 -0.286804,1.18339 -0.162772,0.82587 -0.18505,1.55119 0.0072,2.3182 0.192284,0.76701 0.581208,1.55972 1.20096,2.60811 0.585981,0.99126 0.916624,1.67728 1.037663,2.14096 0.121039,0.46367 0.07855,0.66508 -0.09663,0.94567 -0.449141,0.7194 -0.581162,1.51148 -0.217041,2.21486 0.364122,0.70337 1.091894,1.29268 2.210201,2.00142 0.700233,0.44379 1.073257,0.77219 1.214397,1.00821 0.141139,0.23602 0.148494,0.41442 0.01912,0.85628 -0.164544,0.56199 -0.127205,1.15981 0.142627,1.75286 0.269831,0.59306 0.741289,1.20083 1.449007,1.96681 0.597823,0.64703 1.11024,1.1394 1.53479,1.48415 0.424549,0.34474 0.692265,0.58185 1.143082,0.60254 0.112705,0.005 0.254011,-0.0152 0.382923,-0.0961 0.128912,-0.0809 0.220269,-0.21659 0.259931,-0.33589 0.07933,-0.2386 0.03751,-0.41926 -0.0155,-0.61702 -0.106036,-0.39552 -0.341393,-0.87623 -0.725022,-1.52084 -0.575201,-0.9665 -1.29491,-2.96696 -1.52187,-4.26434 -0.260485,-1.48901 -1.209161,-3.98443 -2.153357,-5.73349 -1.12146,-2.07744 -1.739991,-3.42317 -1.944584,-4.31292 -0.204594,-0.88975 -0.07816,-1.2633 0.363285,-1.78025 0.340787,-0.39908 0.514154,-0.52072 0.689364,-0.55191 0.175209,-0.0312 0.505123,0.0304 1.116727,0.26924 0.545721,0.21314 0.814008,0.40484 1.038696,0.77256 0.224689,0.36772 0.398303,0.97012 0.556556,1.95647 0.273097,1.70213 1.318558,3.87663 2.788976,5.92625 0.62314,0.8686 1.15447,1.70923 1.500167,2.34611 0.172849,0.31845 0.299537,0.58859 0.364319,0.76636 0.03008,0.0826 0.04298,0.13905 0.04703,0.16175 -0.03457,0.118 -0.04321,0.2312 -0.02842,0.31574 0.02218,0.12682 0.0643,0.22863 0.115756,0.33435 0.102908,0.21145 0.251901,0.43304 0.443383,0.68265 0.382965,0.49921 0.936329,1.09754 1.58595,1.7017 1.215086,1.13006 2.875715,3.20219 3.590479,4.46794 0.595726,1.05497 0.887828,1.68791 0.976167,2.23139 0.08834,0.54349 -0.0024,1.06507 -0.273368,1.98024 -0.304498,1.02834 -0.490815,1.6884 -0.268201,2.36575 0.222615,0.67735 0.763116,1.16212 1.675868,1.98955 0.668335,0.60586 1.912089,1.34305 3.628719,2.2195 1.716633,0.87645 3.89037,1.86899 6.336562,2.88509 l 8.086328,3.358971 2.750221,-0.900202 c 1.17525,-0.384747 1.82276,-0.558618 2.318721,-0.563274 0.495964,-0.0047 0.918792,0.14225 1.736844,0.504878 0.901259,0.399513 2.17713,1.375542 2.648416,1.992127 0.641837,0.839708 1.910625,1.850191 2.984833,2.41174 0.510368,0.266793 1.030394,0.508207 1.468126,0.686779 0.218871,0.08929 0.416763,0.162433 0.588597,0.216525 0.171834,0.05409 0.293899,0.09697 0.483174,0.09767 0.18201,7.94e-4 0.261911,-0.0481 0.354502,-0.09199 0.09259,-0.04389 0.182973,-0.09705 0.282152,-0.160713 0.09214,-0.05915 0.213402,-0.155594 0.318844,-0.232026 -0.01503,0.0558 -0.05223,0.106735 -0.06046,0.165364 -0.02963,0.211045 0.02537,0.471128 0.169497,0.649055 0.144124,0.177929 0.326893,0.267483 0.510564,0.331245 0.798097,0.277072 1.673614,0.361042 2.467033,0.28112 0.772131,-0.07778 1.46983,-0.302395 1.947686,-0.768943 -0.0016,0.134609 -0.0019,0.269349 0.04444,0.396356 0.120245,0.329214 0.425828,0.558306 0.739492,0.633553 0.08698,0.02088 0.17812,0.01532 0.267684,0.02066 l -0.871265,0.691946 1.875854,1.911512 c 0.624797,0.636519 1.586976,1.23988 2.559018,1.672248 -0.207029,0.02389 -0.38858,0.0382 -0.602033,0.221176 -0.278281,0.238554 -0.414568,0.592662 -0.419095,0.922941 -0.0045,0.330279 0.09818,0.646541 0.260967,0.938961 0.325575,0.584843 0.904893,1.098061 1.645893,1.299663 0.162719,0.04427 0.614612,0.269893 1.088822,0.582911 0.47421,0.313018 1.000516,0.71378 1.447972,1.114142 0.473501,0.423662 0.926285,0.808228 1.281575,1.091925 0.177647,0.141846 0.330221,0.258196 0.45579,0.345715 0.06278,0.04376 0.117912,0.08026 0.176212,0.11317 0.05831,0.03291 0.05441,0.0925 0.309544,0.0925 0.195572,0 0.279395,-0.07478 0.340548,-0.121438 0.06115,-0.04666 0.100788,-0.08949 0.139526,-0.134361 0.07747,-0.08974 0.145391,-0.188883 0.218075,-0.305924 0.04051,-0.06523 0.08327,-0.166984 0.125055,-0.241845 0.08439,0.207967 0.189709,0.413737 0.365871,0.577744 0.421606,0.392514 1.048591,0.723942 1.98024,1.132745 1.408959,0.618241 2.322538,0.953396 3.077847,0.909505 0.377656,-0.02193 0.752689,-0.194935 0.962216,-0.499711 0.209531,-0.304773 0.261487,-0.661924 0.262517,-1.056264 5.29e-4,-0.173649 0.08039,-0.338966 0.297656,-0.526069 0.217268,-0.1871 0.565065,-0.364865 0.983403,-0.482655 0.836674,-0.235582 1.941708,-0.230669 2.822048,0.11317 0.62968,0.245933 0.8925,0.460616 0.89297,0.461471 2.4e-4,5.29e-4 0.007,-0.03493 -0.0134,0.03824 -0.0206,0.07317 -0.0912,0.22276 -0.21601,0.422714 -0.22008,0.352512 -0.35611,0.637535 -0.36432,0.966348 -0.004,0.164407 0.0383,0.360088 0.1695,0.514697 0.13122,0.154612 0.32492,0.229629 0.48731,0.246496 0.18907,0.01963 0.36122,-0.01677 0.53279,-0.07596 -0.11822,0.176626 -0.25972,0.35542 -0.31988,0.532265 -0.0967,0.284189 -0.0973,0.626269 0.0687,0.892969 h -5.3e-4 c 0.83727,1.345446 1.12926,4.396814 0.5271,6.313825 -0.15643,0.49798 -0.63005,1.37834 -1.25264,2.30529 -0.62258,0.92695 -1.39548,1.92108 -2.153353,2.74092 -2.617208,2.83115 -4.250119,5.07751 -4.884976,6.82025 -0.317426,0.87137 -0.394655,1.65076 -0.109035,2.30374 0.285618,0.65297 0.925915,1.07428 1.744594,1.2578 l 0.476459,0.10697 -0.82269,0.99012 c -0.373727,0.44992 -0.688745,0.87574 -0.905888,1.21853 -0.108572,0.17139 -0.192678,0.31841 -0.253212,0.46354 -0.03027,0.0726 -0.05732,0.14133 -0.07028,0.24856 -0.0084,0.0699 0.014,0.19192 0.07338,0.31471 -0.06157,-0.006 -0.135633,-0.0268 -0.194302,-0.0274 -0.213272,-0.002 -0.47244,-0.03 -0.697116,0.28164 -0.291613,0.40447 -0.271063,0.88211 -0.182417,1.37718 0.08865,0.49507 0.279792,1.03269 0.535366,1.56734 0.511151,1.0693 1.243732,2.12227 2.128036,2.61897 0.613113,0.34436 1.553554,1.36009 2.437061,2.69337 0.883507,1.33328 1.743243,2.9851 2.361093,4.62091 0.45229,1.19743 1.76793,3.11007 3.01946,4.48086 1.17064,1.28223 2.90826,3.68652 3.78685,5.24154 0.75483,1.33599 1.30458,2.17805 2.16989,2.88871 0.86531,0.71066 1.9922,1.26231 3.91294,2.12752 2.63856,1.18855 5.02654,2.68396 6.85643,4.22507 1.82989,1.5411 3.0906,3.1409 3.51296,4.43745 0.34777,1.0676 0.62566,3.48864 0.56483,5.1754 -0.29718,8.23903 0.27621,17.22933 1.43712,22.14903 0.7586,3.21494 0.91547,5.46533 0.63924,9.21546 -0.12915,1.75325 -0.171,3.07878 -0.11731,4.05453 0.0537,0.97575 0.14126,1.6135 0.56586,2.05207 0.0497,0.0513 0.26434,0.45765 0.39946,0.96687 0.13511,0.50922 0.23615,1.13764 0.2651,1.73323 0.0489,1.00586 0.18567,1.76764 0.60926,2.49493 0.33729,0.57912 0.89591,1.15004 1.62367,1.81695 -0.0794,-0.0654 -0.15715,-0.1439 -0.24339,-0.19379 -0.0825,-0.0477 -0.17069,-0.0925 -0.29973,-0.11317 -0.12904,-0.0207 -0.33375,0.004 -0.48007,0.12919 -0.15283,0.13101 -0.18838,0.28197 -0.20412,0.39067 -0.0157,0.1087 -0.0101,0.20048 0.001,0.29508 0.0222,0.18918 0.0742,0.38955 0.14831,0.61805 0.14824,0.45698 0.38881,1.01568 0.69505,1.59783 0.53258,1.01243 1.04497,1.7201 1.57303,2.09186 0.13201,0.0929 0.26951,0.16894 0.43821,0.20671 0.16871,0.0378 0.38851,0.0222 0.56483,-0.0889 0.28824,-0.18161 0.35627,-0.4675 0.37827,-0.76843 0.0204,0.0632 0.0243,0.1243 0.0481,0.1881 0.13969,0.37527 0.36942,0.76096 0.6413,1.13636 -0.0373,-0.0142 -0.0618,-0.0416 -0.10025,-0.0542 -0.27481,-0.0904 -0.52667,-0.12895 -0.7705,-0.0977 -0.24382,0.0313 -0.50765,0.15446 -0.64905,0.40101 -0.14141,0.24654 -0.11352,0.53915 -0.015,0.76481 0.0985,0.22565 0.26126,0.42073 0.48059,0.60875 0.37803,0.32404 0.82748,0.47378 1.25522,0.43821 0.21387,-0.0178 0.43241,-0.0854 0.61495,-0.24288 0.0431,-0.0372 0.0685,-0.0944 0.10387,-0.14159 0.11342,0.42063 0.15118,0.84106 0.10439,1.22111 -0.0996,0.80931 -0.49949,1.38954 -1.17202,1.57251 -0.4075,0.11087 -0.7193,0.21678 -0.97772,0.39016 -0.12922,0.0867 -0.25378,0.19652 -0.33745,0.3638 -0.0837,0.16729 -0.0955,0.39061 -0.0393,0.56224 0.11253,0.34328 0.35305,0.52296 0.65784,0.73123 0.30479,0.20826 0.70366,0.42455 1.21388,0.67334 0.56937,0.27763 1.07071,0.71655 1.54926,1.35547 -0.1445,-0.007 -0.29247,0.007 -0.41083,0.0692 -0.44573,0.23616 -0.74827,0.6303 -0.74827,1.1622 0,0.5319 0.4473,0.9555 0.971,0.9555 0.33066,0 0.5942,-0.20306 0.74569,-0.42995 0.11135,-0.16677 0.13685,-0.37471 0.16588,-0.57929 0.16272,0.30909 0.32497,0.61774 0.48886,0.99322 0.70008,1.60402 1.69636,3.35645 2.42362,4.18837 -0.0657,-0.0108 -0.12898,-0.0331 -0.19585,-0.0331 -0.27813,0 -0.60505,0.10619 -0.76016,0.40773 -0.15511,0.30153 -0.0506,0.63061 0.11214,0.85628 0.12666,0.17568 0.27057,0.32798 0.42271,0.45113 0.15214,0.12315 0.2677,0.2558 0.59221,0.2558 0.29772,0 0.47315,-0.19297 0.57309,-0.36328 -0.002,0.009 0.0109,0.0642 0.009,0.0677 -0.0782,0.17479 -0.13746,0.32595 -0.1602,0.50591 -0.0227,0.17997 0.0252,0.47214 0.23978,0.63563 0.21453,0.16348 0.42163,0.15023 0.59428,0.1297 0.17249,-0.0205 0.34541,-0.0687 0.54983,-0.13591 0.0131,-0.004 0.0631,0.0128 0.0801,0.0103 -0.14678,0.0626 -0.28001,0.11813 -0.48525,0.21187 -0.38485,0.17579 -0.73302,0.36192 -1.00097,0.53175 -0.13397,0.0849 -0.24708,0.16344 -0.34571,0.2496 -0.0493,0.0431 -0.0956,0.0869 -0.14418,0.1509 -0.0486,0.064 -0.12403,0.14814 -0.12403,0.34778 0,0.14827 0.0439,0.32014 0.14986,0.45527 0.10597,0.13512 0.25695,0.21454 0.39068,0.24908 0.26745,0.0691 0.49419,0.0181 0.72864,-0.0589 0.46889,-0.15408 0.97371,-0.47458 1.40766,-0.92553 0.18741,-0.19474 0.32637,-0.34146 0.43099,-0.47335 0.0523,-0.0659 0.0983,-0.11747 0.14624,-0.2341 0.0132,-0.0321 0.012,-0.10469 0.0207,-0.15813 0.1372,0.0668 0.27082,0.0999 0.40153,0.18655 0.32128,0.21303 0.61166,0.46667 0.80564,0.70229 0.19396,0.23562 0.27026,0.44899 0.27026,0.52813 0,0.20691 0.10847,0.42665 0.25477,0.55242 0.1463,0.12577 0.30812,0.18135 0.4687,0.21187 0.32116,0.061 0.6687,0.0236 1.05369,-0.0811 0.22377,-0.0609 0.55339,-0.0656 0.87384,-0.0481 -0.38359,0.11474 -0.69846,0.27182 -0.93224,0.49971 -0.24296,0.23684 -0.39232,0.57966 -0.35347,0.91726 0.0777,0.67521 0.68637,1.112 1.53014,1.387 0.37451,0.12205 0.7658,0.29399 1.07539,0.46353 0.30959,0.16954 0.54858,0.37955 0.55139,0.38344 0.20127,0.27915 0.48093,0.42852 0.78961,0.54415 0.30869,0.11564 0.65241,0.18255 0.99943,0.17622 0.22139,-0.004 0.40623,0.0119 0.64957,-0.1664 0.12166,-0.0892 0.23917,-0.28277 0.24494,-0.45837 0.006,-0.1756 -0.0548,-0.29757 -0.11368,-0.39377 -0.23553,-0.38483 -0.62211,-0.6464 -1.29295,-1.11776 -0.50343,-0.35374 -1.01392,-0.67426 -1.4428,-0.91209 -0.21445,-0.11892 -0.40767,-0.21697 -0.57775,-0.29042 -0.0518,-0.0224 -0.11076,-0.0232 -0.15658,-0.0424 0.0617,-0.0937 0.12268,-0.18375 0.15142,-0.31212 0.03,-0.13387 -0.0103,-0.33069 -0.11369,-0.48731 0.44149,0.20585 0.93252,0.27425 1.43609,0.16846 0.51256,-0.10767 1.03701,-0.36567 1.66191,-0.76171 0.48613,-0.30809 0.88838,-0.64176 1.16995,-0.96841 0.14079,-0.16333 0.25425,-0.32204 0.32867,-0.5116 0.0744,-0.18956 0.11443,-0.47712 -0.0594,-0.7183 -0.19433,-0.26952 -0.54321,-0.40816 -0.8506,-0.38292 -0.10968,0.009 -0.21121,0.049 -0.31316,0.0858 0.13137,-0.35476 0.16563,-0.77919 0.18811,-1.31568 0.0338,-0.80719 0.62893,-2.59598 1.28726,-3.6959 0.72564,-1.21241 1.0413,-2.3842 0.89348,-3.39928 -0.14781,-1.01508 -0.82434,-1.84893 -1.86603,-2.1916 -0.12775,-0.042 -0.45352,-0.23579 -0.77102,-0.50332 -0.31749,-0.26754 -0.64828,-0.60756 -0.89607,-0.93173 -0.23656,-0.30949 -0.40094,-0.53966 -0.4811,-0.69608 -0.0802,-0.15642 -0.0847,-0.20818 -0.0693,-0.29249 0.0308,-0.16862 0.34118,-0.61598 1.08469,-1.45159 0.48469,-0.54473 0.85953,-1.09472 1.09502,-1.60404 0.23549,-0.50932 0.38366,-0.99113 0.16899,-1.47071 -0.0238,-0.0532 -0.0392,-0.25616 0.0496,-0.50229 0.0888,-0.24613 0.26359,-0.5222 0.48318,-0.73019 0.24048,-0.22779 0.42536,-0.40492 0.56947,-0.57929 0.14412,-0.17438 0.31137,-0.38146 0.25167,-0.71417 -0.0299,-0.16636 -0.13216,-0.30737 -0.23048,-0.39223 -0.0983,-0.0848 -0.19564,-0.13395 -0.29662,-0.17776 -0.20196,-0.0876 -0.43148,-0.15133 -0.72812,-0.23203 -0.4366,-0.11879 -1.44172,-0.92914 -1.89033,-1.67277 -0.29728,-0.4928 -0.45121,-0.89023 -0.49092,-1.13533 -0.0397,-0.2451 -0.002,-0.26993 0.0294,-0.29507 0.0315,-0.0251 0.20045,-0.091 0.54726,-0.0434 0.34681,0.0476 0.8378,0.19603 1.4366,0.46147 0.53632,0.23774 1.04125,0.43496 1.43764,0.56534 0.19819,0.0652 0.36661,0.11386 0.51573,0.14366 0.0746,0.0149 0.14255,0.026 0.22738,0.0274 0.0848,0.001 0.21624,0.0491 0.41961,-0.15865 1.20124,-1.22733 1.71167,-2.8875 0.97307,-4.07055 -0.20863,-0.33416 -0.30203,-0.59322 -0.31575,-0.73122 -0.0137,-0.138 -0.009,-0.1434 0.078,-0.21704 0.17427,-0.14729 0.93668,-0.34933 2.23139,-0.34933 1.56994,0 3.17709,-0.34471 4.52428,-0.90124 1.34718,-0.55653 2.45119,-1.30466 2.96519,-2.2717 h -5.3e-4 c 0.29736,-0.55944 0.44894,-1.12256 0.33952,-1.73891 -0.10943,-0.61635 -0.42824,-1.25456 -0.95912,-2.16576 -0.3756,-0.6447 -0.87661,-1.27953 -1.39578,-1.80609 -0.51917,-0.52655 -1.03629,-0.94618 -1.55494,-1.14877 -0.34504,-0.13476 -0.64844,-0.32466 -0.83148,-0.49144 -0.18304,-0.16678 -0.16568,-0.29665 -0.18913,-0.17363 0.0688,-0.3612 -0.0137,-0.68004 -0.12506,-1.08624 -0.003,-0.01 -0.009,-0.0208 -0.0114,-0.0305 0.6528,0.52112 1.5054,0.93727 2.58124,1.35651 0.8628,0.33622 1.77821,0.64208 2.56832,0.86764 0.7901,0.22557 1.41522,0.37709 1.8681,0.38396 1.97333,0.0299 3.83444,-1.53384 5.78983,-4.50205 0.90946,-1.38059 2.28847,-3.24242 3.0086,-4.07107 0.40974,-0.47147 0.76916,-1.03313 1.03559,-1.58078 0.26643,-0.54765 0.45062,-1.06191 0.45062,-1.54616 0,-0.48475 0.40155,-1.56074 0.83044,-2.08566 1.67999,-2.05601 2.24336,-4.52997 1.42782,-6.64818 -0.15958,-0.41449 -0.26775,-0.72299 -0.31109,-0.93844 -0.0433,-0.21545 -0.0328,-0.31624 0.0139,-0.42943 0.0935,-0.22637 0.51658,-0.61516 1.47123,-1.31413 1.04943,-0.76837 3.07095,-1.85454 4.36149,-2.34094 0.69475,-0.26186 1.371,-0.56557 1.91461,-0.85112 0.27181,-0.14277 0.50983,-0.28083 0.7059,-0.41186 0.19608,-0.13102 0.34565,-0.23211 0.48008,-0.41858 -0.0222,0.0307 0.16989,-0.11252 0.55965,-0.15761 0.38977,-0.0451 0.94074,-0.0334 1.5813,0.0517 1.68323,0.22345 2.77282,0.01 3.87522,-0.78962 1.79874,-1.30398 3.34352,-4.58581 4.48138,-8.30595 1.13786,-3.72014 1.79796,-7.85122 1.43195,-10.83965 -0.1788,-1.45996 -0.22567,-2.23364 -0.10542,-2.69699 0.12025,-0.46335 0.39558,-0.75205 1.10433,-1.35961 0.91012,-0.78017 2.03738,-2.10354 2.61534,-3.0794 v -5.3e-4 c 0.48891,-0.82544 1.80484,-2.50302 2.84685,-3.60649 2.57567,-2.72751 3.59647,-5.70967 2.74506,-8.42016 -0.27858,-0.88681 -0.559,-1.52555 -1.19631,-1.97146 -0.63731,-0.4459 -1.50728,-0.68149 -3.01532,-1.0573 -2.17755,-0.54263 -3.87672,-1.39613 -5.40329,-2.70474 -1.07509,-0.92158 -1.82064,-1.48308 -2.86081,-1.85467 -1.04016,-0.37159 -2.32257,-0.5516 -4.54856,-0.81287 -2.09303,-0.24566 -3.36235,-0.36457 -4.31239,-0.32763 -0.95005,0.0369 -1.59541,0.25769 -2.25723,0.62942 -0.36815,0.20678 -0.66234,0.32367 -0.84749,0.3607 -0.18516,0.037 -0.21597,0.009 -0.22997,-0.003 -0.014,-0.0113 -0.0763,-0.0854 -0.10645,-0.31781 -0.0302,-0.2324 -0.0216,-0.59126 0.0388,-1.05316 0.0692,-0.52907 -0.20134,-1.04505 -0.66094,-1.46348 -0.45961,-0.41842 -1.12483,-0.81035 -2.05052,-1.25367 -1.4141,-0.67722 -2.40401,-1.03854 -3.47525,-0.8847 -1.07123,0.15384 -2.09378,0.77929 -3.68969,1.88309 -0.71777,0.49645 -1.05081,0.68512 -1.39888,0.7121 -0.34807,0.027 -0.86506,-0.11685 -1.88206,-0.48111 -0.0513,-0.0184 -0.0739,-0.0339 -0.12351,-0.0522 0.157,-0.0347 0.36607,-0.11794 0.46044,-0.36587 0.023,-0.0604 0.004,-0.1058 0.008,-0.1602 0.1211,-0.003 0.19818,-0.0185 0.41806,0.0176 1.08806,0.1783 2.02784,-0.0777 2.55953,-0.67903 0.26585,-0.30065 0.41344,-0.71012 0.35812,-1.12344 -0.0553,-0.41332 -0.2962,-0.80103 -0.67593,-1.12655 -0.30159,-0.25852 -0.6553,-0.47988 -1.0051,-0.64595 -0.34981,-0.16607 -0.67779,-0.28629 -1.02733,-0.28629 -0.38424,0 -0.74099,0.14542 -1.18288,0.3514 -0.44188,0.20598 -0.94162,0.48795 -1.45779,0.81649 -1.03233,0.65707 -2.12534,1.49339 -2.89336,2.281 -0.37645,0.38604 -0.62531,0.53771 -0.71055,0.55707 -0.0852,0.0194 -0.13405,0.0169 -0.38344,-0.19327 -0.10013,-0.0844 -0.0972,-0.11024 -0.0961,-0.10284 0.001,0.007 -0.01,-0.0324 0.0801,-0.17208 0.17981,-0.27939 0.72728,-0.81038 1.68155,-1.58853 1.45319,-1.18502 2.51035,-2.23365 3.12229,-3.10162 0.30597,-0.43399 0.5112,-0.81858 0.56948,-1.22164 0.0583,-0.40305 -0.14298,-0.88095 -0.5178,-1.07951 0.0645,0.0341 -0.0324,-0.0292 -0.12196,-0.16124 -0.0895,-0.13202 -0.19889,-0.32644 -0.31109,-0.55862 -0.2244,-0.46435 -0.46294,-1.08188 -0.64957,-1.71721 -0.54011,-1.83879 -1.52533,-3.16 -3.45923,-4.688082 -0.72989,-0.576728 -1.49093,-1.098716 -2.14405,-1.483629 -0.32656,-0.192458 -0.62516,-0.350732 -0.88832,-0.466122 -0.26315,-0.115393 -0.4669,-0.201539 -0.73897,-0.201539 -0.89844,0 -1.62221,0.585439 -1.97404,1.349788 -0.35183,0.76435 -0.38053,1.727057 0.0176,2.624644 0.19973,0.4503 0.26301,0.77861 0.22479,1.12551 -0.0382,0.34691 -0.19079,0.7408 -0.50953,1.26918 l -0.99684,1.65209 c -3.83099,0.15913 -7.01516,0.69979 -9.07076,1.64745 -0.84438,0.38927 -1.39073,0.45697 -1.85157,0.28629 -0.46083,-0.17069 -0.93998,-0.64268 -1.49655,-1.56528 -0.70841,-1.17431 -0.75414,-1.62935 -0.30075,-3.03703 0.25302,-0.78552 0.39181,-1.41688 0.37155,-1.958535 -0.0203,-0.541657 -0.2835,-1.065056 -0.76326,-1.267621 -0.3639,-0.153646 -0.78355,-0.123748 -1.24437,-0.03359 0.0613,-0.06585 0.13794,-0.125204 0.18862,-0.196887 0.22746,-0.321726 0.26841,-0.759018 0.15038,-1.111562 -0.11803,-0.352544 -0.33426,-0.664964 -0.6103,-1.043864 -0.23164,-0.31796 -0.28598,-0.476932 -0.21601,-0.864028 0.07,-0.387099 0.33412,-0.997143 0.84543,-1.929599 0.34114,-0.622106 0.72635,-1.190582 1.05472,-1.585949 0.16418,-0.197684 0.31579,-0.351954 0.42477,-0.441836 0.10899,-0.08988 0.19521,-0.077 0.0563,-0.077 0.21895,0 0.402,-7.94e-4 0.62167,-0.13901 0.10984,-0.06914 0.22983,-0.2033 0.27078,-0.364318 0.041,-0.16102 0.007,-0.307578 -0.0377,-0.411863 -0.0891,-0.208569 -0.21631,-0.326848 -0.37104,-0.462502 -0.15473,-0.135655 -0.34418,-0.273828 -0.57205,-0.422199 -0.91148,-0.593479 -2.44356,-1.3526 -4.38527,-2.14767 -1.30238,-0.533287 -2.42826,-0.918792 -3.36155,-1.149284 -0.93329,-0.230495 -1.66383,-0.321458 -2.25723,-0.193789 -0.3614,0.07776 -1.12028,0.07269 -2.00866,-0.02945 -0.88838,-0.102143 -1.9245,-0.289301 -2.93883,-0.524516 -1.01434,-0.235217 -2.0087,-0.519054 -2.81379,-0.809254 -0.80509,-0.2902 -1.43538,-0.61931 -1.63091,-0.798402 -0.89788,-0.822444 -1.80619,-1.31246 -2.77864,-1.394229 -0.97244,-0.08177 -1.95601,0.24815 -2.99465,0.906404 -0.97603,0.618583 -1.60208,1.105773 -1.8712,1.74253 -0.13456,0.318378 -0.14051,0.690038 -0.0129,1.005107 0.12759,0.315068 0.3551,0.573585 0.64389,0.821137 0.10552,0.09046 0.095,0.043 0.0506,0.192238 -0.0443,0.149239 -0.23262,0.456033 -0.59997,0.84491 -0.27369,0.289743 -0.47974,0.503415 -0.62167,0.628901 -0.0847,0.07488 -0.0678,0.06175 -0.0884,0.07441 -0.0625,-0.07603 -0.15646,-0.210622 -0.29145,-0.426847 -0.23678,-0.379252 -0.36353,-1.56145 -0.0992,-2.800348 0.15346,-0.719405 0.22249,-1.263451 0.19792,-1.690335 -0.0123,-0.213442 -0.0405,-0.402125 -0.14934,-0.593762 -0.009,-0.01553 -0.0315,-0.02656 -0.0424,-0.04186 0.051,-0.02241 0.10776,-0.06526 0.15709,-0.08268 0.3453,-0.121909 0.61347,-0.222178 0.82269,-0.315743 0.20923,-0.09356 0.36081,-0.117475 0.53589,-0.378272 0.0875,-0.130397 0.1189,-0.428874 0.0165,-0.595829 -0.10237,-0.166957 -0.21303,-0.212833 -0.30334,-0.254764 -0.18063,-0.08386 -0.35889,-0.121396 -0.59997,-0.170016 -0.48018,-0.09684 -0.98432,0.02238 -1.51463,0.237712 -0.53032,0.215321 -1.08182,0.544351 -1.5875,0.959631 -0.40473,0.332388 -0.91629,0.6468 -1.39217,0.869198 -0.47588,0.222396 -0.93624,0.342614 -1.13016,0.342614 -0.91601,0 -1.97847,0.59132 -2.94762,1.272273 -0.48458,0.340477 -0.92704,0.709668 -1.26608,1.075905 -0.33903,0.366233 -0.62322,0.699605 -0.62322,1.192175 0,-0.144949 0.0256,-0.115888 0.001,-0.07441 -0.0246,0.04147 -0.0767,0.116155 -0.14934,0.206706 -0.14536,0.181099 -0.37289,0.429866 -0.65629,0.7152 -0.56681,0.570672 -1.36082,1.293368 -2.23294,2.017448 -0.17402,0.144481 -0.28569,0.253254 -0.44338,0.388091 -0.006,-0.032 0.007,-0.06564 -0.004,-0.09664 -0.0989,-0.287387 -0.29197,-0.468129 -0.53279,-0.668692 -0.24082,-0.200562 -0.55118,-0.418065 -0.95498,-0.695047 -1.03914,-0.712795 -2.03825,-1.125042 -3.15174,-1.196827 -1.113495,-0.07178 -2.312571,0.186185 -3.805458,0.720887 -0.912262,0.326742 -1.442212,0.468992 -1.874819,0.470773 -0.43261,0.0019 -0.834745,-0.125849 -1.548744,-0.442352 -0.771284,-0.341897 -1.183222,-0.567774 -1.693953,-0.515731 -0.104632,0.01066 -0.205816,0.05822 -0.302823,0.109556 -0.01633,-0.709271 -0.279715,-1.405871 -0.776698,-1.986444 -0.396301,-0.462954 -0.920191,-0.865531 -1.539441,-1.195274 0.05612,-0.02492 0.112334,-0.0299 0.168466,-0.07493 0.11811,-0.09475 0.194193,-0.236839 0.224274,-0.347266 0.03008,-0.110426 0.03109,-0.195387 0.03152,-0.268716 -2.56e-4,0.04389 0.0027,-0.02849 0.01344,-0.107487 0.01072,-0.079 0.02716,-0.189127 0.04857,-0.324011 0.04284,-0.269769 0.105309,-0.639416 0.182417,-1.080037 0.154218,-0.881243 0.367191,-2.046714 0.600998,-3.281456 0.236384,-1.248267 0.417674,-2.45705 0.519864,-3.409611 0.0511,-0.476279 0.08226,-0.887531 0.09043,-1.216461 0.0082,-0.328933 0.04674,-0.515467 -0.0894,-0.81959 -0.166067,-0.372347 -0.492425,-0.600741 -0.868554,-0.776646 -0.376126,-0.175903 -0.827291,-0.301215 -1.341519,-0.396875 -1.028457,-0.191318 -2.308691,-0.256257 -3.638021,-0.212905 -1.329333,0.04335 -2.704132,0.195969 -3.90829,0.455268 -0.683673,0.14722 -1.285153,0.336339 -1.82521,0.558105 0.03755,-0.06617 0.07997,-0.120291 0.08992,-0.256831 0.01048,-0.143505 -0.0513,-0.309153 -0.135392,-0.406694 -0.08409,-0.09754 -0.172218,-0.143624 -0.248563,-0.175183 -0.152691,-0.06311 -0.283104,-0.07487 -0.428398,-0.08061 -0.290589,-0.01148 -0.633108,0.02884 -1.013891,0.114205 -0.239649,0.05372 -0.380439,0.07109 -0.482658,0.07958 -0.003,-0.04046 -0.0048,-0.01913 0.0093,-0.139009 0.02585,-0.219226 0.09156,-0.549074 0.187071,-0.985473 0.223612,-1.02175 0.583612,-2.24871 0.710033,-2.53111 0.119343,-0.2666 0.214479,-0.54538 0.08475,-0.86765 -0.06487,-0.16113 -0.199983,-0.30077 -0.34158,-0.37724 -0.03312,-0.0179 -0.067,-0.0143 -0.100253,-0.0274 0.592592,-0.25012 1.186354,-0.54466 1.66553,-0.83715 0.429136,-0.26194 0.879735,-0.47255 1.234033,-0.59222 0.177152,-0.0598 0.331372,-0.0959 0.431498,-0.10852 0.100129,-0.0126 0.142785,0.0237 0.0522,-0.0243 0.17735,0.094 0.375491,0.0764 0.505912,0.0326 0.130421,-0.0438 0.224991,-0.1078 0.315743,-0.17931 0.181502,-0.14304 0.346147,-0.32931 0.523481,-0.56121 0.354671,-0.4638 0.741998,-1.10937 1.10381,-1.8557 0.428596,-0.88406 0.704144,-1.60089 0.786516,-2.2257 0.08237,-0.62482 -0.08771,-1.24109 -0.566375,-1.57562 -0.47866,-0.33453 -1.106167,-0.39299 -1.909961,-0.34055 -0.803793,0.0524 -1.80544,0.23664 -3.051492,0.5333 -0.898499,0.21392 -1.553051,0.44973 -2.069642,0.86093 -0.516591,0.41121 -0.844995,0.9735 -1.129131,1.71153 -0.77057,2.00147 -2.882159,3.35832 -6.652305,4.05143 -2.488673,0.45752 -4.213934,0.25334 -5.551601,-0.69918 -1.337667,-0.95253 -2.35825,-2.73695 -3.225641,-5.60638 -0.486608,-1.60975 -0.658844,-2.61312 -0.425299,-3.90157 0.233548,-1.28845 0.905959,-2.89912 2.177645,-5.56762 0.169809,-0.35633 0.292367,-0.71153 0.107487,-1.08779 -0.09244,-0.18813 -0.269616,-0.32818 -0.442865,-0.39687 -0.17325,-0.0687 -0.347023,-0.0873 -0.532268,-0.0873 -0.474025,0 -1.076544,-0.32627 -1.679484,-1.02629 -0.60294,-0.70003 -1.185892,-1.74488 -1.635559,-3.02566 -0.731736,-2.08415 -1.586181,-3.47958 -2.753859,-4.14446 -1.16768,-0.66487 -2.566583,-0.46095 -4.037481,0.4222 -0.614836,0.36916 -0.914776,0.48998 -1.064017,0.48679 -0.14924,-0.003 -0.369826,-0.11686 -0.873331,-0.50746 -0.482899,-0.37462 -1.151871,-1.40301 -1.316717,-2.04639 -0.253963,-0.99117 -1.090031,-2.01167 -2.023132,-2.53576 -0.887838,-0.49867 -1.983202,-0.7724 -2.966226,-0.83302 -0.491513,-0.0303 -0.954122,-0.007 -1.361157,0.0863 -0.407035,0.0936 -0.781944,0.25135 -1.027327,0.5917 0.06178,-0.0857 0.07382,-0.0669 0.03979,-0.0512 -0.03403,0.0158 -0.105494,0.0419 -0.200505,0.0677 -0.19002,0.0516 -0.474681,0.105 -0.815454,0.14934 -0.681547,0.0887 -1.594266,0.14521 -2.550749,0.14521 -2.720455,0 -4.170144,-0.31268 -6.886918,-1.48828 -2.187714,-0.94659 -4.505462,-1.56675 -6.060088,-1.56675 z m 0,0.9524 c 1.28609,0 3.585369,0.58161 5.681823,1.48879 2.777584,1.20192 4.466765,1.56683 7.26519,1.56683 0.993785,0 1.936801,-0.0581 2.673738,-0.15399 0.368469,-0.0479 0.684183,-0.10407 0.942063,-0.17415 0.128939,-0.035 0.243385,-0.0726 0.351916,-0.12299 0.108531,-0.0504 0.219509,-0.1001 0.331763,-0.2558 0.03197,-0.0443 0.186461,-0.15586 0.468188,-0.22066 0.281727,-0.0648 0.667247,-0.0896 1.089339,-0.0636 0.844186,0.0521 1.839141,0.30857 2.558501,0.71262 0.636069,0.35726 1.415679,1.35158 1.56683,1.94148 0.240258,0.93771 0.90831,1.98374 1.655194,2.56315 0.525986,0.40804 0.91876,0.69587 1.437124,0.70693 0.518361,0.0111 0.940237,-0.24131 1.57458,-0.62218 1.312411,-0.78799 2.248088,-0.88263 3.075782,-0.41134 0.82769,0.47128 1.629455,1.64701 2.326473,3.63233 0.480682,1.36913 1.104244,2.50892 1.812809,3.33158 0.708564,0.82266 1.522858,1.35703 2.400886,1.35703 0.05648,0 0.06373,0.005 0.09457,0.0104 -0.01058,-0.004 0.0055,0.006 -0.08682,0.19947 -1.278998,2.68385 -1.989592,4.34515 -2.254641,5.8074 -0.265049,1.46224 -0.05082,2.68821 0.450617,4.34702 0.895146,2.96123 1.980244,4.96455 3.584794,6.10712 1.60455,1.14256 3.657629,1.34127 6.276104,0.85989 3.928491,-0.72221 6.440078,-2.2333 7.369059,-4.64623 0.255521,-0.6637 0.488527,-1.03381 0.833541,-1.30844 0.345014,-0.27463 0.853032,-0.47808 1.697053,-0.67903 1.219835,-0.29043 2.184818,-0.46385 2.892848,-0.51005 0.708028,-0.0462 1.137529,0.0559 1.302245,0.17105 0.164716,0.11512 0.225028,0.23728 0.16795,0.67025 -0.05708,0.43296 -0.291127,1.09306 -0.699183,1.93476 -0.338839,0.69894 -0.706668,1.30469 -1.003557,1.69292 -0.145269,0.18997 -0.274777,0.32369 -0.348816,0.38344 -0.143306,-0.0315 -0.278529,-0.0347 -0.410826,-0.0181 -0.194191,0.0244 -0.397378,0.0772 -0.617019,0.15141 -0.439277,0.14837 -0.939255,0.38383 -1.426268,0.6811 -0.855811,0.52239 -2.32727,1.13177 -3.090768,1.29604 -1.06214,0.22852 -1.871458,0.5824 -2.41019,1.15239 -0.538731,0.56999 -0.740415,1.35097 -0.629936,2.19831 0.04711,0.36115 -0.0024,0.52675 -0.06666,0.61288 -0.06427,0.0861 -0.20914,0.18086 -0.568958,0.23875 -0.820539,0.13201 -1.569831,0.555957 -2.126485,1.111561 -0.441201,0.440369 -0.765691,0.97496 -0.863513,1.550291 -5.29e-4,-5.29e-4 -0.0021,-0.0013 -0.0026,-0.0021 -0.650353,-0.850858 -1.925187,-1.799029 -3.019454,-2.284098 -0.842637,-0.373524 -1.435499,-0.593064 -2.131652,-0.586524 -0.696151,0.007 -1.417164,0.22109 -2.606043,0.610294 l -2.414838,0.790649 -7.76025,-3.223573 c -2.427769,-1.00845 -4.582866,-1.99327 -6.268915,-2.85411 -1.686049,-0.86083 -2.918744,-1.62065 -3.422013,-2.07688 -0.903827,-0.81934 -1.300964,-1.2472 -1.410767,-1.58129 -0.109803,-0.3341 -0.02349,-0.78429 0.276469,-1.79731 0.282747,-0.95489 0.421577,-1.6575 0.300241,-2.40399 -0.121337,-0.74649 -0.478117,-1.4693 -1.086757,-2.54713 -0.80152,-1.4194 -2.453574,-3.47131 -3.771346,-4.69687 -0.616811,-0.57365 -1.14313,-1.14609 -1.478979,-1.58388 -0.167925,-0.2189 -0.288086,-0.40731 -0.342615,-0.51935 -0.01612,-0.0331 -0.0154,-0.0347 -0.02015,-0.0486 0.03194,-0.11713 0.03481,-0.22236 0.02325,-0.30489 -0.01764,-0.12598 -0.0524,-0.24087 -0.0987,-0.36794 -0.0926,-0.25412 -0.235731,-0.55098 -0.422197,-0.89452 -0.37293,-0.68706 -0.920203,-1.55058 -1.563212,-2.44687 -1.406349,-1.96032 -2.391321,-4.08078 -2.622579,-5.52215 -0.165013,-1.02848 -0.341629,-1.74154 -0.684196,-2.30218 -0.342567,-0.56064 -0.858621,-0.91065 -1.505335,-1.16324 -0.652401,-0.25481 -1.131423,-0.40861 -1.629874,-0.31987 -0.498451,0.0887 -0.863484,0.4228 -1.246436,0.87126 -0.57788,0.67672 -0.81633,1.5297 -0.567407,2.61224 0.248923,1.08254 0.902117,2.4545 2.034501,4.55218 0.887582,1.64419 1.83218,4.17931 2.053621,5.44515 0.254967,1.45747 0.958583,3.44024 1.641244,4.58731 0.202567,0.34037 0.244234,0.48818 0.349849,0.71779 -0.367735,-0.30084 -0.844931,-0.7543 -1.412317,-1.36839 -0.677823,-0.73363 -1.086243,-1.28697 -1.281058,-1.71514 -0.194816,-0.42818 -0.20641,-0.71192 -0.0956,-1.09038 0.164626,-0.56226 0.174285,-1.1278 -0.115755,-1.61282 -0.29004,-0.48501 -0.782264,-0.85437 -1.522388,-1.32343 -1.065749,-0.67544 -1.661341,-1.22466 -1.873787,-1.63504 -0.212446,-0.41039 -0.174333,-0.70718 0.1788,-1.27279 0.292658,-0.46876 0.377134,-1.05331 0.21084,-1.69034 -0.166293,-0.63703 -0.537324,-1.36678 -1.139465,-2.38538 -0.60086,-1.01644 -0.941619,-1.73473 -1.097091,-2.3549 -0.155472,-0.62017 -0.143538,-1.15819 0.0031,-1.90221 0.0936,-0.47489 0.170825,-0.82426 0.250631,-1.05006 0.07981,-0.22581 0.143396,-0.30776 0.222725,-0.36536 0.158659,-0.11519 0.667345,-0.18396 1.791106,-0.18396 z m 75.216597,21.04212 c -1.77065,-0.11538 -3.832508,0.1275 -5.488038,0.53795 -0.827765,0.20523 -1.55068,0.4501 -2.101162,0.73432 -0.275243,0.14211 -0.508965,0.29202 -0.697632,0.4775 -0.188669,0.18547 -0.351917,0.43229 -0.351917,0.74155 0,0.18715 0.0053,0.44391 0.229444,0.66198 0.224094,0.21807 0.515295,0.22626 0.768427,0.19482 0.506264,-0.0629 1.190104,-0.30592 2.452563,-0.7581 1.230847,-0.44084 2.762126,-0.60552 3.653525,-0.43769 1.420321,0.26741 3.437144,0.95983 5.147494,1.70532 0.85517,0.37274 1.63741,0.75937 2.23087,1.10639 0.59346,0.34702 1.00554,0.71147 1.0511,0.78445 0.24907,0.39895 0.66168,0.70063 1.15755,0.98444 0.49586,0.2838 1.07526,0.52556 1.65313,0.66869 2.31198,0.57267 3.4029,0.59325 5.41155,0.10232 0.42424,-0.10369 0.73083,-0.14725 1.03508,-0.33538 0.0761,-0.047 0.15983,-0.10897 0.23255,-0.21911 0.0727,-0.11015 0.11498,-0.28086 0.0925,-0.42375 -0.045,-0.28577 -0.20377,-0.40508 -0.35295,-0.52348 -0.29837,-0.2368 -0.74321,-0.4677 -1.46451,-0.81752 -0.72131,-0.34983 -1.70745,-0.80217 -3.02101,-1.40457 -6.40119,-2.93559 -8.33686,-3.56497 -11.638564,-3.78013 z m -0.06201,0.95033 c 3.209624,0.20916 4.920054,0.76807 11.303184,3.69538 1.31352,0.60238 2.29841,1.0541 3.00292,1.39578 0.47271,0.22926 0.63911,0.34073 0.86403,0.47439 -0.10041,0.0283 -0.0963,0.0334 -0.21756,0.063 -1.93647,0.4733 -2.69796,0.45758 -4.95628,-0.1018 -0.47642,-0.118 -0.99109,-0.3317 -1.40922,-0.57102 -0.41814,-0.23931 -0.73928,-0.52836 -0.82269,-0.66197 -0.26979,-0.43215 -0.73685,-0.72723 -1.37821,-1.10226 -0.64136,-0.37503 -1.44954,-0.77352 -2.33061,-1.15755 -1.76213,-0.76807 -3.802562,-1.47611 -5.352128,-1.76785 -1.170668,-0.22041 -2.767069,-0.0186 -4.150652,0.47697 -1.064614,0.38131 -1.560009,0.52326 -1.907891,0.60203 0.08397,-0.0591 0.139395,-0.11183 0.265099,-0.17674 0.442309,-0.22836 1.113785,-0.46299 1.893424,-0.65629 1.559277,-0.38658 3.563112,-0.61855 5.196581,-0.51211 z m 20.391004,6.58875 c -0.40552,0 -0.72323,0.006 -0.98702,0.0336 -0.26378,0.0278 -0.48828,0.0516 -0.71624,0.24133 -0.11397,0.0949 -0.20979,0.25178 -0.23822,0.40359 -0.0284,0.1518 -0.005,0.28318 0.0279,0.39584 0.0665,0.22531 0.17919,0.411 0.32297,0.64131 0.17562,0.28128 0.21824,0.47481 0.21446,0.53123 -0.004,0.0564 0.0174,0.0556 -0.14107,0.13849 -0.31696,0.16576 -1.29751,0.30352 -2.85358,0.27234 -0.53916,-0.0108 -0.95222,-0.0158 -1.25884,-0.01 -0.1533,0.003 -0.27925,0.008 -0.38912,0.0191 -0.10987,0.0107 -0.19033,0.0102 -0.33641,0.077 -0.073,0.0334 -0.20097,0.0933 -0.27647,0.28474 -0.0755,0.19142 0.007,0.41023 0.0729,0.49661 0.13212,0.17274 0.20886,0.17942 0.30024,0.22375 0.18275,0.0887 0.41799,0.17223 0.74311,0.28371 0.92971,0.31879 2.31731,0.39634 3.33829,0.20412 0.79648,-0.14996 2.02224,-0.0147 2.40812,0.17777 0.29725,0.14828 0.58361,0.28471 0.81081,0.38705 0.11359,0.0512 0.21219,0.0938 0.29403,0.12661 0.0409,0.0164 0.0773,0.0304 0.11421,0.0429 0.0369,0.0125 0.0547,0.0262 0.15503,0.0367 0.22427,0.0234 0.38616,-0.11985 0.44183,-0.19224 0.0557,-0.0724 0.07,-0.11745 0.0842,-0.15606 0.0284,-0.0772 0.0387,-0.13296 0.0501,-0.19844 0.0206,-0.1177 0.035,-0.26473 0.0481,-0.43098 0.12109,0.14312 0.28127,0.2645 0.4563,0.31885 0.38694,0.12013 0.78222,0.0689 1.34462,-0.0284 0.5624,-0.0973 1.29078,-0.26406 2.26963,-0.48163 l 4.1243,-0.91674 -2.66031,-1.49396 c -0.94198,-0.52908 -2.44213,-1.06134 -3.50676,-1.24386 -0.43168,-0.074 -0.7667,-0.12999 -1.06608,-0.14004 -0.29938,-0.01 -0.61129,0.028 -0.85886,0.24236 -0.14128,0.12233 -0.22189,0.2748 -0.27854,0.43667 -0.0452,-0.0924 -0.0838,-0.18779 -0.15503,-0.2682 -0.21259,-0.24016 -0.51519,-0.3532 -0.82062,-0.40256 -0.30543,-0.0494 -0.6461,-0.0527 -1.07797,-0.0527 z m 0,0.95239 c 0.42184,0 0.73335,0.01 0.92604,0.0408 0.19269,0.0311 0.23418,0.0656 0.2589,0.0935 0.0247,0.0279 0.0739,0.11745 0.10387,0.35399 0.03,0.23653 0.0377,0.594 0.0377,1.07228 0,0.53132 -0.0167,1.00324 -0.0408,1.34979 -0.19029,-0.0879 -0.39686,-0.18422 -0.62942,-0.30024 -0.46998,-0.23446 -1.09369,-0.31726 -1.73788,-0.33124 0.002,-8e-4 0.004,-0.001 0.006,-0.002 0.34617,-0.18104 0.62411,-0.53095 0.65009,-0.91881 0.026,-0.38786 -0.12862,-0.73406 -0.35657,-1.09916 -0.0729,-0.1167 -0.0849,-0.15522 -0.12195,-0.22841 0.0144,-0.002 0.001,-2.7e-4 0.0171,-0.002 0.19416,-0.0204 0.49278,-0.0284 0.88728,-0.0284 z m 3.15898,0.0439 c 0.19503,0.007 0.51116,0.0541 0.93689,0.12713 0.89286,0.15307 2.41122,0.69154 3.20136,1.13533 l 0.48886,0.2744 -1.69292,0.3762 c -0.98127,0.21811 -1.70764,0.38279 -2.22519,0.47233 -0.51755,0.0895 -0.82727,0.0805 -0.9002,0.0579 -0.0365,-0.0113 -0.0159,-0.003 -0.0181,-0.006 -0.002,-0.003 -0.0246,-0.0402 -0.0419,-0.13591 -0.0346,-0.19142 -0.0346,-0.57658 -0.0346,-1.1033 0,-0.4418 0.007,-0.7697 0.0331,-0.971 0.0264,-0.20129 0.0662,-0.2313 0.0491,-0.21652 -0.0171,0.0148 0.009,-0.0174 0.20361,-0.0109 z m 11.11818,2.07429 c -0.39603,0 -0.7153,0.007 -0.97203,0.0263 -0.25673,0.0188 -0.43788,0.034 -0.63976,0.11783 -0.10093,0.0419 -0.24063,0.10678 -0.33382,0.30024 -0.0932,0.19345 -0.0306,0.43979 0.0439,0.55345 0.14912,0.22732 0.29271,0.28338 0.48266,0.38861 0.26108,0.14464 0.52977,0.2739 0.76481,0.37155 0.11752,0.0488 0.22634,0.09 0.32763,0.12144 0.10129,0.0314 0.17782,0.0599 0.32659,0.0599 0.14876,0 0.22531,-0.0285 0.3266,-0.0599 0.10129,-0.0314 0.21011,-0.0726 0.32763,-0.12144 0.23503,-0.0977 0.50373,-0.22692 0.76481,-0.37155 0.18994,-0.10523 0.33353,-0.16129 0.48266,-0.38861 0.0746,-0.11366 0.13712,-0.36 0.0439,-0.55345 -0.0932,-0.19345 -0.23289,-0.25831 -0.33383,-0.30024 -0.20187,-0.0839 -0.38302,-0.099 -0.63975,-0.11783 -0.25673,-0.0188 -0.576,-0.0263 -0.97204,-0.0263 z m 0,0.9524 c 0.0358,0 0.0499,0.002 0.0842,0.002 -0.0111,0.004 -0.03,0.0119 -0.0398,0.015 -0.0602,0.0187 -0.11152,0.0176 -0.0444,0.0176 0.0671,0 0.0158,0.001 -0.0444,-0.0176 -0.01,-0.003 -0.0286,-0.0113 -0.0398,-0.015 0.0344,-1.4e-4 0.0484,-0.002 0.0842,-0.002 z m -56.464248,1.04903 c -0.0047,0.0122 2.4e-5,-0.004 -0.0062,0.0104 -0.231878,0.51799 -0.538094,1.65288 -0.771012,2.71715 -0.09711,0.44369 -0.168473,0.788189 -0.202573,1.07745 -0.0341,0.289261 -0.05781,0.537758 0.08837,0.812872 0.07309,0.137557 0.20705,0.26271 0.347266,0.326593 0.140213,0.06389 0.274529,0.07871 0.399457,0.07958 0.249862,0.0019 0.490159,-0.05092 0.793234,-0.118854 0.116197,-0.02606 0.176676,-0.01884 0.280086,-0.03359 -0.0768,0.08653 -0.126434,0.151405 -0.220142,0.250632 -0.424399,0.4494 -1.003244,1.009541 -1.597318,1.551842 -0.594075,0.5423 -1.205111,1.068768 -1.692402,1.451591 -0.243647,0.19141 -0.457901,0.347001 -0.612884,0.446485 -0.06954,0.04464 -0.121319,0.07325 -0.157612,0.09147 -0.008,-0.004 -0.05355,-0.0088 -0.161748,-0.04289 -0.134453,-0.04232 -0.312925,-0.107857 -0.514696,-0.190169 -0.403543,-0.164621 -0.902761,-0.396192 -1.386481,-0.649054 -0.536411,-0.280414 -1.149619,-0.741972 -1.701186,-1.212848 0.0021,-0.0019 0.0067,-0.0037 0.0088,-0.0057 0.237504,-0.223856 0.370817,-0.50282 0.546738,-0.915707 0.29105,-0.683051 0.899753,-1.110525 1.224214,-1.110525 0.863513,0 1.614009,-0.331248 2.081527,-0.897621 0.467516,-0.566377 0.62651,-1.362137 0.384988,-2.153877 -0.113867,-0.37322 -0.09425,-0.45952 -0.0181,-0.55862 0.07616,-0.0991 0.368954,-0.28482 0.9617,-0.47801 0.994558,-0.32414 1.649888,-0.44597 1.925981,-0.44855 z m 7.940601,4.719611 c 1.277398,-0.04166 2.508025,0.02537 3.432866,0.197405 0.46242,0.08602 0.847976,0.199983 1.112075,0.323493 0.264099,0.123513 0.381357,0.25431 0.403077,0.302824 -0.05426,-0.121203 0.01437,0.119893 0.0072,0.406694 -0.0019,0.07366 -0.01749,0.205546 -0.02222,0.292488 -0.1124,-0.02929 -0.215265,-0.04979 -0.341582,-0.05633 -0.45275,-0.02341 -0.975194,0.117293 -1.642277,0.327113 -0.667081,0.209819 -1.441051,0.502716 -2.218986,0.833024 -1.555872,0.660615 -3.089363,1.428711 -3.85041,2.086695 -0.489395,0.423116 -0.984107,0.507772 -1.1405,0.470255 -0.0782,-0.01876 -0.0609,-0.01691 -0.06718,-0.03411 -0.0063,-0.0172 -0.02522,-0.121123 0.06976,-0.333311 0.101105,-0.225857 0.09848,-0.485175 0.02997,-0.7028 -0.0685,-0.217625 -0.191415,-0.406307 -0.34675,-0.583943 -0.310665,-0.355272 -0.762031,-0.676233 -1.337386,-0.97617 l -1.107424,-0.577225 0.746723,-0.581359 c 0.459134,-0.357592 1.401212,-0.716171 2.534213,-0.960149 1.132999,-0.243977 2.46139,-0.392941 3.73879,-0.434599 z m 4.825545,2.65617 c -0.102373,0.880693 -0.252545,1.927196 -0.464571,3.046842 -0.234535,1.238578 -0.447781,2.407036 -0.603065,3.294372 -0.07764,0.443669 -0.140817,0.816776 -0.185002,1.095023 -0.02209,0.139126 -0.03933,0.254272 -0.05168,0.345199 -0.0029,0.02167 -0.0026,0.03724 -0.0052,0.05478 -0.335222,-0.02717 -1.11012,-0.187955 -2.551782,-0.516247 -1.094526,-0.249241 -2.770897,-1.171882 -3.494879,-1.909445 l -1.135329,-1.156002 1.12758,-0.895551 c 1.324279,-1.052079 4.079404,-2.346127 6.945828,-3.212208 0.168098,-0.05079 0.297093,-0.09824 0.418063,-0.14676 z m -13.015743,0.519348 c 0.130823,-0.0213 0.540112,0.09231 1.378728,0.464053 0.670856,0.297386 0.987269,0.532979 1.037145,0.582393 -0.01926,0.03174 -0.03735,0.07048 -0.129709,0.165883 -0.216239,0.223348 -0.752557,0.447829 -1.406115,0.513662 -0.653558,0.06584 -1.412084,-0.0085 -2.058789,-0.233061 -0.01564,-0.0054 -0.0031,-7.93e-4 -0.01447,-0.0057 0.02326,-0.07163 0.132197,-0.322546 0.443384,-0.729671 0.220501,-0.288478 0.387731,-0.494509 0.510047,-0.610298 0.122317,-0.11579 0.174366,-0.136631 0.239779,-0.147278 z m 39.871985,6.400642 c -0.55313,0.531979 -1.06139,1.197988 -1.48776,1.95027 l -1.40457,2.477884 1.28468,2.685108 c 0.73767,1.541941 1.77501,2.839492 2.86752,3.28972 1.20478,0.496504 2.87375,1.107583 4.33462,1.605587 0.73043,0.249002 1.4076,0.469538 1.95027,0.633037 0.54267,0.163499 0.90019,0.270793 1.1932,0.297656 0.3473,0.03184 0.98916,0.09287 1.42214,0.135393 0.1463,0.01437 0.0736,-0.03724 0.0997,0.05684 0.0261,0.09408 0.0255,0.403032 -0.0935,0.867648 -0.24386,0.951669 -0.12835,2.234629 0.27544,3.145023 0.39297,0.88601 0.38011,1.3825 0.0305,1.94252 -0.26051,0.41725 -0.46184,0.76952 -0.3545,1.21336 0.0537,0.22193 0.20622,0.4107 0.37155,0.52969 0.15726,0.11317 0.33151,0.18276 0.52555,0.24804 -0.0729,0.0494 -0.10702,0.0788 -0.20309,0.14005 -0.4333,0.27614 -1.42183,0.4596 -1.89188,0.36173 -0.8459,-0.17613 -1.90375,0.0448 -2.66081,0.51987 -0.47639,0.29894 -0.83913,0.57337 -0.97152,1.02887 -0.13239,0.45551 0.0606,0.88643 0.33848,1.31207 0.21192,0.32461 0.25073,0.49739 0.23409,0.61857 -0.0166,0.12117 -0.11133,0.30081 -0.41134,0.58497 -0.20811,0.19713 -0.38469,0.38098 -0.51935,0.60462 -0.13466,0.22364 -0.21297,0.49462 -0.20774,0.76894 0.0105,0.54865 0.25949,1.07766 0.67903,1.93839 0.38221,0.78416 0.55741,1.30138 0.58911,1.93631 0.0317,0.63493 -0.0917,1.4232 -0.3793,2.67632 -0.28981,1.26279 -0.51689,1.93856 -0.62632,2.12391 -0.0409,-0.0243 -0.0492,-0.0232 -0.15296,-0.11214 -0.29815,-0.25559 -0.37085,-0.39482 -0.38241,-0.49816 -0.0116,-0.10334 0.0392,-0.31133 0.27492,-0.68885 0.15054,-0.24113 0.26946,-0.45649 0.339,-0.69453 0.0695,-0.23804 0.0733,-0.51999 -0.031,-0.76326 -0.20861,-0.48655 -0.64551,-0.73532 -1.28778,-1.09606 -1.06154,-0.59625 -2.28023,-0.78696 -3.50676,-0.55604 -0.8316,0.15657 -1.22339,0.15869 -2.03708,-0.3483 -0.81369,-0.50698 -1.98857,-1.58384 -3.99924,-3.5481 -0.8094,-0.79072 -2.14404,-1.49879 -3.21892,-1.69137 -0.82023,-0.14696 -3.03304,-0.85071 -4.74855,-1.53376 -0.87972,-0.35025 -1.64386,-0.62141 -2.18695,-0.78083 -0.1707,-0.0501 -0.28746,-0.069 -0.41806,-0.0966 0.11291,-0.12429 0.19971,-0.23354 0.31678,-0.36018 0.7989,-0.86422 1.59431,-1.8884 2.2443,-2.85616 0.64999,-0.96776 1.15339,-1.85857 1.37098,-2.55127 0.70464,-2.243263 0.46698,-5.343875 -0.62735,-7.102404 0.005,0.0081 -0.0131,0.02812 0.0248,-0.0832 0.0379,-0.11132 0.15017,-0.311046 0.35347,-0.562758 0.40659,-0.50342 1.15963,-1.217067 2.27118,-2.139921 0.893,-0.74142 1.70354,-1.478304 2.30012,-2.078942 0.29828,-0.300318 0.54236,-0.565147 0.72295,-0.790133 0.0903,-0.112491 0.16453,-0.214387 0.22582,-0.31781 0.0613,-0.103423 0.13229,-0.187962 0.13229,-0.410826 0,0.03035 0.0965,-0.250256 0.36949,-0.545187 0.27303,-0.294932 0.67402,-0.633643 1.11518,-0.943613 0.88231,-0.619937 2.00015,-1.099156 2.39985,-1.099156 0.47561,0 0.98574,-0.176422 1.53376,-0.432533 0.54802,-0.256109 1.11389,-0.601662 1.59318,-0.995288 0.008,-0.0066 0.0168,-0.0085 0.0248,-0.01498 z m 7.64242,0.165364 c 0.70791,0.05953 1.41244,0.412258 2.21537,1.147734 0.42803,0.392054 1.09753,0.683918 1.95131,0.991671 0.85377,0.307753 1.87704,0.599025 2.92178,0.841293 1.04474,0.242266 2.10897,0.435007 3.04478,0.542602 0.9358,0.107596 1.72491,0.142002 2.31768,0.01447 0.31219,-0.06717 0.96312,-0.02622 1.82883,0.187584 0.86571,0.213802 1.95637,0.584669 3.22926,1.105877 1.90641,0.780616 3.41553,1.536692 4.2261,2.064472 0.0909,0.05919 0.13616,0.100163 0.20826,0.152445 -0.0951,0.05377 -0.17741,0.121015 -0.26252,0.191204 -0.18067,0.149 -0.36151,0.339815 -0.55139,0.568441 -0.37976,0.45725 -0.78879,1.064813 -1.15703,1.736328 -0.52605,0.959335 -0.83926,1.618274 -0.94775,2.218468 -0.10849,0.600194 0.0579,1.146916 0.38344,1.593702 0.26108,0.358362 0.42495,0.630081 0.47698,0.785482 0.052,0.155403 0.0528,0.149701 -0.0248,0.259416 -0.15514,0.219432 -0.95806,0.7089 -2.53111,1.442807 -1.21428,0.566534 -1.98682,0.870356 -2.52232,0.971516 -0.5355,0.10116 -0.82827,0.0411 -1.29967,-0.17518 -0.54623,-0.250598 -1.0231,-0.386801 -1.46347,-0.382925 -0.44037,0.0039 -0.87464,0.193914 -1.11001,0.552425 -0.23538,0.3585 -0.27281,0.79912 -0.20619,1.28157 0.0666,0.48246 0.24379,1.02746 0.52813,1.64796 0.25198,0.54988 0.4055,0.99134 0.45837,1.33119 0.0529,0.33984 0.0187,0.56439 -0.0966,0.78548 -0.23076,0.44217 -0.95239,0.94445 -2.3797,1.57665 -0.86561,0.3834 -1.29816,0.52584 -1.541,0.51056 -0.24283,-0.0153 -0.49654,-0.1712 -1.08778,-0.64337 -0.56034,-0.4475 -0.88882,-0.8161 -1.05214,-1.13947 -0.16331,-0.32337 -0.19502,-0.6132 -0.11265,-1.04335 0.0769,-0.40142 -0.15841,-0.64141 -0.36587,-0.81752 -0.20746,-0.1761 -0.46627,-0.31433 -0.76274,-0.41186 -0.13152,-0.0433 -0.20945,-0.0865 -0.2403,-0.10903 0.008,0.0228 0.007,-0.11231 0.19327,-0.41135 0.48455,-0.77612 0.4446,-1.76277 -0.004,-2.77451 -0.27826,-0.627387 -0.3888,-1.879316 -0.23306,-2.487183 0.14916,-0.582189 0.2012,-1.078074 0.006,-1.530654 -0.19499,-0.452583 -0.60192,-0.741847 -1.11156,-0.975651 -0.35939,-0.164876 -0.73601,-0.29545 -1.07435,-0.379307 -0.33834,-0.08385 -0.58922,-0.160496 -0.93534,-0.06408 0.13722,-0.03822 -0.0206,-0.0052 -0.19121,-0.03359 -0.17065,-0.02837 -0.40787,-0.08062 -0.68367,-0.151929 -0.55161,-0.142624 -1.26147,-0.360583 -1.98076,-0.616498 -1.46651,-0.521764 -3.21333,-1.127559 -3.9057,-1.353407 -0.20093,-0.06554 -0.59236,-0.355971 -0.9679,-0.813904 -0.37555,-0.457935 -0.75316,-1.070546 -1.05162,-1.740463 -0.52738,-1.183767 -0.74448,-1.739527 -0.72709,-2.17351 0.0174,-0.433983 0.27348,-0.940713 0.89194,-2.031918 0.39169,-0.691108 0.73468,-1.204756 0.99994,-1.526006 0.049,-0.05936 0.0759,-0.07616 0.11885,-0.121954 -0.002,0.281675 -0.03,0.661673 -0.15502,1.247984 -0.29581,1.386525 -0.29663,2.67181 0.22272,3.503663 0.15262,0.244462 0.27052,0.437957 0.4253,0.608232 0.15477,0.170275 0.43164,0.344175 0.72347,0.310576 0.29182,-0.0336 0.47455,-0.185034 0.66972,-0.3576 0.19517,-0.17257 0.40733,-0.39632 0.68317,-0.688333 0.41519,-0.439528 0.69732,-0.812717 0.82061,-1.22783 0.1233,-0.415116 -0.0221,-0.910905 -0.34416,-1.187008 -0.22136,-0.189754 -0.33842,-0.350467 -0.38085,-0.455269 -0.0425,-0.104801 -0.0443,-0.153927 0.008,-0.276987 0.10402,-0.246118 0.58138,-0.723855 1.50378,-1.308447 0.93238,-0.590917 1.6966,-0.821237 2.40451,-0.761711 z m -39.246692,1.595253 c 0.48858,0.02117 1.126321,0.104034 1.766816,0.243395 1.357858,0.29545 2.406819,0.907341 2.998782,1.598869 0.591966,0.691528 0.750171,1.404377 0.42685,2.135788 -0.124889,0.282546 -0.257688,0.533011 -0.367422,0.71365 -0.08012,-0.05983 -0.149669,-0.109974 -0.25528,-0.194302 -0.335547,-0.26793 -0.779365,-0.644017 -1.241269,-1.057301 -0.487945,-0.436589 -1.0434,-0.859878 -1.55856,-1.199925 -0.515162,-0.340051 -0.960207,-0.596779 -1.363226,-0.706419 -0.450657,-0.122608 -0.864931,-0.486252 -1.064017,-0.843876 -0.09954,-0.17881 -0.142107,-0.350117 -0.140559,-0.46302 0.0016,-0.112903 0.02286,-0.157555 0.08682,-0.212389 -0.09349,0.08015 -0.02096,0.01349 0.118854,-0.0031 0.139814,-0.01659 0.347922,-0.02196 0.592214,-0.01138 z m 15.430582,3.816305 c 0.92192,0.05943 1.72444,0.380814 2.67374,1.031978 0.39863,0.273439 0.69536,0.48456 0.88418,0.641821 0.16625,0.138456 0.20378,0.207407 0.21291,0.21704 -0.0554,0.07495 -0.20861,0.224779 -0.4377,0.421164 -0.32803,0.281191 -0.62152,0.480573 -0.84698,0.597895 -0.0129,0.0067 -0.009,0.0016 -0.0212,0.0078 0.0317,-0.06739 0.0143,-0.06338 0.0677,-0.148828 0.14516,-0.2325 0.25984,-0.438023 0.32505,-0.670243 0.0652,-0.232219 0.0583,-0.523256 -0.0703,-0.756025 -0.25714,-0.465543 -0.71179,-0.627431 -1.37976,-0.88832 -1.11782,-0.436589 -2.387279,-0.435285 -3.426666,-0.142627 -0.519694,0.146331 -0.985173,0.365707 -1.347205,0.677479 -0.362032,0.311772 -0.627084,0.747549 -0.628385,1.245918 -7.94e-4,0.296669 -0.05723,0.463777 -0.09508,0.518832 -0.03785,0.05505 -0.04953,0.07773 -0.232545,0.08837 -0.366032,0.02127 -1.268238,-0.228976 -2.64015,-0.830958 -0.895561,-0.39297 -1.457079,-0.718754 -1.71359,-0.957564 -0.256508,-0.238811 -0.24915,-0.270802 -0.185002,-0.481108 0.05643,-0.184989 0.103368,-0.287089 0.127643,-0.329695 0.04009,0.0037 0.442291,0.100161 1.179256,0.426847 0.748625,0.331848 1.310484,0.5271 1.938899,0.524515 0.628414,-0.0026 1.25617,-0.191875 2.192115,-0.5271 1.431057,-0.512556 2.501127,-0.726577 3.42305,-0.667141 z m 61.85927,8.595857 c -0.0291,0 0.1447,0.02876 0.35605,0.121438 0.21136,0.09268 0.48406,0.235583 0.78755,0.414446 0.60699,0.357728 1.34097,0.860214 2.03709,1.410251 0.42078,0.332483 0.77211,0.641642 1.09244,0.945682 -0.006,0.006 -0.0128,0.0104 -0.0191,0.0165 -0.12824,0.12515 -0.26817,0.28459 -0.4253,0.478 -0.31426,0.38682 -0.69052,0.90541 -1.06557,1.47743 -0.59003,0.89993 -0.94765,1.3357 -1.32601,1.54875 -0.37837,0.21304 -0.88761,0.27285 -1.89291,0.27285 h -1.43868 l 0.46871,-0.7767 c 0.3567,-0.59131 0.58121,-1.11592 0.64079,-1.65675 0.0596,-0.54083 -0.0587,-1.06905 -0.30128,-1.61592 -0.28744,-0.648087 -0.25369,-1.338446 -0.0227,-1.840197 0.23095,-0.50175 0.61039,-0.795816 1.10897,-0.795816 z m -17.08268,2.015897 c 0.17753,-0.0089 0.29967,0.009 0.36277,0.03566 0.1262,0.05329 0.16936,0.09058 0.1819,0.425813 0.0125,0.335227 -0.0897,0.896467 -0.32608,1.630387 v 5.3e-4 c -0.49057,1.52311 -0.38877,2.52805 0.39119,3.82096 0.60487,1.00267 1.20423,1.67847 1.98128,1.96629 0.77705,0.28781 1.62788,0.12556 2.58175,-0.3142 2.05784,-0.94869 5.63403,-1.5503 10.00146,-1.62212 l 4.30258,-0.0708 1.63608,-2.36523 c 0.41902,-0.60578 0.76357,-1.15515 0.99011,-1.57148 0.0341,-0.0627 0.0472,-0.10538 0.076,-0.16175 0.57288,0.7187 0.95286,1.45373 1.2206,2.36523 v 5.3e-4 c 0.20112,0.68468 0.4526,1.33987 0.70538,1.86294 0.12639,0.26153 0.25261,0.48935 0.38086,0.67851 0.12825,0.18916 0.23145,0.34548 0.46405,0.46871 0.0688,0.0365 0.0415,-0.0393 0.0212,0.10128 -0.0203,0.14058 -0.1461,0.44111 -0.40566,0.80925 -0.5191,0.73631 -1.53191,1.75921 -2.94555,2.91197 -0.97339,0.79374 -1.55808,1.31078 -1.88051,1.81178 -0.16121,0.2505 -0.26578,0.53375 -0.22117,0.8294 0.0446,0.29566 0.22796,0.52348 0.42478,0.68937 0.34155,0.28788 0.76787,0.49366 1.20768,0.39377 0.4398,-0.0999 0.7658,-0.39503 1.18132,-0.82114 0.68558,-0.70306 1.74462,-1.51955 2.72335,-2.1425 0.48936,-0.31148 0.96024,-0.5762 1.34823,-0.75706 0.38799,-0.18086 0.72087,-0.262 0.78083,-0.262 0.0731,0 0.34399,0.064 0.61857,0.1943 0.27459,0.13036 0.57067,0.31779 0.79375,0.50902 0.25017,0.21456 0.33442,0.39898 0.35192,0.52968 0.0175,0.13077 -0.0142,0.2376 -0.12764,0.36587 -0.22684,0.25653 -0.84464,0.50884 -1.69189,0.37 -0.42361,-0.0694 -0.75406,-0.0925 -1.0666,-0.009 -0.15627,0.0419 -0.35641,0.11619 -0.47594,0.35709 -0.0206,0.0416 -0.006,0.0846 -0.0155,0.12764 -0.10974,-0.014 -0.13266,-0.004 -0.30385,-0.0506 -0.54616,-0.1486 -0.90475,-0.22095 -1.21543,-0.20826 -0.15535,0.006 -0.37497,-0.0123 -0.55966,0.27802 -0.0923,0.14515 -0.0943,0.34283 -0.0574,0.45992 0.0369,0.11709 0.0899,0.18566 0.14056,0.24495 0.20267,0.23717 0.45877,0.37932 0.84129,0.57515 0.38253,0.19584 0.87753,0.40843 1.47433,0.62219 1.02912,0.3686 1.64258,0.58295 2.27635,0.53382 0.63377,-0.0491 1.13376,-0.37043 1.86758,-0.87799 1.57369,-1.08842 2.50028,-1.61152 3.28301,-1.72392 0.78272,-0.11241 1.55171,0.14188 2.92798,0.80098 0.88544,0.42404 1.48805,0.79597 1.82108,1.09916 0.33303,0.3032 0.37974,0.46633 0.3576,0.63562 -0.0666,0.50896 -0.0864,0.93238 -0.0387,1.29915 0.0476,0.36676 0.16959,0.70872 0.45371,0.93741 0.28412,0.22869 0.66566,0.26405 1.01441,0.1943 0.34876,-0.0697 0.71,-0.2298 1.12706,-0.46405 0.58635,-0.32934 0.9931,-0.47555 1.82728,-0.50798 0.83419,-0.0324 2.08155,0.0769 4.16461,0.32142 2.21621,0.26012 3.44517,0.44489 4.33927,0.7643 0.8941,0.3194 1.50548,0.7752 2.5616,1.68052 1.63787,1.40402 3.49849,2.33413 5.79241,2.90576 1.49385,0.37227 2.28727,0.62516 2.69958,0.91364 0.4123,0.28848 0.56768,0.63005 0.83354,1.4764 0.72729,2.31534 -0.1015,4.91059 -2.52853,7.48068 -1.09485,1.15942 -2.3983,2.80341 -2.97398,3.77548 -0.4865,0.82155 -1.62335,2.16277 -2.41536,2.84169 -0.73191,0.62741 -1.21641,1.11086 -1.40663,1.84381 -0.19022,0.73295 -0.0982,1.57956 0.0822,3.05201 0.33562,2.74031 -0.28784,6.81794 -1.39733,10.44536 -1.1095,3.62742 -2.77578,6.83176 -4.12998,7.81348 -0.95071,0.6892 -1.618,0.82525 -3.19051,0.6165 -0.69744,-0.0926 -1.31055,-0.11221 -1.81591,-0.0537 -0.50535,0.0585 -0.93951,0.15332 -1.22318,0.54674 0.018,-0.025 -0.0818,0.0805 -0.23668,0.18397 -0.15489,0.1035 -0.36894,0.22852 -0.61959,0.36018 -0.50131,0.26332 -1.14991,0.55515 -1.80765,0.80305 -1.4145,0.53313 -3.42064,1.60897 -4.58835,2.46394 -0.96408,0.70587 -1.53215,1.09737 -1.78904,1.71927 -0.12844,0.31095 -0.13342,0.651 -0.0672,0.9803 0.0662,0.32931 0.19279,0.66942 0.35605,1.09347 0.67343,1.74913 0.23409,3.8538 -1.27693,5.70302 -0.60273,0.73767 -1.04541,1.81014 -1.04541,2.68821 0,0.19715 -0.12405,0.65701 -0.35399,1.12964 -0.22993,0.47264 -0.55473,0.97739 -0.89813,1.37253 -0.7542,0.86784 -2.02621,2.59336 -2.95538,3.98683 l -1.8526,-1.46037 c -1.35579,-1.06838 -3.61982,-2.4386 -5.1511,-3.11557 -1.14554,-0.50644 -2.01257,-1.00201 -2.5921,-1.4702 -0.57952,-0.46819 -0.85398,-0.89221 -0.92139,-1.25574 -0.0674,-0.36352 0.0339,-0.73401 0.41342,-1.20974 0.37956,-0.47573 1.03947,-1.01559 1.97559,-1.58698 1.07039,-0.65337 2.28051,-1.79971 2.84892,-2.74196 0.40945,-0.67872 0.66988,-1.16915 0.66817,-1.73736 -0.002,-0.5682 -0.26368,-1.05952 -0.67696,-1.74459 -0.23452,-0.38878 -0.45226,-0.82986 -0.60616,-1.2113 -0.1539,-0.38144 -0.23151,-0.74228 -0.23151,-0.78858 0,-0.44944 -0.24721,-0.80126 -0.58291,-1.16789 -0.33571,-0.36663 -0.7968,-0.74747 -1.3746,-1.1529 -1.15559,-0.81086 -2.77812,-1.71109 -4.73304,-2.61173 -1.18325,-0.54513 -1.912,-0.96085 -2.35179,-1.35702 -0.4398,-0.39617 -0.62588,-0.75962 -0.77619,-1.37821 -0.24843,-1.02241 -0.91872,-2.49449 -1.55907,-3.4494 -0.40498,-0.60393 -0.59163,-1.00908 -0.61495,-1.13327 0.006,-0.003 -0.008,0.002 0.0522,-0.0176 0.3863,-0.12708 0.64887,-0.4079 0.89297,-0.74259 0.2441,-0.3347 0.44905,-0.73813 0.57412,-1.16531 0.37785,-1.29051 -0.21478,-2.76552 -1.19527,-4.02301 -0.98049,-1.25748 -2.39013,-2.32332 -3.92017,-2.69131 -0.91201,-0.21935 -1.40544,-0.41431 -1.75287,-0.72243 -0.34743,-0.30812 -0.61417,-0.79023 -0.9648,-1.69189 -0.35887,-0.92289 -0.73565,-1.60497 -1.33532,-2.16473 -0.59966,-0.55975 -1.38289,-0.9772 -2.54041,-1.48001 -1.56301,-0.67895 -3.91319,-1.47664 -5.32474,-1.80247 -1.00453,-0.23187 -1.5982,-0.44843 -2.05827,-0.79117 -0.46007,-0.34273 -0.83362,-0.84622 -1.33687,-1.73736 -0.3328,-0.58931 -0.63673,-1.19123 -0.85318,-1.67484 -0.10822,-0.2418 -0.19462,-0.45466 -0.25063,-0.61495 -0.056,-0.16028 -0.0708,-0.29955 -0.0708,-0.23822 0,-0.57641 -0.33474,-1.03681 -0.82992,-1.29915 -0.28034,-0.14852 -0.4826,-0.11234 -0.73846,-0.0884 -0.25585,0.024 -0.54999,0.079 -0.88005,0.15658 -0.66012,0.15512 -1.46029,0.40249 -2.26859,0.69143 -0.8083,0.28895 -1.62175,0.61894 -2.30219,0.94207 -0.68044,0.32312 -1.20892,0.60196 -1.54771,0.95188 -0.25903,0.26755 -0.83371,0.31745 -1.52652,0.0351 -0.69281,-0.28232 -1.41165,-0.87475 -1.79214,-1.5906 -0.277,-0.52117 -0.58244,-0.9193 -1.02216,-1.13844 -0.43971,-0.21913 -0.93933,-0.21309 -1.49086,-0.0987 -0.61532,0.12761 -1.52814,-0.12575 -2.44326,-0.7338 -0.91512,-0.60806 -1.82294,-1.54641 -2.47117,-2.64429 -0.44901,-0.76044 -0.61221,-1.09967 -0.59789,-1.5844 0.0143,-0.48473 0.2514,-1.21908 0.76894,-2.58744 0.50949,-1.34705 0.82462,-2.03181 1.23352,-2.44584 0.40889,-0.41403 0.9936,-0.65693 2.19108,-1.04077 0.82373,-0.26404 1.51454,-0.42293 2.02417,-0.478 0.50961,-0.0551 0.8257,0.0322 0.86247,0.0579 0.2487,0.1735 0.49085,0.33552 0.83768,0.33435 0.34682,-0.001 0.65757,-0.25206 0.83612,-0.54364 0.35711,-0.58317 0.58689,-1.51846 0.99735,-3.23081 0.28711,-1.19771 0.43167,-2.02733 0.38861,-2.79983 -0.0431,-0.7725 -0.28238,-1.4507 -0.68884,-2.28462 -0.4132,-0.84771 -0.58431,-1.33086 -0.58911,-1.55287 -0.002,-0.11101 0.0126,-0.16448 0.0708,-0.26149 0.0582,-0.097 0.17441,-0.23059 0.3576,-0.40411 0.36593,-0.34662 0.6326,-0.70233 0.6966,-1.13843 0.064,-0.4361 -0.0998,-0.85287 -0.36277,-1.25574 -0.1433,-0.2195 -0.16831,-0.3747 -0.15658,-0.47439 0.0117,-0.0997 0.0512,-0.17519 0.17157,-0.26561 0.24077,-0.18085 0.84463,-0.3217 1.64848,-0.15503 0.80409,0.16671 1.74832,0.007 2.39882,-0.4532 0.27979,-0.19784 0.38433,-0.21205 0.37517,-0.2248 0.0186,0.0318 0.0323,0.0478 0.062,0.12351 0.13551,0.34553 0.391,0.64346 0.72657,1.00614 0.33557,0.36268 0.74807,0.74902 1.17254,1.08624 0.70426,0.55949 1.16006,0.9184 1.76733,0.98444 0.60727,0.066 1.15342,-0.17329 2.04742,-0.55811 1.09281,-0.47038 2.35385,-1.27174 2.9838,-1.95337 0.4495,-0.48641 0.77479,-0.92543 0.78548,-1.50068 0.0107,-0.57525 -0.23412,-1.12688 -0.64647,-2.02675 -0.25298,-0.55208 -0.42029,-0.99172 -0.4992,-1.29863 -0.0668,-0.25986 -0.0419,-0.34089 -0.0465,-0.35657 0.017,1e-4 0.008,-0.002 0.0336,5.3e-4 0.16955,0.0201 0.49885,0.12318 0.92759,0.31988 0.587,0.2693 1.19562,0.37775 1.92495,0.22117 0.72932,-0.15658 1.59307,-0.53251 2.93418,-1.18132 0.93871,-0.45413 1.69792,-0.763191 2.26601,-0.921909 0.28405,-0.07936 0.517,-0.115078 0.69453,-0.124023 z m -16.46411,5.18418 c -0.01,0.0967 -0.0134,0.19237 -0.0134,0.28784 -0.0417,-0.0444 -0.11525,-0.0542 -0.17002,-0.0915 0.0669,-0.0548 0.12886,-0.11843 0.18346,-0.19637 z m -29.239556,2.7404 c 0.12636,0.13867 0.247134,0.23157 0.415478,0.3297 0.204308,0.11908 0.457638,0.24693 0.752928,0.38447 0.59057,0.27508 1.34737,0.58691 2.15594,0.89297 1.61714,0.61211 3.41427,1.19852 4.50825,1.39733 l 1.02474,0.18603 -0.64492,1.62316 c -0.33295,0.83763 -0.64699,1.36603 -1.1529,1.84382 -0.50591,0.47778 -1.23341,0.91549 -2.39313,1.47433 -2.21553,1.06757 -3.28792,1.99955 -3.84215,3.43906 -0.19304,0.50142 -0.341438,0.86903 -0.464051,1.08417 -0.122616,0.21514 -0.176789,0.24396 -0.23151,0.25942 -0.05472,0.0155 -0.220332,0.0143 -0.542603,-0.0956 -0.32227,-0.10994 -0.776919,-0.31198 -1.383895,-0.58808 -0.486698,-0.22139 -0.953653,-0.44067 -1.310515,-0.61392 -0.120465,-0.0585 -0.205262,-0.10178 -0.296622,-0.14779 0.02241,-0.0384 0.0263,-0.053 0.05426,-0.0971 0.184147,-0.2907 0.481105,-0.69555 0.83354,-1.11983 l 1.817976,-2.18798 -1.995225,-0.44752 c -0.636673,-0.14272 -0.936729,-0.38122 -1.080556,-0.71003 -0.143828,-0.32881 -0.13939,-0.85281 0.13126,-1.59577 0.460166,-1.2632 1.708986,-3.08669 3.643704,-5.31079 z m 10.319266,3.90364 c -0.0205,0.004 0.0192,-0.02 0.19844,0.15916 0.17928,0.17915 0.42741,0.52067 0.71778,1.00201 0.69438,1.15107 1.76766,2.12281 2.91972,2.77399 1.15207,0.65117 2.38778,1.00061 3.46698,0.76843 0.66281,-0.1426 1.87718,-0.0179 2.41173,0.22737 0.48323,0.22169 0.64046,0.39416 0.64234,0.39895 0.001,0.002 0.0109,7.9e-4 -0.0139,0.0827 -0.0249,0.0819 -0.0942,0.22603 -0.21187,0.41444 -0.20094,0.32185 -0.34205,0.66098 -0.41496,0.98289 -0.0481,0.21231 -0.0553,0.42536 -0.009,0.6413 -0.0475,0.0334 -0.0724,0.0572 -0.16795,0.10594 -0.30933,0.15773 -0.82451,0.34696 -1.4273,0.50177 -1.39886,0.35927 -2.29911,0.66311 -2.99672,1.37667 -0.69761,0.71355 -1.11958,1.7284 -1.75855,3.44733 -0.47674,1.28248 -0.74548,2.01191 -0.72192,2.7466 0.0236,0.73469 0.35722,1.32706 0.90641,2.24638 0.73861,1.23641 1.84321,2.33287 2.98845,3.09593 1.14523,0.76307 2.32412,1.23541 3.34914,1.00563 0.33079,-0.0742 0.52199,-0.0477 0.70177,0.0517 0.17978,0.0994 0.37983,0.31208 0.59273,0.71261 0.44564,0.83841 1.28897,1.58615 2.15439,1.8216 0.62668,0.17051 1.19948,0.83194 1.55288,1.91823 0.3534,1.08629 0.46686,2.54965 0.23771,4.12171 -0.29795,2.04431 -0.15688,3.34997 0.55707,4.51808 0.38807,0.63487 0.52511,0.9592 0.524,1.22111 -0.001,0.26191 -0.14587,0.61259 -0.54053,1.28158 -0.47419,0.8038 -1.32635,1.95958 -1.80765,2.46599 -0.20967,0.22062 -0.35533,0.37527 -0.4749,0.50643 -0.41343,-0.41732 -0.86466,-0.83274 -1.35341,-1.24437 -1.90957,-1.60821 -4.36431,-3.14219 -7.07915,-4.3651 -1.90819,-0.85955 -2.96419,-1.39132 -3.69952,-1.99523 -0.73533,-0.60391 -1.20317,-1.30786 -1.9451,-2.62103 -0.93431,-1.65366 -2.66188,-4.04486 -3.91294,-5.41517 -1.17024,-1.28176 -2.48778,-3.26395 -2.83187,-4.17495 -0.64596,-1.71022 -1.53167,-3.41306 -2.457731,-4.81056 -0.926058,-1.39749 -1.859106,-2.48911 -2.764687,-2.99775 -0.537395,-0.30183 -1.281576,-1.25018 -1.735296,-2.19934 -0.226859,-0.47459 -0.390266,-0.94989 -0.457335,-1.32447 -0.0541,-0.30215 -0.01106,-0.43696 0.01394,-0.52607 0.105519,0.007 0.237694,0.0203 0.42323,0.0625 0.442707,0.10076 1.048375,0.30327 1.674834,0.57723 1.383789,0.60516 2.242952,0.95778 3.055625,0.72243 0.40634,-0.11767 0.73115,-0.40624 0.97669,-0.77204 0.24553,-0.3658 0.44241,-0.8193 0.66301,-1.39113 0.40071,-1.03869 1.26808,-1.80909 3.35328,-2.81223 1.20944,-0.58184 2.02434,-1.05049 2.63136,-1.62058 0.60702,-0.57008 0.97319,-1.23547 1.27124,-2.08824 0.20524,-0.58722 0.39159,-1.02444 0.54881,-1.29139 0.15721,-0.26696 0.26958,-0.31324 0.24908,-0.30903 z m 10.604,7.8698 c 0.0478,0.0613 0.10841,0.11794 0.16433,0.17622 -0.0917,0.002 -0.18063,-0.001 -0.27853,0.007 0.043,-0.0436 0.0763,-0.11958 0.1142,-0.18294 z m 11.41946,14.16761 c 0.29683,-0.0195 0.39415,0.0266 0.49558,0.12248 0.10142,0.0959 0.22038,0.31279 0.32763,0.68109 0.37254,1.27946 1.07832,2.50683 1.92081,3.47679 0.84249,0.96996 1.81347,1.69858 2.82205,1.89807 0.7781,0.15391 3.0541,0.87217 4.90254,1.56632 1.42466,0.53501 2.26413,0.9188 2.77813,1.31154 0.514,0.39275 0.75073,0.78775 1.03042,1.53273 0.47836,1.27407 0.87982,2.11037 1.51723,2.69131 0.6374,0.58093 1.45056,0.82706 2.5802,1.00872 1.27798,0.20552 1.95327,0.68166 2.90111,2.09341 1.00962,1.50377 1.10041,2.7694 0.74518,3.41478 -0.17762,0.32269 -0.44895,0.52992 -0.88005,0.61909 -0.4311,0.0892 -1.03018,0.0374 -1.76889,-0.25115 -1.23278,-0.48149 -2.59953,-0.29842 -3.85092,0.38757 -1.25139,0.68599 -2.41084,1.86688 -3.33778,3.43493 -0.89816,1.51937 -1.63857,2.37236 -2.51355,2.81068 -0.87497,0.43832 -1.96618,0.50632 -3.66179,0.28836 -1.97107,-0.25338 -3.21945,-0.12525 -4.3496,0.50953 -0.33259,0.1868 -0.58007,0.31583 -0.74621,0.3762 -0.16615,0.0604 -0.22273,0.0579 -0.28525,0.0403 -0.12505,-0.0351 -0.45753,-0.32839 -1.06816,-1.0635 -0.61228,-0.73709 -1.61301,-2.74596 -2.07636,-4.26692 -0.50059,-1.64333 -1.38336,-3.54864 -2.12855,-4.44573 -0.51832,-0.62398 -0.70974,-0.94905 -0.7307,-1.14928 -0.021,-0.20023 0.0913,-0.4954 0.47542,-1.13223 0.35326,-0.58559 0.57521,-1.059 0.61082,-1.5565 0.0356,-0.49749 -0.15027,-0.95809 -0.45165,-1.39578 -0.027,-0.0392 -0.12608,-0.26031 -0.20619,-0.56275 -0.0801,-0.30245 -0.1585,-0.6954 -0.22635,-1.14309 -0.13569,-0.89536 -0.23194,-2.01052 -0.25321,-3.10937 -0.0218,-1.12656 -0.0661,-2.26154 -0.12041,-3.1874 -0.0543,-0.92586 -0.10572,-1.59943 -0.18758,-1.97197 -0.0482,-0.21921 -0.0319,-0.31631 0.23564,-0.57774 0.26751,-0.26144 0.81139,-0.59937 1.65985,-0.99788 2.02586,-0.9515 3.24693,-1.41349 3.84059,-1.45262 z m -6.5412,2.35076 c -0.11738,0.26847 -0.16898,0.54677 -0.12092,0.82372 -0.15073,-0.27474 -0.3233,-0.52037 -0.51625,-0.7369 0.22194,0.004 0.43342,-0.0266 0.63717,-0.0868 z m 0.22996,14.87196 c 0.009,0.0663 0.0525,0.12419 0.0687,0.18759 -0.007,-0.001 -0.0114,-0.006 -0.0181,-0.007 -0.0625,-0.009 -0.11922,0.009 -0.17932,0.0124 0.047,-0.0647 0.0823,-0.12775 0.12868,-0.19327 z m -0.0837,1.12396 c -0.003,-2.6e-4 0.0358,0.004 0.15348,0.12196 0.11769,0.11841 0.28692,0.33098 0.51108,0.62425 0.40387,0.52834 1.26524,2.41549 1.73685,3.96358 0.50913,1.67138 1.57719,3.74195 2.51561,4.79661 0.87453,0.98285 1.26518,1.60977 1.33066,2.15801 0.0655,0.54823 -0.16439,1.17244 -0.79323,2.21485 -0.78194,1.29618 -0.88386,2.31568 -0.40204,3.94291 0.24659,0.83274 0.32088,1.31342 0.22944,1.79834 -0.0914,0.48492 -0.37514,1.04237 -0.95446,1.94717 -0.97995,1.53045 -1.41288,3.66256 -1.38286,5.82807 0.03,2.16551 0.52732,4.36763 1.53375,6.03425 0.32465,0.53763 0.5915,1.14747 0.74983,1.67174 0.15833,0.52427 0.17051,0.99286 0.14676,1.07073 -0.13099,0.42939 -0.0879,0.90088 0.0248,1.39888 0.11269,0.49801 0.31022,1.01307 0.58394,1.4609 0.37062,0.60635 0.50364,0.93885 0.50592,1.13378 0.002,0.19492 -0.097,0.41046 -0.44804,0.86971 -0.38736,0.50677 -0.64943,0.98116 -0.64337,1.55236 0.006,0.5712 0.23243,1.14075 0.6196,2.00763 0.44011,0.98541 1.12375,3.48192 1.45056,5.3852 0.43118,2.51114 1.45929,5.02334 3.29179,8.09667 2.50849,4.20706 3.10194,6.26095 3.61735,12.51861 0.0811,0.98448 0.16533,1.90859 0.2129,2.2102 h 5.3e-4 c 0.0433,0.27432 0.17131,0.36637 0.2868,0.47336 0.1155,0.10698 0.25023,0.20344 0.40618,0.30179 0.3119,0.19669 0.70796,0.39422 1.13947,0.56276 0.34755,0.13574 0.72029,0.36339 1.01182,0.60668 0.29153,0.24328 0.4954,0.51945 0.53899,0.63717 0.23138,0.62492 0.7594,1.10541 1.4025,1.5043 0.64309,0.39889 1.41987,0.71312 2.22363,0.92604 0.80376,0.21292 1.63269,0.32418 2.38642,0.29507 0.67637,-0.0261 1.28465,-0.18585 1.77147,-0.52503 -0.19713,0.18726 -0.39572,0.382 -0.70539,0.57826 -0.57609,0.36511 -1.01411,0.56399 -1.34772,0.63407 -0.3336,0.0701 -0.56297,0.0374 -0.85318,-0.10181 -0.72327,-0.34696 -1.72181,-0.41346 -2.51974,-0.19637 -0.28069,0.0764 -0.51269,0.0813 -0.61495,0.0636 -0.0495,-0.35743 -0.2128,-0.67618 -0.447,-0.96067 -0.27308,-0.33172 -0.62637,-0.63412 -1.01441,-0.89142 -0.77608,-0.51459 -1.65933,-0.92364 -2.47995,-0.6537 -0.0159,0.005 -0.0184,0.004 -0.0336,0.009 0.11416,-0.37893 0.0616,-0.76499 -0.0822,-1.15083 -0.16256,-0.43642 -0.43325,-0.87973 -0.79013,-1.26866 -0.51341,-0.55949 -1.63931,-2.46042 -2.32492,-4.03128 -0.91416,-2.09442 -1.88792,-3.3533 -3.21686,-4.0013 -0.4889,-0.2384 -0.85792,-0.4428 -1.09399,-0.6041 -0.12641,-0.0864 -0.11163,-0.0825 -0.15554,-0.12919 0.11798,-0.0599 0.27052,-0.13284 0.56482,-0.21291 1.08915,-0.29632 1.73364,-1.28664 1.86759,-2.37453 0.13394,-1.08789 -0.19328,-2.32021 -1.0201,-3.31556 -0.32156,-0.38711 -0.56657,-0.81254 -0.69866,-1.16737 -0.13209,-0.35483 -0.11331,-0.63217 -0.0997,-0.66249 0.11752,-0.2625 0.11123,-0.55875 0.0336,-0.82838 -0.0776,-0.26962 -0.22005,-0.53096 -0.41599,-0.80925 -0.3919,-0.55657 -1.00734,-1.18544 -1.86345,-1.93322 -1.05073,-0.91773 -1.64028,-1.52257 -1.96733,-2.08411 -0.32704,-0.56153 -0.43454,-1.11376 -0.48059,-2.06137 -0.0325,-0.669 -0.14135,-1.34987 -0.29559,-1.93115 -0.15424,-0.58128 -0.30829,-1.04683 -0.63613,-1.38544 -0.051,-0.0527 -0.24968,-0.54212 -0.29921,-1.44229 -0.0495,-0.90017 -0.0114,-2.19931 0.11627,-3.93206 0.28034,-3.80579 0.11313,-6.21896 -0.66197,-9.50381 -1.11683,-4.73287 -1.70697,-13.72678 -1.41232,-21.89582 0.0654,-1.81396 -0.18593,-4.19917 -0.61133,-5.50509 -0.30166,-0.92602 -0.91977,-1.87734 -1.73685,-2.82774 0.16509,-0.11427 0.37974,-0.26831 0.67283,-0.48007 0.30213,-0.21831 0.52779,-0.37512 0.67696,-0.45631 0.14917,-0.0812 0.19139,-0.0745 0.18862,-0.0749 z m 27.61227,3.00551 c -0.004,0.0413 -0.002,0.0808 -0.001,0.12143 -0.0721,-0.0351 -0.16606,-0.0773 -0.24495,-0.11472 0.0801,-0.007 0.16871,0.006 0.24598,-0.007 z m -3.23805,0.0274 c 0.55312,0.0279 1.14062,0.1808 1.78078,0.46457 0.50108,0.22212 0.95946,0.43713 1.28674,0.601 0.15777,0.079 0.28125,0.14461 0.36277,0.1912 0.0141,0.04 0.0269,0.0773 0.0465,0.13126 0.0574,0.15859 0.1387,0.3773 0.23771,0.64234 0.19801,0.53007 0.46803,1.2442 0.76326,2.01538 0.48434,1.26518 0.86751,2.08495 1.52962,2.76624 0.66211,0.68129 1.54487,1.17779 2.99155,1.90324 2.80681,1.40751 4.30973,2.23396 4.95939,2.85978 0.32482,0.3129 0.43865,0.54007 0.4842,0.82113 0.0456,0.28107 0.002,0.65297 -0.1111,1.17099 -0.36362,1.66147 -1.05345,2.70914 -2.11615,3.30936 -1.0627,0.60023 -2.5715,0.76309 -4.60799,0.42685 -0.36166,-0.0597 -0.62095,-0.12437 -0.75292,-0.18294 -0.13198,-0.0586 -0.11332,-0.0587 -0.12093,-0.0837 -0.008,-0.025 -0.0171,-0.16147 0.0584,-0.41961 0.0755,-0.25814 0.22193,-0.62176 0.43046,-1.09193 0.24181,-0.54518 0.37688,-1.06062 0.33848,-1.56786 -0.0384,-0.50724 -0.26848,-0.98333 -0.65112,-1.37718 -0.76528,-0.78769 -2.08354,-1.34771 -4.14858,-1.99316 -2.23714,-0.69924 -4.50844,-1.9018 -6.14537,-3.24631 l -2.36212,-1.94045 1.28519,-2.17403 c 0.91796,-1.55286 1.88537,-2.50754 2.8882,-2.94039 0.50141,-0.21642 1.01991,-0.31363 1.57302,-0.28577 z m -7.15408,6.50245 c 0.11666,-0.0188 0.2327,-0.009 0.45062,0.0842 0.43584,0.18734 1.19052,0.74664 2.46651,1.80092 1.94847,1.60991 4.21087,2.8357 6.62906,3.59152 1.98807,0.62138 3.05565,1.10639 3.41219,1.51567 0.17827,0.20463 0.2295,0.36614 0.21239,0.66404 -0.0171,0.2979 -0.13995,0.72234 -0.3638,1.27279 -0.20503,0.50418 -0.3452,0.92981 -0.36845,1.34617 -0.0233,0.41636 0.11554,0.84698 0.42013,1.14153 0.60917,0.5891 1.59317,0.75236 3.23494,0.9772 1.16352,0.15935 1.8997,0.23066 2.60346,0.0181 0.70376,-0.21257 1.25856,-0.6774 2.08928,-1.4397 0.52399,-0.48085 0.99533,-1.0382 1.34824,-1.56993 0.26564,-0.40026 0.43828,-0.76663 0.53175,-1.13895 0.0467,0.0725 0.0697,0.10192 0.12299,0.18603 0.50837,0.80333 0.5875,1.27728 0.21911,1.98076 -0.36839,0.70348 -1.31888,1.62642 -2.98225,2.88148 -0.68345,0.51568 -1.31368,1.09507 -1.79472,1.62987 -0.24053,0.2674 -0.44398,0.52261 -0.59997,0.76326 -0.15598,0.24066 -0.27569,0.45349 -0.31006,0.72864 -0.0609,0.4872 -0.27017,1.28791 -0.41599,1.62833 v 5.3e-4 c -0.90232,2.10652 -1.40734,3.47624 -1.55339,4.64984 -0.14606,1.1736 0.106,2.12975 0.63096,3.22151 0.17591,0.36582 0.32673,0.7744 0.42117,1.1188 0.0944,0.34439 0.10595,0.66653 0.108,0.65577 -0.0903,0.47346 0.19001,0.78868 0.48369,1.05626 0.29368,0.26759 0.68094,0.50106 1.12603,0.6749 0.27144,0.10602 0.75959,0.45999 1.2237,0.93069 0.4641,0.47071 0.92445,1.05666 1.25057,1.61644 0.5141,0.88239 0.77345,1.45297 0.84439,1.8526 0.071,0.39963 0.005,0.66028 -0.24236,1.12551 -0.3297,0.6203 -1.26117,1.33197 -2.4877,1.83865 -1.22654,0.50669 -2.73164,0.82837 -4.16047,0.82837 -1.36128,0 -2.25651,0.0762 -2.84634,0.57465 -0.29492,0.24924 -0.44858,0.65902 -0.41083,1.03869 0.0377,0.37968 0.20572,0.741 0.45579,1.14153 0.37354,0.59832 0.14461,1.75608 -0.72089,2.73627 -0.0847,-0.0208 -0.17521,-0.043 -0.31006,-0.0873 -0.35285,-0.11606 -0.83706,-0.30441 -1.34875,-0.53123 -0.65209,-0.28906 -1.20956,-0.46799 -1.69292,-0.53434 -0.48337,-0.0663 -0.92615,-0.0325 -1.27073,0.24236 -0.34457,0.27484 -0.44785,0.74999 -0.3762,1.19218 0.0716,0.44218 0.28107,0.91967 0.61598,1.47484 0.57996,0.96138 1.53055,1.84844 2.45567,2.10013 0.18752,0.051 0.2769,0.0841 0.38964,0.12144 -0.0945,0.10066 -0.18781,0.19953 -0.3607,0.36329 -0.33456,0.31688 -0.58051,0.70194 -0.72348,1.09812 -0.14296,0.39618 -0.20139,0.81702 -0.0232,1.21492 0.002,0.005 0.0175,0.28884 -0.16433,0.68212 -0.18184,0.39329 -0.50844,0.88313 -0.94206,1.37046 -0.74928,0.8421 -1.19624,1.29162 -1.31,1.91358 -0.0569,0.31098 0.0198,0.62769 0.15813,0.89762 0.13834,0.26994 0.33014,0.52377 0.57205,0.84026 0.29944,0.39175 0.6691,0.76972 1.03922,1.08159 0.37011,0.31187 0.71896,0.55891 1.08727,0.68006 0.75124,0.24712 1.11762,0.71344 1.22112,1.4242 0.1035,0.71077 -0.12106,1.6908 -0.76843,2.77244 -0.74947,1.2522 -1.37327,2.99176 -1.42162,4.14497 -0.0327,0.77978 -0.12575,1.10089 -0.21704,1.19476 -0.0913,0.0939 -0.40119,0.19124 -1.17099,0.23719 -0.87825,0.0524 -2.2532,-0.15832 -2.81482,-0.39687 -0.55233,-0.2346 -1.39513,-1.00266 -1.65984,-1.50069 -0.42865,-0.80645 -1.28038,-1.51074 -2.14561,-1.74614 -0.30514,-0.083 -0.59254,-0.19686 -0.78496,-0.29869 -0.0815,-0.0431 -0.13225,-0.0792 -0.16847,-0.10646 -0.0123,-0.0925 -0.0384,-0.30104 -0.0708,-0.63148 -0.0375,-0.38291 -0.0807,-0.86571 -0.12092,-1.35341 -0.51914,-6.30334 -1.20184,-8.65716 -3.74861,-12.92841 -1.79601,-3.01208 -2.76495,-5.40289 -3.17138,-7.77007 -0.3399,-1.97954 -0.99262,-4.43171 -1.5198,-5.61206 -0.37597,-0.8418 -0.53374,-1.32975 -0.53692,-1.62935 -0.003,-0.29961 0.10057,-0.50919 0.44803,-0.96377 0.38398,-0.50233 0.65,-0.93506 0.64389,-1.45934 -0.006,-0.52428 -0.25587,-0.98184 -0.64595,-1.62006 -0.20827,-0.34071 -0.37756,-0.77585 -0.46767,-1.17409 -0.0901,-0.39823 -0.0857,-0.76916 -0.0424,-0.91105 0.15051,-0.49339 0.0378,-1.0142 -0.14624,-1.62368 -0.18407,-0.60947 -0.47681,-1.2775 -0.84595,-1.88877 -0.88389,-1.46372 -1.36925,-3.52958 -1.39733,-5.55521 -0.0281,-2.02564 0.40514,-4.00802 1.233,-5.30097 0.59691,-0.93224 0.95696,-1.58757 1.08831,-2.2841 0.13134,-0.69654 0.008,-1.36599 -0.2527,-2.24534 -0.45051,-1.52148 -0.40322,-2.00637 0.30489,-3.18017 0.27917,-0.46279 0.52525,-0.99183 0.70693,-1.49035 0.18169,-0.49852 0.30593,-0.94553 0.30593,-1.3472 0,-0.26871 0.0744,-0.46143 0.23668,-0.64751 0.16229,-0.18607 0.43032,-0.36209 0.82062,-0.49764 0.78059,-0.27111 2.02566,-0.36085 3.61115,-0.18655 1.97345,0.21693 3.29514,0.13281 4.19922,-0.44752 0.21318,-0.13685 0.35877,-0.20085 0.47543,-0.21963 z m -10.34355,1.05678 c 0.10214,0.0177 0.20471,0.034 0.30695,0.0264 -0.053,0.098 -0.11292,0.18939 -0.14831,0.29559 -0.0401,-0.10698 -0.1053,-0.21495 -0.15864,-0.32194 z m 32.87603,5.53506 c 0.0172,0.0499 0.0358,0.1022 0.0553,0.154 -0.0221,-0.007 -0.056,0.004 -0.0822,0.002 0.008,-0.0511 0.0206,-0.10578 0.0269,-0.15607 z m -4.44366,10.65 c 0.0113,0.0386 0.0361,0.074 0.0496,0.11214 -0.0291,0.004 -0.0547,0.008 -0.0827,0.016 0.011,-0.0456 0.0229,-0.0824 0.0331,-0.12816 z m 0.20154,1.2945 c 0.0292,0.0424 0.0427,0.0546 0.076,0.10541 0.26065,0.39801 0.70549,0.71503 1.28778,1.08779 0.58228,0.37277 1.28955,0.75224 2.00091,1.05937 1.32186,0.57071 3.65411,1.85081 5.0922,2.79931 l 2.11046,1.39216 c -1.68901,2.36809 -3.19264,3.46582 -4.51394,3.44579 -0.20056,-0.003 -0.86319,-0.13141 -1.62109,-0.34778 -0.75789,-0.21637 -1.6511,-0.51483 -2.48357,-0.83923 -1.03568,-0.40358 -1.81021,-0.79428 -2.33629,-1.21491 -0.52608,-0.42063 -0.8115,-0.84895 -0.94568,-1.42989 -0.26464,-1.14583 0.17858,-3.01656 1.33326,-6.05802 z m -29.87725,26.05167 c 0.0716,0.0633 0.11105,0.10872 0.18655,0.17466 0.82549,0.72102 1.39868,1.31941 1.71153,1.76372 0.15642,0.22215 0.24521,0.40521 0.27957,0.52451 0.0343,0.11931 0.0207,0.15716 0.0124,0.1757 -0.0643,0.14371 -0.0569,0.29139 -0.0667,0.43822 -0.0823,-0.21132 -0.19435,-0.42235 -0.32969,-0.66301 -0.24996,-0.44447 -0.57761,-0.9345 -0.91881,-1.39009 -0.29671,-0.39618 -0.59396,-0.73482 -0.87488,-1.02371 z m -0.21601,1.20922 c 0.11504,0.14021 0.21281,0.23081 0.32866,0.38551 0.31958,0.42672 0.6288,0.89132 0.8506,1.28571 0.20393,0.36262 0.286,0.65929 0.30179,0.69556 -0.27814,-0.2484 -0.71844,-0.79152 -1.15755,-1.62625 -0.14548,-0.27657 -0.21501,-0.48929 -0.3235,-0.74053 z m 2.63498,4.78524 c 0.0387,0.009 0.0449,-1.6e-4 0.091,0.015 0.16186,0.0532 0.29815,0.13869 0.40565,0.21755 -0.13136,-0.0159 -0.29121,-0.0394 -0.44183,-0.16846 -0.034,-0.0291 -0.0289,-0.0375 -0.0548,-0.0641 z m 35.58336,6.9634 c -0.40184,0 -0.80365,0.0386 -1.1436,0.11472 -0.085,0.019 -0.15712,0.0376 -0.23202,0.0661 -0.0749,0.0285 -0.16398,0.0217 -0.29921,0.22324 -0.0676,0.10076 -0.10881,0.31499 -0.0491,0.46354 0.0597,0.14855 0.14811,0.2075 0.20568,0.24391 0.11513,0.0728 0.17897,0.0805 0.25115,0.0966 0.172,0.0385 0.49035,0.0369 0.75499,0.0476 -0.0708,0.0414 -0.16754,0.0887 -0.24443,0.26562 -0.0778,0.17904 0.0118,0.47305 0.11524,0.57412 0.10347,0.10107 0.18027,0.12348 0.24908,0.14728 0.27523,0.0952 0.55513,0.1018 0.98598,0.1018 0.43084,0 0.71129,-0.007 0.98651,-0.1018 0.0688,-0.0238 0.1451,-0.0462 0.24856,-0.14728 0.10347,-0.10106 0.19304,-0.39506 0.11524,-0.57412 -0.0778,-0.17907 -0.17652,-0.22694 -0.24753,-0.26872 -0.071,-0.0418 -0.13463,-0.0673 -0.20464,-0.0915 -0.0226,-0.008 -0.0494,-0.005 -0.0724,-0.0119 0.0329,-0.013 0.0531,-0.009 0.0982,-0.0377 0.0576,-0.0364 0.14647,-0.0954 0.20619,-0.24392 0.0597,-0.14855 0.018,-0.36277 -0.0496,-0.46354 -0.13523,-0.20152 -0.2243,-0.1947 -0.29921,-0.22324 -0.0749,-0.0285 -0.14653,-0.0471 -0.23151,-0.0661 -0.33994,-0.0762 -0.74176,-0.11472 -1.1436,-0.11472 z m -2.37608,1.01596 c -0.30908,0 -0.6181,0.0483 -0.89814,0.14521 -0.07,0.0242 -0.13362,0.0497 -0.20464,0.0915 -0.071,0.0418 -0.1697,0.0897 -0.24753,0.26872 -0.0778,0.17904 0.0118,0.47305 0.11524,0.57412 0.0235,0.0229 0.0354,0.0178 0.0563,0.0336 -0.10365,0.022 -0.21588,0.0168 -0.31367,0.0506 -0.07,0.0242 -0.13363,0.0492 -0.20464,0.0909 -0.071,0.0418 -0.16972,0.0902 -0.24753,0.26924 -0.0778,0.17907 0.0118,0.47306 0.11523,0.57412 0.10347,0.10106 0.18028,0.12348 0.24908,0.14728 0.27523,0.0952 0.55515,0.10129 0.98599,0.10129 0.43085,0 0.71128,-0.006 0.9865,-0.10129 0.0688,-0.0238 0.14561,-0.0462 0.24908,-0.14728 0.10348,-0.10107 0.19307,-0.39507 0.11524,-0.57412 -0.0721,-0.166 -0.16061,-0.20942 -0.22996,-0.2496 0.14527,-0.0141 0.33161,-0.003 0.45992,-0.0475 0.0688,-0.0238 0.1451,-0.0462 0.24857,-0.14728 0.10346,-0.10106 0.19305,-0.39505 0.11524,-0.57412 -0.0778,-0.17907 -0.17652,-0.22694 -0.24754,-0.26872 -0.071,-0.0418 -0.13462,-0.0673 -0.20463,-0.0915 -0.28004,-0.0969 -0.58906,-0.14521 -0.89814,-0.14521 z m -13.11135,10.59987 c -0.17196,0.01 -0.34205,0.0514 -0.50901,0.10904 -0.66784,0.23039 -1.34779,0.77107 -1.69705,1.55856 -0.4305,0.97061 -0.29278,1.98147 0.36638,2.69647 0.65917,0.715 1.73747,1.16865 3.1688,1.41594 0.23793,0.0411 0.38192,0.0757 0.54829,0.11213 -0.11998,0.0813 -0.22617,0.17561 -0.31936,0.32815 -0.0414,0.0677 -0.0871,0.15909 -0.0909,0.29456 -0.004,0.13547 0.0666,0.30737 0.16536,0.40204 0.19753,0.18934 0.35507,0.17053 0.4899,0.17053 0.52465,0 0.95098,-0.0498 1.31258,-0.21239 0.3616,-0.16261 0.65834,-0.51588 0.70021,-0.91467 0.0145,-0.13764 -0.0174,-0.27232 -0.0424,-0.40773 0.22184,0.18124 0.44727,0.33721 0.70383,0.44235 0.76928,0.31525 1.6124,0.244 3.1564,0.14573 0.74649,-0.0475 1.31049,-0.0852 1.72031,-0.12351 0.20491,-0.0191 0.37065,-0.038 0.50901,-0.061 0.13836,-0.023 0.2358,-0.0315 0.39016,-0.11472 0.0772,-0.0416 0.21294,-0.11827 0.27078,-0.33073 0.0578,-0.21246 -0.0557,-0.41668 -0.13022,-0.49506 -0.14915,-0.15675 -0.23652,-0.16701 -0.35244,-0.21342 -0.23183,-0.0928 -0.54846,-0.18529 -0.97772,-0.31006 -0.87239,-0.25356 -3.02835,-1.25026 -4.6147,-2.16214 -0.81662,-0.46943 -1.58242,-0.87517 -2.1699,-1.15549 -0.29373,-0.14015 -0.54096,-0.24834 -0.74155,-0.32142 -0.1003,-0.0366 -0.18615,-0.0647 -0.28164,-0.0837 -0.0477,-0.01 -0.0973,-0.0181 -0.17001,-0.0165 -0.0727,0.002 -0.19002,-0.001 -0.33642,0.12455 -0.0552,-0.34746 -0.25089,-0.67598 -0.55035,-0.79634 -0.17271,-0.0694 -0.34635,-0.0911 -0.51832,-0.0811 z m 0.1633,0.9648 c 0.0174,0.007 -0.003,-0.0705 -0.003,0.0656 0,0.29749 0.0949,0.40048 0.19843,0.59273 0.10352,0.19224 0.24261,0.41348 0.41135,0.66145 0.33748,0.49596 0.79366,1.09412 1.29708,1.68982 0.42237,0.49982 0.72553,0.92226 0.9064,1.25057 0.0162,0.0293 0.005,0.0292 0.0191,0.0569 -0.17746,-0.13051 -0.34661,-0.18796 -0.57361,-0.24857 -0.24438,-0.0653 -0.54805,-0.12597 -0.92862,-0.19172 -1.31146,-0.22657 -2.19768,-0.65363 -2.63033,-1.12292 -0.43265,-0.46931 -0.5144,-0.94631 -0.19585,-1.6645 0.21824,-0.49208 0.74278,-0.90843 1.13688,-1.04438 0.19705,-0.068 0.34439,-0.0519 0.36173,-0.045 z m -6.91379,0.79065 c -0.006,0.0588 -0.0281,0.10917 -0.0207,0.17466 0.0171,0.15055 0.0973,0.32723 0.23668,0.44029 0.13935,0.11305 0.30702,0.15168 0.45113,0.15244 -0.10186,-5.3e-4 0.0153,0.007 0.14108,0.061 0.12579,0.0543 0.29786,0.14059 0.49351,0.24908 0.0653,0.0362 0.15616,0.10226 0.22634,0.14314 -0.29765,-0.14518 -0.60182,-0.29399 -0.93017,-0.40101 -0.66751,-0.21754 -0.87262,-0.53398 -0.87902,-0.58962 -0.003,-0.0278 -0.0122,-0.0447 0.0718,-0.12661 0.0308,-0.03 0.15034,-0.0676 0.20929,-0.10335 z m 9.2413,0.44028 c 0.52103,0.25817 1.11899,0.56696 1.80299,0.96015 1.4055,0.80792 3.02984,1.56758 4.18269,1.99212 -0.21368,0.0143 -0.32684,0.0255 -0.58394,0.0419 -1.54221,0.0982 -2.26118,0.11758 -2.73472,-0.0765 -0.47354,-0.19406 -0.89653,-0.67162 -1.80144,-1.7725 -0.35674,-0.43398 -0.60975,-0.79025 -0.86558,-1.14515 z m -6.69107,1.42679 c 0.0382,0.0264 0.0704,0.0419 0.10853,0.0687 0.15574,0.10943 0.1253,0.10595 0.24804,0.20153 -0.0804,-0.0497 -0.19699,-0.11135 -0.20464,-0.12195 -0.0428,-0.0594 -0.10277,-0.0979 -0.15193,-0.14831 z m 16.87288,0.15709 c -0.13204,0.0219 -0.25819,0.0718 -0.37827,0.1354 -0.24018,0.12724 -0.43396,0.30705 -0.58292,0.51366 -0.14895,0.20661 -0.26458,0.43916 -0.26458,0.7307 0,0.29154 0.21793,0.62657 0.50281,0.71986 0.28489,0.0933 0.55048,0.0229 0.79065,-0.10439 0.24017,-0.12724 0.43394,-0.30757 0.58291,-0.51418 0.14897,-0.20661 0.26407,-0.43915 0.26407,-0.73071 0,-0.29155 -0.21741,-0.62657 -0.5023,-0.71985 -0.14244,-0.0466 -0.28034,-0.0523 -0.41237,-0.0305 z"
       id="path2418"
       inkscape:connector-curvature="0" />
  </g>
</svg>
