<?xml version="1.0" encoding="UTF-8" standalone="no"?>
<svg
   xmlns:dc="http://purl.org/dc/elements/1.1/"
   xmlns:cc="http://creativecommons.org/ns#"
   xmlns:rdf="http://www.w3.org/1999/02/22-rdf-syntax-ns#"
   xmlns:svg="http://www.w3.org/2000/svg"
   xmlns="http://www.w3.org/2000/svg"
   xmlns:sodipodi="http://sodipodi.sourceforge.net/DTD/sodipodi-0.dtd"
   xmlns:inkscape="http://www.inkscape.org/namespaces/inkscape"
   width="711.93304"
   height="763.97253"
   viewBox="0 61 711.93304 763.97253"
   sodipodi:version="0.32"
   inkscape:version="0.92.3 (2405546, 2018-03-11)"
   sodipodi:docname="latinamerica-07.svg"
   inkscape:output_extension="org.inkscape.output.svg.inkscape"
   version="1.1"
   id="svg974">
  <defs
     id="defs978" />
  <sodipodi:namedview
     pagecolor="#ffffff"
     bordercolor="#666666"
     borderopacity="1"
     objecttolerance="10"
     gridtolerance="10"
     guidetolerance="10"
     inkscape:pageopacity="0"
     inkscape:pageshadow="2"
     inkscape:window-width="1920"
     inkscape:window-height="1052"
     id="namedview976"
     showgrid="false"
     showguides="false"
     inkscape:zoom="1.6771578"
     inkscape:cx="342.94963"
     inkscape:cy="587.54971"
     inkscape:window-x="0"
     inkscape:window-y="0"
     inkscape:window-maximized="1"
     inkscape:current-layer="layer1"
     fit-margin-top="0"
     fit-margin-left="0"
     fit-margin-right="0"
     fit-margin-bottom="0" />
  <metadata
     id="metadata970">
    <rdf:RDF>
      <cc:Work
         rdf:about="">
        <dc:format>image/svg+xml</dc:format>
        <dc:type
           rdf:resource="http://purl.org/dc/dcmitype/StillImage" />
        <dc:title></dc:title>
      </cc:Work>
    </rdf:RDF>
  </metadata>
  <g
     inkscape:label="Capa 1"
     inkscape:groupmode="layer"
     id="layer1"
     transform="translate(-15.410946,-17.76535)">
    <path
       id="path2418"
       d="m 526.58839,840.90043 c 2.64864,-1.44515 1.83429,-2.10231 -3.81417,-3.07818 -10.36644,-1.79095 -14.85178,-6.65624 -12.02078,-13.03914 2.14491,-4.83617 9.09969,-7.23544 9.09969,-3.13925 0,1.06764 3.05151,5.55223 6.78126,9.96574 6.5706,7.77534 6.21853,11.12828 -1.16856,11.12828 -1.23479,0 -0.72968,-0.82685 1.12256,-1.83745 z m 2.15174,-9.38096 c -3.79344,-4.6148 -6.5313,-8.70407 -6.08432,-9.08722 0.44685,-0.38317 5.80832,2.17505 11.91413,5.68492 6.10593,3.50987 14.13234,7.26253 17.83682,8.33922 6.46179,1.87817 6.25808,1.98801 -5.01724,2.70565 -11.66441,0.74242 -11.80405,0.68522 -18.64939,-7.64257 z m 33.76946,5.73098 c 0,-1.05849 1.01022,-2.45974 2.24501,-3.11393 1.23478,-0.65417 2.24513,-0.32337 2.24513,0.73511 0,1.05848 -1.01035,2.45974 -2.24513,3.11392 -1.23479,0.65418 -2.24501,0.32338 -2.24501,-0.7351 z m -61.82525,-4.19489 c -0.81017,-1.12377 -3.98275,-2.86117 -7.05018,-3.86088 -5.7119,-1.86158 -6.15307,-5.69486 -0.83039,-7.21575 1.77553,-0.50733 2.34547,0.027 1.41094,1.32311 -0.86211,1.1958 -0.75014,2.17848 0.24883,2.18374 0.99897,0.005 4.84714,2.13919 8.55149,4.74206 4.97654,3.49674 5.74387,4.75058 2.93891,4.80174 -2.08805,0.0381 -4.4593,-0.85025 -5.2696,-1.97402 z m -4.03469,-13.67571 c -2.10548,-1.01003 -5.82829,-1.29222 -8.27296,-0.6271 -2.53465,0.68962 -4.44476,0.32652 -4.44476,-0.84489 0,-3.89517 -8.76026,-9.70383 -12.68677,-8.41224 -2.85627,0.93957 -3.46159,0.47828 -2.42142,-1.84534 0.77125,-1.72307 -0.51143,-5.16666 -2.89014,-7.75897 -2.35242,-2.56353 -6.45194,-9.64381 -9.11005,-15.734 -3.37503,-7.73249 -6.78367,-12.02417 -11.29895,-14.22587 -7.55239,-3.68266 -8.09705,-5.34418 -2.27141,-6.92916 6.6583,-1.8115 7.89713,-11.87328 2.29252,-18.62033 -2.67493,-3.2202 -4.08246,-7.00129 -3.27658,-8.80164 0.95107,-2.12445 -1.67381,-5.85226 -8.02945,-11.40358 -8.02249,-7.00705 -9.50598,-9.55424 -9.86475,-16.93745 -0.23227,-4.77954 -1.58989,-9.89599 -3.01688,-11.36988 -1.79752,-1.8567 -2.16425,-8.52078 -1.19372,-21.69619 1.0518,-14.27891 0.43915,-23.09163 -2.4592,-35.3747 -4.30437,-18.24108 -6.50287,-52.22777 -5.38447,-83.23518 0.23859,-6.6155 -0.76165,-15.69808 -2.22276,-20.18348 -3.55814,-10.92259 -19.92917,-24.71008 -40.16251,-33.82425 -14.47153,-6.51876 -16.5065,-8.19007 -22.16356,-18.20262 -3.42595,-6.06365 -9.97342,-15.1261 -14.54987,-20.13878 -4.57657,-5.01268 -9.55236,-12.37394 -11.05732,-16.35836 -4.77662,-12.64642 -13.19694,-25.35332 -18.93689,-28.57727 -5.37335,-3.01806 -11.16196,-15.12755 -8.79842,-18.40582 0.6383,-0.88533 5.18139,0.14868 10.09575,2.29781 10.34787,4.52534 12.07943,4.02388 15.34615,-4.44407 1.72865,-4.48076 5.53612,-7.73533 13.57264,-11.60154 9.02374,-4.34117 11.68148,-6.83719 13.83208,-12.99046 3.17548,-9.0855 5.19062,-9.49919 9.71765,-1.99496 4.85573,8.04931 15.42121,14.02116 22.21891,12.55867 3.03483,-0.65292 7.64539,-0.21112 10.24563,0.98181 3.86206,1.77175 4.29249,2.86631 2.3504,5.97694 -1.30758,2.09441 -1.85869,4.52755 -1.22468,5.407 0.63414,0.87945 -2.73532,2.59759 -7.48755,3.81809 -10.4563,2.68547 -11.9298,4.19275 -16.73385,17.11641 -3.59213,9.66311 -3.56787,10.41844 0.55541,17.32061 5.24647,8.78242 16.0781,15.99942 22.01507,14.66854 3.06857,-0.68787 5.0813,0.42457 6.87553,3.80015 1.39528,2.62499 4.55661,5.32223 7.02517,5.99385 6.38736,1.73782 9.877,12.46424 8.07557,24.82296 -1.10071,7.55221 -0.59598,11.85707 1.86146,15.87773 3.00387,4.91433 2.99856,6.14877 -0.048,11.31296 -1.8808,3.18818 -5.06589,7.52876 -7.07786,9.64573 -3.58379,3.77076 -3.56168,3.77927 1.08806,0.41962 4.59857,-3.32273 4.85573,-3.28606 8.26829,1.17853 1.93729,2.53437 5.02204,9.5313 6.85519,15.54876 1.83303,6.01744 5.94203,13.87313 9.13091,17.45705 6.746,7.58153 7.10339,10.57398 2.22832,18.65525 -2.81583,4.66767 -3.09802,7.51078 -1.33613,13.4611 1.91618,6.47091 1.49675,8.69458 -2.94877,15.63769 -6.8327,10.67111 -6.5495,31.10105 0.59508,42.93227 2.6221,4.34226 4.22855,9.66158 3.56989,11.82069 -0.65865,2.15912 0.29293,6.36416 2.11459,9.34451 2.8751,4.70388 2.88988,5.97124 0.11197,9.60558 -2.77729,3.63346 -2.76099,5.17016 0.12334,11.62818 1.82797,4.09278 4.35428,13.44489 5.61421,20.78249 1.58294,9.21886 5.3568,18.48329 12.21376,29.98328 9.55324,16.022 11.96455,24.35266 13.91966,48.08999 0.30506,3.70468 0.66016,7.40389 0.78894,8.22043 0.1289,0.81655 2.74051,2.46354 5.80377,3.65997 3.06327,1.19641 6.16571,3.78544 6.89437,5.75336 2.60757,7.04247 21.58452,12.06949 27.24511,7.21721 1.44052,-1.23486 2.96836,-1.36026 3.72849,-0.30605 0.70819,0.98239 -1.5166,3.56347 -4.94419,5.73575 -4.53917,2.87677 -7.27172,3.45077 -10.06,2.11321 z m -30.67839,-2.49624 c 0,-0.492 2.27319,-1.93282 5.05148,-3.20184 4.58037,-2.09218 4.76411,-2.00878 1.97015,0.89455 -2.86878,2.9811 -7.02163,4.34572 -7.02163,2.30729 z m 23.26818,-7.08347 c -2.63739,-1.12022 -5.85926,-4.0385 -7.15963,-6.48501 -1.30037,-2.44653 -4.44653,-5.01474 -6.99129,-5.7071 -2.54489,-0.69239 -4.73252,-1.85004 -4.86129,-2.57258 -0.1289,-0.72252 -0.48388,-4.3448 -0.78907,-8.04948 -1.95498,-23.73733 -4.36629,-32.06799 -13.91953,-48.08999 -6.85709,-11.49999 -10.63094,-20.76442 -12.21376,-29.98328 -1.25993,-7.3376 -3.78636,-16.68971 -5.61434,-20.78249 -2.88432,-6.45802 -2.90062,-7.99472 -0.12334,-11.62818 2.77804,-3.63434 2.76326,-4.9017 -0.11184,-9.60558 -1.82178,-2.98035 -2.77324,-7.18539 -2.11459,-9.34451 0.65866,-2.15911 -0.94779,-7.47843 -3.57001,-11.82069 -7.14446,-11.83122 -7.42766,-32.26116 -0.59509,-42.93227 4.44565,-6.94311 4.86495,-9.16678 2.9489,-15.63769 -1.76189,-5.95032 -1.4797,-8.79343 1.33613,-13.4611 1.96332,-3.25464 3.56964,-7.6621 3.56964,-9.7944 0,-5.62684 7.33591,-8.1747 19.64192,-6.8219 7.30445,0.80295 11.93827,0.35628 14.70089,-1.41705 3.58164,-2.29909 5.2581,-1.57853 14.94112,6.42202 7.1825,5.9345 15.52964,10.45657 24.44534,13.24322 15.13321,4.72997 16.95992,6.82686 13.45511,15.44519 -2.97443,7.31419 -1.27889,8.95392 10.99755,10.63519 8.71602,1.19365 10.06125,0.78733 16.27675,-4.9163 3.72647,-3.41965 6.81589,-8.0745 6.8653,-10.34417 0.0811,-3.72298 0.41792,-3.60838 3.44302,1.17171 4.20529,6.64513 1.82532,11.19007 -10.88028,20.77682 -4.97856,3.75652 -9.26296,8.51969 -9.52089,10.58483 -0.25793,2.06512 -1.02526,5.05384 -1.70539,6.64156 -6.78645,15.8435 -7.34186,20.30691 -3.51707,28.26128 1.43281,2.97973 2.39854,6.50138 2.14605,7.82589 -0.25249,1.32451 1.98417,3.36249 4.97048,4.52884 2.98618,1.16638 7.59965,5.84534 10.25182,10.39771 3.94952,6.77892 4.36743,9.13292 2.30895,13.00569 -3.18875,5.99938 -15.38229,11.03659 -26.71624,11.03659 -10.03838,0 -12.52868,2.10468 -9.0614,7.65826 2.14024,3.42808 0.70061,8.94346 -3.43821,13.17216 -0.33539,0.34265 -3.85069,-0.81357 -7.8117,-2.56942 -9.45556,-4.19147 -12.80291,-1.52156 -8.02414,6.40014 1.94373,3.22205 5.63949,6.4311 8.21281,7.13122 4.42278,1.20328 4.47067,1.47006 0.87488,4.87599 -2.09437,1.98378 -3.18092,4.99468 -2.41763,6.69961 0.82015,1.83216 -1.00909,5.78853 -4.4799,9.68925 -5.64202,6.34093 -5.72252,6.78056 -2.10562,11.51239 2.06821,2.70585 5.29437,5.4243 7.16923,6.04101 6.77646,2.22909 7.8826,9.82511 2.69325,18.49553 -2.66039,4.44494 -4.96403,11.11284 -5.11935,14.81753 -0.25274,6.03201 -0.97761,6.77731 -6.9372,7.13307 -3.66025,0.21851 -8.81295,-0.51927 -11.45034,-1.63951 z m -26.63575,-5.49356 c -0.76316,-1.05849 -0.3177,-1.92452 0.99,-1.92452 1.3077,0 2.37757,0.86603 2.37757,1.92452 0,1.05848 -0.44546,1.92451 -0.99,1.92451 -0.54454,0 -1.61441,-0.86603 -2.37757,-1.92451 z m 99.34456,-20.51969 c 1.54351,-0.53388 4.06918,-0.53388 5.6127,0 1.54351,0.53388 0.28067,0.9707 -2.80635,0.9707 -3.0869,0 -4.34987,-0.43682 -2.80635,-0.9707 z m -113.93753,-2.46088 c 0,-0.99601 0.8419,-2.25697 1.87082,-2.80211 1.02905,-0.54516 1.87094,0.26976 1.87094,1.81093 0,1.54116 -0.84189,2.80211 -1.87094,2.80211 -1.02892,0 -1.87082,-0.81491 -1.87082,-1.81093 z m 116.18266,-1.38815 c 1.54351,-0.53388 4.06918,-0.53388 5.6127,0 1.54351,0.53389 0.28054,0.97071 -2.80635,0.97071 -3.08703,0 -4.34987,-0.43682 -2.80635,-0.97071 z m 11.2254,0 c 1.54351,-0.53388 4.06918,-0.53388 5.61269,0 1.54339,0.53389 0.28055,0.97071 -2.80635,0.97071 -3.08702,0 -4.34986,-0.43682 -2.80634,-0.97071 z m -3.3677,-3.90108 c 2.16097,-0.48405 5.69686,-0.48405 7.85783,0 2.16084,0.48408 0.39289,0.88014 -3.92892,0.88014 -4.3218,0 -6.08975,-0.39606 -3.92891,-0.88014 z m -131.524,-26.89956 c -2.72698,-2.33763 -1.55122,-4.38766 1.87095,-3.26197 1.85211,0.60928 3.36756,1.88112 3.36756,2.82636 0,2.01767 -3.09283,2.27487 -5.23851,0.43561 z m -9.36482,-16.05723 c -2.23287,-4.24472 -3.51188,-8.1874 -2.84211,-8.76152 1.44077,-1.23506 10.71018,11.14189 10.71018,14.30071 0,4.64013 -3.99147,1.83009 -7.86807,-5.53919 z M 551.9824,660.98024 c -15.97371,-6.22467 -17.29418,-11.942 -8.23442,-35.65333 0.92618,-2.42402 1.45796,-2.34472 3.3174,0.49466 1.21798,1.85979 6.45409,5.21183 11.63573,7.44898 5.18164,2.23715 13.96742,7.06612 19.52401,10.73102 l 10.10284,6.66349 -8.9804,-7.07653 c -4.93913,-3.89209 -13.52651,-9.0864 -19.0831,-11.54293 -17.669,-7.81143 -19.03217,-15.16295 -4.46081,-24.0572 3.72545,-2.27402 8.29975,-6.66439 10.165,-9.7564 3.02877,-5.0206 3.0251,-6.22901 -0.0339,-11.29976 -1.88384,-3.1229 -3.4252,-6.94303 -3.4252,-8.48925 0,-3.52664 -9.60417,-10.26571 -24.23934,-17.00818 -9.05458,-4.1715 -11.57899,-6.44551 -12.81858,-11.54708 -0.84897,-3.49394 -3.3864,-9.10078 -5.63886,-12.45969 -3.16903,-4.72586 -3.43909,-6.32294 -1.19384,-7.06148 1.59583,-0.52494 3.56712,-3.22789 4.3807,-6.00658 2.32525,-7.94183 -7.54481,-20.60016 -18.02853,-23.12159 -7.06989,-1.70041 -8.81535,-3.24839 -11.52768,-10.22338 -2.62563,-6.75219 -5.0693,-9.03321 -13.68801,-12.77703 -5.77042,-2.5066 -14.68661,-5.52572 -19.81354,-6.70917 -7.76507,-1.79235 -10.1022,-3.5334 -13.99421,-10.42521 -2.56978,-4.55045 -4.67224,-9.24805 -4.67224,-10.43911 0,-1.19107 -0.98014,-2.68488 -2.17815,-3.31956 -2.64396,-1.40075 -23.63428,6.10271 -27.10762,9.69021 -3.42646,3.53912 -12.07601,0.0145 -15.4245,-6.28534 -1.9316,-3.63412 -3.75882,-4.54468 -7.54405,-3.75963 -6.12337,1.26994 -15.30115,-4.8283 -20.48836,-13.61366 -3.44706,-5.83798 -3.41445,-6.94077 0.51143,-17.32061 3.87508,-10.24551 4.94192,-11.3258 14.0775,-14.25407 6.37952,-2.04491 10.80887,-2.5236 12.49114,-1.34994 3.36807,2.3498 4.22324,0.95325 7.31531,-11.94597 2.14454,-8.94645 1.98076,-11.88461 -1.00377,-18.0077 -3.15981,-6.48276 -3.18572,-7.67755 -0.22697,-10.48008 2.49548,-2.3638 2.7462,-4.07183 0.9919,-6.75901 -2.83592,-4.3439 1.40627,-7.53028 8.16074,-6.12984 2.40537,0.4987 5.85306,-0.13956 7.6617,-1.41837 2.60858,-1.8445 3.51138,-1.75591 4.36806,0.42859 0.59395,1.51452 3.57318,4.73444 6.62052,7.15536 5.27908,4.19388 5.87328,4.2585 12.58668,1.3687 3.87546,-1.66813 8.67571,-4.79632 10.66747,-6.95148 3.27645,-3.54549 3.29655,-4.62689 0.21117,-11.35999 -3.92033,-8.55534 -2.85501,-10.55663 3.95608,-7.43188 4.02509,1.84659 6.75864,1.25973 16.83229,-3.61373 14.40138,-6.9671 18.21151,-5.35837 14.51196,6.1272 -1.78387,5.53848 -1.5056,8.2992 1.30707,12.96167 4.38967,7.27664 8.15379,8.67082 14.95035,5.5375 8.22178,-3.79036 21.87353,-6.021 38.52485,-6.29482 l 15.3373,-0.25222 5.65756,-8.17917 c 3.11166,-4.49855 5.11454,-8.17918 4.45071,-8.17918 -0.66371,0 -3.47802,3.46413 -6.25404,7.69804 -4.52021,6.89431 -5.94772,7.69805 -13.67172,7.69805 h -8.62453 l 3.41761,-5.66537 c 2.55285,-4.23189 2.85147,-6.942 1.17982,-10.71082 -2.59101,-5.84193 0.46972,-12.49149 5.74981,-12.49149 1.83632,0 7.74852,3.48435 13.13817,7.74299 7.1571,5.65525 10.51784,10.18879 12.46385,16.81393 1.46554,4.98902 3.70435,9.62182 4.97528,10.29513 3.35354,1.77664 -1.45518,8.59726 -12.29047,17.43297 -7.28562,5.94103 -8.5616,7.92359 -6.31697,9.81544 2.2335,1.8825 3.58897,1.57466 6.58223,-1.49489 5.49391,-5.634 16.2698,-12.49275 19.62751,-12.49275 1.59735,0 4.52691,1.3908 6.50994,3.09066 4.76361,4.08348 0.30532,9.12552 -7.00924,7.92692 -2.92627,-0.47953 -4.54763,-0.0452 -3.78422,1.01367 0.7964,1.10458 -0.59091,1.32852 -3.43555,0.55457 -7.94035,-2.16034 -5.34517,0.87662 3.43707,4.02212 7.73335,2.76984 8.5453,2.7069 14.03162,-1.08776 11.97959,-8.28558 14.73084,-8.6807 25.27712,-3.63004 6.84521,3.27821 9.58673,5.77414 9.2416,8.41358 -0.95979,7.33878 1.05926,8.96388 6.99471,5.63012 4.71748,-2.64971 7.954,-2.77555 23.73765,-0.92303 16.78944,1.97056 18.98845,2.75611 27.04342,9.66093 5.98006,5.12623 12.70686,8.49755 21.15687,10.60326 11.34571,2.82735 12.57809,3.68966 14.63581,10.24017 2.9834,9.49763 -0.51206,20.03695 -9.96597,30.04815 -4.03836,4.27654 -8.98836,10.55467 -10.99995,13.95139 -2.01147,3.39673 -6.28917,8.43196 -9.50598,11.18944 -5.44501,4.6676 -5.74805,5.83516 -4.39068,16.9183 2.6518,21.65195 -9.70362,62.04715 -21.62028,70.68598 -3.87988,2.81265 -7.19994,3.47316 -13.3525,2.65638 -5.05704,-0.67137 -8.80057,-0.23827 -9.78892,1.13248 -0.88006,1.22077 -5.78267,3.79594 -10.89443,5.72261 -5.11189,1.92667 -12.72228,6.01299 -16.91216,9.0807 -7.25187,5.30966 -7.49476,5.89763 -5.05438,12.23628 2.8138,7.30834 0.91898,15.96156 -5.11126,23.34152 -1.94954,2.38601 -3.54474,6.44534 -3.54474,9.02074 0,2.57538 -2.32879,7.36236 -5.17532,10.63773 -2.84641,3.27534 -8.02793,10.28534 -11.51429,15.57775 -7.25857,11.01827 -13.89603,16.3026 -20.35403,16.2047 -2.46969,-0.0375 -9.73256,-2.11094 -16.13989,-4.60778 z m -20.34266,-62.03018 c -5.67588,-0.93714 -6.0042,-2.01665 -2.80597,-9.22736 3.36783,-7.59334 -0.32262,-11.39188 -15.75357,-16.21492 -8.68228,-2.71373 -17.42396,-7.33465 -23.83192,-12.59789 l -10.12002,-8.31214 5.64265,-9.54521 c 7.1715,-12.13163 15.54316,-15.74502 25.87132,-11.16668 3.83123,1.69829 6.9942,3.28207 7.02908,3.51951 0.0348,0.23745 1.88661,5.19488 4.11531,11.01653 3.61968,9.45514 5.3501,11.23569 16.21357,16.68331 21.24723,10.65468 22.87958,12.22714 21.10594,20.33153 -2.89026,13.20643 -11.60982,18.13136 -27.46639,15.51332 z m -99.46321,-44.97295 c -2.6772,-3.22289 -6.36095,-10.76206 -8.18627,-16.75376 -1.8252,-5.99169 -5.29361,-13.27152 -7.70745,-16.17741 -3.98553,-4.79797 -4.0884,-5.78126 -1.12016,-10.70169 2.55575,-4.23662 2.69943,-6.24471 0.65903,-9.20784 -1.43534,-2.08428 -2.7438,-10.71783 -2.9077,-19.18569 -0.16391,-8.46784 -0.66902,-17.08479 -1.12257,-19.14878 -0.60267,-2.74319 1.59128,-4.88732 8.15582,-7.97055 15.38279,-7.22501 18.34559,-7.42027 20.12011,-1.32601 2.64472,9.083 10.21531,17.79894 16.54782,19.05147 3.29364,0.65147 11.75907,3.35156 18.81216,6.00019 10.85273,4.07562 13.22663,5.88951 15.44674,11.80274 3.5589,9.47896 5.7804,11.50364 14.08761,12.83956 5.22435,0.84017 8.45039,3.14216 12.17256,8.68609 8.08391,12.04059 2.76388,21.70601 -9.34448,16.97683 -8.20712,-3.20546 -18.22781,2.28771 -24.96573,13.68577 -6.92748,11.71885 -12.01384,14.26689 -25.11713,12.5825 -7.28966,-0.93706 -11.43985,-0.47391 -15.32934,1.71071 -5.08952,2.85862 -5.55621,2.7276 -10.20102,-2.86413 z M 305.44836,400.79022 c -3.70435,-1.68501 -7.09795,-3.33254 -7.54139,-3.66117 -0.44344,-0.32863 1.43938,-3.30083 4.18393,-6.60487 l 4.99019,-6.00733 -4.67097,-1.04705 c -11.00109,-2.4661 -6.42907,-15.01676 13.20919,-36.26041 5.88389,-6.36491 11.85461,-15.25456 13.26821,-19.75477 2.46956,-7.86195 1.46971,-19.48772 -2.18056,-25.3535 -1.21646,-1.95459 1.90645,-5.82113 10.39071,-12.86515 6.67132,-5.53891 12.12972,-11.03449 12.12972,-12.21242 0,-3.49395 11.50898,-11.58049 16.48173,-11.58049 2.53048,0 7.33439,-2.24506 10.67555,-4.98905 3.54651,-2.91251 7.80248,-4.64061 10.2258,-4.15191 3.45754,0.69732 3.11924,1.2013 -2.02588,3.01777 -3.81884,1.34825 -8.02578,5.44334 -11.02093,10.72793 l -4.84423,8.54731 4.44995,9.30121 c 2.65395,5.54748 6.6487,10.20735 9.89837,11.54655 8.98532,3.70294 25.17601,9.22226 27.74339,9.45763 1.32047,0.12106 3.74403,0.352 5.38561,0.51323 2.07491,0.20377 2.55992,1.95119 1.59115,5.73234 -0.76657,2.99155 -0.34158,7.81141 0.94438,10.71081 1.62174,3.65641 1.62048,6.4211 -0.004,9.0232 -1.82052,2.9159 -1.5559,4.01026 1.18815,4.91287 3.11533,1.02478 3.06074,1.46063 -0.46442,3.70733 -2.19723,1.40029 -6.01544,2.12527 -8.48501,1.61109 -2.46957,-0.51422 -6.39949,0.26319 -8.73309,1.72755 -3.37047,2.11504 -3.74934,3.41845 -1.8425,6.33926 1.81837,2.78524 1.59064,4.44384 -0.93908,6.83996 -2.95837,2.8022 -2.93563,3.99145 0.19891,10.42227 2.97872,6.11131 3.12582,9.05619 0.92985,18.6242 -2.28152,9.94134 -3.01726,11.01462 -5.87201,8.56747 -2.53718,-2.17495 -2.70665,-3.68966 -0.7614,-6.80548 2.1228,-3.40017 1.65927,-4.48131 -3.0572,-7.13041 -3.64786,-2.04892 -7.78731,-2.70309 -12.03898,-1.9026 -6.63998,1.25014 -9.18234,-0.33394 -24.40704,-15.20726 -2.68718,-2.62515 -7.73854,-5.28414 -11.2254,-5.90886 -3.48674,-0.62471 -11.71939,-3.2778 -18.29467,-5.89578 -6.5754,-2.61795 -11.44048,-4.04607 -10.81153,-3.17362 1.50194,2.08307 21.10506,9.50322 28.80164,10.90192 l 6.03504,1.09674 -3.25042,8.17721 c -2.61781,6.58577 -5.39939,9.21269 -14.29271,13.4981 -8.22507,3.96334 -11.70081,7.03103 -13.62294,12.02343 -2.92792,7.60508 -3.14313,7.66588 -12.33507,3.48475 z m 124.91371,-48.90796 c -4.4392,-3.54523 -5.77534,-6.19093 -5.04718,-9.99338 0.15771,-0.82331 -1.21962,-1.99241 -3.06061,-2.59801 -2.48953,-0.81892 -2.78247,-2.00585 -1.14304,-4.63173 1.45884,-2.33668 1.4136,-5.31333 -0.13383,-8.80226 -1.28596,-2.8994 -1.72637,-7.65904 -0.97875,-10.57701 1.04813,-4.09091 0.31934,-5.78249 -3.18395,-7.38969 -2.49889,-1.14638 -5.36248,-1.85612 -6.36373,-1.5772 -1.00125,0.2789 -6.34616,-1.10307 -11.87761,-3.0711 -5.53144,-1.96801 -12.1541,-4.2622 -14.71706,-5.09823 -2.73343,-0.89164 -6.33833,-5.28739 -8.71994,-10.63303 -3.99286,-8.96249 -3.98136,-9.25173 0.70187,-17.51478 6.05172,-10.67775 9.21709,-10.79112 6.96842,-0.24957 -1.05849,4.96143 -0.82016,9.62413 0.60874,11.91283 2.28278,3.65641 2.46628,3.63527 6.62026,-0.76226 2.95762,-3.13098 3.55397,-5.13875 1.93779,-6.52418 -3.85625,-3.30563 -2.69514,-6.0528 4.48003,-10.60022 7.44952,-4.72128 13.21248,-4.23668 19.64078,1.65152 4.71344,4.31732 29.87972,10.15319 37.09242,8.60142 3.42267,-0.7364 10.44341,0.99751 20.17673,4.98299 14.54406,5.95535 22.98801,11.45335 17.59014,11.45335 -1.37973,0 -4.70206,4.00034 -7.38318,8.88962 -3.9207,7.15008 -4.36224,9.59283 -2.2565,12.48321 4.06009,5.57299 3.38766,6.52409 -8.55073,12.09397 -9.25222,4.3167 -11.99033,4.83393 -15.95652,3.01434 -7.66132,-3.51477 -10.2215,0.3846 -6.12363,9.32714 3.94509,8.60909 2.44013,11.49288 -8.5343,16.35373 -6.59006,2.91895 -7.25554,2.8771 -11.78662,-0.74147 z M 289.45544,292.1165 c -6.90599,-3.03032 -8.98267,-4.96372 -8.17515,-7.61108 0.99152,-3.25019 1.61339,-3.31357 7.38975,-0.753 5.52803,2.45046 7.29168,2.4432 14.27703,-0.0587 11.05113,-3.95814 17.15365,-3.56474 24.66901,1.59038 6.06562,4.16068 6.22409,4.62125 2.64599,7.68851 -5.28565,4.53088 -8.70364,4.17582 -5.7253,-0.59472 2.04091,-3.26894 1.52544,-4.20222 -3.37907,-6.11777 -7.55213,-2.94965 -17.95068,-0.0217 -17.96395,5.05809 -0.0137,5.2234 -3.22793,5.41018 -13.73831,0.79831 z m -19.90351,-9.33067 c -3.53539,-3.16329 -8.1773,-6.22736 -10.31552,-6.80906 -4.50391,-1.22537 -7.51144,-6.62796 -4.92435,-8.84571 0.97357,-0.83459 5.88731,-0.62161 10.91933,0.47329 10.88444,2.36829 17.22858,9.77945 14.21233,16.60271 -1.05268,2.38159 -2.26282,4.33015 -2.68895,4.33015 -0.42613,0 -3.66745,-2.58812 -7.20284,-5.75138 z m -8.42891,-17.72984 c -4.62383,-1.05292 -10.96355,-4.52108 -14.09392,-7.71017 l -5.68979,-5.79638 5.8264,-4.62869 c 5.37638,-4.27128 15.85568,-9.13166 26.85158,-12.45404 2.85576,-0.86284 3.26433,-1.42012 1.12257,-1.53093 -4.51617,-0.23366 -22.98776,7.60926 -27.8771,11.83646 -4.32623,3.74034 -9.05306,2.60635 -7.12146,-1.70844 0.75166,-1.67911 -1.36065,-4.09466 -5.4402,-6.22135 l -6.66892,-3.47652 5.03202,-3.91904 c 8.65195,-6.73849 42.31046,-7.83612 45.15914,-1.47268 0.61897,1.38268 -0.32288,10.16231 -2.0931,19.51028 -1.7701,9.34798 -3.22224,17.64584 -3.22692,18.4397 -0.01,1.69918 -0.74319,1.64515 -11.7803,-0.8682 z m -39.24555,-20.116 c -2.06543,-0.71704 -1.87094,-2.10173 0.78237,-5.57303 3.37465,-4.415 3.82517,-4.48835 10.20355,-1.66092 5.43452,2.40908 6.17582,3.47155 3.99413,5.72497 -2.62387,2.71014 -9.51938,3.40473 -14.98005,1.50898 z m -15.30849,-6.1765 c -3.75717,-1.96408 -8.56564,-5.83995 -10.68528,-8.61306 -2.11964,-2.77312 -6.93936,-6.40975 -10.71043,-8.0814 -6.27662,-2.78233 -7.68193,-2.76914 -16.61721,0.15604 l -9.76075,3.1954 -29.94694,-12.43942 C 110.42726,205.32925 96.13082,198.03 91.702714,194.01582 c -6.865807,-6.22401 -7.087944,-6.8999 -4.803373,-14.61525 2.092851,-7.06793 1.737442,-9.2545 -2.814488,-17.31547 -2.865417,-5.07431 -9.126077,-12.8682 -13.91258,-17.31978 -4.786515,-4.45156 -8.159064,-8.84786 -7.49456,-9.76953 0.664503,-0.92167 -2.707173,-7.13341 -7.492614,-13.80386 -5.43641,-7.57783 -9.273124,-15.69514 -10.226236,-21.635604 -1.221793,-7.615115 -2.64539,-9.944939 -7.15223,-11.705187 -4.777341,-1.865905 -6.11321,-1.628103 -8.848602,1.575191 -3.85256,4.511533 -2.757355,9.274464 5.761111,25.05443 3.461629,6.41245 7.039001,15.91846 7.949728,21.12447 0.910728,5.20601 3.600752,12.7334 5.977815,16.72756 5.630353,9.46057 1.9949,9.29365 -6.883904,-0.31606 -5.236692,-5.6678 -6.650987,-8.77622 -5.610286,-12.33064 1.111179,-3.79512 0.01821,-5.6228 -5.425656,-9.07294 -8.254702,-5.23155 -10.001761,-8.60634 -6.969546,-13.46309 1.768227,-2.83221 0.957422,-5.93821 -3.533117,-13.53455 -4.613336,-7.804055 -5.520082,-11.421038 -4.350658,-17.354487 1.424746,-7.228876 1.792224,-7.495673 10.324315,-7.495673 5.368283,0 14.093317,2.270198 22.189397,5.773542 10.383039,4.492943 16.315005,5.773529 26.744385,5.773529 7.371094,0 14.026378,-0.86603 14.789515,-1.92451 2.09654,-2.907905 11.82303,-2.308066 17.89748,1.103762 2.96536,1.665555 6.01792,5.472899 6.78349,8.460752 0.76555,2.987865 3.29336,6.907565 5.61736,8.710455 3.89099,3.0185 4.6313,3.0343 9.3526,0.19955 10.51959,-6.31615 17.64296,-2.26014 23.04288,13.12052 3.51628,10.01541 9.11682,16.51778 14.22693,16.51778 2.21932,0 2.74754,1.07501 1.65487,3.36789 -9.64038,20.22936 -10.45626,24.73055 -6.72191,37.08415 6.66156,22.03713 15.91986,28.62977 35.22246,25.08119 14.54861,-2.67463 23.28574,-8.0942 26.49749,-16.43636 2.03965,-5.29789 4.23979,-7.04918 10.82569,-8.61719 18.63979,-4.43788 22.20867,-1.94362 15.88436,11.10146 -2.64813,5.46241 -5.7052,9.45999 -6.79327,8.88349 -1.08819,-0.57648 -4.81149,0.68111 -8.2741,2.79463 -3.46247,2.11351 -8.97079,4.41832 -12.24042,5.1218 -7.63415,1.64245 -10.82189,5.01518 -10.08463,10.66968 0.41879,3.21069 -0.70415,4.71565 -3.90225,5.23015 -5.3204,0.85593 -10.17411,5.70051 -9.92566,9.90692 0.0976,1.65005 1.19194,0.61849 2.43216,-2.29234 1.31617,-3.08886 3.93207,-5.29241 6.2831,-5.29241 5.62433,0 9.11789,-4.23237 7.60029,-9.20728 -1.00125,-3.28178 0.0292,-4.62239 4.73024,-6.15452 8.22949,-2.6821 10.91174,-2.45768 9.45732,0.79129 -0.6771,1.51255 -1.93691,5.97543 -2.79965,9.9175 -1.45594,6.65266 -1.22354,7.09005 3.23602,6.09038 2.64244,-0.59237 4.76309,-0.50858 4.71242,0.18618 -0.15064,2.06736 -17.19055,17.62219 -19.29604,17.61438 -1.06709,-0.004 -5.0142,-1.61417 -8.77138,-3.57823 z M 388.9917,203.66338 c -2.20798,-1.10152 -6.81551,-1.47542 -10.23881,-0.83089 -3.4233,0.64452 -8.68873,0.3268 -11.70094,-0.70607 -4.84322,-1.6607 -4.41444,-1.85664 3.7065,-1.6939 11.93624,0.23919 15.1226,-1.42714 12.07209,-6.31322 -2.06795,-3.31224 -1.56335,-3.73222 4.48407,-3.73222 6.4532,0 6.81425,0.40784 6.81425,7.69805 0,4.23393 -0.25262,7.67172 -0.56122,7.63953 -0.30873,-0.0322 -2.36784,-0.95976 -4.57594,-2.06128 z m 47.79363,0.19528 c -2.5253,-1.39894 -1.40211,-1.86557 4.49013,-1.86557 5.89223,0 7.01543,0.46663 4.49013,1.86557 -1.85211,1.02607 -3.87268,1.86557 -4.49013,1.86557 -0.61733,0 -2.63802,-0.8395 -4.49013,-1.86557 z m -40.41134,-6.97635 c 0,-6.72289 0.24428,-6.93447 6.72553,-5.8233 3.69917,0.63419 9.40375,2.65727 12.67704,4.49575 l 5.95125,3.34267 -10.99312,2.44349 c -14.81665,3.29337 -14.3607,3.43494 -14.3607,-4.45861 z m -48.77857,-10.56134 c -3.98465,-0.98695 -8.27296,-3.44132 -9.52961,-5.45417 -2.38376,-3.81821 -21.82816,-12.29343 -33.05293,-14.40678 -3.89682,-0.73367 -9.80775,-0.0408 -14.7484,1.72877 -9.51546,3.40812 -10.63449,3.54712 -10.63449,1.32094 0,-4.02822 17.86791,-8.45815 30.73387,-7.61973 12.30487,0.80185 19.19431,3.04664 43.35366,14.12613 19.85828,9.10701 19.88014,9.12436 13.47041,10.69096 -7.45534,1.82216 -10.95572,1.75318 -19.59251,-0.38612 z"
       style="fill:#d90000;fill-opacity:0.9"
       sodipodi:nodetypes="csssssccssssccsssccssssssccsssssssssssssssssssssssssssssssssssssssssssssssssssssssssssssssccssccssssssssssssssssssssssssssssssssssssssssssssssccsssccssccsssccssccssccssccssccssccssscccsssssssssssssssssssssssssssssssssssssssscccsscccsssssssssssssssssssssssssssssssssssssccsscccsssssccsssssssssssssssssccscccssssssssscccsssssssssssssssssssssscccssccssssssssssssssssssssssssssccssssssssccssssscccccsssscccsssccsssccsscccsssssssssssssssssssssssssssssssssssssssssssssssssccsssssssccsssccscccccsssssssc"
       inkscape:connector-curvature="0" />
  </g>
</svg>
